M48
; DRILL file {KiCad (5.1.4)-1} date 27/03/2020 20:42:11
; FORMAT={-:-/ absolute / inch / decimal}
; #@! TF.CreationDate,2020-03-27T20:42:11+00:00
; #@! TF.GenerationSoftware,Kicad,Pcbnew,(5.1.4)-1
FMAT,2
INCH
T1C0.0120
T2C0.0787
T3C0.1260
%
G90
G05
T1
X3.0Y-2.05
X3.0Y-2.075
X3.0Y-2.1
X3.0Y-2.125
X3.0Y-2.15
X3.0Y-2.175
X3.0Y-2.2
X3.0Y-4.8
X3.0Y-4.825
X3.0Y-4.85
X3.0Y-4.875
X3.0Y-4.9
X3.0Y-4.925
X3.0Y-4.95
X3.1Y-2.05
X3.1Y-2.075
X3.1Y-2.1
X3.1Y-2.125
X3.1Y-2.15
X3.1Y-2.175
X3.1Y-2.2
X3.1Y-4.8
X3.1Y-4.825
X3.1Y-4.85
X3.1Y-4.875
X3.1Y-4.9
X3.1Y-4.925
X3.1Y-4.95
T2
X3.25Y-3.15
X3.25Y-3.25
X3.25Y-3.35
X3.25Y-3.45
X3.25Y-3.55
X3.25Y-3.65
X3.25Y-3.75
X3.25Y-3.85
X3.35Y-3.15
X3.35Y-3.25
X3.35Y-3.35
X3.35Y-3.45
X3.35Y-3.55
X3.35Y-3.65
X3.35Y-3.75
X3.35Y-3.85
X3.45Y-3.15
X3.45Y-3.25
X3.45Y-3.35
X3.45Y-3.45
X3.45Y-3.55
X3.45Y-3.65
X3.45Y-3.75
X3.45Y-3.85
X3.55Y-3.15
X3.55Y-3.25
X3.55Y-3.35
X3.55Y-3.45
X3.55Y-3.55
X3.55Y-3.65
X3.55Y-3.75
X3.55Y-3.85
X3.65Y-3.15
X3.65Y-3.25
X3.65Y-3.35
X3.65Y-3.45
X3.65Y-3.55
X3.65Y-3.65
X3.65Y-3.75
X3.65Y-3.85
X3.75Y-3.15
X3.75Y-3.25
X3.75Y-3.35
X3.75Y-3.45
X3.75Y-3.55
X3.75Y-3.65
X3.75Y-3.75
X3.75Y-3.85
X3.85Y-3.15
X3.85Y-3.25
X3.85Y-3.35
X3.85Y-3.45
X3.85Y-3.55
X3.85Y-3.65
X3.85Y-3.75
X3.85Y-3.85
X3.95Y-3.15
X3.95Y-3.25
X3.95Y-3.35
X3.95Y-3.45
X3.95Y-3.55
X3.95Y-3.65
X3.95Y-3.75
X3.95Y-3.85
T3
G00X3.3469Y-1.1181
M15
G01X3.4469Y-1.1181
M16
G05
G00X3.3469Y-5.9409
M15
G01X3.4469Y-5.9409
M16
G05
G00X2.2469Y-5.9409
M15
G01X2.3469Y-5.9409
M16
G05
G00X2.2469Y-1.1181
M15
G01X2.3469Y-1.1181
M16
G05
T0
M30
