G04 #@! TF.GenerationSoftware,KiCad,Pcbnew,(5.1.4)-1*
G04 #@! TF.CreationDate,2020-03-27T20:42:02+00:00*
G04 #@! TF.ProjectId,wagyu_front,77616779-755f-4667-926f-6e742e6b6963,rev?*
G04 #@! TF.SameCoordinates,Original*
G04 #@! TF.FileFunction,Legend,Top*
G04 #@! TF.FilePolarity,Positive*
%FSLAX46Y46*%
G04 Gerber Fmt 4.6, Leading zero omitted, Abs format (unit mm)*
G04 Created by KiCad (PCBNEW (5.1.4)-1) date 2020-03-27 20:42:02*
%MOMM*%
%LPD*%
G04 APERTURE LIST*
%ADD10C,0.101600*%
%ADD11C,0.150000*%
G04 APERTURE END LIST*
D10*
X100771960Y-151106414D02*
X100953388Y-151614414D01*
X101134817Y-151106414D01*
X101570245Y-150852414D02*
X101642817Y-150852414D01*
X101715388Y-150888700D01*
X101751674Y-150924985D01*
X101787960Y-150997557D01*
X101824245Y-151142700D01*
X101824245Y-151324128D01*
X101787960Y-151469271D01*
X101751674Y-151541842D01*
X101715388Y-151578128D01*
X101642817Y-151614414D01*
X101570245Y-151614414D01*
X101497674Y-151578128D01*
X101461388Y-151541842D01*
X101425102Y-151469271D01*
X101388817Y-151324128D01*
X101388817Y-151142700D01*
X101425102Y-150997557D01*
X101461388Y-150924985D01*
X101497674Y-150888700D01*
X101570245Y-150852414D01*
X102150817Y-151541842D02*
X102187102Y-151578128D01*
X102150817Y-151614414D01*
X102114531Y-151578128D01*
X102150817Y-151541842D01*
X102150817Y-151614414D01*
X102912817Y-151614414D02*
X102477388Y-151614414D01*
X102695102Y-151614414D02*
X102695102Y-150852414D01*
X102622531Y-150961271D01*
X102549960Y-151033842D01*
X102477388Y-151070128D01*
X98848817Y-152859014D02*
X98848817Y-152351014D01*
X98848817Y-152423585D02*
X98885102Y-152387300D01*
X98957674Y-152351014D01*
X99066531Y-152351014D01*
X99139102Y-152387300D01*
X99175388Y-152459871D01*
X99175388Y-152859014D01*
X99175388Y-152459871D02*
X99211674Y-152387300D01*
X99284245Y-152351014D01*
X99393102Y-152351014D01*
X99465674Y-152387300D01*
X99501960Y-152459871D01*
X99501960Y-152859014D01*
X99864817Y-152859014D02*
X99864817Y-152351014D01*
X99864817Y-152423585D02*
X99901102Y-152387300D01*
X99973674Y-152351014D01*
X100082531Y-152351014D01*
X100155102Y-152387300D01*
X100191388Y-152459871D01*
X100191388Y-152859014D01*
X100191388Y-152459871D02*
X100227674Y-152387300D01*
X100300245Y-152351014D01*
X100409102Y-152351014D01*
X100481674Y-152387300D01*
X100517960Y-152459871D01*
X100517960Y-152859014D01*
X101207388Y-152859014D02*
X101207388Y-152459871D01*
X101171102Y-152387300D01*
X101098531Y-152351014D01*
X100953388Y-152351014D01*
X100880817Y-152387300D01*
X101207388Y-152822728D02*
X101134817Y-152859014D01*
X100953388Y-152859014D01*
X100880817Y-152822728D01*
X100844531Y-152750157D01*
X100844531Y-152677585D01*
X100880817Y-152605014D01*
X100953388Y-152568728D01*
X101134817Y-152568728D01*
X101207388Y-152532442D01*
X101679102Y-152859014D02*
X101606531Y-152822728D01*
X101570245Y-152750157D01*
X101570245Y-152097014D01*
X102259674Y-152822728D02*
X102187102Y-152859014D01*
X102041960Y-152859014D01*
X101969388Y-152822728D01*
X101933102Y-152750157D01*
X101933102Y-152459871D01*
X101969388Y-152387300D01*
X102041960Y-152351014D01*
X102187102Y-152351014D01*
X102259674Y-152387300D01*
X102295960Y-152459871D01*
X102295960Y-152532442D01*
X101933102Y-152605014D01*
X102549960Y-152859014D02*
X102949102Y-152351014D01*
X102549960Y-152351014D02*
X102949102Y-152859014D01*
D11*
X80573523Y-137771142D02*
X80525904Y-137818761D01*
X80383047Y-137866380D01*
X80287809Y-137866380D01*
X80144952Y-137818761D01*
X80049714Y-137723523D01*
X80002095Y-137628285D01*
X79954476Y-137437809D01*
X79954476Y-137294952D01*
X80002095Y-137104476D01*
X80049714Y-137009238D01*
X80144952Y-136914000D01*
X80287809Y-136866380D01*
X80383047Y-136866380D01*
X80525904Y-136914000D01*
X80573523Y-136961619D01*
X101717600Y-136993380D02*
X101864533Y-136993380D01*
X101938000Y-137041000D01*
X102011466Y-137136238D01*
X102048200Y-137326714D01*
X102048200Y-137660047D01*
X102011466Y-137850523D01*
X101938000Y-137945761D01*
X101864533Y-137993380D01*
X101717600Y-137993380D01*
X101644133Y-137945761D01*
X101570666Y-137850523D01*
X101533933Y-137660047D01*
X101533933Y-137326714D01*
X101570666Y-137136238D01*
X101644133Y-137041000D01*
X101717600Y-136993380D01*
X102378800Y-136993380D02*
X102378800Y-137802904D01*
X102415533Y-137898142D01*
X102452266Y-137945761D01*
X102525733Y-137993380D01*
X102672666Y-137993380D01*
X102746133Y-137945761D01*
X102782866Y-137898142D01*
X102819600Y-137802904D01*
X102819600Y-136993380D01*
X103076733Y-136993380D02*
X103517533Y-136993380D01*
X103297133Y-137993380D02*
X103297133Y-136993380D01*
X80335428Y-127944571D02*
X80478285Y-127992190D01*
X80525904Y-128039809D01*
X80573523Y-128135047D01*
X80573523Y-128277904D01*
X80525904Y-128373142D01*
X80478285Y-128420761D01*
X80383047Y-128468380D01*
X80002095Y-128468380D01*
X80002095Y-127468380D01*
X80335428Y-127468380D01*
X80430666Y-127516000D01*
X80478285Y-127563619D01*
X80525904Y-127658857D01*
X80525904Y-127754095D01*
X80478285Y-127849333D01*
X80430666Y-127896952D01*
X80335428Y-127944571D01*
X80002095Y-127944571D01*
X98821904Y-42076666D02*
X99298095Y-42076666D01*
X98726666Y-42362380D02*
X99060000Y-41362380D01*
X99393333Y-42362380D01*
X83891428Y-55808571D02*
X84034285Y-55856190D01*
X84081904Y-55903809D01*
X84129523Y-55999047D01*
X84129523Y-56141904D01*
X84081904Y-56237142D01*
X84034285Y-56284761D01*
X83939047Y-56332380D01*
X83558095Y-56332380D01*
X83558095Y-55332380D01*
X83891428Y-55332380D01*
X83986666Y-55380000D01*
X84034285Y-55427619D01*
X84081904Y-55522857D01*
X84081904Y-55618095D01*
X84034285Y-55713333D01*
X83986666Y-55760952D01*
X83891428Y-55808571D01*
X83558095Y-55808571D01*
X80025904Y-118530666D02*
X80502095Y-118530666D01*
X79930666Y-118816380D02*
X80264000Y-117816380D01*
X80597333Y-118816380D01*
X101838190Y-118816380D02*
X101838190Y-117816380D01*
X102314380Y-118816380D02*
X102314380Y-117816380D01*
X102885809Y-118816380D01*
X102885809Y-117816380D01*
X102798523Y-128468380D02*
X102322333Y-128468380D01*
X102322333Y-127468380D01*
X99369523Y-70207142D02*
X99321904Y-70254761D01*
X99179047Y-70302380D01*
X99083809Y-70302380D01*
X98940952Y-70254761D01*
X98845714Y-70159523D01*
X98798095Y-70064285D01*
X98750476Y-69873809D01*
X98750476Y-69730952D01*
X98798095Y-69540476D01*
X98845714Y-69445238D01*
X98940952Y-69350000D01*
X99083809Y-69302380D01*
X99179047Y-69302380D01*
X99321904Y-69350000D01*
X99369523Y-69397619D01*
X73777600Y-136993380D02*
X73924533Y-136993380D01*
X73998000Y-137041000D01*
X74071466Y-137136238D01*
X74108200Y-137326714D01*
X74108200Y-137660047D01*
X74071466Y-137850523D01*
X73998000Y-137945761D01*
X73924533Y-137993380D01*
X73777600Y-137993380D01*
X73704133Y-137945761D01*
X73630666Y-137850523D01*
X73593933Y-137660047D01*
X73593933Y-137326714D01*
X73630666Y-137136238D01*
X73704133Y-137041000D01*
X73777600Y-136993380D01*
X74438800Y-136993380D02*
X74438800Y-137802904D01*
X74475533Y-137898142D01*
X74512266Y-137945761D01*
X74585733Y-137993380D01*
X74732666Y-137993380D01*
X74806133Y-137945761D01*
X74842866Y-137898142D01*
X74879600Y-137802904D01*
X74879600Y-136993380D01*
X75136733Y-136993380D02*
X75577533Y-136993380D01*
X75357133Y-137993380D02*
X75357133Y-136993380D01*
X74858523Y-128468380D02*
X74382333Y-128468380D01*
X74382333Y-127468380D01*
X73898190Y-118816380D02*
X73898190Y-117816380D01*
X74374380Y-118816380D02*
X74374380Y-117816380D01*
X74945809Y-118816380D01*
X74945809Y-117816380D01*
X52633523Y-137771142D02*
X52585904Y-137818761D01*
X52443047Y-137866380D01*
X52347809Y-137866380D01*
X52204952Y-137818761D01*
X52109714Y-137723523D01*
X52062095Y-137628285D01*
X52014476Y-137437809D01*
X52014476Y-137294952D01*
X52062095Y-137104476D01*
X52109714Y-137009238D01*
X52204952Y-136914000D01*
X52347809Y-136866380D01*
X52443047Y-136866380D01*
X52585904Y-136914000D01*
X52633523Y-136961619D01*
X52395428Y-127944571D02*
X52538285Y-127992190D01*
X52585904Y-128039809D01*
X52633523Y-128135047D01*
X52633523Y-128277904D01*
X52585904Y-128373142D01*
X52538285Y-128420761D01*
X52443047Y-128468380D01*
X52062095Y-128468380D01*
X52062095Y-127468380D01*
X52395428Y-127468380D01*
X52490666Y-127516000D01*
X52538285Y-127563619D01*
X52585904Y-127658857D01*
X52585904Y-127754095D01*
X52538285Y-127849333D01*
X52490666Y-127896952D01*
X52395428Y-127944571D01*
X52062095Y-127944571D01*
X52085904Y-118530666D02*
X52562095Y-118530666D01*
X51990666Y-118816380D02*
X52324000Y-117816380D01*
X52657333Y-118816380D01*
X71429523Y-70207142D02*
X71381904Y-70254761D01*
X71239047Y-70302380D01*
X71143809Y-70302380D01*
X71000952Y-70254761D01*
X70905714Y-70159523D01*
X70858095Y-70064285D01*
X70810476Y-69873809D01*
X70810476Y-69730952D01*
X70858095Y-69540476D01*
X70905714Y-69445238D01*
X71000952Y-69350000D01*
X71143809Y-69302380D01*
X71239047Y-69302380D01*
X71381904Y-69350000D01*
X71429523Y-69397619D01*
X55951428Y-55808571D02*
X56094285Y-55856190D01*
X56141904Y-55903809D01*
X56189523Y-55999047D01*
X56189523Y-56141904D01*
X56141904Y-56237142D01*
X56094285Y-56284761D01*
X55999047Y-56332380D01*
X55618095Y-56332380D01*
X55618095Y-55332380D01*
X55951428Y-55332380D01*
X56046666Y-55380000D01*
X56094285Y-55427619D01*
X56141904Y-55522857D01*
X56141904Y-55618095D01*
X56094285Y-55713333D01*
X56046666Y-55760952D01*
X55951428Y-55808571D01*
X55618095Y-55808571D01*
X70881904Y-42076666D02*
X71358095Y-42076666D01*
X70786666Y-42362380D02*
X71120000Y-41362380D01*
X71453333Y-42362380D01*
D10*
X72831960Y-151106414D02*
X73013388Y-151614414D01*
X73194817Y-151106414D01*
X73630245Y-150852414D02*
X73702817Y-150852414D01*
X73775388Y-150888700D01*
X73811674Y-150924985D01*
X73847960Y-150997557D01*
X73884245Y-151142700D01*
X73884245Y-151324128D01*
X73847960Y-151469271D01*
X73811674Y-151541842D01*
X73775388Y-151578128D01*
X73702817Y-151614414D01*
X73630245Y-151614414D01*
X73557674Y-151578128D01*
X73521388Y-151541842D01*
X73485102Y-151469271D01*
X73448817Y-151324128D01*
X73448817Y-151142700D01*
X73485102Y-150997557D01*
X73521388Y-150924985D01*
X73557674Y-150888700D01*
X73630245Y-150852414D01*
X74210817Y-151541842D02*
X74247102Y-151578128D01*
X74210817Y-151614414D01*
X74174531Y-151578128D01*
X74210817Y-151541842D01*
X74210817Y-151614414D01*
X74972817Y-151614414D02*
X74537388Y-151614414D01*
X74755102Y-151614414D02*
X74755102Y-150852414D01*
X74682531Y-150961271D01*
X74609960Y-151033842D01*
X74537388Y-151070128D01*
X70908817Y-152859014D02*
X70908817Y-152351014D01*
X70908817Y-152423585D02*
X70945102Y-152387300D01*
X71017674Y-152351014D01*
X71126531Y-152351014D01*
X71199102Y-152387300D01*
X71235388Y-152459871D01*
X71235388Y-152859014D01*
X71235388Y-152459871D02*
X71271674Y-152387300D01*
X71344245Y-152351014D01*
X71453102Y-152351014D01*
X71525674Y-152387300D01*
X71561960Y-152459871D01*
X71561960Y-152859014D01*
X71924817Y-152859014D02*
X71924817Y-152351014D01*
X71924817Y-152423585D02*
X71961102Y-152387300D01*
X72033674Y-152351014D01*
X72142531Y-152351014D01*
X72215102Y-152387300D01*
X72251388Y-152459871D01*
X72251388Y-152859014D01*
X72251388Y-152459871D02*
X72287674Y-152387300D01*
X72360245Y-152351014D01*
X72469102Y-152351014D01*
X72541674Y-152387300D01*
X72577960Y-152459871D01*
X72577960Y-152859014D01*
X73267388Y-152859014D02*
X73267388Y-152459871D01*
X73231102Y-152387300D01*
X73158531Y-152351014D01*
X73013388Y-152351014D01*
X72940817Y-152387300D01*
X73267388Y-152822728D02*
X73194817Y-152859014D01*
X73013388Y-152859014D01*
X72940817Y-152822728D01*
X72904531Y-152750157D01*
X72904531Y-152677585D01*
X72940817Y-152605014D01*
X73013388Y-152568728D01*
X73194817Y-152568728D01*
X73267388Y-152532442D01*
X73739102Y-152859014D02*
X73666531Y-152822728D01*
X73630245Y-152750157D01*
X73630245Y-152097014D01*
X74319674Y-152822728D02*
X74247102Y-152859014D01*
X74101960Y-152859014D01*
X74029388Y-152822728D01*
X73993102Y-152750157D01*
X73993102Y-152459871D01*
X74029388Y-152387300D01*
X74101960Y-152351014D01*
X74247102Y-152351014D01*
X74319674Y-152387300D01*
X74355960Y-152459871D01*
X74355960Y-152532442D01*
X73993102Y-152605014D01*
X74609960Y-152859014D02*
X75009102Y-152351014D01*
X74609960Y-152351014D02*
X75009102Y-152859014D01*
D11*
X84946666Y-29352380D02*
X84613333Y-28876190D01*
X84375238Y-29352380D02*
X84375238Y-28352380D01*
X84756190Y-28352380D01*
X84851428Y-28400000D01*
X84899047Y-28447619D01*
X84946666Y-28542857D01*
X84946666Y-28685714D01*
X84899047Y-28780952D01*
X84851428Y-28828571D01*
X84756190Y-28876190D01*
X84375238Y-28876190D01*
X85375238Y-28828571D02*
X85708571Y-28828571D01*
X85851428Y-29352380D02*
X85375238Y-29352380D01*
X85375238Y-28352380D01*
X85851428Y-28352380D01*
X86613333Y-28828571D02*
X86280000Y-28828571D01*
X86280000Y-29352380D02*
X86280000Y-28352380D01*
X86756190Y-28352380D01*
X87280000Y-28352380D02*
X87280000Y-28590476D01*
X87041904Y-28495238D02*
X87280000Y-28590476D01*
X87518095Y-28495238D01*
X87137142Y-28780952D02*
X87280000Y-28590476D01*
X87422857Y-28780952D01*
X88041904Y-28352380D02*
X88041904Y-28590476D01*
X87803809Y-28495238D02*
X88041904Y-28590476D01*
X88280000Y-28495238D01*
X87899047Y-28780952D02*
X88041904Y-28590476D01*
X88184761Y-28780952D01*
X84946666Y-151852380D02*
X84613333Y-151376190D01*
X84375238Y-151852380D02*
X84375238Y-150852380D01*
X84756190Y-150852380D01*
X84851428Y-150900000D01*
X84899047Y-150947619D01*
X84946666Y-151042857D01*
X84946666Y-151185714D01*
X84899047Y-151280952D01*
X84851428Y-151328571D01*
X84756190Y-151376190D01*
X84375238Y-151376190D01*
X85375238Y-151328571D02*
X85708571Y-151328571D01*
X85851428Y-151852380D02*
X85375238Y-151852380D01*
X85375238Y-150852380D01*
X85851428Y-150852380D01*
X86613333Y-151328571D02*
X86280000Y-151328571D01*
X86280000Y-151852380D02*
X86280000Y-150852380D01*
X86756190Y-150852380D01*
X87280000Y-150852380D02*
X87280000Y-151090476D01*
X87041904Y-150995238D02*
X87280000Y-151090476D01*
X87518095Y-150995238D01*
X87137142Y-151280952D02*
X87280000Y-151090476D01*
X87422857Y-151280952D01*
X88041904Y-150852380D02*
X88041904Y-151090476D01*
X87803809Y-150995238D02*
X88041904Y-151090476D01*
X88280000Y-150995238D01*
X87899047Y-151280952D02*
X88041904Y-151090476D01*
X88184761Y-151280952D01*
X57006666Y-151852380D02*
X56673333Y-151376190D01*
X56435238Y-151852380D02*
X56435238Y-150852380D01*
X56816190Y-150852380D01*
X56911428Y-150900000D01*
X56959047Y-150947619D01*
X57006666Y-151042857D01*
X57006666Y-151185714D01*
X56959047Y-151280952D01*
X56911428Y-151328571D01*
X56816190Y-151376190D01*
X56435238Y-151376190D01*
X57435238Y-151328571D02*
X57768571Y-151328571D01*
X57911428Y-151852380D02*
X57435238Y-151852380D01*
X57435238Y-150852380D01*
X57911428Y-150852380D01*
X58673333Y-151328571D02*
X58340000Y-151328571D01*
X58340000Y-151852380D02*
X58340000Y-150852380D01*
X58816190Y-150852380D01*
X59340000Y-150852380D02*
X59340000Y-151090476D01*
X59101904Y-150995238D02*
X59340000Y-151090476D01*
X59578095Y-150995238D01*
X59197142Y-151280952D02*
X59340000Y-151090476D01*
X59482857Y-151280952D01*
X60101904Y-150852380D02*
X60101904Y-151090476D01*
X59863809Y-150995238D02*
X60101904Y-151090476D01*
X60340000Y-150995238D01*
X59959047Y-151280952D02*
X60101904Y-151090476D01*
X60244761Y-151280952D01*
X57006666Y-29352380D02*
X56673333Y-28876190D01*
X56435238Y-29352380D02*
X56435238Y-28352380D01*
X56816190Y-28352380D01*
X56911428Y-28400000D01*
X56959047Y-28447619D01*
X57006666Y-28542857D01*
X57006666Y-28685714D01*
X56959047Y-28780952D01*
X56911428Y-28828571D01*
X56816190Y-28876190D01*
X56435238Y-28876190D01*
X57435238Y-28828571D02*
X57768571Y-28828571D01*
X57911428Y-29352380D02*
X57435238Y-29352380D01*
X57435238Y-28352380D01*
X57911428Y-28352380D01*
X58673333Y-28828571D02*
X58340000Y-28828571D01*
X58340000Y-29352380D02*
X58340000Y-28352380D01*
X58816190Y-28352380D01*
X59340000Y-28352380D02*
X59340000Y-28590476D01*
X59101904Y-28495238D02*
X59340000Y-28590476D01*
X59578095Y-28495238D01*
X59197142Y-28780952D02*
X59340000Y-28590476D01*
X59482857Y-28780952D01*
X60101904Y-28352380D02*
X60101904Y-28590476D01*
X59863809Y-28495238D02*
X60101904Y-28590476D01*
X60340000Y-28495238D01*
X59959047Y-28780952D02*
X60101904Y-28590476D01*
X60244761Y-28780952D01*
M02*
