G04 #@! TF.GenerationSoftware,KiCad,Pcbnew,(5.1.4)-1*
G04 #@! TF.CreationDate,2020-03-27T20:42:02+00:00*
G04 #@! TF.ProjectId,wagyu_front,77616779-755f-4667-926f-6e742e6b6963,rev?*
G04 #@! TF.SameCoordinates,Original*
G04 #@! TF.FileFunction,Soldermask,Bot*
G04 #@! TF.FilePolarity,Negative*
%FSLAX46Y46*%
G04 Gerber Fmt 4.6, Leading zero omitted, Abs format (unit mm)*
G04 Created by KiCad (PCBNEW (5.1.4)-1) date 2020-03-27 20:42:02*
%MOMM*%
%LPD*%
G04 APERTURE LIST*
%ADD10C,0.100000*%
G04 APERTURE END LIST*
D10*
G36*
X104140000Y-153670000D02*
G01*
X53340000Y-153670000D01*
X53340000Y-25400000D01*
X104140000Y-25400000D01*
X104140000Y-153670000D01*
G37*
X104140000Y-153670000D02*
X53340000Y-153670000D01*
X53340000Y-25400000D01*
X104140000Y-25400000D01*
X104140000Y-153670000D01*
G36*
X87873651Y-149272888D02*
G01*
X88184870Y-149367296D01*
X88471680Y-149520599D01*
X88471683Y-149520601D01*
X88471684Y-149520602D01*
X88723082Y-149726918D01*
X88929398Y-149978316D01*
X88929401Y-149978320D01*
X89082704Y-150265130D01*
X89177112Y-150576349D01*
X89208988Y-150900000D01*
X89177112Y-151223651D01*
X89082704Y-151534870D01*
X88929401Y-151821680D01*
X88929399Y-151821683D01*
X88929398Y-151821684D01*
X88723082Y-152073082D01*
X88471684Y-152279398D01*
X88471680Y-152279401D01*
X88184870Y-152432704D01*
X87873651Y-152527112D01*
X87631107Y-152551000D01*
X84928893Y-152551000D01*
X84686349Y-152527112D01*
X84375130Y-152432704D01*
X84088320Y-152279401D01*
X84088316Y-152279398D01*
X83836918Y-152073082D01*
X83630602Y-151821684D01*
X83630601Y-151821683D01*
X83630599Y-151821680D01*
X83477296Y-151534870D01*
X83382888Y-151223651D01*
X83351012Y-150900000D01*
X83382888Y-150576349D01*
X83477296Y-150265130D01*
X83630599Y-149978320D01*
X83630602Y-149978316D01*
X83836918Y-149726918D01*
X84088316Y-149520602D01*
X84088317Y-149520601D01*
X84088320Y-149520599D01*
X84375130Y-149367296D01*
X84686349Y-149272888D01*
X84928893Y-149249000D01*
X87631107Y-149249000D01*
X87873651Y-149272888D01*
X87873651Y-149272888D01*
G37*
G36*
X59933651Y-149272888D02*
G01*
X60244870Y-149367296D01*
X60531680Y-149520599D01*
X60531683Y-149520601D01*
X60531684Y-149520602D01*
X60783082Y-149726918D01*
X60989398Y-149978316D01*
X60989401Y-149978320D01*
X61142704Y-150265130D01*
X61237112Y-150576349D01*
X61268988Y-150900000D01*
X61237112Y-151223651D01*
X61142704Y-151534870D01*
X60989401Y-151821680D01*
X60989399Y-151821683D01*
X60989398Y-151821684D01*
X60783082Y-152073082D01*
X60531684Y-152279398D01*
X60531680Y-152279401D01*
X60244870Y-152432704D01*
X59933651Y-152527112D01*
X59691107Y-152551000D01*
X56988893Y-152551000D01*
X56746349Y-152527112D01*
X56435130Y-152432704D01*
X56148320Y-152279401D01*
X56148316Y-152279398D01*
X55896918Y-152073082D01*
X55690602Y-151821684D01*
X55690601Y-151821683D01*
X55690599Y-151821680D01*
X55537296Y-151534870D01*
X55442888Y-151223651D01*
X55411012Y-150900000D01*
X55442888Y-150576349D01*
X55537296Y-150265130D01*
X55690599Y-149978320D01*
X55690602Y-149978316D01*
X55896918Y-149726918D01*
X56148316Y-149520602D01*
X56148317Y-149520601D01*
X56148320Y-149520599D01*
X56435130Y-149367296D01*
X56746349Y-149272888D01*
X56988893Y-149249000D01*
X59691107Y-149249000D01*
X59933651Y-149272888D01*
X59933651Y-149272888D01*
G37*
G36*
X100636564Y-96779389D02*
G01*
X100827833Y-96858615D01*
X100827835Y-96858616D01*
X100999973Y-96973635D01*
X101146365Y-97120027D01*
X101261385Y-97292167D01*
X101340611Y-97483436D01*
X101381000Y-97686484D01*
X101381000Y-97893516D01*
X101340611Y-98096564D01*
X101261385Y-98287833D01*
X101261384Y-98287835D01*
X101146365Y-98459973D01*
X100999973Y-98606365D01*
X100827835Y-98721384D01*
X100827834Y-98721385D01*
X100827833Y-98721385D01*
X100636564Y-98800611D01*
X100433516Y-98841000D01*
X100226484Y-98841000D01*
X100023436Y-98800611D01*
X99832167Y-98721385D01*
X99832166Y-98721385D01*
X99832165Y-98721384D01*
X99660027Y-98606365D01*
X99513635Y-98459973D01*
X99398616Y-98287835D01*
X99398615Y-98287833D01*
X99319389Y-98096564D01*
X99279000Y-97893516D01*
X99279000Y-97686484D01*
X99319389Y-97483436D01*
X99398615Y-97292167D01*
X99513635Y-97120027D01*
X99660027Y-96973635D01*
X99832165Y-96858616D01*
X99832167Y-96858615D01*
X100023436Y-96779389D01*
X100226484Y-96739000D01*
X100433516Y-96739000D01*
X100636564Y-96779389D01*
X100636564Y-96779389D01*
G37*
G36*
X82856564Y-96779389D02*
G01*
X83047833Y-96858615D01*
X83047835Y-96858616D01*
X83219973Y-96973635D01*
X83366365Y-97120027D01*
X83481385Y-97292167D01*
X83560611Y-97483436D01*
X83601000Y-97686484D01*
X83601000Y-97893516D01*
X83560611Y-98096564D01*
X83481385Y-98287833D01*
X83481384Y-98287835D01*
X83366365Y-98459973D01*
X83219973Y-98606365D01*
X83047835Y-98721384D01*
X83047834Y-98721385D01*
X83047833Y-98721385D01*
X82856564Y-98800611D01*
X82653516Y-98841000D01*
X82446484Y-98841000D01*
X82243436Y-98800611D01*
X82052167Y-98721385D01*
X82052166Y-98721385D01*
X82052165Y-98721384D01*
X81880027Y-98606365D01*
X81733635Y-98459973D01*
X81618616Y-98287835D01*
X81618615Y-98287833D01*
X81539389Y-98096564D01*
X81499000Y-97893516D01*
X81499000Y-97686484D01*
X81539389Y-97483436D01*
X81618615Y-97292167D01*
X81733635Y-97120027D01*
X81880027Y-96973635D01*
X82052165Y-96858616D01*
X82052167Y-96858615D01*
X82243436Y-96779389D01*
X82446484Y-96739000D01*
X82653516Y-96739000D01*
X82856564Y-96779389D01*
X82856564Y-96779389D01*
G37*
G36*
X85396564Y-96779389D02*
G01*
X85587833Y-96858615D01*
X85587835Y-96858616D01*
X85759973Y-96973635D01*
X85906365Y-97120027D01*
X86021385Y-97292167D01*
X86100611Y-97483436D01*
X86141000Y-97686484D01*
X86141000Y-97893516D01*
X86100611Y-98096564D01*
X86021385Y-98287833D01*
X86021384Y-98287835D01*
X85906365Y-98459973D01*
X85759973Y-98606365D01*
X85587835Y-98721384D01*
X85587834Y-98721385D01*
X85587833Y-98721385D01*
X85396564Y-98800611D01*
X85193516Y-98841000D01*
X84986484Y-98841000D01*
X84783436Y-98800611D01*
X84592167Y-98721385D01*
X84592166Y-98721385D01*
X84592165Y-98721384D01*
X84420027Y-98606365D01*
X84273635Y-98459973D01*
X84158616Y-98287835D01*
X84158615Y-98287833D01*
X84079389Y-98096564D01*
X84039000Y-97893516D01*
X84039000Y-97686484D01*
X84079389Y-97483436D01*
X84158615Y-97292167D01*
X84273635Y-97120027D01*
X84420027Y-96973635D01*
X84592165Y-96858616D01*
X84592167Y-96858615D01*
X84783436Y-96779389D01*
X84986484Y-96739000D01*
X85193516Y-96739000D01*
X85396564Y-96779389D01*
X85396564Y-96779389D01*
G37*
G36*
X87936564Y-96779389D02*
G01*
X88127833Y-96858615D01*
X88127835Y-96858616D01*
X88299973Y-96973635D01*
X88446365Y-97120027D01*
X88561385Y-97292167D01*
X88640611Y-97483436D01*
X88681000Y-97686484D01*
X88681000Y-97893516D01*
X88640611Y-98096564D01*
X88561385Y-98287833D01*
X88561384Y-98287835D01*
X88446365Y-98459973D01*
X88299973Y-98606365D01*
X88127835Y-98721384D01*
X88127834Y-98721385D01*
X88127833Y-98721385D01*
X87936564Y-98800611D01*
X87733516Y-98841000D01*
X87526484Y-98841000D01*
X87323436Y-98800611D01*
X87132167Y-98721385D01*
X87132166Y-98721385D01*
X87132165Y-98721384D01*
X86960027Y-98606365D01*
X86813635Y-98459973D01*
X86698616Y-98287835D01*
X86698615Y-98287833D01*
X86619389Y-98096564D01*
X86579000Y-97893516D01*
X86579000Y-97686484D01*
X86619389Y-97483436D01*
X86698615Y-97292167D01*
X86813635Y-97120027D01*
X86960027Y-96973635D01*
X87132165Y-96858616D01*
X87132167Y-96858615D01*
X87323436Y-96779389D01*
X87526484Y-96739000D01*
X87733516Y-96739000D01*
X87936564Y-96779389D01*
X87936564Y-96779389D01*
G37*
G36*
X90476564Y-96779389D02*
G01*
X90667833Y-96858615D01*
X90667835Y-96858616D01*
X90839973Y-96973635D01*
X90986365Y-97120027D01*
X91101385Y-97292167D01*
X91180611Y-97483436D01*
X91221000Y-97686484D01*
X91221000Y-97893516D01*
X91180611Y-98096564D01*
X91101385Y-98287833D01*
X91101384Y-98287835D01*
X90986365Y-98459973D01*
X90839973Y-98606365D01*
X90667835Y-98721384D01*
X90667834Y-98721385D01*
X90667833Y-98721385D01*
X90476564Y-98800611D01*
X90273516Y-98841000D01*
X90066484Y-98841000D01*
X89863436Y-98800611D01*
X89672167Y-98721385D01*
X89672166Y-98721385D01*
X89672165Y-98721384D01*
X89500027Y-98606365D01*
X89353635Y-98459973D01*
X89238616Y-98287835D01*
X89238615Y-98287833D01*
X89159389Y-98096564D01*
X89119000Y-97893516D01*
X89119000Y-97686484D01*
X89159389Y-97483436D01*
X89238615Y-97292167D01*
X89353635Y-97120027D01*
X89500027Y-96973635D01*
X89672165Y-96858616D01*
X89672167Y-96858615D01*
X89863436Y-96779389D01*
X90066484Y-96739000D01*
X90273516Y-96739000D01*
X90476564Y-96779389D01*
X90476564Y-96779389D01*
G37*
G36*
X93016564Y-96779389D02*
G01*
X93207833Y-96858615D01*
X93207835Y-96858616D01*
X93379973Y-96973635D01*
X93526365Y-97120027D01*
X93641385Y-97292167D01*
X93720611Y-97483436D01*
X93761000Y-97686484D01*
X93761000Y-97893516D01*
X93720611Y-98096564D01*
X93641385Y-98287833D01*
X93641384Y-98287835D01*
X93526365Y-98459973D01*
X93379973Y-98606365D01*
X93207835Y-98721384D01*
X93207834Y-98721385D01*
X93207833Y-98721385D01*
X93016564Y-98800611D01*
X92813516Y-98841000D01*
X92606484Y-98841000D01*
X92403436Y-98800611D01*
X92212167Y-98721385D01*
X92212166Y-98721385D01*
X92212165Y-98721384D01*
X92040027Y-98606365D01*
X91893635Y-98459973D01*
X91778616Y-98287835D01*
X91778615Y-98287833D01*
X91699389Y-98096564D01*
X91659000Y-97893516D01*
X91659000Y-97686484D01*
X91699389Y-97483436D01*
X91778615Y-97292167D01*
X91893635Y-97120027D01*
X92040027Y-96973635D01*
X92212165Y-96858616D01*
X92212167Y-96858615D01*
X92403436Y-96779389D01*
X92606484Y-96739000D01*
X92813516Y-96739000D01*
X93016564Y-96779389D01*
X93016564Y-96779389D01*
G37*
G36*
X95556564Y-96779389D02*
G01*
X95747833Y-96858615D01*
X95747835Y-96858616D01*
X95919973Y-96973635D01*
X96066365Y-97120027D01*
X96181385Y-97292167D01*
X96260611Y-97483436D01*
X96301000Y-97686484D01*
X96301000Y-97893516D01*
X96260611Y-98096564D01*
X96181385Y-98287833D01*
X96181384Y-98287835D01*
X96066365Y-98459973D01*
X95919973Y-98606365D01*
X95747835Y-98721384D01*
X95747834Y-98721385D01*
X95747833Y-98721385D01*
X95556564Y-98800611D01*
X95353516Y-98841000D01*
X95146484Y-98841000D01*
X94943436Y-98800611D01*
X94752167Y-98721385D01*
X94752166Y-98721385D01*
X94752165Y-98721384D01*
X94580027Y-98606365D01*
X94433635Y-98459973D01*
X94318616Y-98287835D01*
X94318615Y-98287833D01*
X94239389Y-98096564D01*
X94199000Y-97893516D01*
X94199000Y-97686484D01*
X94239389Y-97483436D01*
X94318615Y-97292167D01*
X94433635Y-97120027D01*
X94580027Y-96973635D01*
X94752165Y-96858616D01*
X94752167Y-96858615D01*
X94943436Y-96779389D01*
X95146484Y-96739000D01*
X95353516Y-96739000D01*
X95556564Y-96779389D01*
X95556564Y-96779389D01*
G37*
G36*
X98096564Y-96779389D02*
G01*
X98287833Y-96858615D01*
X98287835Y-96858616D01*
X98459973Y-96973635D01*
X98606365Y-97120027D01*
X98721385Y-97292167D01*
X98800611Y-97483436D01*
X98841000Y-97686484D01*
X98841000Y-97893516D01*
X98800611Y-98096564D01*
X98721385Y-98287833D01*
X98721384Y-98287835D01*
X98606365Y-98459973D01*
X98459973Y-98606365D01*
X98287835Y-98721384D01*
X98287834Y-98721385D01*
X98287833Y-98721385D01*
X98096564Y-98800611D01*
X97893516Y-98841000D01*
X97686484Y-98841000D01*
X97483436Y-98800611D01*
X97292167Y-98721385D01*
X97292166Y-98721385D01*
X97292165Y-98721384D01*
X97120027Y-98606365D01*
X96973635Y-98459973D01*
X96858616Y-98287835D01*
X96858615Y-98287833D01*
X96779389Y-98096564D01*
X96739000Y-97893516D01*
X96739000Y-97686484D01*
X96779389Y-97483436D01*
X96858615Y-97292167D01*
X96973635Y-97120027D01*
X97120027Y-96973635D01*
X97292165Y-96858616D01*
X97292167Y-96858615D01*
X97483436Y-96779389D01*
X97686484Y-96739000D01*
X97893516Y-96739000D01*
X98096564Y-96779389D01*
X98096564Y-96779389D01*
G37*
G36*
X93016564Y-94239389D02*
G01*
X93207833Y-94318615D01*
X93207835Y-94318616D01*
X93379973Y-94433635D01*
X93526365Y-94580027D01*
X93641385Y-94752167D01*
X93720611Y-94943436D01*
X93761000Y-95146484D01*
X93761000Y-95353516D01*
X93720611Y-95556564D01*
X93641385Y-95747833D01*
X93641384Y-95747835D01*
X93526365Y-95919973D01*
X93379973Y-96066365D01*
X93207835Y-96181384D01*
X93207834Y-96181385D01*
X93207833Y-96181385D01*
X93016564Y-96260611D01*
X92813516Y-96301000D01*
X92606484Y-96301000D01*
X92403436Y-96260611D01*
X92212167Y-96181385D01*
X92212166Y-96181385D01*
X92212165Y-96181384D01*
X92040027Y-96066365D01*
X91893635Y-95919973D01*
X91778616Y-95747835D01*
X91778615Y-95747833D01*
X91699389Y-95556564D01*
X91659000Y-95353516D01*
X91659000Y-95146484D01*
X91699389Y-94943436D01*
X91778615Y-94752167D01*
X91893635Y-94580027D01*
X92040027Y-94433635D01*
X92212165Y-94318616D01*
X92212167Y-94318615D01*
X92403436Y-94239389D01*
X92606484Y-94199000D01*
X92813516Y-94199000D01*
X93016564Y-94239389D01*
X93016564Y-94239389D01*
G37*
G36*
X82856564Y-94239389D02*
G01*
X83047833Y-94318615D01*
X83047835Y-94318616D01*
X83219973Y-94433635D01*
X83366365Y-94580027D01*
X83481385Y-94752167D01*
X83560611Y-94943436D01*
X83601000Y-95146484D01*
X83601000Y-95353516D01*
X83560611Y-95556564D01*
X83481385Y-95747833D01*
X83481384Y-95747835D01*
X83366365Y-95919973D01*
X83219973Y-96066365D01*
X83047835Y-96181384D01*
X83047834Y-96181385D01*
X83047833Y-96181385D01*
X82856564Y-96260611D01*
X82653516Y-96301000D01*
X82446484Y-96301000D01*
X82243436Y-96260611D01*
X82052167Y-96181385D01*
X82052166Y-96181385D01*
X82052165Y-96181384D01*
X81880027Y-96066365D01*
X81733635Y-95919973D01*
X81618616Y-95747835D01*
X81618615Y-95747833D01*
X81539389Y-95556564D01*
X81499000Y-95353516D01*
X81499000Y-95146484D01*
X81539389Y-94943436D01*
X81618615Y-94752167D01*
X81733635Y-94580027D01*
X81880027Y-94433635D01*
X82052165Y-94318616D01*
X82052167Y-94318615D01*
X82243436Y-94239389D01*
X82446484Y-94199000D01*
X82653516Y-94199000D01*
X82856564Y-94239389D01*
X82856564Y-94239389D01*
G37*
G36*
X85396564Y-94239389D02*
G01*
X85587833Y-94318615D01*
X85587835Y-94318616D01*
X85759973Y-94433635D01*
X85906365Y-94580027D01*
X86021385Y-94752167D01*
X86100611Y-94943436D01*
X86141000Y-95146484D01*
X86141000Y-95353516D01*
X86100611Y-95556564D01*
X86021385Y-95747833D01*
X86021384Y-95747835D01*
X85906365Y-95919973D01*
X85759973Y-96066365D01*
X85587835Y-96181384D01*
X85587834Y-96181385D01*
X85587833Y-96181385D01*
X85396564Y-96260611D01*
X85193516Y-96301000D01*
X84986484Y-96301000D01*
X84783436Y-96260611D01*
X84592167Y-96181385D01*
X84592166Y-96181385D01*
X84592165Y-96181384D01*
X84420027Y-96066365D01*
X84273635Y-95919973D01*
X84158616Y-95747835D01*
X84158615Y-95747833D01*
X84079389Y-95556564D01*
X84039000Y-95353516D01*
X84039000Y-95146484D01*
X84079389Y-94943436D01*
X84158615Y-94752167D01*
X84273635Y-94580027D01*
X84420027Y-94433635D01*
X84592165Y-94318616D01*
X84592167Y-94318615D01*
X84783436Y-94239389D01*
X84986484Y-94199000D01*
X85193516Y-94199000D01*
X85396564Y-94239389D01*
X85396564Y-94239389D01*
G37*
G36*
X87936564Y-94239389D02*
G01*
X88127833Y-94318615D01*
X88127835Y-94318616D01*
X88299973Y-94433635D01*
X88446365Y-94580027D01*
X88561385Y-94752167D01*
X88640611Y-94943436D01*
X88681000Y-95146484D01*
X88681000Y-95353516D01*
X88640611Y-95556564D01*
X88561385Y-95747833D01*
X88561384Y-95747835D01*
X88446365Y-95919973D01*
X88299973Y-96066365D01*
X88127835Y-96181384D01*
X88127834Y-96181385D01*
X88127833Y-96181385D01*
X87936564Y-96260611D01*
X87733516Y-96301000D01*
X87526484Y-96301000D01*
X87323436Y-96260611D01*
X87132167Y-96181385D01*
X87132166Y-96181385D01*
X87132165Y-96181384D01*
X86960027Y-96066365D01*
X86813635Y-95919973D01*
X86698616Y-95747835D01*
X86698615Y-95747833D01*
X86619389Y-95556564D01*
X86579000Y-95353516D01*
X86579000Y-95146484D01*
X86619389Y-94943436D01*
X86698615Y-94752167D01*
X86813635Y-94580027D01*
X86960027Y-94433635D01*
X87132165Y-94318616D01*
X87132167Y-94318615D01*
X87323436Y-94239389D01*
X87526484Y-94199000D01*
X87733516Y-94199000D01*
X87936564Y-94239389D01*
X87936564Y-94239389D01*
G37*
G36*
X90476564Y-94239389D02*
G01*
X90667833Y-94318615D01*
X90667835Y-94318616D01*
X90839973Y-94433635D01*
X90986365Y-94580027D01*
X91101385Y-94752167D01*
X91180611Y-94943436D01*
X91221000Y-95146484D01*
X91221000Y-95353516D01*
X91180611Y-95556564D01*
X91101385Y-95747833D01*
X91101384Y-95747835D01*
X90986365Y-95919973D01*
X90839973Y-96066365D01*
X90667835Y-96181384D01*
X90667834Y-96181385D01*
X90667833Y-96181385D01*
X90476564Y-96260611D01*
X90273516Y-96301000D01*
X90066484Y-96301000D01*
X89863436Y-96260611D01*
X89672167Y-96181385D01*
X89672166Y-96181385D01*
X89672165Y-96181384D01*
X89500027Y-96066365D01*
X89353635Y-95919973D01*
X89238616Y-95747835D01*
X89238615Y-95747833D01*
X89159389Y-95556564D01*
X89119000Y-95353516D01*
X89119000Y-95146484D01*
X89159389Y-94943436D01*
X89238615Y-94752167D01*
X89353635Y-94580027D01*
X89500027Y-94433635D01*
X89672165Y-94318616D01*
X89672167Y-94318615D01*
X89863436Y-94239389D01*
X90066484Y-94199000D01*
X90273516Y-94199000D01*
X90476564Y-94239389D01*
X90476564Y-94239389D01*
G37*
G36*
X95556564Y-94239389D02*
G01*
X95747833Y-94318615D01*
X95747835Y-94318616D01*
X95919973Y-94433635D01*
X96066365Y-94580027D01*
X96181385Y-94752167D01*
X96260611Y-94943436D01*
X96301000Y-95146484D01*
X96301000Y-95353516D01*
X96260611Y-95556564D01*
X96181385Y-95747833D01*
X96181384Y-95747835D01*
X96066365Y-95919973D01*
X95919973Y-96066365D01*
X95747835Y-96181384D01*
X95747834Y-96181385D01*
X95747833Y-96181385D01*
X95556564Y-96260611D01*
X95353516Y-96301000D01*
X95146484Y-96301000D01*
X94943436Y-96260611D01*
X94752167Y-96181385D01*
X94752166Y-96181385D01*
X94752165Y-96181384D01*
X94580027Y-96066365D01*
X94433635Y-95919973D01*
X94318616Y-95747835D01*
X94318615Y-95747833D01*
X94239389Y-95556564D01*
X94199000Y-95353516D01*
X94199000Y-95146484D01*
X94239389Y-94943436D01*
X94318615Y-94752167D01*
X94433635Y-94580027D01*
X94580027Y-94433635D01*
X94752165Y-94318616D01*
X94752167Y-94318615D01*
X94943436Y-94239389D01*
X95146484Y-94199000D01*
X95353516Y-94199000D01*
X95556564Y-94239389D01*
X95556564Y-94239389D01*
G37*
G36*
X100636564Y-94239389D02*
G01*
X100827833Y-94318615D01*
X100827835Y-94318616D01*
X100999973Y-94433635D01*
X101146365Y-94580027D01*
X101261385Y-94752167D01*
X101340611Y-94943436D01*
X101381000Y-95146484D01*
X101381000Y-95353516D01*
X101340611Y-95556564D01*
X101261385Y-95747833D01*
X101261384Y-95747835D01*
X101146365Y-95919973D01*
X100999973Y-96066365D01*
X100827835Y-96181384D01*
X100827834Y-96181385D01*
X100827833Y-96181385D01*
X100636564Y-96260611D01*
X100433516Y-96301000D01*
X100226484Y-96301000D01*
X100023436Y-96260611D01*
X99832167Y-96181385D01*
X99832166Y-96181385D01*
X99832165Y-96181384D01*
X99660027Y-96066365D01*
X99513635Y-95919973D01*
X99398616Y-95747835D01*
X99398615Y-95747833D01*
X99319389Y-95556564D01*
X99279000Y-95353516D01*
X99279000Y-95146484D01*
X99319389Y-94943436D01*
X99398615Y-94752167D01*
X99513635Y-94580027D01*
X99660027Y-94433635D01*
X99832165Y-94318616D01*
X99832167Y-94318615D01*
X100023436Y-94239389D01*
X100226484Y-94199000D01*
X100433516Y-94199000D01*
X100636564Y-94239389D01*
X100636564Y-94239389D01*
G37*
G36*
X98096564Y-94239389D02*
G01*
X98287833Y-94318615D01*
X98287835Y-94318616D01*
X98459973Y-94433635D01*
X98606365Y-94580027D01*
X98721385Y-94752167D01*
X98800611Y-94943436D01*
X98841000Y-95146484D01*
X98841000Y-95353516D01*
X98800611Y-95556564D01*
X98721385Y-95747833D01*
X98721384Y-95747835D01*
X98606365Y-95919973D01*
X98459973Y-96066365D01*
X98287835Y-96181384D01*
X98287834Y-96181385D01*
X98287833Y-96181385D01*
X98096564Y-96260611D01*
X97893516Y-96301000D01*
X97686484Y-96301000D01*
X97483436Y-96260611D01*
X97292167Y-96181385D01*
X97292166Y-96181385D01*
X97292165Y-96181384D01*
X97120027Y-96066365D01*
X96973635Y-95919973D01*
X96858616Y-95747835D01*
X96858615Y-95747833D01*
X96779389Y-95556564D01*
X96739000Y-95353516D01*
X96739000Y-95146484D01*
X96779389Y-94943436D01*
X96858615Y-94752167D01*
X96973635Y-94580027D01*
X97120027Y-94433635D01*
X97292165Y-94318616D01*
X97292167Y-94318615D01*
X97483436Y-94239389D01*
X97686484Y-94199000D01*
X97893516Y-94199000D01*
X98096564Y-94239389D01*
X98096564Y-94239389D01*
G37*
G36*
X82856564Y-91699389D02*
G01*
X83047833Y-91778615D01*
X83047835Y-91778616D01*
X83219973Y-91893635D01*
X83366365Y-92040027D01*
X83481385Y-92212167D01*
X83560611Y-92403436D01*
X83601000Y-92606484D01*
X83601000Y-92813516D01*
X83560611Y-93016564D01*
X83481385Y-93207833D01*
X83481384Y-93207835D01*
X83366365Y-93379973D01*
X83219973Y-93526365D01*
X83047835Y-93641384D01*
X83047834Y-93641385D01*
X83047833Y-93641385D01*
X82856564Y-93720611D01*
X82653516Y-93761000D01*
X82446484Y-93761000D01*
X82243436Y-93720611D01*
X82052167Y-93641385D01*
X82052166Y-93641385D01*
X82052165Y-93641384D01*
X81880027Y-93526365D01*
X81733635Y-93379973D01*
X81618616Y-93207835D01*
X81618615Y-93207833D01*
X81539389Y-93016564D01*
X81499000Y-92813516D01*
X81499000Y-92606484D01*
X81539389Y-92403436D01*
X81618615Y-92212167D01*
X81733635Y-92040027D01*
X81880027Y-91893635D01*
X82052165Y-91778616D01*
X82052167Y-91778615D01*
X82243436Y-91699389D01*
X82446484Y-91659000D01*
X82653516Y-91659000D01*
X82856564Y-91699389D01*
X82856564Y-91699389D01*
G37*
G36*
X100636564Y-91699389D02*
G01*
X100827833Y-91778615D01*
X100827835Y-91778616D01*
X100999973Y-91893635D01*
X101146365Y-92040027D01*
X101261385Y-92212167D01*
X101340611Y-92403436D01*
X101381000Y-92606484D01*
X101381000Y-92813516D01*
X101340611Y-93016564D01*
X101261385Y-93207833D01*
X101261384Y-93207835D01*
X101146365Y-93379973D01*
X100999973Y-93526365D01*
X100827835Y-93641384D01*
X100827834Y-93641385D01*
X100827833Y-93641385D01*
X100636564Y-93720611D01*
X100433516Y-93761000D01*
X100226484Y-93761000D01*
X100023436Y-93720611D01*
X99832167Y-93641385D01*
X99832166Y-93641385D01*
X99832165Y-93641384D01*
X99660027Y-93526365D01*
X99513635Y-93379973D01*
X99398616Y-93207835D01*
X99398615Y-93207833D01*
X99319389Y-93016564D01*
X99279000Y-92813516D01*
X99279000Y-92606484D01*
X99319389Y-92403436D01*
X99398615Y-92212167D01*
X99513635Y-92040027D01*
X99660027Y-91893635D01*
X99832165Y-91778616D01*
X99832167Y-91778615D01*
X100023436Y-91699389D01*
X100226484Y-91659000D01*
X100433516Y-91659000D01*
X100636564Y-91699389D01*
X100636564Y-91699389D01*
G37*
G36*
X95556564Y-91699389D02*
G01*
X95747833Y-91778615D01*
X95747835Y-91778616D01*
X95919973Y-91893635D01*
X96066365Y-92040027D01*
X96181385Y-92212167D01*
X96260611Y-92403436D01*
X96301000Y-92606484D01*
X96301000Y-92813516D01*
X96260611Y-93016564D01*
X96181385Y-93207833D01*
X96181384Y-93207835D01*
X96066365Y-93379973D01*
X95919973Y-93526365D01*
X95747835Y-93641384D01*
X95747834Y-93641385D01*
X95747833Y-93641385D01*
X95556564Y-93720611D01*
X95353516Y-93761000D01*
X95146484Y-93761000D01*
X94943436Y-93720611D01*
X94752167Y-93641385D01*
X94752166Y-93641385D01*
X94752165Y-93641384D01*
X94580027Y-93526365D01*
X94433635Y-93379973D01*
X94318616Y-93207835D01*
X94318615Y-93207833D01*
X94239389Y-93016564D01*
X94199000Y-92813516D01*
X94199000Y-92606484D01*
X94239389Y-92403436D01*
X94318615Y-92212167D01*
X94433635Y-92040027D01*
X94580027Y-91893635D01*
X94752165Y-91778616D01*
X94752167Y-91778615D01*
X94943436Y-91699389D01*
X95146484Y-91659000D01*
X95353516Y-91659000D01*
X95556564Y-91699389D01*
X95556564Y-91699389D01*
G37*
G36*
X93016564Y-91699389D02*
G01*
X93207833Y-91778615D01*
X93207835Y-91778616D01*
X93379973Y-91893635D01*
X93526365Y-92040027D01*
X93641385Y-92212167D01*
X93720611Y-92403436D01*
X93761000Y-92606484D01*
X93761000Y-92813516D01*
X93720611Y-93016564D01*
X93641385Y-93207833D01*
X93641384Y-93207835D01*
X93526365Y-93379973D01*
X93379973Y-93526365D01*
X93207835Y-93641384D01*
X93207834Y-93641385D01*
X93207833Y-93641385D01*
X93016564Y-93720611D01*
X92813516Y-93761000D01*
X92606484Y-93761000D01*
X92403436Y-93720611D01*
X92212167Y-93641385D01*
X92212166Y-93641385D01*
X92212165Y-93641384D01*
X92040027Y-93526365D01*
X91893635Y-93379973D01*
X91778616Y-93207835D01*
X91778615Y-93207833D01*
X91699389Y-93016564D01*
X91659000Y-92813516D01*
X91659000Y-92606484D01*
X91699389Y-92403436D01*
X91778615Y-92212167D01*
X91893635Y-92040027D01*
X92040027Y-91893635D01*
X92212165Y-91778616D01*
X92212167Y-91778615D01*
X92403436Y-91699389D01*
X92606484Y-91659000D01*
X92813516Y-91659000D01*
X93016564Y-91699389D01*
X93016564Y-91699389D01*
G37*
G36*
X90476564Y-91699389D02*
G01*
X90667833Y-91778615D01*
X90667835Y-91778616D01*
X90839973Y-91893635D01*
X90986365Y-92040027D01*
X91101385Y-92212167D01*
X91180611Y-92403436D01*
X91221000Y-92606484D01*
X91221000Y-92813516D01*
X91180611Y-93016564D01*
X91101385Y-93207833D01*
X91101384Y-93207835D01*
X90986365Y-93379973D01*
X90839973Y-93526365D01*
X90667835Y-93641384D01*
X90667834Y-93641385D01*
X90667833Y-93641385D01*
X90476564Y-93720611D01*
X90273516Y-93761000D01*
X90066484Y-93761000D01*
X89863436Y-93720611D01*
X89672167Y-93641385D01*
X89672166Y-93641385D01*
X89672165Y-93641384D01*
X89500027Y-93526365D01*
X89353635Y-93379973D01*
X89238616Y-93207835D01*
X89238615Y-93207833D01*
X89159389Y-93016564D01*
X89119000Y-92813516D01*
X89119000Y-92606484D01*
X89159389Y-92403436D01*
X89238615Y-92212167D01*
X89353635Y-92040027D01*
X89500027Y-91893635D01*
X89672165Y-91778616D01*
X89672167Y-91778615D01*
X89863436Y-91699389D01*
X90066484Y-91659000D01*
X90273516Y-91659000D01*
X90476564Y-91699389D01*
X90476564Y-91699389D01*
G37*
G36*
X87936564Y-91699389D02*
G01*
X88127833Y-91778615D01*
X88127835Y-91778616D01*
X88299973Y-91893635D01*
X88446365Y-92040027D01*
X88561385Y-92212167D01*
X88640611Y-92403436D01*
X88681000Y-92606484D01*
X88681000Y-92813516D01*
X88640611Y-93016564D01*
X88561385Y-93207833D01*
X88561384Y-93207835D01*
X88446365Y-93379973D01*
X88299973Y-93526365D01*
X88127835Y-93641384D01*
X88127834Y-93641385D01*
X88127833Y-93641385D01*
X87936564Y-93720611D01*
X87733516Y-93761000D01*
X87526484Y-93761000D01*
X87323436Y-93720611D01*
X87132167Y-93641385D01*
X87132166Y-93641385D01*
X87132165Y-93641384D01*
X86960027Y-93526365D01*
X86813635Y-93379973D01*
X86698616Y-93207835D01*
X86698615Y-93207833D01*
X86619389Y-93016564D01*
X86579000Y-92813516D01*
X86579000Y-92606484D01*
X86619389Y-92403436D01*
X86698615Y-92212167D01*
X86813635Y-92040027D01*
X86960027Y-91893635D01*
X87132165Y-91778616D01*
X87132167Y-91778615D01*
X87323436Y-91699389D01*
X87526484Y-91659000D01*
X87733516Y-91659000D01*
X87936564Y-91699389D01*
X87936564Y-91699389D01*
G37*
G36*
X85396564Y-91699389D02*
G01*
X85587833Y-91778615D01*
X85587835Y-91778616D01*
X85759973Y-91893635D01*
X85906365Y-92040027D01*
X86021385Y-92212167D01*
X86100611Y-92403436D01*
X86141000Y-92606484D01*
X86141000Y-92813516D01*
X86100611Y-93016564D01*
X86021385Y-93207833D01*
X86021384Y-93207835D01*
X85906365Y-93379973D01*
X85759973Y-93526365D01*
X85587835Y-93641384D01*
X85587834Y-93641385D01*
X85587833Y-93641385D01*
X85396564Y-93720611D01*
X85193516Y-93761000D01*
X84986484Y-93761000D01*
X84783436Y-93720611D01*
X84592167Y-93641385D01*
X84592166Y-93641385D01*
X84592165Y-93641384D01*
X84420027Y-93526365D01*
X84273635Y-93379973D01*
X84158616Y-93207835D01*
X84158615Y-93207833D01*
X84079389Y-93016564D01*
X84039000Y-92813516D01*
X84039000Y-92606484D01*
X84079389Y-92403436D01*
X84158615Y-92212167D01*
X84273635Y-92040027D01*
X84420027Y-91893635D01*
X84592165Y-91778616D01*
X84592167Y-91778615D01*
X84783436Y-91699389D01*
X84986484Y-91659000D01*
X85193516Y-91659000D01*
X85396564Y-91699389D01*
X85396564Y-91699389D01*
G37*
G36*
X98096564Y-91699389D02*
G01*
X98287833Y-91778615D01*
X98287835Y-91778616D01*
X98459973Y-91893635D01*
X98606365Y-92040027D01*
X98721385Y-92212167D01*
X98800611Y-92403436D01*
X98841000Y-92606484D01*
X98841000Y-92813516D01*
X98800611Y-93016564D01*
X98721385Y-93207833D01*
X98721384Y-93207835D01*
X98606365Y-93379973D01*
X98459973Y-93526365D01*
X98287835Y-93641384D01*
X98287834Y-93641385D01*
X98287833Y-93641385D01*
X98096564Y-93720611D01*
X97893516Y-93761000D01*
X97686484Y-93761000D01*
X97483436Y-93720611D01*
X97292167Y-93641385D01*
X97292166Y-93641385D01*
X97292165Y-93641384D01*
X97120027Y-93526365D01*
X96973635Y-93379973D01*
X96858616Y-93207835D01*
X96858615Y-93207833D01*
X96779389Y-93016564D01*
X96739000Y-92813516D01*
X96739000Y-92606484D01*
X96779389Y-92403436D01*
X96858615Y-92212167D01*
X96973635Y-92040027D01*
X97120027Y-91893635D01*
X97292165Y-91778616D01*
X97292167Y-91778615D01*
X97483436Y-91699389D01*
X97686484Y-91659000D01*
X97893516Y-91659000D01*
X98096564Y-91699389D01*
X98096564Y-91699389D01*
G37*
G36*
X93016564Y-89159389D02*
G01*
X93207833Y-89238615D01*
X93207835Y-89238616D01*
X93379973Y-89353635D01*
X93526365Y-89500027D01*
X93641385Y-89672167D01*
X93720611Y-89863436D01*
X93761000Y-90066484D01*
X93761000Y-90273516D01*
X93720611Y-90476564D01*
X93641385Y-90667833D01*
X93641384Y-90667835D01*
X93526365Y-90839973D01*
X93379973Y-90986365D01*
X93207835Y-91101384D01*
X93207834Y-91101385D01*
X93207833Y-91101385D01*
X93016564Y-91180611D01*
X92813516Y-91221000D01*
X92606484Y-91221000D01*
X92403436Y-91180611D01*
X92212167Y-91101385D01*
X92212166Y-91101385D01*
X92212165Y-91101384D01*
X92040027Y-90986365D01*
X91893635Y-90839973D01*
X91778616Y-90667835D01*
X91778615Y-90667833D01*
X91699389Y-90476564D01*
X91659000Y-90273516D01*
X91659000Y-90066484D01*
X91699389Y-89863436D01*
X91778615Y-89672167D01*
X91893635Y-89500027D01*
X92040027Y-89353635D01*
X92212165Y-89238616D01*
X92212167Y-89238615D01*
X92403436Y-89159389D01*
X92606484Y-89119000D01*
X92813516Y-89119000D01*
X93016564Y-89159389D01*
X93016564Y-89159389D01*
G37*
G36*
X90476564Y-89159389D02*
G01*
X90667833Y-89238615D01*
X90667835Y-89238616D01*
X90839973Y-89353635D01*
X90986365Y-89500027D01*
X91101385Y-89672167D01*
X91180611Y-89863436D01*
X91221000Y-90066484D01*
X91221000Y-90273516D01*
X91180611Y-90476564D01*
X91101385Y-90667833D01*
X91101384Y-90667835D01*
X90986365Y-90839973D01*
X90839973Y-90986365D01*
X90667835Y-91101384D01*
X90667834Y-91101385D01*
X90667833Y-91101385D01*
X90476564Y-91180611D01*
X90273516Y-91221000D01*
X90066484Y-91221000D01*
X89863436Y-91180611D01*
X89672167Y-91101385D01*
X89672166Y-91101385D01*
X89672165Y-91101384D01*
X89500027Y-90986365D01*
X89353635Y-90839973D01*
X89238616Y-90667835D01*
X89238615Y-90667833D01*
X89159389Y-90476564D01*
X89119000Y-90273516D01*
X89119000Y-90066484D01*
X89159389Y-89863436D01*
X89238615Y-89672167D01*
X89353635Y-89500027D01*
X89500027Y-89353635D01*
X89672165Y-89238616D01*
X89672167Y-89238615D01*
X89863436Y-89159389D01*
X90066484Y-89119000D01*
X90273516Y-89119000D01*
X90476564Y-89159389D01*
X90476564Y-89159389D01*
G37*
G36*
X95556564Y-89159389D02*
G01*
X95747833Y-89238615D01*
X95747835Y-89238616D01*
X95919973Y-89353635D01*
X96066365Y-89500027D01*
X96181385Y-89672167D01*
X96260611Y-89863436D01*
X96301000Y-90066484D01*
X96301000Y-90273516D01*
X96260611Y-90476564D01*
X96181385Y-90667833D01*
X96181384Y-90667835D01*
X96066365Y-90839973D01*
X95919973Y-90986365D01*
X95747835Y-91101384D01*
X95747834Y-91101385D01*
X95747833Y-91101385D01*
X95556564Y-91180611D01*
X95353516Y-91221000D01*
X95146484Y-91221000D01*
X94943436Y-91180611D01*
X94752167Y-91101385D01*
X94752166Y-91101385D01*
X94752165Y-91101384D01*
X94580027Y-90986365D01*
X94433635Y-90839973D01*
X94318616Y-90667835D01*
X94318615Y-90667833D01*
X94239389Y-90476564D01*
X94199000Y-90273516D01*
X94199000Y-90066484D01*
X94239389Y-89863436D01*
X94318615Y-89672167D01*
X94433635Y-89500027D01*
X94580027Y-89353635D01*
X94752165Y-89238616D01*
X94752167Y-89238615D01*
X94943436Y-89159389D01*
X95146484Y-89119000D01*
X95353516Y-89119000D01*
X95556564Y-89159389D01*
X95556564Y-89159389D01*
G37*
G36*
X98096564Y-89159389D02*
G01*
X98287833Y-89238615D01*
X98287835Y-89238616D01*
X98459973Y-89353635D01*
X98606365Y-89500027D01*
X98721385Y-89672167D01*
X98800611Y-89863436D01*
X98841000Y-90066484D01*
X98841000Y-90273516D01*
X98800611Y-90476564D01*
X98721385Y-90667833D01*
X98721384Y-90667835D01*
X98606365Y-90839973D01*
X98459973Y-90986365D01*
X98287835Y-91101384D01*
X98287834Y-91101385D01*
X98287833Y-91101385D01*
X98096564Y-91180611D01*
X97893516Y-91221000D01*
X97686484Y-91221000D01*
X97483436Y-91180611D01*
X97292167Y-91101385D01*
X97292166Y-91101385D01*
X97292165Y-91101384D01*
X97120027Y-90986365D01*
X96973635Y-90839973D01*
X96858616Y-90667835D01*
X96858615Y-90667833D01*
X96779389Y-90476564D01*
X96739000Y-90273516D01*
X96739000Y-90066484D01*
X96779389Y-89863436D01*
X96858615Y-89672167D01*
X96973635Y-89500027D01*
X97120027Y-89353635D01*
X97292165Y-89238616D01*
X97292167Y-89238615D01*
X97483436Y-89159389D01*
X97686484Y-89119000D01*
X97893516Y-89119000D01*
X98096564Y-89159389D01*
X98096564Y-89159389D01*
G37*
G36*
X100636564Y-89159389D02*
G01*
X100827833Y-89238615D01*
X100827835Y-89238616D01*
X100999973Y-89353635D01*
X101146365Y-89500027D01*
X101261385Y-89672167D01*
X101340611Y-89863436D01*
X101381000Y-90066484D01*
X101381000Y-90273516D01*
X101340611Y-90476564D01*
X101261385Y-90667833D01*
X101261384Y-90667835D01*
X101146365Y-90839973D01*
X100999973Y-90986365D01*
X100827835Y-91101384D01*
X100827834Y-91101385D01*
X100827833Y-91101385D01*
X100636564Y-91180611D01*
X100433516Y-91221000D01*
X100226484Y-91221000D01*
X100023436Y-91180611D01*
X99832167Y-91101385D01*
X99832166Y-91101385D01*
X99832165Y-91101384D01*
X99660027Y-90986365D01*
X99513635Y-90839973D01*
X99398616Y-90667835D01*
X99398615Y-90667833D01*
X99319389Y-90476564D01*
X99279000Y-90273516D01*
X99279000Y-90066484D01*
X99319389Y-89863436D01*
X99398615Y-89672167D01*
X99513635Y-89500027D01*
X99660027Y-89353635D01*
X99832165Y-89238616D01*
X99832167Y-89238615D01*
X100023436Y-89159389D01*
X100226484Y-89119000D01*
X100433516Y-89119000D01*
X100636564Y-89159389D01*
X100636564Y-89159389D01*
G37*
G36*
X82856564Y-89159389D02*
G01*
X83047833Y-89238615D01*
X83047835Y-89238616D01*
X83219973Y-89353635D01*
X83366365Y-89500027D01*
X83481385Y-89672167D01*
X83560611Y-89863436D01*
X83601000Y-90066484D01*
X83601000Y-90273516D01*
X83560611Y-90476564D01*
X83481385Y-90667833D01*
X83481384Y-90667835D01*
X83366365Y-90839973D01*
X83219973Y-90986365D01*
X83047835Y-91101384D01*
X83047834Y-91101385D01*
X83047833Y-91101385D01*
X82856564Y-91180611D01*
X82653516Y-91221000D01*
X82446484Y-91221000D01*
X82243436Y-91180611D01*
X82052167Y-91101385D01*
X82052166Y-91101385D01*
X82052165Y-91101384D01*
X81880027Y-90986365D01*
X81733635Y-90839973D01*
X81618616Y-90667835D01*
X81618615Y-90667833D01*
X81539389Y-90476564D01*
X81499000Y-90273516D01*
X81499000Y-90066484D01*
X81539389Y-89863436D01*
X81618615Y-89672167D01*
X81733635Y-89500027D01*
X81880027Y-89353635D01*
X82052165Y-89238616D01*
X82052167Y-89238615D01*
X82243436Y-89159389D01*
X82446484Y-89119000D01*
X82653516Y-89119000D01*
X82856564Y-89159389D01*
X82856564Y-89159389D01*
G37*
G36*
X85396564Y-89159389D02*
G01*
X85587833Y-89238615D01*
X85587835Y-89238616D01*
X85759973Y-89353635D01*
X85906365Y-89500027D01*
X86021385Y-89672167D01*
X86100611Y-89863436D01*
X86141000Y-90066484D01*
X86141000Y-90273516D01*
X86100611Y-90476564D01*
X86021385Y-90667833D01*
X86021384Y-90667835D01*
X85906365Y-90839973D01*
X85759973Y-90986365D01*
X85587835Y-91101384D01*
X85587834Y-91101385D01*
X85587833Y-91101385D01*
X85396564Y-91180611D01*
X85193516Y-91221000D01*
X84986484Y-91221000D01*
X84783436Y-91180611D01*
X84592167Y-91101385D01*
X84592166Y-91101385D01*
X84592165Y-91101384D01*
X84420027Y-90986365D01*
X84273635Y-90839973D01*
X84158616Y-90667835D01*
X84158615Y-90667833D01*
X84079389Y-90476564D01*
X84039000Y-90273516D01*
X84039000Y-90066484D01*
X84079389Y-89863436D01*
X84158615Y-89672167D01*
X84273635Y-89500027D01*
X84420027Y-89353635D01*
X84592165Y-89238616D01*
X84592167Y-89238615D01*
X84783436Y-89159389D01*
X84986484Y-89119000D01*
X85193516Y-89119000D01*
X85396564Y-89159389D01*
X85396564Y-89159389D01*
G37*
G36*
X87936564Y-89159389D02*
G01*
X88127833Y-89238615D01*
X88127835Y-89238616D01*
X88299973Y-89353635D01*
X88446365Y-89500027D01*
X88561385Y-89672167D01*
X88640611Y-89863436D01*
X88681000Y-90066484D01*
X88681000Y-90273516D01*
X88640611Y-90476564D01*
X88561385Y-90667833D01*
X88561384Y-90667835D01*
X88446365Y-90839973D01*
X88299973Y-90986365D01*
X88127835Y-91101384D01*
X88127834Y-91101385D01*
X88127833Y-91101385D01*
X87936564Y-91180611D01*
X87733516Y-91221000D01*
X87526484Y-91221000D01*
X87323436Y-91180611D01*
X87132167Y-91101385D01*
X87132166Y-91101385D01*
X87132165Y-91101384D01*
X86960027Y-90986365D01*
X86813635Y-90839973D01*
X86698616Y-90667835D01*
X86698615Y-90667833D01*
X86619389Y-90476564D01*
X86579000Y-90273516D01*
X86579000Y-90066484D01*
X86619389Y-89863436D01*
X86698615Y-89672167D01*
X86813635Y-89500027D01*
X86960027Y-89353635D01*
X87132165Y-89238616D01*
X87132167Y-89238615D01*
X87323436Y-89159389D01*
X87526484Y-89119000D01*
X87733516Y-89119000D01*
X87936564Y-89159389D01*
X87936564Y-89159389D01*
G37*
G36*
X82856564Y-86619389D02*
G01*
X83047833Y-86698615D01*
X83047835Y-86698616D01*
X83219973Y-86813635D01*
X83366365Y-86960027D01*
X83481385Y-87132167D01*
X83560611Y-87323436D01*
X83601000Y-87526484D01*
X83601000Y-87733516D01*
X83560611Y-87936564D01*
X83481385Y-88127833D01*
X83481384Y-88127835D01*
X83366365Y-88299973D01*
X83219973Y-88446365D01*
X83047835Y-88561384D01*
X83047834Y-88561385D01*
X83047833Y-88561385D01*
X82856564Y-88640611D01*
X82653516Y-88681000D01*
X82446484Y-88681000D01*
X82243436Y-88640611D01*
X82052167Y-88561385D01*
X82052166Y-88561385D01*
X82052165Y-88561384D01*
X81880027Y-88446365D01*
X81733635Y-88299973D01*
X81618616Y-88127835D01*
X81618615Y-88127833D01*
X81539389Y-87936564D01*
X81499000Y-87733516D01*
X81499000Y-87526484D01*
X81539389Y-87323436D01*
X81618615Y-87132167D01*
X81733635Y-86960027D01*
X81880027Y-86813635D01*
X82052165Y-86698616D01*
X82052167Y-86698615D01*
X82243436Y-86619389D01*
X82446484Y-86579000D01*
X82653516Y-86579000D01*
X82856564Y-86619389D01*
X82856564Y-86619389D01*
G37*
G36*
X98096564Y-86619389D02*
G01*
X98287833Y-86698615D01*
X98287835Y-86698616D01*
X98459973Y-86813635D01*
X98606365Y-86960027D01*
X98721385Y-87132167D01*
X98800611Y-87323436D01*
X98841000Y-87526484D01*
X98841000Y-87733516D01*
X98800611Y-87936564D01*
X98721385Y-88127833D01*
X98721384Y-88127835D01*
X98606365Y-88299973D01*
X98459973Y-88446365D01*
X98287835Y-88561384D01*
X98287834Y-88561385D01*
X98287833Y-88561385D01*
X98096564Y-88640611D01*
X97893516Y-88681000D01*
X97686484Y-88681000D01*
X97483436Y-88640611D01*
X97292167Y-88561385D01*
X97292166Y-88561385D01*
X97292165Y-88561384D01*
X97120027Y-88446365D01*
X96973635Y-88299973D01*
X96858616Y-88127835D01*
X96858615Y-88127833D01*
X96779389Y-87936564D01*
X96739000Y-87733516D01*
X96739000Y-87526484D01*
X96779389Y-87323436D01*
X96858615Y-87132167D01*
X96973635Y-86960027D01*
X97120027Y-86813635D01*
X97292165Y-86698616D01*
X97292167Y-86698615D01*
X97483436Y-86619389D01*
X97686484Y-86579000D01*
X97893516Y-86579000D01*
X98096564Y-86619389D01*
X98096564Y-86619389D01*
G37*
G36*
X95556564Y-86619389D02*
G01*
X95747833Y-86698615D01*
X95747835Y-86698616D01*
X95919973Y-86813635D01*
X96066365Y-86960027D01*
X96181385Y-87132167D01*
X96260611Y-87323436D01*
X96301000Y-87526484D01*
X96301000Y-87733516D01*
X96260611Y-87936564D01*
X96181385Y-88127833D01*
X96181384Y-88127835D01*
X96066365Y-88299973D01*
X95919973Y-88446365D01*
X95747835Y-88561384D01*
X95747834Y-88561385D01*
X95747833Y-88561385D01*
X95556564Y-88640611D01*
X95353516Y-88681000D01*
X95146484Y-88681000D01*
X94943436Y-88640611D01*
X94752167Y-88561385D01*
X94752166Y-88561385D01*
X94752165Y-88561384D01*
X94580027Y-88446365D01*
X94433635Y-88299973D01*
X94318616Y-88127835D01*
X94318615Y-88127833D01*
X94239389Y-87936564D01*
X94199000Y-87733516D01*
X94199000Y-87526484D01*
X94239389Y-87323436D01*
X94318615Y-87132167D01*
X94433635Y-86960027D01*
X94580027Y-86813635D01*
X94752165Y-86698616D01*
X94752167Y-86698615D01*
X94943436Y-86619389D01*
X95146484Y-86579000D01*
X95353516Y-86579000D01*
X95556564Y-86619389D01*
X95556564Y-86619389D01*
G37*
G36*
X93016564Y-86619389D02*
G01*
X93207833Y-86698615D01*
X93207835Y-86698616D01*
X93379973Y-86813635D01*
X93526365Y-86960027D01*
X93641385Y-87132167D01*
X93720611Y-87323436D01*
X93761000Y-87526484D01*
X93761000Y-87733516D01*
X93720611Y-87936564D01*
X93641385Y-88127833D01*
X93641384Y-88127835D01*
X93526365Y-88299973D01*
X93379973Y-88446365D01*
X93207835Y-88561384D01*
X93207834Y-88561385D01*
X93207833Y-88561385D01*
X93016564Y-88640611D01*
X92813516Y-88681000D01*
X92606484Y-88681000D01*
X92403436Y-88640611D01*
X92212167Y-88561385D01*
X92212166Y-88561385D01*
X92212165Y-88561384D01*
X92040027Y-88446365D01*
X91893635Y-88299973D01*
X91778616Y-88127835D01*
X91778615Y-88127833D01*
X91699389Y-87936564D01*
X91659000Y-87733516D01*
X91659000Y-87526484D01*
X91699389Y-87323436D01*
X91778615Y-87132167D01*
X91893635Y-86960027D01*
X92040027Y-86813635D01*
X92212165Y-86698616D01*
X92212167Y-86698615D01*
X92403436Y-86619389D01*
X92606484Y-86579000D01*
X92813516Y-86579000D01*
X93016564Y-86619389D01*
X93016564Y-86619389D01*
G37*
G36*
X87936564Y-86619389D02*
G01*
X88127833Y-86698615D01*
X88127835Y-86698616D01*
X88299973Y-86813635D01*
X88446365Y-86960027D01*
X88561385Y-87132167D01*
X88640611Y-87323436D01*
X88681000Y-87526484D01*
X88681000Y-87733516D01*
X88640611Y-87936564D01*
X88561385Y-88127833D01*
X88561384Y-88127835D01*
X88446365Y-88299973D01*
X88299973Y-88446365D01*
X88127835Y-88561384D01*
X88127834Y-88561385D01*
X88127833Y-88561385D01*
X87936564Y-88640611D01*
X87733516Y-88681000D01*
X87526484Y-88681000D01*
X87323436Y-88640611D01*
X87132167Y-88561385D01*
X87132166Y-88561385D01*
X87132165Y-88561384D01*
X86960027Y-88446365D01*
X86813635Y-88299973D01*
X86698616Y-88127835D01*
X86698615Y-88127833D01*
X86619389Y-87936564D01*
X86579000Y-87733516D01*
X86579000Y-87526484D01*
X86619389Y-87323436D01*
X86698615Y-87132167D01*
X86813635Y-86960027D01*
X86960027Y-86813635D01*
X87132165Y-86698616D01*
X87132167Y-86698615D01*
X87323436Y-86619389D01*
X87526484Y-86579000D01*
X87733516Y-86579000D01*
X87936564Y-86619389D01*
X87936564Y-86619389D01*
G37*
G36*
X85396564Y-86619389D02*
G01*
X85587833Y-86698615D01*
X85587835Y-86698616D01*
X85759973Y-86813635D01*
X85906365Y-86960027D01*
X86021385Y-87132167D01*
X86100611Y-87323436D01*
X86141000Y-87526484D01*
X86141000Y-87733516D01*
X86100611Y-87936564D01*
X86021385Y-88127833D01*
X86021384Y-88127835D01*
X85906365Y-88299973D01*
X85759973Y-88446365D01*
X85587835Y-88561384D01*
X85587834Y-88561385D01*
X85587833Y-88561385D01*
X85396564Y-88640611D01*
X85193516Y-88681000D01*
X84986484Y-88681000D01*
X84783436Y-88640611D01*
X84592167Y-88561385D01*
X84592166Y-88561385D01*
X84592165Y-88561384D01*
X84420027Y-88446365D01*
X84273635Y-88299973D01*
X84158616Y-88127835D01*
X84158615Y-88127833D01*
X84079389Y-87936564D01*
X84039000Y-87733516D01*
X84039000Y-87526484D01*
X84079389Y-87323436D01*
X84158615Y-87132167D01*
X84273635Y-86960027D01*
X84420027Y-86813635D01*
X84592165Y-86698616D01*
X84592167Y-86698615D01*
X84783436Y-86619389D01*
X84986484Y-86579000D01*
X85193516Y-86579000D01*
X85396564Y-86619389D01*
X85396564Y-86619389D01*
G37*
G36*
X100636564Y-86619389D02*
G01*
X100827833Y-86698615D01*
X100827835Y-86698616D01*
X100999973Y-86813635D01*
X101146365Y-86960027D01*
X101261385Y-87132167D01*
X101340611Y-87323436D01*
X101381000Y-87526484D01*
X101381000Y-87733516D01*
X101340611Y-87936564D01*
X101261385Y-88127833D01*
X101261384Y-88127835D01*
X101146365Y-88299973D01*
X100999973Y-88446365D01*
X100827835Y-88561384D01*
X100827834Y-88561385D01*
X100827833Y-88561385D01*
X100636564Y-88640611D01*
X100433516Y-88681000D01*
X100226484Y-88681000D01*
X100023436Y-88640611D01*
X99832167Y-88561385D01*
X99832166Y-88561385D01*
X99832165Y-88561384D01*
X99660027Y-88446365D01*
X99513635Y-88299973D01*
X99398616Y-88127835D01*
X99398615Y-88127833D01*
X99319389Y-87936564D01*
X99279000Y-87733516D01*
X99279000Y-87526484D01*
X99319389Y-87323436D01*
X99398615Y-87132167D01*
X99513635Y-86960027D01*
X99660027Y-86813635D01*
X99832165Y-86698616D01*
X99832167Y-86698615D01*
X100023436Y-86619389D01*
X100226484Y-86579000D01*
X100433516Y-86579000D01*
X100636564Y-86619389D01*
X100636564Y-86619389D01*
G37*
G36*
X90476564Y-86619389D02*
G01*
X90667833Y-86698615D01*
X90667835Y-86698616D01*
X90839973Y-86813635D01*
X90986365Y-86960027D01*
X91101385Y-87132167D01*
X91180611Y-87323436D01*
X91221000Y-87526484D01*
X91221000Y-87733516D01*
X91180611Y-87936564D01*
X91101385Y-88127833D01*
X91101384Y-88127835D01*
X90986365Y-88299973D01*
X90839973Y-88446365D01*
X90667835Y-88561384D01*
X90667834Y-88561385D01*
X90667833Y-88561385D01*
X90476564Y-88640611D01*
X90273516Y-88681000D01*
X90066484Y-88681000D01*
X89863436Y-88640611D01*
X89672167Y-88561385D01*
X89672166Y-88561385D01*
X89672165Y-88561384D01*
X89500027Y-88446365D01*
X89353635Y-88299973D01*
X89238616Y-88127835D01*
X89238615Y-88127833D01*
X89159389Y-87936564D01*
X89119000Y-87733516D01*
X89119000Y-87526484D01*
X89159389Y-87323436D01*
X89238615Y-87132167D01*
X89353635Y-86960027D01*
X89500027Y-86813635D01*
X89672165Y-86698616D01*
X89672167Y-86698615D01*
X89863436Y-86619389D01*
X90066484Y-86579000D01*
X90273516Y-86579000D01*
X90476564Y-86619389D01*
X90476564Y-86619389D01*
G37*
G36*
X85396564Y-84079389D02*
G01*
X85587833Y-84158615D01*
X85587835Y-84158616D01*
X85759973Y-84273635D01*
X85906365Y-84420027D01*
X86021385Y-84592167D01*
X86100611Y-84783436D01*
X86141000Y-84986484D01*
X86141000Y-85193516D01*
X86100611Y-85396564D01*
X86021385Y-85587833D01*
X86021384Y-85587835D01*
X85906365Y-85759973D01*
X85759973Y-85906365D01*
X85587835Y-86021384D01*
X85587834Y-86021385D01*
X85587833Y-86021385D01*
X85396564Y-86100611D01*
X85193516Y-86141000D01*
X84986484Y-86141000D01*
X84783436Y-86100611D01*
X84592167Y-86021385D01*
X84592166Y-86021385D01*
X84592165Y-86021384D01*
X84420027Y-85906365D01*
X84273635Y-85759973D01*
X84158616Y-85587835D01*
X84158615Y-85587833D01*
X84079389Y-85396564D01*
X84039000Y-85193516D01*
X84039000Y-84986484D01*
X84079389Y-84783436D01*
X84158615Y-84592167D01*
X84273635Y-84420027D01*
X84420027Y-84273635D01*
X84592165Y-84158616D01*
X84592167Y-84158615D01*
X84783436Y-84079389D01*
X84986484Y-84039000D01*
X85193516Y-84039000D01*
X85396564Y-84079389D01*
X85396564Y-84079389D01*
G37*
G36*
X82856564Y-84079389D02*
G01*
X83047833Y-84158615D01*
X83047835Y-84158616D01*
X83219973Y-84273635D01*
X83366365Y-84420027D01*
X83481385Y-84592167D01*
X83560611Y-84783436D01*
X83601000Y-84986484D01*
X83601000Y-85193516D01*
X83560611Y-85396564D01*
X83481385Y-85587833D01*
X83481384Y-85587835D01*
X83366365Y-85759973D01*
X83219973Y-85906365D01*
X83047835Y-86021384D01*
X83047834Y-86021385D01*
X83047833Y-86021385D01*
X82856564Y-86100611D01*
X82653516Y-86141000D01*
X82446484Y-86141000D01*
X82243436Y-86100611D01*
X82052167Y-86021385D01*
X82052166Y-86021385D01*
X82052165Y-86021384D01*
X81880027Y-85906365D01*
X81733635Y-85759973D01*
X81618616Y-85587835D01*
X81618615Y-85587833D01*
X81539389Y-85396564D01*
X81499000Y-85193516D01*
X81499000Y-84986484D01*
X81539389Y-84783436D01*
X81618615Y-84592167D01*
X81733635Y-84420027D01*
X81880027Y-84273635D01*
X82052165Y-84158616D01*
X82052167Y-84158615D01*
X82243436Y-84079389D01*
X82446484Y-84039000D01*
X82653516Y-84039000D01*
X82856564Y-84079389D01*
X82856564Y-84079389D01*
G37*
G36*
X87936564Y-84079389D02*
G01*
X88127833Y-84158615D01*
X88127835Y-84158616D01*
X88299973Y-84273635D01*
X88446365Y-84420027D01*
X88561385Y-84592167D01*
X88640611Y-84783436D01*
X88681000Y-84986484D01*
X88681000Y-85193516D01*
X88640611Y-85396564D01*
X88561385Y-85587833D01*
X88561384Y-85587835D01*
X88446365Y-85759973D01*
X88299973Y-85906365D01*
X88127835Y-86021384D01*
X88127834Y-86021385D01*
X88127833Y-86021385D01*
X87936564Y-86100611D01*
X87733516Y-86141000D01*
X87526484Y-86141000D01*
X87323436Y-86100611D01*
X87132167Y-86021385D01*
X87132166Y-86021385D01*
X87132165Y-86021384D01*
X86960027Y-85906365D01*
X86813635Y-85759973D01*
X86698616Y-85587835D01*
X86698615Y-85587833D01*
X86619389Y-85396564D01*
X86579000Y-85193516D01*
X86579000Y-84986484D01*
X86619389Y-84783436D01*
X86698615Y-84592167D01*
X86813635Y-84420027D01*
X86960027Y-84273635D01*
X87132165Y-84158616D01*
X87132167Y-84158615D01*
X87323436Y-84079389D01*
X87526484Y-84039000D01*
X87733516Y-84039000D01*
X87936564Y-84079389D01*
X87936564Y-84079389D01*
G37*
G36*
X90476564Y-84079389D02*
G01*
X90667833Y-84158615D01*
X90667835Y-84158616D01*
X90839973Y-84273635D01*
X90986365Y-84420027D01*
X91101385Y-84592167D01*
X91180611Y-84783436D01*
X91221000Y-84986484D01*
X91221000Y-85193516D01*
X91180611Y-85396564D01*
X91101385Y-85587833D01*
X91101384Y-85587835D01*
X90986365Y-85759973D01*
X90839973Y-85906365D01*
X90667835Y-86021384D01*
X90667834Y-86021385D01*
X90667833Y-86021385D01*
X90476564Y-86100611D01*
X90273516Y-86141000D01*
X90066484Y-86141000D01*
X89863436Y-86100611D01*
X89672167Y-86021385D01*
X89672166Y-86021385D01*
X89672165Y-86021384D01*
X89500027Y-85906365D01*
X89353635Y-85759973D01*
X89238616Y-85587835D01*
X89238615Y-85587833D01*
X89159389Y-85396564D01*
X89119000Y-85193516D01*
X89119000Y-84986484D01*
X89159389Y-84783436D01*
X89238615Y-84592167D01*
X89353635Y-84420027D01*
X89500027Y-84273635D01*
X89672165Y-84158616D01*
X89672167Y-84158615D01*
X89863436Y-84079389D01*
X90066484Y-84039000D01*
X90273516Y-84039000D01*
X90476564Y-84079389D01*
X90476564Y-84079389D01*
G37*
G36*
X93016564Y-84079389D02*
G01*
X93207833Y-84158615D01*
X93207835Y-84158616D01*
X93379973Y-84273635D01*
X93526365Y-84420027D01*
X93641385Y-84592167D01*
X93720611Y-84783436D01*
X93761000Y-84986484D01*
X93761000Y-85193516D01*
X93720611Y-85396564D01*
X93641385Y-85587833D01*
X93641384Y-85587835D01*
X93526365Y-85759973D01*
X93379973Y-85906365D01*
X93207835Y-86021384D01*
X93207834Y-86021385D01*
X93207833Y-86021385D01*
X93016564Y-86100611D01*
X92813516Y-86141000D01*
X92606484Y-86141000D01*
X92403436Y-86100611D01*
X92212167Y-86021385D01*
X92212166Y-86021385D01*
X92212165Y-86021384D01*
X92040027Y-85906365D01*
X91893635Y-85759973D01*
X91778616Y-85587835D01*
X91778615Y-85587833D01*
X91699389Y-85396564D01*
X91659000Y-85193516D01*
X91659000Y-84986484D01*
X91699389Y-84783436D01*
X91778615Y-84592167D01*
X91893635Y-84420027D01*
X92040027Y-84273635D01*
X92212165Y-84158616D01*
X92212167Y-84158615D01*
X92403436Y-84079389D01*
X92606484Y-84039000D01*
X92813516Y-84039000D01*
X93016564Y-84079389D01*
X93016564Y-84079389D01*
G37*
G36*
X95556564Y-84079389D02*
G01*
X95747833Y-84158615D01*
X95747835Y-84158616D01*
X95919973Y-84273635D01*
X96066365Y-84420027D01*
X96181385Y-84592167D01*
X96260611Y-84783436D01*
X96301000Y-84986484D01*
X96301000Y-85193516D01*
X96260611Y-85396564D01*
X96181385Y-85587833D01*
X96181384Y-85587835D01*
X96066365Y-85759973D01*
X95919973Y-85906365D01*
X95747835Y-86021384D01*
X95747834Y-86021385D01*
X95747833Y-86021385D01*
X95556564Y-86100611D01*
X95353516Y-86141000D01*
X95146484Y-86141000D01*
X94943436Y-86100611D01*
X94752167Y-86021385D01*
X94752166Y-86021385D01*
X94752165Y-86021384D01*
X94580027Y-85906365D01*
X94433635Y-85759973D01*
X94318616Y-85587835D01*
X94318615Y-85587833D01*
X94239389Y-85396564D01*
X94199000Y-85193516D01*
X94199000Y-84986484D01*
X94239389Y-84783436D01*
X94318615Y-84592167D01*
X94433635Y-84420027D01*
X94580027Y-84273635D01*
X94752165Y-84158616D01*
X94752167Y-84158615D01*
X94943436Y-84079389D01*
X95146484Y-84039000D01*
X95353516Y-84039000D01*
X95556564Y-84079389D01*
X95556564Y-84079389D01*
G37*
G36*
X98096564Y-84079389D02*
G01*
X98287833Y-84158615D01*
X98287835Y-84158616D01*
X98459973Y-84273635D01*
X98606365Y-84420027D01*
X98721385Y-84592167D01*
X98800611Y-84783436D01*
X98841000Y-84986484D01*
X98841000Y-85193516D01*
X98800611Y-85396564D01*
X98721385Y-85587833D01*
X98721384Y-85587835D01*
X98606365Y-85759973D01*
X98459973Y-85906365D01*
X98287835Y-86021384D01*
X98287834Y-86021385D01*
X98287833Y-86021385D01*
X98096564Y-86100611D01*
X97893516Y-86141000D01*
X97686484Y-86141000D01*
X97483436Y-86100611D01*
X97292167Y-86021385D01*
X97292166Y-86021385D01*
X97292165Y-86021384D01*
X97120027Y-85906365D01*
X96973635Y-85759973D01*
X96858616Y-85587835D01*
X96858615Y-85587833D01*
X96779389Y-85396564D01*
X96739000Y-85193516D01*
X96739000Y-84986484D01*
X96779389Y-84783436D01*
X96858615Y-84592167D01*
X96973635Y-84420027D01*
X97120027Y-84273635D01*
X97292165Y-84158616D01*
X97292167Y-84158615D01*
X97483436Y-84079389D01*
X97686484Y-84039000D01*
X97893516Y-84039000D01*
X98096564Y-84079389D01*
X98096564Y-84079389D01*
G37*
G36*
X100636564Y-84079389D02*
G01*
X100827833Y-84158615D01*
X100827835Y-84158616D01*
X100999973Y-84273635D01*
X101146365Y-84420027D01*
X101261385Y-84592167D01*
X101340611Y-84783436D01*
X101381000Y-84986484D01*
X101381000Y-85193516D01*
X101340611Y-85396564D01*
X101261385Y-85587833D01*
X101261384Y-85587835D01*
X101146365Y-85759973D01*
X100999973Y-85906365D01*
X100827835Y-86021384D01*
X100827834Y-86021385D01*
X100827833Y-86021385D01*
X100636564Y-86100611D01*
X100433516Y-86141000D01*
X100226484Y-86141000D01*
X100023436Y-86100611D01*
X99832167Y-86021385D01*
X99832166Y-86021385D01*
X99832165Y-86021384D01*
X99660027Y-85906365D01*
X99513635Y-85759973D01*
X99398616Y-85587835D01*
X99398615Y-85587833D01*
X99319389Y-85396564D01*
X99279000Y-85193516D01*
X99279000Y-84986484D01*
X99319389Y-84783436D01*
X99398615Y-84592167D01*
X99513635Y-84420027D01*
X99660027Y-84273635D01*
X99832165Y-84158616D01*
X99832167Y-84158615D01*
X100023436Y-84079389D01*
X100226484Y-84039000D01*
X100433516Y-84039000D01*
X100636564Y-84079389D01*
X100636564Y-84079389D01*
G37*
G36*
X87936564Y-81539389D02*
G01*
X88127833Y-81618615D01*
X88127835Y-81618616D01*
X88299973Y-81733635D01*
X88446365Y-81880027D01*
X88561385Y-82052167D01*
X88640611Y-82243436D01*
X88681000Y-82446484D01*
X88681000Y-82653516D01*
X88640611Y-82856564D01*
X88561385Y-83047833D01*
X88561384Y-83047835D01*
X88446365Y-83219973D01*
X88299973Y-83366365D01*
X88127835Y-83481384D01*
X88127834Y-83481385D01*
X88127833Y-83481385D01*
X87936564Y-83560611D01*
X87733516Y-83601000D01*
X87526484Y-83601000D01*
X87323436Y-83560611D01*
X87132167Y-83481385D01*
X87132166Y-83481385D01*
X87132165Y-83481384D01*
X86960027Y-83366365D01*
X86813635Y-83219973D01*
X86698616Y-83047835D01*
X86698615Y-83047833D01*
X86619389Y-82856564D01*
X86579000Y-82653516D01*
X86579000Y-82446484D01*
X86619389Y-82243436D01*
X86698615Y-82052167D01*
X86813635Y-81880027D01*
X86960027Y-81733635D01*
X87132165Y-81618616D01*
X87132167Y-81618615D01*
X87323436Y-81539389D01*
X87526484Y-81499000D01*
X87733516Y-81499000D01*
X87936564Y-81539389D01*
X87936564Y-81539389D01*
G37*
G36*
X100636564Y-81539389D02*
G01*
X100827833Y-81618615D01*
X100827835Y-81618616D01*
X100999973Y-81733635D01*
X101146365Y-81880027D01*
X101261385Y-82052167D01*
X101340611Y-82243436D01*
X101381000Y-82446484D01*
X101381000Y-82653516D01*
X101340611Y-82856564D01*
X101261385Y-83047833D01*
X101261384Y-83047835D01*
X101146365Y-83219973D01*
X100999973Y-83366365D01*
X100827835Y-83481384D01*
X100827834Y-83481385D01*
X100827833Y-83481385D01*
X100636564Y-83560611D01*
X100433516Y-83601000D01*
X100226484Y-83601000D01*
X100023436Y-83560611D01*
X99832167Y-83481385D01*
X99832166Y-83481385D01*
X99832165Y-83481384D01*
X99660027Y-83366365D01*
X99513635Y-83219973D01*
X99398616Y-83047835D01*
X99398615Y-83047833D01*
X99319389Y-82856564D01*
X99279000Y-82653516D01*
X99279000Y-82446484D01*
X99319389Y-82243436D01*
X99398615Y-82052167D01*
X99513635Y-81880027D01*
X99660027Y-81733635D01*
X99832165Y-81618616D01*
X99832167Y-81618615D01*
X100023436Y-81539389D01*
X100226484Y-81499000D01*
X100433516Y-81499000D01*
X100636564Y-81539389D01*
X100636564Y-81539389D01*
G37*
G36*
X98096564Y-81539389D02*
G01*
X98287833Y-81618615D01*
X98287835Y-81618616D01*
X98459973Y-81733635D01*
X98606365Y-81880027D01*
X98721385Y-82052167D01*
X98800611Y-82243436D01*
X98841000Y-82446484D01*
X98841000Y-82653516D01*
X98800611Y-82856564D01*
X98721385Y-83047833D01*
X98721384Y-83047835D01*
X98606365Y-83219973D01*
X98459973Y-83366365D01*
X98287835Y-83481384D01*
X98287834Y-83481385D01*
X98287833Y-83481385D01*
X98096564Y-83560611D01*
X97893516Y-83601000D01*
X97686484Y-83601000D01*
X97483436Y-83560611D01*
X97292167Y-83481385D01*
X97292166Y-83481385D01*
X97292165Y-83481384D01*
X97120027Y-83366365D01*
X96973635Y-83219973D01*
X96858616Y-83047835D01*
X96858615Y-83047833D01*
X96779389Y-82856564D01*
X96739000Y-82653516D01*
X96739000Y-82446484D01*
X96779389Y-82243436D01*
X96858615Y-82052167D01*
X96973635Y-81880027D01*
X97120027Y-81733635D01*
X97292165Y-81618616D01*
X97292167Y-81618615D01*
X97483436Y-81539389D01*
X97686484Y-81499000D01*
X97893516Y-81499000D01*
X98096564Y-81539389D01*
X98096564Y-81539389D01*
G37*
G36*
X93016564Y-81539389D02*
G01*
X93207833Y-81618615D01*
X93207835Y-81618616D01*
X93379973Y-81733635D01*
X93526365Y-81880027D01*
X93641385Y-82052167D01*
X93720611Y-82243436D01*
X93761000Y-82446484D01*
X93761000Y-82653516D01*
X93720611Y-82856564D01*
X93641385Y-83047833D01*
X93641384Y-83047835D01*
X93526365Y-83219973D01*
X93379973Y-83366365D01*
X93207835Y-83481384D01*
X93207834Y-83481385D01*
X93207833Y-83481385D01*
X93016564Y-83560611D01*
X92813516Y-83601000D01*
X92606484Y-83601000D01*
X92403436Y-83560611D01*
X92212167Y-83481385D01*
X92212166Y-83481385D01*
X92212165Y-83481384D01*
X92040027Y-83366365D01*
X91893635Y-83219973D01*
X91778616Y-83047835D01*
X91778615Y-83047833D01*
X91699389Y-82856564D01*
X91659000Y-82653516D01*
X91659000Y-82446484D01*
X91699389Y-82243436D01*
X91778615Y-82052167D01*
X91893635Y-81880027D01*
X92040027Y-81733635D01*
X92212165Y-81618616D01*
X92212167Y-81618615D01*
X92403436Y-81539389D01*
X92606484Y-81499000D01*
X92813516Y-81499000D01*
X93016564Y-81539389D01*
X93016564Y-81539389D01*
G37*
G36*
X90476564Y-81539389D02*
G01*
X90667833Y-81618615D01*
X90667835Y-81618616D01*
X90839973Y-81733635D01*
X90986365Y-81880027D01*
X91101385Y-82052167D01*
X91180611Y-82243436D01*
X91221000Y-82446484D01*
X91221000Y-82653516D01*
X91180611Y-82856564D01*
X91101385Y-83047833D01*
X91101384Y-83047835D01*
X90986365Y-83219973D01*
X90839973Y-83366365D01*
X90667835Y-83481384D01*
X90667834Y-83481385D01*
X90667833Y-83481385D01*
X90476564Y-83560611D01*
X90273516Y-83601000D01*
X90066484Y-83601000D01*
X89863436Y-83560611D01*
X89672167Y-83481385D01*
X89672166Y-83481385D01*
X89672165Y-83481384D01*
X89500027Y-83366365D01*
X89353635Y-83219973D01*
X89238616Y-83047835D01*
X89238615Y-83047833D01*
X89159389Y-82856564D01*
X89119000Y-82653516D01*
X89119000Y-82446484D01*
X89159389Y-82243436D01*
X89238615Y-82052167D01*
X89353635Y-81880027D01*
X89500027Y-81733635D01*
X89672165Y-81618616D01*
X89672167Y-81618615D01*
X89863436Y-81539389D01*
X90066484Y-81499000D01*
X90273516Y-81499000D01*
X90476564Y-81539389D01*
X90476564Y-81539389D01*
G37*
G36*
X85396564Y-81539389D02*
G01*
X85587833Y-81618615D01*
X85587835Y-81618616D01*
X85759973Y-81733635D01*
X85906365Y-81880027D01*
X86021385Y-82052167D01*
X86100611Y-82243436D01*
X86141000Y-82446484D01*
X86141000Y-82653516D01*
X86100611Y-82856564D01*
X86021385Y-83047833D01*
X86021384Y-83047835D01*
X85906365Y-83219973D01*
X85759973Y-83366365D01*
X85587835Y-83481384D01*
X85587834Y-83481385D01*
X85587833Y-83481385D01*
X85396564Y-83560611D01*
X85193516Y-83601000D01*
X84986484Y-83601000D01*
X84783436Y-83560611D01*
X84592167Y-83481385D01*
X84592166Y-83481385D01*
X84592165Y-83481384D01*
X84420027Y-83366365D01*
X84273635Y-83219973D01*
X84158616Y-83047835D01*
X84158615Y-83047833D01*
X84079389Y-82856564D01*
X84039000Y-82653516D01*
X84039000Y-82446484D01*
X84079389Y-82243436D01*
X84158615Y-82052167D01*
X84273635Y-81880027D01*
X84420027Y-81733635D01*
X84592165Y-81618616D01*
X84592167Y-81618615D01*
X84783436Y-81539389D01*
X84986484Y-81499000D01*
X85193516Y-81499000D01*
X85396564Y-81539389D01*
X85396564Y-81539389D01*
G37*
G36*
X82856564Y-81539389D02*
G01*
X83047833Y-81618615D01*
X83047835Y-81618616D01*
X83219973Y-81733635D01*
X83366365Y-81880027D01*
X83481385Y-82052167D01*
X83560611Y-82243436D01*
X83601000Y-82446484D01*
X83601000Y-82653516D01*
X83560611Y-82856564D01*
X83481385Y-83047833D01*
X83481384Y-83047835D01*
X83366365Y-83219973D01*
X83219973Y-83366365D01*
X83047835Y-83481384D01*
X83047834Y-83481385D01*
X83047833Y-83481385D01*
X82856564Y-83560611D01*
X82653516Y-83601000D01*
X82446484Y-83601000D01*
X82243436Y-83560611D01*
X82052167Y-83481385D01*
X82052166Y-83481385D01*
X82052165Y-83481384D01*
X81880027Y-83366365D01*
X81733635Y-83219973D01*
X81618616Y-83047835D01*
X81618615Y-83047833D01*
X81539389Y-82856564D01*
X81499000Y-82653516D01*
X81499000Y-82446484D01*
X81539389Y-82243436D01*
X81618615Y-82052167D01*
X81733635Y-81880027D01*
X81880027Y-81733635D01*
X82052165Y-81618616D01*
X82052167Y-81618615D01*
X82243436Y-81539389D01*
X82446484Y-81499000D01*
X82653516Y-81499000D01*
X82856564Y-81539389D01*
X82856564Y-81539389D01*
G37*
G36*
X95556564Y-81539389D02*
G01*
X95747833Y-81618615D01*
X95747835Y-81618616D01*
X95919973Y-81733635D01*
X96066365Y-81880027D01*
X96181385Y-82052167D01*
X96260611Y-82243436D01*
X96301000Y-82446484D01*
X96301000Y-82653516D01*
X96260611Y-82856564D01*
X96181385Y-83047833D01*
X96181384Y-83047835D01*
X96066365Y-83219973D01*
X95919973Y-83366365D01*
X95747835Y-83481384D01*
X95747834Y-83481385D01*
X95747833Y-83481385D01*
X95556564Y-83560611D01*
X95353516Y-83601000D01*
X95146484Y-83601000D01*
X94943436Y-83560611D01*
X94752167Y-83481385D01*
X94752166Y-83481385D01*
X94752165Y-83481384D01*
X94580027Y-83366365D01*
X94433635Y-83219973D01*
X94318616Y-83047835D01*
X94318615Y-83047833D01*
X94239389Y-82856564D01*
X94199000Y-82653516D01*
X94199000Y-82446484D01*
X94239389Y-82243436D01*
X94318615Y-82052167D01*
X94433635Y-81880027D01*
X94580027Y-81733635D01*
X94752165Y-81618616D01*
X94752167Y-81618615D01*
X94943436Y-81539389D01*
X95146484Y-81499000D01*
X95353516Y-81499000D01*
X95556564Y-81539389D01*
X95556564Y-81539389D01*
G37*
G36*
X85396564Y-78999389D02*
G01*
X85587833Y-79078615D01*
X85587835Y-79078616D01*
X85759973Y-79193635D01*
X85906365Y-79340027D01*
X86021385Y-79512167D01*
X86100611Y-79703436D01*
X86141000Y-79906484D01*
X86141000Y-80113516D01*
X86100611Y-80316564D01*
X86021385Y-80507833D01*
X86021384Y-80507835D01*
X85906365Y-80679973D01*
X85759973Y-80826365D01*
X85587835Y-80941384D01*
X85587834Y-80941385D01*
X85587833Y-80941385D01*
X85396564Y-81020611D01*
X85193516Y-81061000D01*
X84986484Y-81061000D01*
X84783436Y-81020611D01*
X84592167Y-80941385D01*
X84592166Y-80941385D01*
X84592165Y-80941384D01*
X84420027Y-80826365D01*
X84273635Y-80679973D01*
X84158616Y-80507835D01*
X84158615Y-80507833D01*
X84079389Y-80316564D01*
X84039000Y-80113516D01*
X84039000Y-79906484D01*
X84079389Y-79703436D01*
X84158615Y-79512167D01*
X84273635Y-79340027D01*
X84420027Y-79193635D01*
X84592165Y-79078616D01*
X84592167Y-79078615D01*
X84783436Y-78999389D01*
X84986484Y-78959000D01*
X85193516Y-78959000D01*
X85396564Y-78999389D01*
X85396564Y-78999389D01*
G37*
G36*
X82856564Y-78999389D02*
G01*
X83047833Y-79078615D01*
X83047835Y-79078616D01*
X83219973Y-79193635D01*
X83366365Y-79340027D01*
X83481385Y-79512167D01*
X83560611Y-79703436D01*
X83601000Y-79906484D01*
X83601000Y-80113516D01*
X83560611Y-80316564D01*
X83481385Y-80507833D01*
X83481384Y-80507835D01*
X83366365Y-80679973D01*
X83219973Y-80826365D01*
X83047835Y-80941384D01*
X83047834Y-80941385D01*
X83047833Y-80941385D01*
X82856564Y-81020611D01*
X82653516Y-81061000D01*
X82446484Y-81061000D01*
X82243436Y-81020611D01*
X82052167Y-80941385D01*
X82052166Y-80941385D01*
X82052165Y-80941384D01*
X81880027Y-80826365D01*
X81733635Y-80679973D01*
X81618616Y-80507835D01*
X81618615Y-80507833D01*
X81539389Y-80316564D01*
X81499000Y-80113516D01*
X81499000Y-79906484D01*
X81539389Y-79703436D01*
X81618615Y-79512167D01*
X81733635Y-79340027D01*
X81880027Y-79193635D01*
X82052165Y-79078616D01*
X82052167Y-79078615D01*
X82243436Y-78999389D01*
X82446484Y-78959000D01*
X82653516Y-78959000D01*
X82856564Y-78999389D01*
X82856564Y-78999389D01*
G37*
G36*
X87936564Y-78999389D02*
G01*
X88127833Y-79078615D01*
X88127835Y-79078616D01*
X88299973Y-79193635D01*
X88446365Y-79340027D01*
X88561385Y-79512167D01*
X88640611Y-79703436D01*
X88681000Y-79906484D01*
X88681000Y-80113516D01*
X88640611Y-80316564D01*
X88561385Y-80507833D01*
X88561384Y-80507835D01*
X88446365Y-80679973D01*
X88299973Y-80826365D01*
X88127835Y-80941384D01*
X88127834Y-80941385D01*
X88127833Y-80941385D01*
X87936564Y-81020611D01*
X87733516Y-81061000D01*
X87526484Y-81061000D01*
X87323436Y-81020611D01*
X87132167Y-80941385D01*
X87132166Y-80941385D01*
X87132165Y-80941384D01*
X86960027Y-80826365D01*
X86813635Y-80679973D01*
X86698616Y-80507835D01*
X86698615Y-80507833D01*
X86619389Y-80316564D01*
X86579000Y-80113516D01*
X86579000Y-79906484D01*
X86619389Y-79703436D01*
X86698615Y-79512167D01*
X86813635Y-79340027D01*
X86960027Y-79193635D01*
X87132165Y-79078616D01*
X87132167Y-79078615D01*
X87323436Y-78999389D01*
X87526484Y-78959000D01*
X87733516Y-78959000D01*
X87936564Y-78999389D01*
X87936564Y-78999389D01*
G37*
G36*
X90476564Y-78999389D02*
G01*
X90667833Y-79078615D01*
X90667835Y-79078616D01*
X90839973Y-79193635D01*
X90986365Y-79340027D01*
X91101385Y-79512167D01*
X91180611Y-79703436D01*
X91221000Y-79906484D01*
X91221000Y-80113516D01*
X91180611Y-80316564D01*
X91101385Y-80507833D01*
X91101384Y-80507835D01*
X90986365Y-80679973D01*
X90839973Y-80826365D01*
X90667835Y-80941384D01*
X90667834Y-80941385D01*
X90667833Y-80941385D01*
X90476564Y-81020611D01*
X90273516Y-81061000D01*
X90066484Y-81061000D01*
X89863436Y-81020611D01*
X89672167Y-80941385D01*
X89672166Y-80941385D01*
X89672165Y-80941384D01*
X89500027Y-80826365D01*
X89353635Y-80679973D01*
X89238616Y-80507835D01*
X89238615Y-80507833D01*
X89159389Y-80316564D01*
X89119000Y-80113516D01*
X89119000Y-79906484D01*
X89159389Y-79703436D01*
X89238615Y-79512167D01*
X89353635Y-79340027D01*
X89500027Y-79193635D01*
X89672165Y-79078616D01*
X89672167Y-79078615D01*
X89863436Y-78999389D01*
X90066484Y-78959000D01*
X90273516Y-78959000D01*
X90476564Y-78999389D01*
X90476564Y-78999389D01*
G37*
G36*
X93016564Y-78999389D02*
G01*
X93207833Y-79078615D01*
X93207835Y-79078616D01*
X93379973Y-79193635D01*
X93526365Y-79340027D01*
X93641385Y-79512167D01*
X93720611Y-79703436D01*
X93761000Y-79906484D01*
X93761000Y-80113516D01*
X93720611Y-80316564D01*
X93641385Y-80507833D01*
X93641384Y-80507835D01*
X93526365Y-80679973D01*
X93379973Y-80826365D01*
X93207835Y-80941384D01*
X93207834Y-80941385D01*
X93207833Y-80941385D01*
X93016564Y-81020611D01*
X92813516Y-81061000D01*
X92606484Y-81061000D01*
X92403436Y-81020611D01*
X92212167Y-80941385D01*
X92212166Y-80941385D01*
X92212165Y-80941384D01*
X92040027Y-80826365D01*
X91893635Y-80679973D01*
X91778616Y-80507835D01*
X91778615Y-80507833D01*
X91699389Y-80316564D01*
X91659000Y-80113516D01*
X91659000Y-79906484D01*
X91699389Y-79703436D01*
X91778615Y-79512167D01*
X91893635Y-79340027D01*
X92040027Y-79193635D01*
X92212165Y-79078616D01*
X92212167Y-79078615D01*
X92403436Y-78999389D01*
X92606484Y-78959000D01*
X92813516Y-78959000D01*
X93016564Y-78999389D01*
X93016564Y-78999389D01*
G37*
G36*
X95556564Y-78999389D02*
G01*
X95747833Y-79078615D01*
X95747835Y-79078616D01*
X95919973Y-79193635D01*
X96066365Y-79340027D01*
X96181385Y-79512167D01*
X96260611Y-79703436D01*
X96301000Y-79906484D01*
X96301000Y-80113516D01*
X96260611Y-80316564D01*
X96181385Y-80507833D01*
X96181384Y-80507835D01*
X96066365Y-80679973D01*
X95919973Y-80826365D01*
X95747835Y-80941384D01*
X95747834Y-80941385D01*
X95747833Y-80941385D01*
X95556564Y-81020611D01*
X95353516Y-81061000D01*
X95146484Y-81061000D01*
X94943436Y-81020611D01*
X94752167Y-80941385D01*
X94752166Y-80941385D01*
X94752165Y-80941384D01*
X94580027Y-80826365D01*
X94433635Y-80679973D01*
X94318616Y-80507835D01*
X94318615Y-80507833D01*
X94239389Y-80316564D01*
X94199000Y-80113516D01*
X94199000Y-79906484D01*
X94239389Y-79703436D01*
X94318615Y-79512167D01*
X94433635Y-79340027D01*
X94580027Y-79193635D01*
X94752165Y-79078616D01*
X94752167Y-79078615D01*
X94943436Y-78999389D01*
X95146484Y-78959000D01*
X95353516Y-78959000D01*
X95556564Y-78999389D01*
X95556564Y-78999389D01*
G37*
G36*
X98096564Y-78999389D02*
G01*
X98287833Y-79078615D01*
X98287835Y-79078616D01*
X98459973Y-79193635D01*
X98606365Y-79340027D01*
X98721385Y-79512167D01*
X98800611Y-79703436D01*
X98841000Y-79906484D01*
X98841000Y-80113516D01*
X98800611Y-80316564D01*
X98721385Y-80507833D01*
X98721384Y-80507835D01*
X98606365Y-80679973D01*
X98459973Y-80826365D01*
X98287835Y-80941384D01*
X98287834Y-80941385D01*
X98287833Y-80941385D01*
X98096564Y-81020611D01*
X97893516Y-81061000D01*
X97686484Y-81061000D01*
X97483436Y-81020611D01*
X97292167Y-80941385D01*
X97292166Y-80941385D01*
X97292165Y-80941384D01*
X97120027Y-80826365D01*
X96973635Y-80679973D01*
X96858616Y-80507835D01*
X96858615Y-80507833D01*
X96779389Y-80316564D01*
X96739000Y-80113516D01*
X96739000Y-79906484D01*
X96779389Y-79703436D01*
X96858615Y-79512167D01*
X96973635Y-79340027D01*
X97120027Y-79193635D01*
X97292165Y-79078616D01*
X97292167Y-79078615D01*
X97483436Y-78999389D01*
X97686484Y-78959000D01*
X97893516Y-78959000D01*
X98096564Y-78999389D01*
X98096564Y-78999389D01*
G37*
G36*
X100636564Y-78999389D02*
G01*
X100827833Y-79078615D01*
X100827835Y-79078616D01*
X100999973Y-79193635D01*
X101146365Y-79340027D01*
X101261385Y-79512167D01*
X101340611Y-79703436D01*
X101381000Y-79906484D01*
X101381000Y-80113516D01*
X101340611Y-80316564D01*
X101261385Y-80507833D01*
X101261384Y-80507835D01*
X101146365Y-80679973D01*
X100999973Y-80826365D01*
X100827835Y-80941384D01*
X100827834Y-80941385D01*
X100827833Y-80941385D01*
X100636564Y-81020611D01*
X100433516Y-81061000D01*
X100226484Y-81061000D01*
X100023436Y-81020611D01*
X99832167Y-80941385D01*
X99832166Y-80941385D01*
X99832165Y-80941384D01*
X99660027Y-80826365D01*
X99513635Y-80679973D01*
X99398616Y-80507835D01*
X99398615Y-80507833D01*
X99319389Y-80316564D01*
X99279000Y-80113516D01*
X99279000Y-79906484D01*
X99319389Y-79703436D01*
X99398615Y-79512167D01*
X99513635Y-79340027D01*
X99660027Y-79193635D01*
X99832165Y-79078616D01*
X99832167Y-79078615D01*
X100023436Y-78999389D01*
X100226484Y-78959000D01*
X100433516Y-78959000D01*
X100636564Y-78999389D01*
X100636564Y-78999389D01*
G37*
G36*
X59933651Y-26772888D02*
G01*
X60244870Y-26867296D01*
X60531680Y-27020599D01*
X60531683Y-27020601D01*
X60531684Y-27020602D01*
X60783082Y-27226918D01*
X60989398Y-27478316D01*
X60989401Y-27478320D01*
X61142704Y-27765130D01*
X61237112Y-28076349D01*
X61268988Y-28400000D01*
X61237112Y-28723651D01*
X61142704Y-29034870D01*
X60989401Y-29321680D01*
X60989399Y-29321683D01*
X60989398Y-29321684D01*
X60783082Y-29573082D01*
X60531684Y-29779398D01*
X60531680Y-29779401D01*
X60244870Y-29932704D01*
X59933651Y-30027112D01*
X59691107Y-30051000D01*
X56988893Y-30051000D01*
X56746349Y-30027112D01*
X56435130Y-29932704D01*
X56148320Y-29779401D01*
X56148316Y-29779398D01*
X55896918Y-29573082D01*
X55690602Y-29321684D01*
X55690601Y-29321683D01*
X55690599Y-29321680D01*
X55537296Y-29034870D01*
X55442888Y-28723651D01*
X55411012Y-28400000D01*
X55442888Y-28076349D01*
X55537296Y-27765130D01*
X55690599Y-27478320D01*
X55690602Y-27478316D01*
X55896918Y-27226918D01*
X56148316Y-27020602D01*
X56148317Y-27020601D01*
X56148320Y-27020599D01*
X56435130Y-26867296D01*
X56746349Y-26772888D01*
X56988893Y-26749000D01*
X59691107Y-26749000D01*
X59933651Y-26772888D01*
X59933651Y-26772888D01*
G37*
G36*
X87873651Y-26772888D02*
G01*
X88184870Y-26867296D01*
X88471680Y-27020599D01*
X88471683Y-27020601D01*
X88471684Y-27020602D01*
X88723082Y-27226918D01*
X88929398Y-27478316D01*
X88929401Y-27478320D01*
X89082704Y-27765130D01*
X89177112Y-28076349D01*
X89208988Y-28400000D01*
X89177112Y-28723651D01*
X89082704Y-29034870D01*
X88929401Y-29321680D01*
X88929399Y-29321683D01*
X88929398Y-29321684D01*
X88723082Y-29573082D01*
X88471684Y-29779398D01*
X88471680Y-29779401D01*
X88184870Y-29932704D01*
X87873651Y-30027112D01*
X87631107Y-30051000D01*
X84928893Y-30051000D01*
X84686349Y-30027112D01*
X84375130Y-29932704D01*
X84088320Y-29779401D01*
X84088316Y-29779398D01*
X83836918Y-29573082D01*
X83630602Y-29321684D01*
X83630601Y-29321683D01*
X83630599Y-29321680D01*
X83477296Y-29034870D01*
X83382888Y-28723651D01*
X83351012Y-28400000D01*
X83382888Y-28076349D01*
X83477296Y-27765130D01*
X83630599Y-27478320D01*
X83630602Y-27478316D01*
X83836918Y-27226918D01*
X84088316Y-27020602D01*
X84088317Y-27020601D01*
X84088320Y-27020599D01*
X84375130Y-26867296D01*
X84686349Y-26772888D01*
X84928893Y-26749000D01*
X87631107Y-26749000D01*
X87873651Y-26772888D01*
X87873651Y-26772888D01*
G37*
M02*
