G04 #@! TF.GenerationSoftware,KiCad,Pcbnew,(5.1.5)-3*
G04 #@! TF.CreationDate,2020-03-27T15:51:16+00:00*
G04 #@! TF.ProjectId,wagyu,77616779-752e-46b6-9963-61645f706362,rev?*
G04 #@! TF.SameCoordinates,Original*
G04 #@! TF.FileFunction,Soldermask,Top*
G04 #@! TF.FilePolarity,Negative*
%FSLAX46Y46*%
G04 Gerber Fmt 4.6, Leading zero omitted, Abs format (unit mm)*
G04 Created by KiCad (PCBNEW (5.1.5)-3) date 2020-03-27 15:51:16*
%MOMM*%
%LPD*%
G04 APERTURE LIST*
%ADD10C,0.100000*%
G04 APERTURE END LIST*
D10*
G36*
X49753655Y-126166591D02*
G01*
X49825525Y-126180887D01*
X50028624Y-126265013D01*
X50211409Y-126387146D01*
X50366854Y-126542591D01*
X50488987Y-126725376D01*
X50573113Y-126928475D01*
X50616000Y-127144084D01*
X50616000Y-127363916D01*
X50573113Y-127579525D01*
X50488987Y-127782624D01*
X50366854Y-127965409D01*
X50211409Y-128120854D01*
X50028624Y-128242987D01*
X49825525Y-128327113D01*
X49753655Y-128341409D01*
X49609918Y-128370000D01*
X49390082Y-128370000D01*
X49246345Y-128341409D01*
X49174475Y-128327113D01*
X48971376Y-128242987D01*
X48788591Y-128120854D01*
X48633146Y-127965409D01*
X48511013Y-127782624D01*
X48426887Y-127579525D01*
X48384000Y-127363916D01*
X48384000Y-127144084D01*
X48426887Y-126928475D01*
X48511013Y-126725376D01*
X48633146Y-126542591D01*
X48788591Y-126387146D01*
X48971376Y-126265013D01*
X49174475Y-126180887D01*
X49246345Y-126166591D01*
X49390082Y-126138000D01*
X49609918Y-126138000D01*
X49753655Y-126166591D01*
G37*
G36*
X41453655Y-126166591D02*
G01*
X41525525Y-126180887D01*
X41728624Y-126265013D01*
X41911409Y-126387146D01*
X42066854Y-126542591D01*
X42188987Y-126725376D01*
X42273113Y-126928475D01*
X42316000Y-127144084D01*
X42316000Y-127363916D01*
X42273113Y-127579525D01*
X42188987Y-127782624D01*
X42066854Y-127965409D01*
X41911409Y-128120854D01*
X41728624Y-128242987D01*
X41525525Y-128327113D01*
X41453655Y-128341409D01*
X41309918Y-128370000D01*
X41090082Y-128370000D01*
X40946345Y-128341409D01*
X40874475Y-128327113D01*
X40671376Y-128242987D01*
X40488591Y-128120854D01*
X40333146Y-127965409D01*
X40211013Y-127782624D01*
X40126887Y-127579525D01*
X40084000Y-127363916D01*
X40084000Y-127144084D01*
X40126887Y-126928475D01*
X40211013Y-126725376D01*
X40333146Y-126542591D01*
X40488591Y-126387146D01*
X40671376Y-126265013D01*
X40874475Y-126180887D01*
X40946345Y-126166591D01*
X41090082Y-126138000D01*
X41309918Y-126138000D01*
X41453655Y-126166591D01*
G37*
G36*
X35253655Y-126166591D02*
G01*
X35325525Y-126180887D01*
X35528624Y-126265013D01*
X35711409Y-126387146D01*
X35866854Y-126542591D01*
X35988987Y-126725376D01*
X36073113Y-126928475D01*
X36116000Y-127144084D01*
X36116000Y-127363916D01*
X36073113Y-127579525D01*
X35988987Y-127782624D01*
X35866854Y-127965409D01*
X35711409Y-128120854D01*
X35528624Y-128242987D01*
X35325525Y-128327113D01*
X35253655Y-128341409D01*
X35109918Y-128370000D01*
X34890082Y-128370000D01*
X34746345Y-128341409D01*
X34674475Y-128327113D01*
X34471376Y-128242987D01*
X34288591Y-128120854D01*
X34133146Y-127965409D01*
X34011013Y-127782624D01*
X33926887Y-127579525D01*
X33884000Y-127363916D01*
X33884000Y-127144084D01*
X33926887Y-126928475D01*
X34011013Y-126725376D01*
X34133146Y-126542591D01*
X34288591Y-126387146D01*
X34471376Y-126265013D01*
X34674475Y-126180887D01*
X34746345Y-126166591D01*
X34890082Y-126138000D01*
X35109918Y-126138000D01*
X35253655Y-126166591D01*
G37*
G36*
X26953655Y-126166591D02*
G01*
X27025525Y-126180887D01*
X27228624Y-126265013D01*
X27411409Y-126387146D01*
X27566854Y-126542591D01*
X27688987Y-126725376D01*
X27773113Y-126928475D01*
X27816000Y-127144084D01*
X27816000Y-127363916D01*
X27773113Y-127579525D01*
X27688987Y-127782624D01*
X27566854Y-127965409D01*
X27411409Y-128120854D01*
X27228624Y-128242987D01*
X27025525Y-128327113D01*
X26953655Y-128341409D01*
X26809918Y-128370000D01*
X26590082Y-128370000D01*
X26446345Y-128341409D01*
X26374475Y-128327113D01*
X26171376Y-128242987D01*
X25988591Y-128120854D01*
X25833146Y-127965409D01*
X25711013Y-127782624D01*
X25626887Y-127579525D01*
X25584000Y-127363916D01*
X25584000Y-127144084D01*
X25626887Y-126928475D01*
X25711013Y-126725376D01*
X25833146Y-126542591D01*
X25988591Y-126387146D01*
X26171376Y-126265013D01*
X26374475Y-126180887D01*
X26446345Y-126166591D01*
X26590082Y-126138000D01*
X26809918Y-126138000D01*
X26953655Y-126166591D01*
G37*
G36*
X39066000Y-128270000D02*
G01*
X37134000Y-128270000D01*
X37134000Y-126238000D01*
X39066000Y-126238000D01*
X39066000Y-128270000D01*
G37*
G36*
X35253655Y-116768591D02*
G01*
X35325525Y-116782887D01*
X35528624Y-116867013D01*
X35711409Y-116989146D01*
X35866854Y-117144591D01*
X35988987Y-117327376D01*
X36073113Y-117530475D01*
X36116000Y-117746084D01*
X36116000Y-117965916D01*
X36073113Y-118181525D01*
X35988987Y-118384624D01*
X35866854Y-118567409D01*
X35711409Y-118722854D01*
X35528624Y-118844987D01*
X35325525Y-118929113D01*
X35253655Y-118943409D01*
X35109918Y-118972000D01*
X34890082Y-118972000D01*
X34746345Y-118943409D01*
X34674475Y-118929113D01*
X34471376Y-118844987D01*
X34288591Y-118722854D01*
X34133146Y-118567409D01*
X34011013Y-118384624D01*
X33926887Y-118181525D01*
X33884000Y-117965916D01*
X33884000Y-117746084D01*
X33926887Y-117530475D01*
X34011013Y-117327376D01*
X34133146Y-117144591D01*
X34288591Y-116989146D01*
X34471376Y-116867013D01*
X34674475Y-116782887D01*
X34746345Y-116768591D01*
X34890082Y-116740000D01*
X35109918Y-116740000D01*
X35253655Y-116768591D01*
G37*
G36*
X49753655Y-116768591D02*
G01*
X49825525Y-116782887D01*
X50028624Y-116867013D01*
X50211409Y-116989146D01*
X50366854Y-117144591D01*
X50488987Y-117327376D01*
X50573113Y-117530475D01*
X50616000Y-117746084D01*
X50616000Y-117965916D01*
X50573113Y-118181525D01*
X50488987Y-118384624D01*
X50366854Y-118567409D01*
X50211409Y-118722854D01*
X50028624Y-118844987D01*
X49825525Y-118929113D01*
X49753655Y-118943409D01*
X49609918Y-118972000D01*
X49390082Y-118972000D01*
X49246345Y-118943409D01*
X49174475Y-118929113D01*
X48971376Y-118844987D01*
X48788591Y-118722854D01*
X48633146Y-118567409D01*
X48511013Y-118384624D01*
X48426887Y-118181525D01*
X48384000Y-117965916D01*
X48384000Y-117746084D01*
X48426887Y-117530475D01*
X48511013Y-117327376D01*
X48633146Y-117144591D01*
X48788591Y-116989146D01*
X48971376Y-116867013D01*
X49174475Y-116782887D01*
X49246345Y-116768591D01*
X49390082Y-116740000D01*
X49609918Y-116740000D01*
X49753655Y-116768591D01*
G37*
G36*
X41453655Y-116768591D02*
G01*
X41525525Y-116782887D01*
X41728624Y-116867013D01*
X41911409Y-116989146D01*
X42066854Y-117144591D01*
X42188987Y-117327376D01*
X42273113Y-117530475D01*
X42316000Y-117746084D01*
X42316000Y-117965916D01*
X42273113Y-118181525D01*
X42188987Y-118384624D01*
X42066854Y-118567409D01*
X41911409Y-118722854D01*
X41728624Y-118844987D01*
X41525525Y-118929113D01*
X41453655Y-118943409D01*
X41309918Y-118972000D01*
X41090082Y-118972000D01*
X40946345Y-118943409D01*
X40874475Y-118929113D01*
X40671376Y-118844987D01*
X40488591Y-118722854D01*
X40333146Y-118567409D01*
X40211013Y-118384624D01*
X40126887Y-118181525D01*
X40084000Y-117965916D01*
X40084000Y-117746084D01*
X40126887Y-117530475D01*
X40211013Y-117327376D01*
X40333146Y-117144591D01*
X40488591Y-116989146D01*
X40671376Y-116867013D01*
X40874475Y-116782887D01*
X40946345Y-116768591D01*
X41090082Y-116740000D01*
X41309918Y-116740000D01*
X41453655Y-116768591D01*
G37*
G36*
X26953655Y-116768591D02*
G01*
X27025525Y-116782887D01*
X27228624Y-116867013D01*
X27411409Y-116989146D01*
X27566854Y-117144591D01*
X27688987Y-117327376D01*
X27773113Y-117530475D01*
X27816000Y-117746084D01*
X27816000Y-117965916D01*
X27773113Y-118181525D01*
X27688987Y-118384624D01*
X27566854Y-118567409D01*
X27411409Y-118722854D01*
X27228624Y-118844987D01*
X27025525Y-118929113D01*
X26953655Y-118943409D01*
X26809918Y-118972000D01*
X26590082Y-118972000D01*
X26446345Y-118943409D01*
X26374475Y-118929113D01*
X26171376Y-118844987D01*
X25988591Y-118722854D01*
X25833146Y-118567409D01*
X25711013Y-118384624D01*
X25626887Y-118181525D01*
X25584000Y-117965916D01*
X25584000Y-117746084D01*
X25626887Y-117530475D01*
X25711013Y-117327376D01*
X25833146Y-117144591D01*
X25988591Y-116989146D01*
X26171376Y-116867013D01*
X26374475Y-116782887D01*
X26446345Y-116768591D01*
X26590082Y-116740000D01*
X26809918Y-116740000D01*
X26953655Y-116768591D01*
G37*
G36*
X39066000Y-118872000D02*
G01*
X37134000Y-118872000D01*
X37134000Y-116840000D01*
X39066000Y-116840000D01*
X39066000Y-118872000D01*
G37*
G36*
X49753655Y-107370591D02*
G01*
X49825525Y-107384887D01*
X50028624Y-107469013D01*
X50211409Y-107591146D01*
X50366854Y-107746591D01*
X50488987Y-107929376D01*
X50573113Y-108132475D01*
X50616000Y-108348084D01*
X50616000Y-108567916D01*
X50573113Y-108783525D01*
X50488987Y-108986624D01*
X50366854Y-109169409D01*
X50211409Y-109324854D01*
X50028624Y-109446987D01*
X49825525Y-109531113D01*
X49753655Y-109545409D01*
X49609918Y-109574000D01*
X49390082Y-109574000D01*
X49246345Y-109545409D01*
X49174475Y-109531113D01*
X48971376Y-109446987D01*
X48788591Y-109324854D01*
X48633146Y-109169409D01*
X48511013Y-108986624D01*
X48426887Y-108783525D01*
X48384000Y-108567916D01*
X48384000Y-108348084D01*
X48426887Y-108132475D01*
X48511013Y-107929376D01*
X48633146Y-107746591D01*
X48788591Y-107591146D01*
X48971376Y-107469013D01*
X49174475Y-107384887D01*
X49246345Y-107370591D01*
X49390082Y-107342000D01*
X49609918Y-107342000D01*
X49753655Y-107370591D01*
G37*
G36*
X41453655Y-107370591D02*
G01*
X41525525Y-107384887D01*
X41728624Y-107469013D01*
X41911409Y-107591146D01*
X42066854Y-107746591D01*
X42188987Y-107929376D01*
X42273113Y-108132475D01*
X42316000Y-108348084D01*
X42316000Y-108567916D01*
X42273113Y-108783525D01*
X42188987Y-108986624D01*
X42066854Y-109169409D01*
X41911409Y-109324854D01*
X41728624Y-109446987D01*
X41525525Y-109531113D01*
X41453655Y-109545409D01*
X41309918Y-109574000D01*
X41090082Y-109574000D01*
X40946345Y-109545409D01*
X40874475Y-109531113D01*
X40671376Y-109446987D01*
X40488591Y-109324854D01*
X40333146Y-109169409D01*
X40211013Y-108986624D01*
X40126887Y-108783525D01*
X40084000Y-108567916D01*
X40084000Y-108348084D01*
X40126887Y-108132475D01*
X40211013Y-107929376D01*
X40333146Y-107746591D01*
X40488591Y-107591146D01*
X40671376Y-107469013D01*
X40874475Y-107384887D01*
X40946345Y-107370591D01*
X41090082Y-107342000D01*
X41309918Y-107342000D01*
X41453655Y-107370591D01*
G37*
G36*
X26953655Y-107370591D02*
G01*
X27025525Y-107384887D01*
X27228624Y-107469013D01*
X27411409Y-107591146D01*
X27566854Y-107746591D01*
X27688987Y-107929376D01*
X27773113Y-108132475D01*
X27816000Y-108348084D01*
X27816000Y-108567916D01*
X27773113Y-108783525D01*
X27688987Y-108986624D01*
X27566854Y-109169409D01*
X27411409Y-109324854D01*
X27228624Y-109446987D01*
X27025525Y-109531113D01*
X26953655Y-109545409D01*
X26809918Y-109574000D01*
X26590082Y-109574000D01*
X26446345Y-109545409D01*
X26374475Y-109531113D01*
X26171376Y-109446987D01*
X25988591Y-109324854D01*
X25833146Y-109169409D01*
X25711013Y-108986624D01*
X25626887Y-108783525D01*
X25584000Y-108567916D01*
X25584000Y-108348084D01*
X25626887Y-108132475D01*
X25711013Y-107929376D01*
X25833146Y-107746591D01*
X25988591Y-107591146D01*
X26171376Y-107469013D01*
X26374475Y-107384887D01*
X26446345Y-107370591D01*
X26590082Y-107342000D01*
X26809918Y-107342000D01*
X26953655Y-107370591D01*
G37*
G36*
X35253655Y-107370591D02*
G01*
X35325525Y-107384887D01*
X35528624Y-107469013D01*
X35711409Y-107591146D01*
X35866854Y-107746591D01*
X35988987Y-107929376D01*
X36073113Y-108132475D01*
X36116000Y-108348084D01*
X36116000Y-108567916D01*
X36073113Y-108783525D01*
X35988987Y-108986624D01*
X35866854Y-109169409D01*
X35711409Y-109324854D01*
X35528624Y-109446987D01*
X35325525Y-109531113D01*
X35253655Y-109545409D01*
X35109918Y-109574000D01*
X34890082Y-109574000D01*
X34746345Y-109545409D01*
X34674475Y-109531113D01*
X34471376Y-109446987D01*
X34288591Y-109324854D01*
X34133146Y-109169409D01*
X34011013Y-108986624D01*
X33926887Y-108783525D01*
X33884000Y-108567916D01*
X33884000Y-108348084D01*
X33926887Y-108132475D01*
X34011013Y-107929376D01*
X34133146Y-107746591D01*
X34288591Y-107591146D01*
X34471376Y-107469013D01*
X34674475Y-107384887D01*
X34746345Y-107370591D01*
X34890082Y-107342000D01*
X35109918Y-107342000D01*
X35253655Y-107370591D01*
G37*
G36*
X39066000Y-109474000D02*
G01*
X37134000Y-109474000D01*
X37134000Y-107442000D01*
X39066000Y-107442000D01*
X39066000Y-109474000D01*
G37*
G36*
X39758000Y-103385000D02*
G01*
X36456000Y-103385000D01*
X36456000Y-101283000D01*
X39758000Y-101283000D01*
X39758000Y-103385000D01*
G37*
G36*
X45413564Y-98223389D02*
G01*
X45604833Y-98302615D01*
X45604835Y-98302616D01*
X45776973Y-98417635D01*
X45923365Y-98564027D01*
X46038385Y-98736167D01*
X46117611Y-98927436D01*
X46158000Y-99130484D01*
X46158000Y-99337516D01*
X46117611Y-99540564D01*
X46038385Y-99731833D01*
X46038384Y-99731835D01*
X45923365Y-99903973D01*
X45776973Y-100050365D01*
X45604835Y-100165384D01*
X45604834Y-100165385D01*
X45604833Y-100165385D01*
X45413564Y-100244611D01*
X45210516Y-100285000D01*
X45003484Y-100285000D01*
X44800436Y-100244611D01*
X44609167Y-100165385D01*
X44609166Y-100165385D01*
X44609165Y-100165384D01*
X44437027Y-100050365D01*
X44290635Y-99903973D01*
X44175616Y-99731835D01*
X44175615Y-99731833D01*
X44096389Y-99540564D01*
X44056000Y-99337516D01*
X44056000Y-99130484D01*
X44096389Y-98927436D01*
X44175615Y-98736167D01*
X44290635Y-98564027D01*
X44437027Y-98417635D01*
X44609165Y-98302616D01*
X44609167Y-98302615D01*
X44800436Y-98223389D01*
X45003484Y-98183000D01*
X45210516Y-98183000D01*
X45413564Y-98223389D01*
G37*
G36*
X30913564Y-98223389D02*
G01*
X31104833Y-98302615D01*
X31104835Y-98302616D01*
X31276973Y-98417635D01*
X31423365Y-98564027D01*
X31538385Y-98736167D01*
X31617611Y-98927436D01*
X31658000Y-99130484D01*
X31658000Y-99337516D01*
X31617611Y-99540564D01*
X31538385Y-99731833D01*
X31538384Y-99731835D01*
X31423365Y-99903973D01*
X31276973Y-100050365D01*
X31104835Y-100165384D01*
X31104834Y-100165385D01*
X31104833Y-100165385D01*
X30913564Y-100244611D01*
X30710516Y-100285000D01*
X30503484Y-100285000D01*
X30300436Y-100244611D01*
X30109167Y-100165385D01*
X30109166Y-100165385D01*
X30109165Y-100165384D01*
X29937027Y-100050365D01*
X29790635Y-99903973D01*
X29675616Y-99731835D01*
X29675615Y-99731833D01*
X29596389Y-99540564D01*
X29556000Y-99337516D01*
X29556000Y-99130484D01*
X29596389Y-98927436D01*
X29675615Y-98736167D01*
X29790635Y-98564027D01*
X29937027Y-98417635D01*
X30109165Y-98302616D01*
X30109167Y-98302615D01*
X30300436Y-98223389D01*
X30503484Y-98183000D01*
X30710516Y-98183000D01*
X30913564Y-98223389D01*
G37*
G36*
X30913564Y-95723389D02*
G01*
X31104833Y-95802615D01*
X31104835Y-95802616D01*
X31276973Y-95917635D01*
X31423365Y-96064027D01*
X31538385Y-96236167D01*
X31617611Y-96427436D01*
X31658000Y-96630484D01*
X31658000Y-96837516D01*
X31617611Y-97040564D01*
X31538385Y-97231833D01*
X31538384Y-97231835D01*
X31423365Y-97403973D01*
X31276973Y-97550365D01*
X31104835Y-97665384D01*
X31104834Y-97665385D01*
X31104833Y-97665385D01*
X30913564Y-97744611D01*
X30710516Y-97785000D01*
X30503484Y-97785000D01*
X30300436Y-97744611D01*
X30109167Y-97665385D01*
X30109166Y-97665385D01*
X30109165Y-97665384D01*
X29937027Y-97550365D01*
X29790635Y-97403973D01*
X29675616Y-97231835D01*
X29675615Y-97231833D01*
X29596389Y-97040564D01*
X29556000Y-96837516D01*
X29556000Y-96630484D01*
X29596389Y-96427436D01*
X29675615Y-96236167D01*
X29790635Y-96064027D01*
X29937027Y-95917635D01*
X30109165Y-95802616D01*
X30109167Y-95802615D01*
X30300436Y-95723389D01*
X30503484Y-95683000D01*
X30710516Y-95683000D01*
X30913564Y-95723389D01*
G37*
G36*
X31658000Y-95285000D02*
G01*
X29556000Y-95285000D01*
X29556000Y-93183000D01*
X31658000Y-93183000D01*
X31658000Y-95285000D01*
G37*
G36*
X45413564Y-93223389D02*
G01*
X45604833Y-93302615D01*
X45604835Y-93302616D01*
X45776973Y-93417635D01*
X45923365Y-93564027D01*
X46038385Y-93736167D01*
X46117611Y-93927436D01*
X46158000Y-94130484D01*
X46158000Y-94337516D01*
X46117611Y-94540564D01*
X46038385Y-94731833D01*
X46038384Y-94731835D01*
X45923365Y-94903973D01*
X45776973Y-95050365D01*
X45604835Y-95165384D01*
X45604834Y-95165385D01*
X45604833Y-95165385D01*
X45413564Y-95244611D01*
X45210516Y-95285000D01*
X45003484Y-95285000D01*
X44800436Y-95244611D01*
X44609167Y-95165385D01*
X44609166Y-95165385D01*
X44609165Y-95165384D01*
X44437027Y-95050365D01*
X44290635Y-94903973D01*
X44175616Y-94731835D01*
X44175615Y-94731833D01*
X44096389Y-94540564D01*
X44056000Y-94337516D01*
X44056000Y-94130484D01*
X44096389Y-93927436D01*
X44175615Y-93736167D01*
X44290635Y-93564027D01*
X44437027Y-93417635D01*
X44609165Y-93302616D01*
X44609167Y-93302615D01*
X44800436Y-93223389D01*
X45003484Y-93183000D01*
X45210516Y-93183000D01*
X45413564Y-93223389D01*
G37*
G36*
X39758000Y-92185000D02*
G01*
X36456000Y-92185000D01*
X36456000Y-90083000D01*
X39758000Y-90083000D01*
X39758000Y-92185000D01*
G37*
G36*
X47227142Y-86848242D02*
G01*
X47375101Y-86909529D01*
X47508255Y-86998499D01*
X47621501Y-87111745D01*
X47710471Y-87244899D01*
X47771758Y-87392858D01*
X47803000Y-87549925D01*
X47803000Y-87710075D01*
X47771758Y-87867142D01*
X47710471Y-88015101D01*
X47621501Y-88148255D01*
X47508255Y-88261501D01*
X47375101Y-88350471D01*
X47227142Y-88411758D01*
X47070075Y-88443000D01*
X46909925Y-88443000D01*
X46752858Y-88411758D01*
X46604899Y-88350471D01*
X46471745Y-88261501D01*
X46358499Y-88148255D01*
X46269529Y-88015101D01*
X46208242Y-87867142D01*
X46177000Y-87710075D01*
X46177000Y-87549925D01*
X46208242Y-87392858D01*
X46269529Y-87244899D01*
X46358499Y-87111745D01*
X46471745Y-86998499D01*
X46604899Y-86909529D01*
X46752858Y-86848242D01*
X46909925Y-86817000D01*
X47070075Y-86817000D01*
X47227142Y-86848242D01*
G37*
G36*
X29447142Y-86848242D02*
G01*
X29595101Y-86909529D01*
X29728255Y-86998499D01*
X29841501Y-87111745D01*
X29930471Y-87244899D01*
X29991758Y-87392858D01*
X30023000Y-87549925D01*
X30023000Y-87710075D01*
X29991758Y-87867142D01*
X29930471Y-88015101D01*
X29841501Y-88148255D01*
X29728255Y-88261501D01*
X29595101Y-88350471D01*
X29447142Y-88411758D01*
X29290075Y-88443000D01*
X29129925Y-88443000D01*
X28972858Y-88411758D01*
X28824899Y-88350471D01*
X28691745Y-88261501D01*
X28578499Y-88148255D01*
X28489529Y-88015101D01*
X28428242Y-87867142D01*
X28397000Y-87710075D01*
X28397000Y-87549925D01*
X28428242Y-87392858D01*
X28489529Y-87244899D01*
X28578499Y-87111745D01*
X28691745Y-86998499D01*
X28824899Y-86909529D01*
X28972858Y-86848242D01*
X29129925Y-86817000D01*
X29290075Y-86817000D01*
X29447142Y-86848242D01*
G37*
G36*
X47227142Y-84308242D02*
G01*
X47375101Y-84369529D01*
X47508255Y-84458499D01*
X47621501Y-84571745D01*
X47710471Y-84704899D01*
X47771758Y-84852858D01*
X47803000Y-85009925D01*
X47803000Y-85170075D01*
X47771758Y-85327142D01*
X47710471Y-85475101D01*
X47621501Y-85608255D01*
X47508255Y-85721501D01*
X47375101Y-85810471D01*
X47227142Y-85871758D01*
X47070075Y-85903000D01*
X46909925Y-85903000D01*
X46752858Y-85871758D01*
X46604899Y-85810471D01*
X46471745Y-85721501D01*
X46358499Y-85608255D01*
X46269529Y-85475101D01*
X46208242Y-85327142D01*
X46177000Y-85170075D01*
X46177000Y-85009925D01*
X46208242Y-84852858D01*
X46269529Y-84704899D01*
X46358499Y-84571745D01*
X46471745Y-84458499D01*
X46604899Y-84369529D01*
X46752858Y-84308242D01*
X46909925Y-84277000D01*
X47070075Y-84277000D01*
X47227142Y-84308242D01*
G37*
G36*
X29447142Y-84308242D02*
G01*
X29595101Y-84369529D01*
X29728255Y-84458499D01*
X29841501Y-84571745D01*
X29930471Y-84704899D01*
X29991758Y-84852858D01*
X30023000Y-85009925D01*
X30023000Y-85170075D01*
X29991758Y-85327142D01*
X29930471Y-85475101D01*
X29841501Y-85608255D01*
X29728255Y-85721501D01*
X29595101Y-85810471D01*
X29447142Y-85871758D01*
X29290075Y-85903000D01*
X29129925Y-85903000D01*
X28972858Y-85871758D01*
X28824899Y-85810471D01*
X28691745Y-85721501D01*
X28578499Y-85608255D01*
X28489529Y-85475101D01*
X28428242Y-85327142D01*
X28397000Y-85170075D01*
X28397000Y-85009925D01*
X28428242Y-84852858D01*
X28489529Y-84704899D01*
X28578499Y-84571745D01*
X28691745Y-84458499D01*
X28824899Y-84369529D01*
X28972858Y-84308242D01*
X29129925Y-84277000D01*
X29290075Y-84277000D01*
X29447142Y-84308242D01*
G37*
G36*
X29447142Y-81768242D02*
G01*
X29595101Y-81829529D01*
X29728255Y-81918499D01*
X29841501Y-82031745D01*
X29930471Y-82164899D01*
X29991758Y-82312858D01*
X30023000Y-82469925D01*
X30023000Y-82630075D01*
X29991758Y-82787142D01*
X29930471Y-82935101D01*
X29841501Y-83068255D01*
X29728255Y-83181501D01*
X29595101Y-83270471D01*
X29447142Y-83331758D01*
X29290075Y-83363000D01*
X29129925Y-83363000D01*
X28972858Y-83331758D01*
X28824899Y-83270471D01*
X28691745Y-83181501D01*
X28578499Y-83068255D01*
X28489529Y-82935101D01*
X28428242Y-82787142D01*
X28397000Y-82630075D01*
X28397000Y-82469925D01*
X28428242Y-82312858D01*
X28489529Y-82164899D01*
X28578499Y-82031745D01*
X28691745Y-81918499D01*
X28824899Y-81829529D01*
X28972858Y-81768242D01*
X29129925Y-81737000D01*
X29290075Y-81737000D01*
X29447142Y-81768242D01*
G37*
G36*
X47227142Y-81768242D02*
G01*
X47375101Y-81829529D01*
X47508255Y-81918499D01*
X47621501Y-82031745D01*
X47710471Y-82164899D01*
X47771758Y-82312858D01*
X47803000Y-82469925D01*
X47803000Y-82630075D01*
X47771758Y-82787142D01*
X47710471Y-82935101D01*
X47621501Y-83068255D01*
X47508255Y-83181501D01*
X47375101Y-83270471D01*
X47227142Y-83331758D01*
X47070075Y-83363000D01*
X46909925Y-83363000D01*
X46752858Y-83331758D01*
X46604899Y-83270471D01*
X46471745Y-83181501D01*
X46358499Y-83068255D01*
X46269529Y-82935101D01*
X46208242Y-82787142D01*
X46177000Y-82630075D01*
X46177000Y-82469925D01*
X46208242Y-82312858D01*
X46269529Y-82164899D01*
X46358499Y-82031745D01*
X46471745Y-81918499D01*
X46604899Y-81829529D01*
X46752858Y-81768242D01*
X46909925Y-81737000D01*
X47070075Y-81737000D01*
X47227142Y-81768242D01*
G37*
G36*
X47227142Y-79228242D02*
G01*
X47375101Y-79289529D01*
X47508255Y-79378499D01*
X47621501Y-79491745D01*
X47710471Y-79624899D01*
X47771758Y-79772858D01*
X47803000Y-79929925D01*
X47803000Y-80090075D01*
X47771758Y-80247142D01*
X47710471Y-80395101D01*
X47621501Y-80528255D01*
X47508255Y-80641501D01*
X47375101Y-80730471D01*
X47227142Y-80791758D01*
X47070075Y-80823000D01*
X46909925Y-80823000D01*
X46752858Y-80791758D01*
X46604899Y-80730471D01*
X46471745Y-80641501D01*
X46358499Y-80528255D01*
X46269529Y-80395101D01*
X46208242Y-80247142D01*
X46177000Y-80090075D01*
X46177000Y-79929925D01*
X46208242Y-79772858D01*
X46269529Y-79624899D01*
X46358499Y-79491745D01*
X46471745Y-79378499D01*
X46604899Y-79289529D01*
X46752858Y-79228242D01*
X46909925Y-79197000D01*
X47070075Y-79197000D01*
X47227142Y-79228242D01*
G37*
G36*
X29447142Y-79228242D02*
G01*
X29595101Y-79289529D01*
X29728255Y-79378499D01*
X29841501Y-79491745D01*
X29930471Y-79624899D01*
X29991758Y-79772858D01*
X30023000Y-79929925D01*
X30023000Y-80090075D01*
X29991758Y-80247142D01*
X29930471Y-80395101D01*
X29841501Y-80528255D01*
X29728255Y-80641501D01*
X29595101Y-80730471D01*
X29447142Y-80791758D01*
X29290075Y-80823000D01*
X29129925Y-80823000D01*
X28972858Y-80791758D01*
X28824899Y-80730471D01*
X28691745Y-80641501D01*
X28578499Y-80528255D01*
X28489529Y-80395101D01*
X28428242Y-80247142D01*
X28397000Y-80090075D01*
X28397000Y-79929925D01*
X28428242Y-79772858D01*
X28489529Y-79624899D01*
X28578499Y-79491745D01*
X28691745Y-79378499D01*
X28824899Y-79289529D01*
X28972858Y-79228242D01*
X29129925Y-79197000D01*
X29290075Y-79197000D01*
X29447142Y-79228242D01*
G37*
G36*
X47227142Y-76688242D02*
G01*
X47375101Y-76749529D01*
X47508255Y-76838499D01*
X47621501Y-76951745D01*
X47710471Y-77084899D01*
X47771758Y-77232858D01*
X47803000Y-77389925D01*
X47803000Y-77550075D01*
X47771758Y-77707142D01*
X47710471Y-77855101D01*
X47621501Y-77988255D01*
X47508255Y-78101501D01*
X47375101Y-78190471D01*
X47227142Y-78251758D01*
X47070075Y-78283000D01*
X46909925Y-78283000D01*
X46752858Y-78251758D01*
X46604899Y-78190471D01*
X46471745Y-78101501D01*
X46358499Y-77988255D01*
X46269529Y-77855101D01*
X46208242Y-77707142D01*
X46177000Y-77550075D01*
X46177000Y-77389925D01*
X46208242Y-77232858D01*
X46269529Y-77084899D01*
X46358499Y-76951745D01*
X46471745Y-76838499D01*
X46604899Y-76749529D01*
X46752858Y-76688242D01*
X46909925Y-76657000D01*
X47070075Y-76657000D01*
X47227142Y-76688242D01*
G37*
G36*
X29447142Y-76688242D02*
G01*
X29595101Y-76749529D01*
X29728255Y-76838499D01*
X29841501Y-76951745D01*
X29930471Y-77084899D01*
X29991758Y-77232858D01*
X30023000Y-77389925D01*
X30023000Y-77550075D01*
X29991758Y-77707142D01*
X29930471Y-77855101D01*
X29841501Y-77988255D01*
X29728255Y-78101501D01*
X29595101Y-78190471D01*
X29447142Y-78251758D01*
X29290075Y-78283000D01*
X29129925Y-78283000D01*
X28972858Y-78251758D01*
X28824899Y-78190471D01*
X28691745Y-78101501D01*
X28578499Y-77988255D01*
X28489529Y-77855101D01*
X28428242Y-77707142D01*
X28397000Y-77550075D01*
X28397000Y-77389925D01*
X28428242Y-77232858D01*
X28489529Y-77084899D01*
X28578499Y-76951745D01*
X28691745Y-76838499D01*
X28824899Y-76749529D01*
X28972858Y-76688242D01*
X29129925Y-76657000D01*
X29290075Y-76657000D01*
X29447142Y-76688242D01*
G37*
G36*
X47227142Y-74148242D02*
G01*
X47375101Y-74209529D01*
X47508255Y-74298499D01*
X47621501Y-74411745D01*
X47710471Y-74544899D01*
X47771758Y-74692858D01*
X47803000Y-74849925D01*
X47803000Y-75010075D01*
X47771758Y-75167142D01*
X47710471Y-75315101D01*
X47621501Y-75448255D01*
X47508255Y-75561501D01*
X47375101Y-75650471D01*
X47227142Y-75711758D01*
X47070075Y-75743000D01*
X46909925Y-75743000D01*
X46752858Y-75711758D01*
X46604899Y-75650471D01*
X46471745Y-75561501D01*
X46358499Y-75448255D01*
X46269529Y-75315101D01*
X46208242Y-75167142D01*
X46177000Y-75010075D01*
X46177000Y-74849925D01*
X46208242Y-74692858D01*
X46269529Y-74544899D01*
X46358499Y-74411745D01*
X46471745Y-74298499D01*
X46604899Y-74209529D01*
X46752858Y-74148242D01*
X46909925Y-74117000D01*
X47070075Y-74117000D01*
X47227142Y-74148242D01*
G37*
G36*
X29447142Y-74148242D02*
G01*
X29595101Y-74209529D01*
X29728255Y-74298499D01*
X29841501Y-74411745D01*
X29930471Y-74544899D01*
X29991758Y-74692858D01*
X30023000Y-74849925D01*
X30023000Y-75010075D01*
X29991758Y-75167142D01*
X29930471Y-75315101D01*
X29841501Y-75448255D01*
X29728255Y-75561501D01*
X29595101Y-75650471D01*
X29447142Y-75711758D01*
X29290075Y-75743000D01*
X29129925Y-75743000D01*
X28972858Y-75711758D01*
X28824899Y-75650471D01*
X28691745Y-75561501D01*
X28578499Y-75448255D01*
X28489529Y-75315101D01*
X28428242Y-75167142D01*
X28397000Y-75010075D01*
X28397000Y-74849925D01*
X28428242Y-74692858D01*
X28489529Y-74544899D01*
X28578499Y-74411745D01*
X28691745Y-74298499D01*
X28824899Y-74209529D01*
X28972858Y-74148242D01*
X29129925Y-74117000D01*
X29290075Y-74117000D01*
X29447142Y-74148242D01*
G37*
G36*
X29447142Y-71608242D02*
G01*
X29595101Y-71669529D01*
X29728255Y-71758499D01*
X29841501Y-71871745D01*
X29930471Y-72004899D01*
X29991758Y-72152858D01*
X30023000Y-72309925D01*
X30023000Y-72470075D01*
X29991758Y-72627142D01*
X29930471Y-72775101D01*
X29841501Y-72908255D01*
X29728255Y-73021501D01*
X29595101Y-73110471D01*
X29447142Y-73171758D01*
X29290075Y-73203000D01*
X29129925Y-73203000D01*
X28972858Y-73171758D01*
X28824899Y-73110471D01*
X28691745Y-73021501D01*
X28578499Y-72908255D01*
X28489529Y-72775101D01*
X28428242Y-72627142D01*
X28397000Y-72470075D01*
X28397000Y-72309925D01*
X28428242Y-72152858D01*
X28489529Y-72004899D01*
X28578499Y-71871745D01*
X28691745Y-71758499D01*
X28824899Y-71669529D01*
X28972858Y-71608242D01*
X29129925Y-71577000D01*
X29290075Y-71577000D01*
X29447142Y-71608242D01*
G37*
G36*
X47227142Y-71608242D02*
G01*
X47375101Y-71669529D01*
X47508255Y-71758499D01*
X47621501Y-71871745D01*
X47710471Y-72004899D01*
X47771758Y-72152858D01*
X47803000Y-72309925D01*
X47803000Y-72470075D01*
X47771758Y-72627142D01*
X47710471Y-72775101D01*
X47621501Y-72908255D01*
X47508255Y-73021501D01*
X47375101Y-73110471D01*
X47227142Y-73171758D01*
X47070075Y-73203000D01*
X46909925Y-73203000D01*
X46752858Y-73171758D01*
X46604899Y-73110471D01*
X46471745Y-73021501D01*
X46358499Y-72908255D01*
X46269529Y-72775101D01*
X46208242Y-72627142D01*
X46177000Y-72470075D01*
X46177000Y-72309925D01*
X46208242Y-72152858D01*
X46269529Y-72004899D01*
X46358499Y-71871745D01*
X46471745Y-71758499D01*
X46604899Y-71669529D01*
X46752858Y-71608242D01*
X46909925Y-71577000D01*
X47070075Y-71577000D01*
X47227142Y-71608242D01*
G37*
G36*
X29447142Y-69068242D02*
G01*
X29595101Y-69129529D01*
X29728255Y-69218499D01*
X29841501Y-69331745D01*
X29930471Y-69464899D01*
X29991758Y-69612858D01*
X30023000Y-69769925D01*
X30023000Y-69930075D01*
X29991758Y-70087142D01*
X29930471Y-70235101D01*
X29841501Y-70368255D01*
X29728255Y-70481501D01*
X29595101Y-70570471D01*
X29447142Y-70631758D01*
X29290075Y-70663000D01*
X29129925Y-70663000D01*
X28972858Y-70631758D01*
X28824899Y-70570471D01*
X28691745Y-70481501D01*
X28578499Y-70368255D01*
X28489529Y-70235101D01*
X28428242Y-70087142D01*
X28397000Y-69930075D01*
X28397000Y-69769925D01*
X28428242Y-69612858D01*
X28489529Y-69464899D01*
X28578499Y-69331745D01*
X28691745Y-69218499D01*
X28824899Y-69129529D01*
X28972858Y-69068242D01*
X29129925Y-69037000D01*
X29290075Y-69037000D01*
X29447142Y-69068242D01*
G37*
G36*
X47227142Y-69068242D02*
G01*
X47375101Y-69129529D01*
X47508255Y-69218499D01*
X47621501Y-69331745D01*
X47710471Y-69464899D01*
X47771758Y-69612858D01*
X47803000Y-69769925D01*
X47803000Y-69930075D01*
X47771758Y-70087142D01*
X47710471Y-70235101D01*
X47621501Y-70368255D01*
X47508255Y-70481501D01*
X47375101Y-70570471D01*
X47227142Y-70631758D01*
X47070075Y-70663000D01*
X46909925Y-70663000D01*
X46752858Y-70631758D01*
X46604899Y-70570471D01*
X46471745Y-70481501D01*
X46358499Y-70368255D01*
X46269529Y-70235101D01*
X46208242Y-70087142D01*
X46177000Y-69930075D01*
X46177000Y-69769925D01*
X46208242Y-69612858D01*
X46269529Y-69464899D01*
X46358499Y-69331745D01*
X46471745Y-69218499D01*
X46604899Y-69129529D01*
X46752858Y-69068242D01*
X46909925Y-69037000D01*
X47070075Y-69037000D01*
X47227142Y-69068242D01*
G37*
G36*
X34568412Y-63045805D02*
G01*
X34706604Y-63059416D01*
X34972579Y-63140099D01*
X34972581Y-63140100D01*
X35217701Y-63271119D01*
X35432556Y-63447444D01*
X35608880Y-63662298D01*
X35739901Y-63907421D01*
X35820584Y-64173396D01*
X35847827Y-64450000D01*
X35820584Y-64726604D01*
X35739901Y-64992579D01*
X35739900Y-64992581D01*
X35608881Y-65237701D01*
X35432556Y-65452556D01*
X35217701Y-65628881D01*
X34972581Y-65759900D01*
X34972579Y-65759901D01*
X34706604Y-65840584D01*
X34568412Y-65854195D01*
X34499317Y-65861000D01*
X33840683Y-65861000D01*
X33771588Y-65854195D01*
X33633396Y-65840584D01*
X33367421Y-65759901D01*
X33367419Y-65759900D01*
X33122299Y-65628881D01*
X32907444Y-65452556D01*
X32731119Y-65237701D01*
X32600100Y-64992581D01*
X32600099Y-64992579D01*
X32519416Y-64726604D01*
X32492173Y-64450000D01*
X32519416Y-64173396D01*
X32600099Y-63907421D01*
X32731120Y-63662298D01*
X32907444Y-63447444D01*
X33122299Y-63271119D01*
X33367419Y-63140100D01*
X33367421Y-63140099D01*
X33633396Y-63059416D01*
X33771588Y-63045805D01*
X33840683Y-63039000D01*
X34499317Y-63039000D01*
X34568412Y-63045805D01*
G37*
G36*
X26947395Y-61235546D02*
G01*
X27120466Y-61307234D01*
X27120467Y-61307235D01*
X27276227Y-61411310D01*
X27408690Y-61543773D01*
X27408691Y-61543775D01*
X27512766Y-61699534D01*
X27584454Y-61872605D01*
X27621000Y-62056333D01*
X27621000Y-62243667D01*
X27584454Y-62427395D01*
X27512766Y-62600466D01*
X27512765Y-62600467D01*
X27408690Y-62756227D01*
X27276227Y-62888690D01*
X27197818Y-62941081D01*
X27120466Y-62992766D01*
X26947395Y-63064454D01*
X26763667Y-63101000D01*
X26576333Y-63101000D01*
X26392605Y-63064454D01*
X26219534Y-62992766D01*
X26142182Y-62941081D01*
X26063773Y-62888690D01*
X25931310Y-62756227D01*
X25827235Y-62600467D01*
X25827234Y-62600466D01*
X25755546Y-62427395D01*
X25719000Y-62243667D01*
X25719000Y-62056333D01*
X25755546Y-61872605D01*
X25827234Y-61699534D01*
X25931309Y-61543775D01*
X25931310Y-61543773D01*
X26063773Y-61411310D01*
X26219533Y-61307235D01*
X26219534Y-61307234D01*
X26392605Y-61235546D01*
X26576333Y-61199000D01*
X26763667Y-61199000D01*
X26947395Y-61235546D01*
G37*
G36*
X26947395Y-58735546D02*
G01*
X27120466Y-58807234D01*
X27120467Y-58807235D01*
X27276227Y-58911310D01*
X27408690Y-59043773D01*
X27408691Y-59043775D01*
X27512766Y-59199534D01*
X27584454Y-59372605D01*
X27621000Y-59556333D01*
X27621000Y-59743667D01*
X27584454Y-59927395D01*
X27512766Y-60100466D01*
X27512765Y-60100467D01*
X27408690Y-60256227D01*
X27276227Y-60388690D01*
X27197818Y-60441081D01*
X27120466Y-60492766D01*
X26947395Y-60564454D01*
X26763667Y-60601000D01*
X26576333Y-60601000D01*
X26392605Y-60564454D01*
X26219534Y-60492766D01*
X26142182Y-60441081D01*
X26063773Y-60388690D01*
X25931310Y-60256227D01*
X25827235Y-60100467D01*
X25827234Y-60100466D01*
X25755546Y-59927395D01*
X25719000Y-59743667D01*
X25719000Y-59556333D01*
X25755546Y-59372605D01*
X25827234Y-59199534D01*
X25931309Y-59043775D01*
X25931310Y-59043773D01*
X26063773Y-58911310D01*
X26219533Y-58807235D01*
X26219534Y-58807234D01*
X26392605Y-58735546D01*
X26576333Y-58699000D01*
X26763667Y-58699000D01*
X26947395Y-58735546D01*
G37*
G36*
X27621000Y-58101000D02*
G01*
X25719000Y-58101000D01*
X25719000Y-56199000D01*
X27621000Y-56199000D01*
X27621000Y-58101000D01*
G37*
G36*
X34568412Y-53445805D02*
G01*
X34706604Y-53459416D01*
X34972579Y-53540099D01*
X34972581Y-53540100D01*
X35217701Y-53671119D01*
X35432556Y-53847444D01*
X35608880Y-54062298D01*
X35739901Y-54307421D01*
X35820584Y-54573396D01*
X35847827Y-54850000D01*
X35820584Y-55126604D01*
X35739901Y-55392579D01*
X35739900Y-55392581D01*
X35608881Y-55637701D01*
X35432556Y-55852556D01*
X35217701Y-56028881D01*
X34972581Y-56159900D01*
X34972579Y-56159901D01*
X34706604Y-56240584D01*
X34568412Y-56254195D01*
X34499317Y-56261000D01*
X33840683Y-56261000D01*
X33771588Y-56254195D01*
X33633396Y-56240584D01*
X33367421Y-56159901D01*
X33367419Y-56159900D01*
X33122299Y-56028881D01*
X32907444Y-55852556D01*
X32731119Y-55637701D01*
X32600100Y-55392581D01*
X32600099Y-55392579D01*
X32519416Y-55126604D01*
X32492173Y-54850000D01*
X32519416Y-54573396D01*
X32600099Y-54307421D01*
X32731120Y-54062298D01*
X32907444Y-53847444D01*
X33122299Y-53671119D01*
X33367419Y-53540100D01*
X33367421Y-53540099D01*
X33633396Y-53459416D01*
X33771588Y-53445805D01*
X33840683Y-53439000D01*
X34499317Y-53439000D01*
X34568412Y-53445805D01*
G37*
G36*
X42428412Y-49155805D02*
G01*
X42566604Y-49169416D01*
X42832579Y-49250099D01*
X42832581Y-49250100D01*
X43077701Y-49381119D01*
X43292556Y-49557444D01*
X43468880Y-49772298D01*
X43599901Y-50017421D01*
X43680584Y-50283396D01*
X43707827Y-50560000D01*
X43680584Y-50836604D01*
X43599901Y-51102579D01*
X43599900Y-51102581D01*
X43468881Y-51347701D01*
X43292556Y-51562556D01*
X43077701Y-51738881D01*
X42832581Y-51869900D01*
X42832579Y-51869901D01*
X42566604Y-51950584D01*
X42428412Y-51964195D01*
X42359317Y-51971000D01*
X41700683Y-51971000D01*
X41631588Y-51964195D01*
X41493396Y-51950584D01*
X41227421Y-51869901D01*
X41227419Y-51869900D01*
X40982299Y-51738881D01*
X40767444Y-51562556D01*
X40591119Y-51347701D01*
X40460100Y-51102581D01*
X40460099Y-51102579D01*
X40379416Y-50836604D01*
X40352173Y-50560000D01*
X40379416Y-50283396D01*
X40460099Y-50017421D01*
X40591120Y-49772298D01*
X40767444Y-49557444D01*
X40982299Y-49381119D01*
X41227419Y-49250100D01*
X41227421Y-49250099D01*
X41493396Y-49169416D01*
X41631588Y-49155805D01*
X41700683Y-49149000D01*
X42359317Y-49149000D01*
X42428412Y-49155805D01*
G37*
G36*
X50481000Y-49211000D02*
G01*
X48579000Y-49211000D01*
X48579000Y-47309000D01*
X50481000Y-47309000D01*
X50481000Y-49211000D01*
G37*
G36*
X49807395Y-44845546D02*
G01*
X49980466Y-44917234D01*
X49980467Y-44917235D01*
X50136227Y-45021310D01*
X50268690Y-45153773D01*
X50268691Y-45153775D01*
X50372766Y-45309534D01*
X50444454Y-45482605D01*
X50481000Y-45666333D01*
X50481000Y-45853667D01*
X50444454Y-46037395D01*
X50372766Y-46210466D01*
X50372765Y-46210467D01*
X50268690Y-46366227D01*
X50136227Y-46498690D01*
X50057818Y-46551081D01*
X49980466Y-46602766D01*
X49807395Y-46674454D01*
X49623667Y-46711000D01*
X49436333Y-46711000D01*
X49252605Y-46674454D01*
X49079534Y-46602766D01*
X49002182Y-46551081D01*
X48923773Y-46498690D01*
X48791310Y-46366227D01*
X48687235Y-46210467D01*
X48687234Y-46210466D01*
X48615546Y-46037395D01*
X48579000Y-45853667D01*
X48579000Y-45666333D01*
X48615546Y-45482605D01*
X48687234Y-45309534D01*
X48791309Y-45153775D01*
X48791310Y-45153773D01*
X48923773Y-45021310D01*
X49079533Y-44917235D01*
X49079534Y-44917234D01*
X49252605Y-44845546D01*
X49436333Y-44809000D01*
X49623667Y-44809000D01*
X49807395Y-44845546D01*
G37*
G36*
X49807395Y-42345546D02*
G01*
X49980466Y-42417234D01*
X49980467Y-42417235D01*
X50136227Y-42521310D01*
X50268690Y-42653773D01*
X50268691Y-42653775D01*
X50372766Y-42809534D01*
X50444454Y-42982605D01*
X50481000Y-43166333D01*
X50481000Y-43353667D01*
X50444454Y-43537395D01*
X50372766Y-43710466D01*
X50372765Y-43710467D01*
X50268690Y-43866227D01*
X50136227Y-43998690D01*
X50057818Y-44051081D01*
X49980466Y-44102766D01*
X49807395Y-44174454D01*
X49623667Y-44211000D01*
X49436333Y-44211000D01*
X49252605Y-44174454D01*
X49079534Y-44102766D01*
X49002182Y-44051081D01*
X48923773Y-43998690D01*
X48791310Y-43866227D01*
X48687235Y-43710467D01*
X48687234Y-43710466D01*
X48615546Y-43537395D01*
X48579000Y-43353667D01*
X48579000Y-43166333D01*
X48615546Y-42982605D01*
X48687234Y-42809534D01*
X48791309Y-42653775D01*
X48791310Y-42653773D01*
X48923773Y-42521310D01*
X49079533Y-42417235D01*
X49079534Y-42417234D01*
X49252605Y-42345546D01*
X49436333Y-42309000D01*
X49623667Y-42309000D01*
X49807395Y-42345546D01*
G37*
G36*
X42428412Y-39555805D02*
G01*
X42566604Y-39569416D01*
X42832579Y-39650099D01*
X42832581Y-39650100D01*
X43077701Y-39781119D01*
X43292556Y-39957444D01*
X43468880Y-40172298D01*
X43599901Y-40417421D01*
X43680584Y-40683396D01*
X43707827Y-40960000D01*
X43680584Y-41236604D01*
X43599901Y-41502579D01*
X43599900Y-41502581D01*
X43468881Y-41747701D01*
X43292556Y-41962556D01*
X43077701Y-42138881D01*
X42832581Y-42269900D01*
X42832579Y-42269901D01*
X42566604Y-42350584D01*
X42428412Y-42364195D01*
X42359317Y-42371000D01*
X41700683Y-42371000D01*
X41631588Y-42364195D01*
X41493396Y-42350584D01*
X41227421Y-42269901D01*
X41227419Y-42269900D01*
X40982299Y-42138881D01*
X40767444Y-41962556D01*
X40591119Y-41747701D01*
X40460100Y-41502581D01*
X40460099Y-41502579D01*
X40379416Y-41236604D01*
X40352173Y-40960000D01*
X40379416Y-40683396D01*
X40460099Y-40417421D01*
X40591120Y-40172298D01*
X40767444Y-39957444D01*
X40982299Y-39781119D01*
X41227419Y-39650100D01*
X41227421Y-39650099D01*
X41493396Y-39569416D01*
X41631588Y-39555805D01*
X41700683Y-39549000D01*
X42359317Y-39549000D01*
X42428412Y-39555805D01*
G37*
G36*
X34568412Y-35105805D02*
G01*
X34706604Y-35119416D01*
X34972579Y-35200099D01*
X34972581Y-35200100D01*
X35217701Y-35331119D01*
X35432556Y-35507444D01*
X35608880Y-35722298D01*
X35739901Y-35967421D01*
X35820584Y-36233396D01*
X35847827Y-36510000D01*
X35820584Y-36786604D01*
X35739901Y-37052579D01*
X35739900Y-37052581D01*
X35608881Y-37297701D01*
X35432556Y-37512556D01*
X35217701Y-37688881D01*
X34972581Y-37819900D01*
X34972579Y-37819901D01*
X34706604Y-37900584D01*
X34568412Y-37914195D01*
X34499317Y-37921000D01*
X33840683Y-37921000D01*
X33771588Y-37914195D01*
X33633396Y-37900584D01*
X33367421Y-37819901D01*
X33367419Y-37819900D01*
X33122299Y-37688881D01*
X32907444Y-37512556D01*
X32731119Y-37297701D01*
X32600100Y-37052581D01*
X32600099Y-37052579D01*
X32519416Y-36786604D01*
X32492173Y-36510000D01*
X32519416Y-36233396D01*
X32600099Y-35967421D01*
X32731120Y-35722298D01*
X32907444Y-35507444D01*
X33122299Y-35331119D01*
X33367419Y-35200100D01*
X33367421Y-35200099D01*
X33633396Y-35119416D01*
X33771588Y-35105805D01*
X33840683Y-35099000D01*
X34499317Y-35099000D01*
X34568412Y-35105805D01*
G37*
G36*
X26947395Y-33295546D02*
G01*
X27120466Y-33367234D01*
X27120467Y-33367235D01*
X27276227Y-33471310D01*
X27408690Y-33603773D01*
X27408691Y-33603775D01*
X27512766Y-33759534D01*
X27584454Y-33932605D01*
X27621000Y-34116333D01*
X27621000Y-34303667D01*
X27584454Y-34487395D01*
X27512766Y-34660466D01*
X27512765Y-34660467D01*
X27408690Y-34816227D01*
X27276227Y-34948690D01*
X27197818Y-35001081D01*
X27120466Y-35052766D01*
X26947395Y-35124454D01*
X26763667Y-35161000D01*
X26576333Y-35161000D01*
X26392605Y-35124454D01*
X26219534Y-35052766D01*
X26142182Y-35001081D01*
X26063773Y-34948690D01*
X25931310Y-34816227D01*
X25827235Y-34660467D01*
X25827234Y-34660466D01*
X25755546Y-34487395D01*
X25719000Y-34303667D01*
X25719000Y-34116333D01*
X25755546Y-33932605D01*
X25827234Y-33759534D01*
X25931309Y-33603775D01*
X25931310Y-33603773D01*
X26063773Y-33471310D01*
X26219533Y-33367235D01*
X26219534Y-33367234D01*
X26392605Y-33295546D01*
X26576333Y-33259000D01*
X26763667Y-33259000D01*
X26947395Y-33295546D01*
G37*
G36*
X30593512Y-32123927D02*
G01*
X30742812Y-32153624D01*
X30906784Y-32221544D01*
X31054354Y-32320147D01*
X31179853Y-32445646D01*
X31278456Y-32593216D01*
X31346376Y-32757188D01*
X31381000Y-32931259D01*
X31381000Y-33108741D01*
X31346376Y-33282812D01*
X31278456Y-33446784D01*
X31179853Y-33594354D01*
X31054354Y-33719853D01*
X30906784Y-33818456D01*
X30742812Y-33886376D01*
X30593512Y-33916073D01*
X30568742Y-33921000D01*
X30391258Y-33921000D01*
X30366488Y-33916073D01*
X30217188Y-33886376D01*
X30053216Y-33818456D01*
X29905646Y-33719853D01*
X29780147Y-33594354D01*
X29681544Y-33446784D01*
X29613624Y-33282812D01*
X29579000Y-33108741D01*
X29579000Y-32931259D01*
X29613624Y-32757188D01*
X29681544Y-32593216D01*
X29780147Y-32445646D01*
X29905646Y-32320147D01*
X30053216Y-32221544D01*
X30217188Y-32153624D01*
X30366488Y-32123927D01*
X30391258Y-32119000D01*
X30568742Y-32119000D01*
X30593512Y-32123927D01*
G37*
G36*
X33133512Y-32123927D02*
G01*
X33282812Y-32153624D01*
X33446784Y-32221544D01*
X33594354Y-32320147D01*
X33719853Y-32445646D01*
X33818456Y-32593216D01*
X33886376Y-32757188D01*
X33921000Y-32931259D01*
X33921000Y-33108741D01*
X33886376Y-33282812D01*
X33818456Y-33446784D01*
X33719853Y-33594354D01*
X33594354Y-33719853D01*
X33446784Y-33818456D01*
X33282812Y-33886376D01*
X33133512Y-33916073D01*
X33108742Y-33921000D01*
X32931258Y-33921000D01*
X32906488Y-33916073D01*
X32757188Y-33886376D01*
X32593216Y-33818456D01*
X32445646Y-33719853D01*
X32320147Y-33594354D01*
X32221544Y-33446784D01*
X32153624Y-33282812D01*
X32119000Y-33108741D01*
X32119000Y-32931259D01*
X32153624Y-32757188D01*
X32221544Y-32593216D01*
X32320147Y-32445646D01*
X32445646Y-32320147D01*
X32593216Y-32221544D01*
X32757188Y-32153624D01*
X32906488Y-32123927D01*
X32931258Y-32119000D01*
X33108742Y-32119000D01*
X33133512Y-32123927D01*
G37*
G36*
X45833512Y-32123927D02*
G01*
X45982812Y-32153624D01*
X46146784Y-32221544D01*
X46294354Y-32320147D01*
X46419853Y-32445646D01*
X46518456Y-32593216D01*
X46586376Y-32757188D01*
X46621000Y-32931259D01*
X46621000Y-33108741D01*
X46586376Y-33282812D01*
X46518456Y-33446784D01*
X46419853Y-33594354D01*
X46294354Y-33719853D01*
X46146784Y-33818456D01*
X45982812Y-33886376D01*
X45833512Y-33916073D01*
X45808742Y-33921000D01*
X45631258Y-33921000D01*
X45606488Y-33916073D01*
X45457188Y-33886376D01*
X45293216Y-33818456D01*
X45145646Y-33719853D01*
X45020147Y-33594354D01*
X44921544Y-33446784D01*
X44853624Y-33282812D01*
X44819000Y-33108741D01*
X44819000Y-32931259D01*
X44853624Y-32757188D01*
X44921544Y-32593216D01*
X45020147Y-32445646D01*
X45145646Y-32320147D01*
X45293216Y-32221544D01*
X45457188Y-32153624D01*
X45606488Y-32123927D01*
X45631258Y-32119000D01*
X45808742Y-32119000D01*
X45833512Y-32123927D01*
G37*
G36*
X35673512Y-32123927D02*
G01*
X35822812Y-32153624D01*
X35986784Y-32221544D01*
X36134354Y-32320147D01*
X36259853Y-32445646D01*
X36358456Y-32593216D01*
X36426376Y-32757188D01*
X36461000Y-32931259D01*
X36461000Y-33108741D01*
X36426376Y-33282812D01*
X36358456Y-33446784D01*
X36259853Y-33594354D01*
X36134354Y-33719853D01*
X35986784Y-33818456D01*
X35822812Y-33886376D01*
X35673512Y-33916073D01*
X35648742Y-33921000D01*
X35471258Y-33921000D01*
X35446488Y-33916073D01*
X35297188Y-33886376D01*
X35133216Y-33818456D01*
X34985646Y-33719853D01*
X34860147Y-33594354D01*
X34761544Y-33446784D01*
X34693624Y-33282812D01*
X34659000Y-33108741D01*
X34659000Y-32931259D01*
X34693624Y-32757188D01*
X34761544Y-32593216D01*
X34860147Y-32445646D01*
X34985646Y-32320147D01*
X35133216Y-32221544D01*
X35297188Y-32153624D01*
X35446488Y-32123927D01*
X35471258Y-32119000D01*
X35648742Y-32119000D01*
X35673512Y-32123927D01*
G37*
G36*
X38213512Y-32123927D02*
G01*
X38362812Y-32153624D01*
X38526784Y-32221544D01*
X38674354Y-32320147D01*
X38799853Y-32445646D01*
X38898456Y-32593216D01*
X38966376Y-32757188D01*
X39001000Y-32931259D01*
X39001000Y-33108741D01*
X38966376Y-33282812D01*
X38898456Y-33446784D01*
X38799853Y-33594354D01*
X38674354Y-33719853D01*
X38526784Y-33818456D01*
X38362812Y-33886376D01*
X38213512Y-33916073D01*
X38188742Y-33921000D01*
X38011258Y-33921000D01*
X37986488Y-33916073D01*
X37837188Y-33886376D01*
X37673216Y-33818456D01*
X37525646Y-33719853D01*
X37400147Y-33594354D01*
X37301544Y-33446784D01*
X37233624Y-33282812D01*
X37199000Y-33108741D01*
X37199000Y-32931259D01*
X37233624Y-32757188D01*
X37301544Y-32593216D01*
X37400147Y-32445646D01*
X37525646Y-32320147D01*
X37673216Y-32221544D01*
X37837188Y-32153624D01*
X37986488Y-32123927D01*
X38011258Y-32119000D01*
X38188742Y-32119000D01*
X38213512Y-32123927D01*
G37*
G36*
X40753512Y-32123927D02*
G01*
X40902812Y-32153624D01*
X41066784Y-32221544D01*
X41214354Y-32320147D01*
X41339853Y-32445646D01*
X41438456Y-32593216D01*
X41506376Y-32757188D01*
X41541000Y-32931259D01*
X41541000Y-33108741D01*
X41506376Y-33282812D01*
X41438456Y-33446784D01*
X41339853Y-33594354D01*
X41214354Y-33719853D01*
X41066784Y-33818456D01*
X40902812Y-33886376D01*
X40753512Y-33916073D01*
X40728742Y-33921000D01*
X40551258Y-33921000D01*
X40526488Y-33916073D01*
X40377188Y-33886376D01*
X40213216Y-33818456D01*
X40065646Y-33719853D01*
X39940147Y-33594354D01*
X39841544Y-33446784D01*
X39773624Y-33282812D01*
X39739000Y-33108741D01*
X39739000Y-32931259D01*
X39773624Y-32757188D01*
X39841544Y-32593216D01*
X39940147Y-32445646D01*
X40065646Y-32320147D01*
X40213216Y-32221544D01*
X40377188Y-32153624D01*
X40526488Y-32123927D01*
X40551258Y-32119000D01*
X40728742Y-32119000D01*
X40753512Y-32123927D01*
G37*
G36*
X49161000Y-33921000D02*
G01*
X47359000Y-33921000D01*
X47359000Y-32119000D01*
X49161000Y-32119000D01*
X49161000Y-33921000D01*
G37*
G36*
X43293512Y-32123927D02*
G01*
X43442812Y-32153624D01*
X43606784Y-32221544D01*
X43754354Y-32320147D01*
X43879853Y-32445646D01*
X43978456Y-32593216D01*
X44046376Y-32757188D01*
X44081000Y-32931259D01*
X44081000Y-33108741D01*
X44046376Y-33282812D01*
X43978456Y-33446784D01*
X43879853Y-33594354D01*
X43754354Y-33719853D01*
X43606784Y-33818456D01*
X43442812Y-33886376D01*
X43293512Y-33916073D01*
X43268742Y-33921000D01*
X43091258Y-33921000D01*
X43066488Y-33916073D01*
X42917188Y-33886376D01*
X42753216Y-33818456D01*
X42605646Y-33719853D01*
X42480147Y-33594354D01*
X42381544Y-33446784D01*
X42313624Y-33282812D01*
X42279000Y-33108741D01*
X42279000Y-32931259D01*
X42313624Y-32757188D01*
X42381544Y-32593216D01*
X42480147Y-32445646D01*
X42605646Y-32320147D01*
X42753216Y-32221544D01*
X42917188Y-32153624D01*
X43066488Y-32123927D01*
X43091258Y-32119000D01*
X43268742Y-32119000D01*
X43293512Y-32123927D01*
G37*
G36*
X26947395Y-30795546D02*
G01*
X27120466Y-30867234D01*
X27120467Y-30867235D01*
X27276227Y-30971310D01*
X27408690Y-31103773D01*
X27408691Y-31103775D01*
X27512766Y-31259534D01*
X27584454Y-31432605D01*
X27621000Y-31616333D01*
X27621000Y-31803667D01*
X27584454Y-31987395D01*
X27512766Y-32160466D01*
X27512765Y-32160467D01*
X27408690Y-32316227D01*
X27276227Y-32448690D01*
X27197818Y-32501081D01*
X27120466Y-32552766D01*
X26947395Y-32624454D01*
X26763667Y-32661000D01*
X26576333Y-32661000D01*
X26392605Y-32624454D01*
X26219534Y-32552766D01*
X26142182Y-32501081D01*
X26063773Y-32448690D01*
X25931310Y-32316227D01*
X25827235Y-32160467D01*
X25827234Y-32160466D01*
X25755546Y-31987395D01*
X25719000Y-31803667D01*
X25719000Y-31616333D01*
X25755546Y-31432605D01*
X25827234Y-31259534D01*
X25931309Y-31103775D01*
X25931310Y-31103773D01*
X26063773Y-30971310D01*
X26219533Y-30867235D01*
X26219534Y-30867234D01*
X26392605Y-30795546D01*
X26576333Y-30759000D01*
X26763667Y-30759000D01*
X26947395Y-30795546D01*
G37*
G36*
X48373512Y-29583927D02*
G01*
X48522812Y-29613624D01*
X48686784Y-29681544D01*
X48834354Y-29780147D01*
X48959853Y-29905646D01*
X49058456Y-30053216D01*
X49126376Y-30217188D01*
X49161000Y-30391259D01*
X49161000Y-30568741D01*
X49126376Y-30742812D01*
X49058456Y-30906784D01*
X48959853Y-31054354D01*
X48834354Y-31179853D01*
X48686784Y-31278456D01*
X48522812Y-31346376D01*
X48373512Y-31376073D01*
X48348742Y-31381000D01*
X48171258Y-31381000D01*
X48146488Y-31376073D01*
X47997188Y-31346376D01*
X47833216Y-31278456D01*
X47685646Y-31179853D01*
X47560147Y-31054354D01*
X47461544Y-30906784D01*
X47393624Y-30742812D01*
X47359000Y-30568741D01*
X47359000Y-30391259D01*
X47393624Y-30217188D01*
X47461544Y-30053216D01*
X47560147Y-29905646D01*
X47685646Y-29780147D01*
X47833216Y-29681544D01*
X47997188Y-29613624D01*
X48146488Y-29583927D01*
X48171258Y-29579000D01*
X48348742Y-29579000D01*
X48373512Y-29583927D01*
G37*
G36*
X38213512Y-29583927D02*
G01*
X38362812Y-29613624D01*
X38526784Y-29681544D01*
X38674354Y-29780147D01*
X38799853Y-29905646D01*
X38898456Y-30053216D01*
X38966376Y-30217188D01*
X39001000Y-30391259D01*
X39001000Y-30568741D01*
X38966376Y-30742812D01*
X38898456Y-30906784D01*
X38799853Y-31054354D01*
X38674354Y-31179853D01*
X38526784Y-31278456D01*
X38362812Y-31346376D01*
X38213512Y-31376073D01*
X38188742Y-31381000D01*
X38011258Y-31381000D01*
X37986488Y-31376073D01*
X37837188Y-31346376D01*
X37673216Y-31278456D01*
X37525646Y-31179853D01*
X37400147Y-31054354D01*
X37301544Y-30906784D01*
X37233624Y-30742812D01*
X37199000Y-30568741D01*
X37199000Y-30391259D01*
X37233624Y-30217188D01*
X37301544Y-30053216D01*
X37400147Y-29905646D01*
X37525646Y-29780147D01*
X37673216Y-29681544D01*
X37837188Y-29613624D01*
X37986488Y-29583927D01*
X38011258Y-29579000D01*
X38188742Y-29579000D01*
X38213512Y-29583927D01*
G37*
G36*
X45833512Y-29583927D02*
G01*
X45982812Y-29613624D01*
X46146784Y-29681544D01*
X46294354Y-29780147D01*
X46419853Y-29905646D01*
X46518456Y-30053216D01*
X46586376Y-30217188D01*
X46621000Y-30391259D01*
X46621000Y-30568741D01*
X46586376Y-30742812D01*
X46518456Y-30906784D01*
X46419853Y-31054354D01*
X46294354Y-31179853D01*
X46146784Y-31278456D01*
X45982812Y-31346376D01*
X45833512Y-31376073D01*
X45808742Y-31381000D01*
X45631258Y-31381000D01*
X45606488Y-31376073D01*
X45457188Y-31346376D01*
X45293216Y-31278456D01*
X45145646Y-31179853D01*
X45020147Y-31054354D01*
X44921544Y-30906784D01*
X44853624Y-30742812D01*
X44819000Y-30568741D01*
X44819000Y-30391259D01*
X44853624Y-30217188D01*
X44921544Y-30053216D01*
X45020147Y-29905646D01*
X45145646Y-29780147D01*
X45293216Y-29681544D01*
X45457188Y-29613624D01*
X45606488Y-29583927D01*
X45631258Y-29579000D01*
X45808742Y-29579000D01*
X45833512Y-29583927D01*
G37*
G36*
X43293512Y-29583927D02*
G01*
X43442812Y-29613624D01*
X43606784Y-29681544D01*
X43754354Y-29780147D01*
X43879853Y-29905646D01*
X43978456Y-30053216D01*
X44046376Y-30217188D01*
X44081000Y-30391259D01*
X44081000Y-30568741D01*
X44046376Y-30742812D01*
X43978456Y-30906784D01*
X43879853Y-31054354D01*
X43754354Y-31179853D01*
X43606784Y-31278456D01*
X43442812Y-31346376D01*
X43293512Y-31376073D01*
X43268742Y-31381000D01*
X43091258Y-31381000D01*
X43066488Y-31376073D01*
X42917188Y-31346376D01*
X42753216Y-31278456D01*
X42605646Y-31179853D01*
X42480147Y-31054354D01*
X42381544Y-30906784D01*
X42313624Y-30742812D01*
X42279000Y-30568741D01*
X42279000Y-30391259D01*
X42313624Y-30217188D01*
X42381544Y-30053216D01*
X42480147Y-29905646D01*
X42605646Y-29780147D01*
X42753216Y-29681544D01*
X42917188Y-29613624D01*
X43066488Y-29583927D01*
X43091258Y-29579000D01*
X43268742Y-29579000D01*
X43293512Y-29583927D01*
G37*
G36*
X40753512Y-29583927D02*
G01*
X40902812Y-29613624D01*
X41066784Y-29681544D01*
X41214354Y-29780147D01*
X41339853Y-29905646D01*
X41438456Y-30053216D01*
X41506376Y-30217188D01*
X41541000Y-30391259D01*
X41541000Y-30568741D01*
X41506376Y-30742812D01*
X41438456Y-30906784D01*
X41339853Y-31054354D01*
X41214354Y-31179853D01*
X41066784Y-31278456D01*
X40902812Y-31346376D01*
X40753512Y-31376073D01*
X40728742Y-31381000D01*
X40551258Y-31381000D01*
X40526488Y-31376073D01*
X40377188Y-31346376D01*
X40213216Y-31278456D01*
X40065646Y-31179853D01*
X39940147Y-31054354D01*
X39841544Y-30906784D01*
X39773624Y-30742812D01*
X39739000Y-30568741D01*
X39739000Y-30391259D01*
X39773624Y-30217188D01*
X39841544Y-30053216D01*
X39940147Y-29905646D01*
X40065646Y-29780147D01*
X40213216Y-29681544D01*
X40377188Y-29613624D01*
X40526488Y-29583927D01*
X40551258Y-29579000D01*
X40728742Y-29579000D01*
X40753512Y-29583927D01*
G37*
G36*
X35673512Y-29583927D02*
G01*
X35822812Y-29613624D01*
X35986784Y-29681544D01*
X36134354Y-29780147D01*
X36259853Y-29905646D01*
X36358456Y-30053216D01*
X36426376Y-30217188D01*
X36461000Y-30391259D01*
X36461000Y-30568741D01*
X36426376Y-30742812D01*
X36358456Y-30906784D01*
X36259853Y-31054354D01*
X36134354Y-31179853D01*
X35986784Y-31278456D01*
X35822812Y-31346376D01*
X35673512Y-31376073D01*
X35648742Y-31381000D01*
X35471258Y-31381000D01*
X35446488Y-31376073D01*
X35297188Y-31346376D01*
X35133216Y-31278456D01*
X34985646Y-31179853D01*
X34860147Y-31054354D01*
X34761544Y-30906784D01*
X34693624Y-30742812D01*
X34659000Y-30568741D01*
X34659000Y-30391259D01*
X34693624Y-30217188D01*
X34761544Y-30053216D01*
X34860147Y-29905646D01*
X34985646Y-29780147D01*
X35133216Y-29681544D01*
X35297188Y-29613624D01*
X35446488Y-29583927D01*
X35471258Y-29579000D01*
X35648742Y-29579000D01*
X35673512Y-29583927D01*
G37*
G36*
X33133512Y-29583927D02*
G01*
X33282812Y-29613624D01*
X33446784Y-29681544D01*
X33594354Y-29780147D01*
X33719853Y-29905646D01*
X33818456Y-30053216D01*
X33886376Y-30217188D01*
X33921000Y-30391259D01*
X33921000Y-30568741D01*
X33886376Y-30742812D01*
X33818456Y-30906784D01*
X33719853Y-31054354D01*
X33594354Y-31179853D01*
X33446784Y-31278456D01*
X33282812Y-31346376D01*
X33133512Y-31376073D01*
X33108742Y-31381000D01*
X32931258Y-31381000D01*
X32906488Y-31376073D01*
X32757188Y-31346376D01*
X32593216Y-31278456D01*
X32445646Y-31179853D01*
X32320147Y-31054354D01*
X32221544Y-30906784D01*
X32153624Y-30742812D01*
X32119000Y-30568741D01*
X32119000Y-30391259D01*
X32153624Y-30217188D01*
X32221544Y-30053216D01*
X32320147Y-29905646D01*
X32445646Y-29780147D01*
X32593216Y-29681544D01*
X32757188Y-29613624D01*
X32906488Y-29583927D01*
X32931258Y-29579000D01*
X33108742Y-29579000D01*
X33133512Y-29583927D01*
G37*
G36*
X30593512Y-29583927D02*
G01*
X30742812Y-29613624D01*
X30906784Y-29681544D01*
X31054354Y-29780147D01*
X31179853Y-29905646D01*
X31278456Y-30053216D01*
X31346376Y-30217188D01*
X31381000Y-30391259D01*
X31381000Y-30568741D01*
X31346376Y-30742812D01*
X31278456Y-30906784D01*
X31179853Y-31054354D01*
X31054354Y-31179853D01*
X30906784Y-31278456D01*
X30742812Y-31346376D01*
X30593512Y-31376073D01*
X30568742Y-31381000D01*
X30391258Y-31381000D01*
X30366488Y-31376073D01*
X30217188Y-31346376D01*
X30053216Y-31278456D01*
X29905646Y-31179853D01*
X29780147Y-31054354D01*
X29681544Y-30906784D01*
X29613624Y-30742812D01*
X29579000Y-30568741D01*
X29579000Y-30391259D01*
X29613624Y-30217188D01*
X29681544Y-30053216D01*
X29780147Y-29905646D01*
X29905646Y-29780147D01*
X30053216Y-29681544D01*
X30217188Y-29613624D01*
X30366488Y-29583927D01*
X30391258Y-29579000D01*
X30568742Y-29579000D01*
X30593512Y-29583927D01*
G37*
G36*
X27621000Y-30161000D02*
G01*
X25719000Y-30161000D01*
X25719000Y-28259000D01*
X27621000Y-28259000D01*
X27621000Y-30161000D01*
G37*
G36*
X34568412Y-25505805D02*
G01*
X34706604Y-25519416D01*
X34972579Y-25600099D01*
X34972581Y-25600100D01*
X35217701Y-25731119D01*
X35432556Y-25907444D01*
X35608880Y-26122298D01*
X35739901Y-26367421D01*
X35820584Y-26633396D01*
X35847827Y-26910000D01*
X35820584Y-27186604D01*
X35739901Y-27452579D01*
X35739900Y-27452581D01*
X35608881Y-27697701D01*
X35432556Y-27912556D01*
X35217701Y-28088881D01*
X34972581Y-28219900D01*
X34972579Y-28219901D01*
X34706604Y-28300584D01*
X34568412Y-28314195D01*
X34499317Y-28321000D01*
X33840683Y-28321000D01*
X33771588Y-28314195D01*
X33633396Y-28300584D01*
X33367421Y-28219901D01*
X33367419Y-28219900D01*
X33122299Y-28088881D01*
X32907444Y-27912556D01*
X32731119Y-27697701D01*
X32600100Y-27452581D01*
X32600099Y-27452579D01*
X32519416Y-27186604D01*
X32492173Y-26910000D01*
X32519416Y-26633396D01*
X32600099Y-26367421D01*
X32731120Y-26122298D01*
X32907444Y-25907444D01*
X33122299Y-25731119D01*
X33367419Y-25600100D01*
X33367421Y-25600099D01*
X33633396Y-25519416D01*
X33771588Y-25505805D01*
X33840683Y-25499000D01*
X34499317Y-25499000D01*
X34568412Y-25505805D01*
G37*
M02*
