G04 #@! TF.GenerationSoftware,KiCad,Pcbnew,(5.1.5)-3*
G04 #@! TF.CreationDate,2020-03-27T15:51:16+00:00*
G04 #@! TF.ProjectId,wagyu,77616779-752e-46b6-9963-61645f706362,rev?*
G04 #@! TF.SameCoordinates,Original*
G04 #@! TF.FileFunction,Copper,L2,Inr*
G04 #@! TF.FilePolarity,Positive*
%FSLAX46Y46*%
G04 Gerber Fmt 4.6, Leading zero omitted, Abs format (unit mm)*
G04 Created by KiCad (PCBNEW (5.1.5)-3) date 2020-03-27 15:51:16*
%MOMM*%
%LPD*%
G04 APERTURE LIST*
%ADD10R,2.000000X2.000000*%
%ADD11C,2.000000*%
%ADD12R,3.200000X2.000000*%
%ADD13C,1.524000*%
%ADD14O,1.700000X1.700000*%
%ADD15R,1.700000X1.700000*%
%ADD16O,3.240000X2.720000*%
%ADD17C,1.800000*%
%ADD18R,1.800000X1.800000*%
%ADD19C,2.130000*%
%ADD20R,1.830000X1.930000*%
%ADD21C,0.609600*%
%ADD22C,0.304800*%
%ADD23C,0.457200*%
%ADD24C,0.203200*%
%ADD25C,0.254000*%
G04 APERTURE END LIST*
D10*
X30607000Y-94234000D03*
D11*
X30607000Y-96734000D03*
X30607000Y-99234000D03*
D12*
X38107000Y-91134000D03*
X38107000Y-102334000D03*
D11*
X45107000Y-94234000D03*
X45107000Y-99234000D03*
D13*
X29210000Y-69850000D03*
X29210000Y-72390000D03*
X29210000Y-74930000D03*
X29210000Y-77470000D03*
X29210000Y-80010000D03*
X29210000Y-82550000D03*
X29210000Y-85090000D03*
X29210000Y-87630000D03*
X46990000Y-69850000D03*
X46990000Y-72390000D03*
X46990000Y-74930000D03*
X46990000Y-77470000D03*
X46990000Y-80010000D03*
X46990000Y-82550000D03*
X46990000Y-85090000D03*
X46990000Y-87630000D03*
D14*
X30480000Y-30480000D03*
X30480000Y-33020000D03*
X33020000Y-30480000D03*
X33020000Y-33020000D03*
X35560000Y-30480000D03*
X35560000Y-33020000D03*
X38100000Y-30480000D03*
X38100000Y-33020000D03*
X40640000Y-30480000D03*
X40640000Y-33020000D03*
X43180000Y-30480000D03*
X43180000Y-33020000D03*
X45720000Y-30480000D03*
X45720000Y-33020000D03*
X48260000Y-30480000D03*
D15*
X48260000Y-33020000D03*
D16*
X34170000Y-26910000D03*
X34170000Y-36510000D03*
D17*
X26670000Y-34210000D03*
X26670000Y-31710000D03*
D18*
X26670000Y-29210000D03*
D16*
X42030000Y-50560000D03*
X42030000Y-40960000D03*
D17*
X49530000Y-43260000D03*
X49530000Y-45760000D03*
D18*
X49530000Y-48260000D03*
D16*
X34170000Y-54850000D03*
X34170000Y-64450000D03*
D17*
X26670000Y-62150000D03*
X26670000Y-59650000D03*
D18*
X26670000Y-57150000D03*
D19*
X49500000Y-127254000D03*
D20*
X38100000Y-127254000D03*
D19*
X41200000Y-127254000D03*
X49500000Y-117856000D03*
D20*
X38100000Y-117856000D03*
D19*
X41200000Y-117856000D03*
X26700000Y-127254000D03*
D20*
X38100000Y-127254000D03*
D19*
X35000000Y-127254000D03*
X26700000Y-117856000D03*
D20*
X38100000Y-117856000D03*
D19*
X35000000Y-117856000D03*
X49500000Y-108458000D03*
D20*
X38100000Y-108458000D03*
D19*
X41200000Y-108458000D03*
X26700000Y-108458000D03*
D20*
X38100000Y-108458000D03*
D19*
X35000000Y-108458000D03*
D21*
X42115500Y-93392000D03*
X41078900Y-65013500D03*
X39497004Y-104140000D03*
X31556300Y-79834300D03*
X31324000Y-68782800D03*
X48539500Y-92445300D03*
X47244000Y-67310000D03*
X47542300Y-64135000D03*
X42672000Y-63754000D03*
X45466000Y-81280000D03*
X36893500Y-84455000D03*
X36576000Y-86614000D03*
X49530000Y-93218000D03*
X32004000Y-120904000D03*
X42672000Y-125222000D03*
X28975800Y-126746000D03*
X27432000Y-97536000D03*
X49022000Y-99568000D03*
X36520000Y-100733200D03*
X40890900Y-68715000D03*
X41450000Y-66237600D03*
X41416500Y-100760400D03*
X42088000Y-67613100D03*
X43537500Y-68790300D03*
X43888700Y-115123600D03*
X40132000Y-115951000D03*
X37337998Y-111760000D03*
X46952561Y-89017525D03*
X35814000Y-57150000D03*
X38100000Y-57150000D03*
X39066400Y-112825600D03*
X34607500Y-60579000D03*
X37515821Y-113583200D03*
X36449000Y-118745000D03*
X33344500Y-118153900D03*
X36273700Y-80173100D03*
X47879000Y-126365000D03*
X50185800Y-122301000D03*
X46482000Y-126047500D03*
X42545000Y-113411000D03*
X29419500Y-113011000D03*
X38481000Y-113665000D03*
X36068000Y-41656000D03*
X32639000Y-41656000D03*
X45736700Y-55952200D03*
X45210000Y-71552500D03*
X33344000Y-78254100D03*
X32643700Y-68742000D03*
X43307000Y-78041500D03*
X41984100Y-46915900D03*
X30988000Y-45974000D03*
X34290000Y-49022000D03*
X45736700Y-61705300D03*
X29722900Y-108113100D03*
X28645800Y-123715300D03*
X45005600Y-121967600D03*
X45212000Y-108816000D03*
X30788600Y-71901300D03*
X40894000Y-61214000D03*
X36995100Y-73981800D03*
X41823200Y-57455300D03*
X41159500Y-56782200D03*
X35115500Y-76771500D03*
X40081600Y-71234300D03*
X33274000Y-59944000D03*
X36322000Y-70612000D03*
X44637800Y-70988400D03*
X42134300Y-71772600D03*
X31115000Y-39941500D03*
X37593800Y-40068500D03*
X34271800Y-71594200D03*
X35469000Y-72401300D03*
X44547400Y-84473100D03*
X33819900Y-70402000D03*
X43851700Y-83759200D03*
X33292800Y-70962900D03*
X40268000Y-83460200D03*
X39927000Y-80163800D03*
X39080500Y-84471400D03*
X41203200Y-81372200D03*
X38326400Y-84128800D03*
X41655600Y-80092100D03*
X30799400Y-75988900D03*
X30826100Y-75184000D03*
X42854400Y-67331500D03*
X39536900Y-69139700D03*
X37969000Y-66219000D03*
X38336400Y-68940600D03*
X45157600Y-76155100D03*
X38517700Y-73402000D03*
X45212000Y-85788500D03*
X37782500Y-85661500D03*
X45847000Y-117221000D03*
X50228500Y-73215500D03*
D22*
X26670000Y-57150000D02*
X27875100Y-57150000D01*
X26670000Y-62150000D02*
X26670000Y-64128800D01*
X26670000Y-64128800D02*
X31324000Y-68782800D01*
X46467100Y-94234000D02*
X46467100Y-102682900D01*
X46467100Y-102682900D02*
X40946000Y-108204000D01*
X46467100Y-94234000D02*
X46750800Y-94234000D01*
X46750800Y-94234000D02*
X48539500Y-92445300D01*
X45107000Y-94234000D02*
X46467100Y-94234000D01*
X35000000Y-108458000D02*
X36879900Y-108458000D01*
X38100000Y-108458000D02*
X36879900Y-108458000D01*
X38100000Y-108458000D02*
X41200000Y-108458000D01*
X48657500Y-43260000D02*
X49530000Y-43260000D01*
X38100000Y-33020000D02*
X38417500Y-33020000D01*
X38417500Y-33020000D02*
X48657500Y-43260000D01*
D23*
X46344500Y-65013500D02*
X41078900Y-65013500D01*
X49022000Y-67691000D02*
X46344500Y-65013500D01*
X49784000Y-75565000D02*
X49784000Y-74168000D01*
X49022000Y-73406000D02*
X49022000Y-67691000D01*
X49784000Y-74168000D02*
X49022000Y-73406000D01*
X49784000Y-87249000D02*
X49784000Y-75451212D01*
D22*
X42115500Y-93392000D02*
X43641000Y-93392000D01*
D23*
X47815500Y-89217500D02*
X47152536Y-89217500D01*
X47815500Y-89217500D02*
X49784000Y-87249000D01*
X47152536Y-89217500D02*
X46952561Y-89017525D01*
D22*
X43641000Y-93392000D02*
X47815500Y-89217500D01*
D23*
X49530000Y-67183000D02*
X49022000Y-67691000D01*
X49530000Y-48260000D02*
X49530000Y-67183000D01*
X38100000Y-57150000D02*
X35814000Y-57150000D01*
D22*
X28829000Y-102287000D02*
X34746000Y-108204000D01*
X30607000Y-96734000D02*
X28829000Y-98512000D01*
X28829000Y-98512000D02*
X28829000Y-102287000D01*
D24*
X35000000Y-117856000D02*
X35000000Y-127254000D01*
D23*
X47879000Y-126238000D02*
X47879000Y-126365000D01*
X50185800Y-122301000D02*
X50185800Y-123931200D01*
X50185800Y-123931200D02*
X47879000Y-126238000D01*
X49500000Y-117856000D02*
X49500000Y-123029500D01*
X49500000Y-123029500D02*
X46482000Y-126047500D01*
D24*
X38481000Y-113665000D02*
X37827000Y-113011000D01*
X37827000Y-113011000D02*
X29419500Y-113011000D01*
D23*
X42291000Y-113665000D02*
X42545000Y-113411000D01*
X38481000Y-113665000D02*
X42291000Y-113665000D01*
X32639000Y-41656000D02*
X36068000Y-41656000D01*
D24*
X45212000Y-108816000D02*
X45005600Y-109022400D01*
X45005600Y-109022400D02*
X45005600Y-121967600D01*
X40081600Y-71234300D02*
X38254300Y-71234300D01*
D23*
X37375352Y-71234300D02*
X38254300Y-71234300D01*
X36753052Y-70612000D02*
X37375352Y-71234300D01*
X36322000Y-70612000D02*
X36753052Y-70612000D01*
D22*
X31115000Y-39941500D02*
X37466800Y-39941500D01*
X37466800Y-39941500D02*
X37593800Y-40068500D01*
D24*
X30607000Y-99234000D02*
X34271800Y-95569200D01*
X34271800Y-95569200D02*
X34271800Y-71594200D01*
X35773799Y-77448227D02*
X35773799Y-72706099D01*
X40213300Y-88939200D02*
X35533300Y-84259200D01*
X45107000Y-99234000D02*
X40213300Y-94340300D01*
X35773799Y-72706099D02*
X35469000Y-72401300D01*
X40213300Y-94340300D02*
X40213300Y-88939200D01*
X35533300Y-77688726D02*
X35773799Y-77448227D01*
X35533300Y-84259200D02*
X35533300Y-77688726D01*
X33819900Y-70402000D02*
X34790200Y-70402000D01*
X34790200Y-70402000D02*
X36388200Y-72000000D01*
X36388200Y-72000000D02*
X36388200Y-72080400D01*
X36388200Y-72080400D02*
X44547400Y-80239600D01*
X44547400Y-80239600D02*
X44547400Y-84473100D01*
X33292800Y-70962900D02*
X34821400Y-70962900D01*
X34821400Y-70962900D02*
X36032200Y-72173700D01*
X36032200Y-72173700D02*
X36032200Y-72228000D01*
X36032200Y-72228000D02*
X43851700Y-80047500D01*
X43851700Y-80047500D02*
X43851700Y-83759200D01*
X39080500Y-84471400D02*
X39080500Y-83494900D01*
X39080500Y-83494900D02*
X41203200Y-81372200D01*
X38326400Y-84128800D02*
X38326400Y-83421300D01*
X38326400Y-83421300D02*
X41655600Y-80092100D01*
D22*
X30543500Y-76962000D02*
X30543500Y-86296500D01*
X30826100Y-75218900D02*
X30665701Y-75379299D01*
X30543500Y-86296500D02*
X29971999Y-86868001D01*
X30826100Y-75184000D02*
X30826100Y-75218900D01*
X30665701Y-75379299D02*
X30506791Y-75379299D01*
X30506791Y-75379299D02*
X30035500Y-75850590D01*
X30035500Y-75850590D02*
X30035500Y-76454000D01*
X29971999Y-86868001D02*
X29210000Y-87630000D01*
X30035500Y-76454000D02*
X30543500Y-76962000D01*
D24*
X46990000Y-69850000D02*
X44471500Y-67331500D01*
X44471500Y-67331500D02*
X42854400Y-67331500D01*
X46990000Y-74930000D02*
X46315200Y-74930000D01*
X46315200Y-74930000D02*
X37969100Y-66583900D01*
X37969100Y-66583900D02*
X37969100Y-66219000D01*
X37969100Y-66219000D02*
X37969000Y-66219000D01*
X46990000Y-77470000D02*
X46990000Y-77161400D01*
X46990000Y-77161400D02*
X42543600Y-72715000D01*
X42543600Y-72715000D02*
X42256500Y-72715000D01*
X42256500Y-72715000D02*
X41138300Y-71596800D01*
X41138300Y-71596800D02*
X41138300Y-71456000D01*
X41138300Y-71456000D02*
X39441500Y-69759200D01*
X39441500Y-69759200D02*
X39155000Y-69759200D01*
X39155000Y-69759200D02*
X38336400Y-68940600D01*
X45157600Y-76155100D02*
X41270800Y-76155100D01*
X41270800Y-76155100D02*
X38517700Y-73402000D01*
D22*
X45212000Y-85788500D02*
X37909500Y-85788500D01*
X37909500Y-85788500D02*
X37782500Y-85661500D01*
D24*
X50228500Y-73646552D02*
X50228500Y-73215500D01*
X50266611Y-104210480D02*
X50266611Y-73684663D01*
X50266611Y-73684663D02*
X50228500Y-73646552D01*
X45847000Y-117221000D02*
X45847000Y-108630091D01*
X45847000Y-108630091D02*
X50266611Y-104210480D01*
D25*
G36*
X32057943Y-26142853D02*
G01*
X31943867Y-26518912D01*
X31905348Y-26910000D01*
X31943867Y-27301088D01*
X32057943Y-27677147D01*
X32243193Y-28023725D01*
X32492497Y-28327503D01*
X32796275Y-28576807D01*
X33142853Y-28762057D01*
X33518912Y-28876133D01*
X33812002Y-28905000D01*
X34527998Y-28905000D01*
X34821088Y-28876133D01*
X35197147Y-28762057D01*
X35543725Y-28576807D01*
X35847503Y-28327503D01*
X36096807Y-28023725D01*
X36282057Y-27677147D01*
X36396133Y-27301088D01*
X36434652Y-26910000D01*
X36396133Y-26518912D01*
X36282057Y-26142853D01*
X36237771Y-26060000D01*
X50140000Y-26060000D01*
X50140000Y-41851198D01*
X49977743Y-41783989D01*
X49681184Y-41725000D01*
X49378816Y-41725000D01*
X49082257Y-41783989D01*
X48802905Y-41899701D01*
X48567827Y-42056776D01*
X40977925Y-34466875D01*
X41073158Y-34447932D01*
X41343411Y-34335990D01*
X41586632Y-34173475D01*
X41793475Y-33966632D01*
X41910000Y-33792240D01*
X42026525Y-33966632D01*
X42233368Y-34173475D01*
X42476589Y-34335990D01*
X42746842Y-34447932D01*
X43033740Y-34505000D01*
X43326260Y-34505000D01*
X43613158Y-34447932D01*
X43883411Y-34335990D01*
X44126632Y-34173475D01*
X44333475Y-33966632D01*
X44450000Y-33792240D01*
X44566525Y-33966632D01*
X44773368Y-34173475D01*
X45016589Y-34335990D01*
X45286842Y-34447932D01*
X45573740Y-34505000D01*
X45866260Y-34505000D01*
X46153158Y-34447932D01*
X46423411Y-34335990D01*
X46666632Y-34173475D01*
X46798487Y-34041620D01*
X46820498Y-34114180D01*
X46879463Y-34224494D01*
X46958815Y-34321185D01*
X47055506Y-34400537D01*
X47165820Y-34459502D01*
X47285518Y-34495812D01*
X47410000Y-34508072D01*
X49110000Y-34508072D01*
X49234482Y-34495812D01*
X49354180Y-34459502D01*
X49464494Y-34400537D01*
X49561185Y-34321185D01*
X49640537Y-34224494D01*
X49699502Y-34114180D01*
X49735812Y-33994482D01*
X49748072Y-33870000D01*
X49748072Y-32170000D01*
X49735812Y-32045518D01*
X49699502Y-31925820D01*
X49640537Y-31815506D01*
X49561185Y-31718815D01*
X49464494Y-31639463D01*
X49354180Y-31580498D01*
X49281620Y-31558487D01*
X49413475Y-31426632D01*
X49575990Y-31183411D01*
X49687932Y-30913158D01*
X49745000Y-30626260D01*
X49745000Y-30333740D01*
X49687932Y-30046842D01*
X49575990Y-29776589D01*
X49413475Y-29533368D01*
X49206632Y-29326525D01*
X48963411Y-29164010D01*
X48693158Y-29052068D01*
X48406260Y-28995000D01*
X48113740Y-28995000D01*
X47826842Y-29052068D01*
X47556589Y-29164010D01*
X47313368Y-29326525D01*
X47106525Y-29533368D01*
X46990000Y-29707760D01*
X46873475Y-29533368D01*
X46666632Y-29326525D01*
X46423411Y-29164010D01*
X46153158Y-29052068D01*
X45866260Y-28995000D01*
X45573740Y-28995000D01*
X45286842Y-29052068D01*
X45016589Y-29164010D01*
X44773368Y-29326525D01*
X44566525Y-29533368D01*
X44450000Y-29707760D01*
X44333475Y-29533368D01*
X44126632Y-29326525D01*
X43883411Y-29164010D01*
X43613158Y-29052068D01*
X43326260Y-28995000D01*
X43033740Y-28995000D01*
X42746842Y-29052068D01*
X42476589Y-29164010D01*
X42233368Y-29326525D01*
X42026525Y-29533368D01*
X41910000Y-29707760D01*
X41793475Y-29533368D01*
X41586632Y-29326525D01*
X41343411Y-29164010D01*
X41073158Y-29052068D01*
X40786260Y-28995000D01*
X40493740Y-28995000D01*
X40206842Y-29052068D01*
X39936589Y-29164010D01*
X39693368Y-29326525D01*
X39486525Y-29533368D01*
X39370000Y-29707760D01*
X39253475Y-29533368D01*
X39046632Y-29326525D01*
X38803411Y-29164010D01*
X38533158Y-29052068D01*
X38246260Y-28995000D01*
X37953740Y-28995000D01*
X37666842Y-29052068D01*
X37396589Y-29164010D01*
X37153368Y-29326525D01*
X36946525Y-29533368D01*
X36830000Y-29707760D01*
X36713475Y-29533368D01*
X36506632Y-29326525D01*
X36263411Y-29164010D01*
X35993158Y-29052068D01*
X35706260Y-28995000D01*
X35413740Y-28995000D01*
X35126842Y-29052068D01*
X34856589Y-29164010D01*
X34613368Y-29326525D01*
X34406525Y-29533368D01*
X34290000Y-29707760D01*
X34173475Y-29533368D01*
X33966632Y-29326525D01*
X33723411Y-29164010D01*
X33453158Y-29052068D01*
X33166260Y-28995000D01*
X32873740Y-28995000D01*
X32586842Y-29052068D01*
X32316589Y-29164010D01*
X32073368Y-29326525D01*
X31866525Y-29533368D01*
X31750000Y-29707760D01*
X31633475Y-29533368D01*
X31426632Y-29326525D01*
X31183411Y-29164010D01*
X30913158Y-29052068D01*
X30626260Y-28995000D01*
X30333740Y-28995000D01*
X30046842Y-29052068D01*
X29776589Y-29164010D01*
X29533368Y-29326525D01*
X29326525Y-29533368D01*
X29164010Y-29776589D01*
X29052068Y-30046842D01*
X28995000Y-30333740D01*
X28995000Y-30626260D01*
X29052068Y-30913158D01*
X29164010Y-31183411D01*
X29326525Y-31426632D01*
X29533368Y-31633475D01*
X29707760Y-31750000D01*
X29533368Y-31866525D01*
X29326525Y-32073368D01*
X29164010Y-32316589D01*
X29052068Y-32586842D01*
X28995000Y-32873740D01*
X28995000Y-33166260D01*
X29052068Y-33453158D01*
X29164010Y-33723411D01*
X29326525Y-33966632D01*
X29533368Y-34173475D01*
X29776589Y-34335990D01*
X30046842Y-34447932D01*
X30333740Y-34505000D01*
X30626260Y-34505000D01*
X30913158Y-34447932D01*
X31183411Y-34335990D01*
X31426632Y-34173475D01*
X31633475Y-33966632D01*
X31750000Y-33792240D01*
X31866525Y-33966632D01*
X32073368Y-34173475D01*
X32316589Y-34335990D01*
X32586842Y-34447932D01*
X32873740Y-34505000D01*
X33166260Y-34505000D01*
X33453158Y-34447932D01*
X33723411Y-34335990D01*
X33966632Y-34173475D01*
X34173475Y-33966632D01*
X34290000Y-33792240D01*
X34406525Y-33966632D01*
X34613368Y-34173475D01*
X34856589Y-34335990D01*
X35126842Y-34447932D01*
X35413740Y-34505000D01*
X35706260Y-34505000D01*
X35993158Y-34447932D01*
X36263411Y-34335990D01*
X36506632Y-34173475D01*
X36713475Y-33966632D01*
X36830000Y-33792240D01*
X36946525Y-33966632D01*
X37153368Y-34173475D01*
X37396589Y-34335990D01*
X37666842Y-34447932D01*
X37953740Y-34505000D01*
X38246260Y-34505000D01*
X38533158Y-34447932D01*
X38673677Y-34389727D01*
X48073377Y-43789428D01*
X48098031Y-43819469D01*
X48101420Y-43822250D01*
X48169701Y-43987095D01*
X48337688Y-44238505D01*
X48551495Y-44452312D01*
X48637831Y-44510000D01*
X48551495Y-44567688D01*
X48337688Y-44781495D01*
X48169701Y-45032905D01*
X48053989Y-45312257D01*
X47995000Y-45608816D01*
X47995000Y-45911184D01*
X48053989Y-46207743D01*
X48169701Y-46487095D01*
X48337688Y-46738505D01*
X48375303Y-46776120D01*
X48275506Y-46829463D01*
X48178815Y-46908815D01*
X48099463Y-47005506D01*
X48040498Y-47115820D01*
X48004188Y-47235518D01*
X47991928Y-47360000D01*
X47991928Y-49160000D01*
X48004188Y-49284482D01*
X48040498Y-49404180D01*
X48099463Y-49514494D01*
X48178815Y-49611185D01*
X48275506Y-49690537D01*
X48385820Y-49749502D01*
X48505518Y-49785812D01*
X48630000Y-49798072D01*
X48666400Y-49798072D01*
X48666401Y-66114087D01*
X47627114Y-65074800D01*
X47634862Y-65074800D01*
X47816429Y-65038684D01*
X47987462Y-64967840D01*
X48141387Y-64864990D01*
X48272290Y-64734087D01*
X48375140Y-64580162D01*
X48445984Y-64409129D01*
X48482100Y-64227562D01*
X48482100Y-64042438D01*
X48445984Y-63860871D01*
X48375140Y-63689838D01*
X48272290Y-63535913D01*
X48141387Y-63405010D01*
X47987462Y-63302160D01*
X47816429Y-63231316D01*
X47634862Y-63195200D01*
X47449738Y-63195200D01*
X47268171Y-63231316D01*
X47097138Y-63302160D01*
X46943213Y-63405010D01*
X46812310Y-63535913D01*
X46709460Y-63689838D01*
X46638616Y-63860871D01*
X46602500Y-64042438D01*
X46602500Y-64189305D01*
X46513795Y-64162396D01*
X46386920Y-64149900D01*
X46344500Y-64145722D01*
X46302080Y-64149900D01*
X43525245Y-64149900D01*
X43575684Y-64028129D01*
X43611800Y-63846562D01*
X43611800Y-63661438D01*
X43575684Y-63479871D01*
X43504840Y-63308838D01*
X43401990Y-63154913D01*
X43271087Y-63024010D01*
X43117162Y-62921160D01*
X42946129Y-62850316D01*
X42764562Y-62814200D01*
X42579438Y-62814200D01*
X42397871Y-62850316D01*
X42226838Y-62921160D01*
X42072913Y-63024010D01*
X41942010Y-63154913D01*
X41839160Y-63308838D01*
X41768316Y-63479871D01*
X41732200Y-63661438D01*
X41732200Y-63846562D01*
X41768316Y-64028129D01*
X41818755Y-64149900D01*
X41449801Y-64149900D01*
X41353029Y-64109816D01*
X41171462Y-64073700D01*
X40986338Y-64073700D01*
X40804771Y-64109816D01*
X40633738Y-64180660D01*
X40479813Y-64283510D01*
X40348910Y-64414413D01*
X40246060Y-64568338D01*
X40175216Y-64739371D01*
X40139100Y-64920938D01*
X40139100Y-65106062D01*
X40175216Y-65287629D01*
X40246060Y-65458662D01*
X40348910Y-65612587D01*
X40479813Y-65743490D01*
X40603267Y-65825980D01*
X40546316Y-65963471D01*
X40510200Y-66145038D01*
X40510200Y-66330162D01*
X40546316Y-66511729D01*
X40617160Y-66682762D01*
X40720010Y-66836687D01*
X40850913Y-66967590D01*
X41004838Y-67070440D01*
X41175871Y-67141284D01*
X41261578Y-67158332D01*
X41255160Y-67167938D01*
X41184316Y-67338971D01*
X41148200Y-67520538D01*
X41148200Y-67705662D01*
X41169592Y-67813206D01*
X41165029Y-67811316D01*
X40983462Y-67775200D01*
X40798338Y-67775200D01*
X40616771Y-67811316D01*
X40445738Y-67882160D01*
X40363811Y-67936902D01*
X38880541Y-66453632D01*
X38908800Y-66311562D01*
X38908800Y-66126438D01*
X38872684Y-65944871D01*
X38801840Y-65773838D01*
X38698990Y-65619913D01*
X38568087Y-65489010D01*
X38414162Y-65386160D01*
X38243129Y-65315316D01*
X38061562Y-65279200D01*
X37876438Y-65279200D01*
X37694871Y-65315316D01*
X37523838Y-65386160D01*
X37369913Y-65489010D01*
X37239010Y-65619913D01*
X37136160Y-65773838D01*
X37065316Y-65944871D01*
X37029200Y-66126438D01*
X37029200Y-66311562D01*
X37065316Y-66493129D01*
X37136160Y-66664162D01*
X37239010Y-66818087D01*
X37284062Y-66863139D01*
X37285278Y-66867148D01*
X37353676Y-66995112D01*
X37445725Y-67107274D01*
X37473832Y-67130341D01*
X38344291Y-68000800D01*
X38243838Y-68000800D01*
X38062271Y-68036916D01*
X37891238Y-68107760D01*
X37737313Y-68210610D01*
X37606410Y-68341513D01*
X37503560Y-68495438D01*
X37432716Y-68666471D01*
X37396600Y-68848038D01*
X37396600Y-69033162D01*
X37432716Y-69214729D01*
X37503560Y-69385762D01*
X37606410Y-69539687D01*
X37737313Y-69670590D01*
X37891238Y-69773440D01*
X38062271Y-69844284D01*
X38232169Y-69878079D01*
X38608557Y-70254467D01*
X38631625Y-70282575D01*
X38659731Y-70305641D01*
X38659732Y-70305642D01*
X38690163Y-70330616D01*
X38743787Y-70374624D01*
X38871751Y-70443022D01*
X39010601Y-70485142D01*
X39118814Y-70495800D01*
X39118823Y-70495800D01*
X39138114Y-70497700D01*
X38708220Y-70497700D01*
X38586384Y-70432578D01*
X38423595Y-70383196D01*
X38296720Y-70370700D01*
X37733066Y-70370700D01*
X37393715Y-70031350D01*
X37366664Y-69998388D01*
X37235164Y-69890469D01*
X37085136Y-69810278D01*
X36922347Y-69760896D01*
X36795472Y-69748400D01*
X36753052Y-69744222D01*
X36710632Y-69748400D01*
X36692901Y-69748400D01*
X36596129Y-69708316D01*
X36414562Y-69672200D01*
X36229438Y-69672200D01*
X36047871Y-69708316D01*
X35876838Y-69779160D01*
X35722913Y-69882010D01*
X35592010Y-70012913D01*
X35532254Y-70102344D01*
X35336645Y-69906736D01*
X35313575Y-69878625D01*
X35201413Y-69786576D01*
X35073449Y-69718178D01*
X34934599Y-69676058D01*
X34826386Y-69665400D01*
X34826383Y-69665400D01*
X34790200Y-69661836D01*
X34754017Y-69665400D01*
X34409094Y-69665400D01*
X34265062Y-69569160D01*
X34094029Y-69498316D01*
X33912462Y-69462200D01*
X33727338Y-69462200D01*
X33545771Y-69498316D01*
X33374738Y-69569160D01*
X33220813Y-69672010D01*
X33089910Y-69802913D01*
X32987060Y-69956838D01*
X32929324Y-70096224D01*
X32847638Y-70130060D01*
X32693713Y-70232910D01*
X32562810Y-70363813D01*
X32459960Y-70517738D01*
X32389116Y-70688771D01*
X32353000Y-70870338D01*
X32353000Y-71055462D01*
X32389116Y-71237029D01*
X32459960Y-71408062D01*
X32562810Y-71561987D01*
X32693713Y-71692890D01*
X32847638Y-71795740D01*
X33018671Y-71866584D01*
X33200238Y-71902700D01*
X33382353Y-71902700D01*
X33438960Y-72039362D01*
X33535201Y-72183396D01*
X33535200Y-86233000D01*
X31330900Y-86233000D01*
X31330900Y-80747677D01*
X31463738Y-80774100D01*
X31648862Y-80774100D01*
X31830429Y-80737984D01*
X32001462Y-80667140D01*
X32155387Y-80564290D01*
X32286290Y-80433387D01*
X32389140Y-80279462D01*
X32459984Y-80108429D01*
X32496100Y-79926862D01*
X32496100Y-79741738D01*
X32459984Y-79560171D01*
X32389140Y-79389138D01*
X32286290Y-79235213D01*
X32155387Y-79104310D01*
X32001462Y-79001460D01*
X31830429Y-78930616D01*
X31648862Y-78894500D01*
X31463738Y-78894500D01*
X31330900Y-78920923D01*
X31330900Y-77000662D01*
X31334708Y-76961999D01*
X31330900Y-76923336D01*
X31330900Y-76923327D01*
X31319506Y-76807643D01*
X31310431Y-76777727D01*
X31398487Y-76718890D01*
X31529390Y-76587987D01*
X31632240Y-76434062D01*
X31703084Y-76263029D01*
X31739200Y-76081462D01*
X31739200Y-75896338D01*
X31703084Y-75714771D01*
X31663282Y-75618680D01*
X31729784Y-75458129D01*
X31765900Y-75276562D01*
X31765900Y-75091438D01*
X31729784Y-74909871D01*
X31658940Y-74738838D01*
X31556090Y-74584913D01*
X31425187Y-74454010D01*
X31271262Y-74351160D01*
X31100229Y-74280316D01*
X30918662Y-74244200D01*
X30733538Y-74244200D01*
X30551971Y-74280316D01*
X30467488Y-74315310D01*
X30448005Y-74268273D01*
X30295120Y-74039465D01*
X30100535Y-73844880D01*
X29871727Y-73691995D01*
X29794485Y-73660000D01*
X29871727Y-73628005D01*
X30100535Y-73475120D01*
X30295120Y-73280535D01*
X30448005Y-73051727D01*
X30547489Y-72811552D01*
X30696038Y-72841100D01*
X30881162Y-72841100D01*
X31062729Y-72804984D01*
X31233762Y-72734140D01*
X31387687Y-72631290D01*
X31518590Y-72500387D01*
X31621440Y-72346462D01*
X31692284Y-72175429D01*
X31728400Y-71993862D01*
X31728400Y-71808738D01*
X31692284Y-71627171D01*
X31621440Y-71456138D01*
X31518590Y-71302213D01*
X31387687Y-71171310D01*
X31233762Y-71068460D01*
X31062729Y-70997616D01*
X30881162Y-70961500D01*
X30696038Y-70961500D01*
X30514471Y-70997616D01*
X30343438Y-71068460D01*
X30189513Y-71171310D01*
X30073804Y-71287019D01*
X29871727Y-71151995D01*
X29794485Y-71120000D01*
X29871727Y-71088005D01*
X30100535Y-70935120D01*
X30295120Y-70740535D01*
X30448005Y-70511727D01*
X30553314Y-70257490D01*
X30607000Y-69987592D01*
X30607000Y-69712408D01*
X30553314Y-69442510D01*
X30448005Y-69188273D01*
X30295120Y-68959465D01*
X30100535Y-68764880D01*
X29871727Y-68611995D01*
X29617490Y-68506686D01*
X29347592Y-68453000D01*
X29072408Y-68453000D01*
X28802510Y-68506686D01*
X28548273Y-68611995D01*
X28319465Y-68764880D01*
X28124880Y-68959465D01*
X27971995Y-69188273D01*
X27866686Y-69442510D01*
X27813000Y-69712408D01*
X27813000Y-69987592D01*
X27866686Y-70257490D01*
X27971995Y-70511727D01*
X28124880Y-70740535D01*
X28319465Y-70935120D01*
X28548273Y-71088005D01*
X28625515Y-71120000D01*
X28548273Y-71151995D01*
X28319465Y-71304880D01*
X28124880Y-71499465D01*
X27971995Y-71728273D01*
X27866686Y-71982510D01*
X27813000Y-72252408D01*
X27813000Y-72527592D01*
X27866686Y-72797490D01*
X27971995Y-73051727D01*
X28124880Y-73280535D01*
X28319465Y-73475120D01*
X28548273Y-73628005D01*
X28625515Y-73660000D01*
X28548273Y-73691995D01*
X28319465Y-73844880D01*
X28124880Y-74039465D01*
X27971995Y-74268273D01*
X27866686Y-74522510D01*
X27813000Y-74792408D01*
X27813000Y-75067592D01*
X27866686Y-75337490D01*
X27971995Y-75591727D01*
X28124880Y-75820535D01*
X28319465Y-76015120D01*
X28548273Y-76168005D01*
X28625515Y-76200000D01*
X28548273Y-76231995D01*
X28319465Y-76384880D01*
X28124880Y-76579465D01*
X27971995Y-76808273D01*
X27866686Y-77062510D01*
X27813000Y-77332408D01*
X27813000Y-77607592D01*
X27866686Y-77877490D01*
X27971995Y-78131727D01*
X28124880Y-78360535D01*
X28319465Y-78555120D01*
X28548273Y-78708005D01*
X28625515Y-78740000D01*
X28548273Y-78771995D01*
X28319465Y-78924880D01*
X28124880Y-79119465D01*
X27971995Y-79348273D01*
X27866686Y-79602510D01*
X27813000Y-79872408D01*
X27813000Y-80147592D01*
X27866686Y-80417490D01*
X27971995Y-80671727D01*
X28124880Y-80900535D01*
X28319465Y-81095120D01*
X28548273Y-81248005D01*
X28625515Y-81280000D01*
X28548273Y-81311995D01*
X28319465Y-81464880D01*
X28124880Y-81659465D01*
X27971995Y-81888273D01*
X27866686Y-82142510D01*
X27813000Y-82412408D01*
X27813000Y-82687592D01*
X27866686Y-82957490D01*
X27971995Y-83211727D01*
X28124880Y-83440535D01*
X28319465Y-83635120D01*
X28548273Y-83788005D01*
X28625515Y-83820000D01*
X28548273Y-83851995D01*
X28319465Y-84004880D01*
X28124880Y-84199465D01*
X27971995Y-84428273D01*
X27866686Y-84682510D01*
X27813000Y-84952408D01*
X27813000Y-85227592D01*
X27866686Y-85497490D01*
X27971995Y-85751727D01*
X28124880Y-85980535D01*
X28319465Y-86175120D01*
X28406088Y-86233000D01*
X26060000Y-86233000D01*
X26060000Y-64626696D01*
X26110532Y-64688269D01*
X26140573Y-64712923D01*
X30404359Y-68976710D01*
X30420316Y-69056929D01*
X30491160Y-69227962D01*
X30594010Y-69381887D01*
X30724913Y-69512790D01*
X30878838Y-69615640D01*
X31049871Y-69686484D01*
X31231438Y-69722600D01*
X31416562Y-69722600D01*
X31598129Y-69686484D01*
X31769162Y-69615640D01*
X31923087Y-69512790D01*
X32053990Y-69381887D01*
X32156840Y-69227962D01*
X32227684Y-69056929D01*
X32263800Y-68875362D01*
X32263800Y-68690238D01*
X32227684Y-68508671D01*
X32156840Y-68337638D01*
X32053990Y-68183713D01*
X31923087Y-68052810D01*
X31769162Y-67949960D01*
X31598129Y-67879116D01*
X31517910Y-67863159D01*
X28104751Y-64450000D01*
X31905348Y-64450000D01*
X31943867Y-64841088D01*
X32057943Y-65217147D01*
X32243193Y-65563725D01*
X32492497Y-65867503D01*
X32796275Y-66116807D01*
X33142853Y-66302057D01*
X33518912Y-66416133D01*
X33812002Y-66445000D01*
X34527998Y-66445000D01*
X34821088Y-66416133D01*
X35197147Y-66302057D01*
X35543725Y-66116807D01*
X35847503Y-65867503D01*
X36096807Y-65563725D01*
X36282057Y-65217147D01*
X36396133Y-64841088D01*
X36434652Y-64450000D01*
X36396133Y-64058912D01*
X36282057Y-63682853D01*
X36096807Y-63336275D01*
X35847503Y-63032497D01*
X35543725Y-62783193D01*
X35197147Y-62597943D01*
X34821088Y-62483867D01*
X34527998Y-62455000D01*
X33812002Y-62455000D01*
X33518912Y-62483867D01*
X33142853Y-62597943D01*
X32796275Y-62783193D01*
X32492497Y-63032497D01*
X32243193Y-63336275D01*
X32057943Y-63682853D01*
X31943867Y-64058912D01*
X31905348Y-64450000D01*
X28104751Y-64450000D01*
X27457400Y-63802650D01*
X27457400Y-63470004D01*
X27648505Y-63342312D01*
X27862312Y-63128505D01*
X28030299Y-62877095D01*
X28146011Y-62597743D01*
X28205000Y-62301184D01*
X28205000Y-61998816D01*
X28146011Y-61702257D01*
X28030299Y-61422905D01*
X27862312Y-61171495D01*
X27648505Y-60957688D01*
X27562169Y-60900000D01*
X27648505Y-60842312D01*
X27862312Y-60628505D01*
X28030299Y-60377095D01*
X28146011Y-60097743D01*
X28195003Y-59851438D01*
X32334200Y-59851438D01*
X32334200Y-60036562D01*
X32370316Y-60218129D01*
X32441160Y-60389162D01*
X32544010Y-60543087D01*
X32674913Y-60673990D01*
X32828838Y-60776840D01*
X32999871Y-60847684D01*
X33181438Y-60883800D01*
X33366562Y-60883800D01*
X33548129Y-60847684D01*
X33690964Y-60788520D01*
X33703816Y-60853129D01*
X33774660Y-61024162D01*
X33877510Y-61178087D01*
X34008413Y-61308990D01*
X34162338Y-61411840D01*
X34333371Y-61482684D01*
X34514938Y-61518800D01*
X34700062Y-61518800D01*
X34881629Y-61482684D01*
X35052662Y-61411840D01*
X35206587Y-61308990D01*
X35337490Y-61178087D01*
X35375341Y-61121438D01*
X39954200Y-61121438D01*
X39954200Y-61306562D01*
X39990316Y-61488129D01*
X40061160Y-61659162D01*
X40164010Y-61813087D01*
X40294913Y-61943990D01*
X40448838Y-62046840D01*
X40619871Y-62117684D01*
X40801438Y-62153800D01*
X40986562Y-62153800D01*
X41168129Y-62117684D01*
X41339162Y-62046840D01*
X41493087Y-61943990D01*
X41623990Y-61813087D01*
X41726840Y-61659162D01*
X41797684Y-61488129D01*
X41833800Y-61306562D01*
X41833800Y-61121438D01*
X41797684Y-60939871D01*
X41726840Y-60768838D01*
X41623990Y-60614913D01*
X41493087Y-60484010D01*
X41339162Y-60381160D01*
X41168129Y-60310316D01*
X40986562Y-60274200D01*
X40801438Y-60274200D01*
X40619871Y-60310316D01*
X40448838Y-60381160D01*
X40294913Y-60484010D01*
X40164010Y-60614913D01*
X40061160Y-60768838D01*
X39990316Y-60939871D01*
X39954200Y-61121438D01*
X35375341Y-61121438D01*
X35440340Y-61024162D01*
X35511184Y-60853129D01*
X35547300Y-60671562D01*
X35547300Y-60486438D01*
X35511184Y-60304871D01*
X35440340Y-60133838D01*
X35337490Y-59979913D01*
X35206587Y-59849010D01*
X35052662Y-59746160D01*
X34881629Y-59675316D01*
X34700062Y-59639200D01*
X34514938Y-59639200D01*
X34333371Y-59675316D01*
X34190536Y-59734480D01*
X34177684Y-59669871D01*
X34106840Y-59498838D01*
X34003990Y-59344913D01*
X33873087Y-59214010D01*
X33719162Y-59111160D01*
X33548129Y-59040316D01*
X33366562Y-59004200D01*
X33181438Y-59004200D01*
X32999871Y-59040316D01*
X32828838Y-59111160D01*
X32674913Y-59214010D01*
X32544010Y-59344913D01*
X32441160Y-59498838D01*
X32370316Y-59669871D01*
X32334200Y-59851438D01*
X28195003Y-59851438D01*
X28205000Y-59801184D01*
X28205000Y-59498816D01*
X28146011Y-59202257D01*
X28030299Y-58922905D01*
X27862312Y-58671495D01*
X27824697Y-58633880D01*
X27924494Y-58580537D01*
X28021185Y-58501185D01*
X28100537Y-58404494D01*
X28159502Y-58294180D01*
X28195812Y-58174482D01*
X28208072Y-58050000D01*
X28208072Y-57864845D01*
X28314672Y-57807866D01*
X28434569Y-57709469D01*
X28532966Y-57589572D01*
X28606082Y-57452783D01*
X28651106Y-57304357D01*
X28666309Y-57150000D01*
X28651106Y-56995643D01*
X28606082Y-56847217D01*
X28532966Y-56710428D01*
X28434569Y-56590531D01*
X28314672Y-56492134D01*
X28208072Y-56435155D01*
X28208072Y-56250000D01*
X28195812Y-56125518D01*
X28159502Y-56005820D01*
X28100537Y-55895506D01*
X28021185Y-55798815D01*
X27924494Y-55719463D01*
X27814180Y-55660498D01*
X27694482Y-55624188D01*
X27570000Y-55611928D01*
X26060000Y-55611928D01*
X26060000Y-54850000D01*
X31905348Y-54850000D01*
X31943867Y-55241088D01*
X32057943Y-55617147D01*
X32243193Y-55963725D01*
X32492497Y-56267503D01*
X32796275Y-56516807D01*
X33142853Y-56702057D01*
X33518912Y-56816133D01*
X33812002Y-56845000D01*
X34527998Y-56845000D01*
X34821088Y-56816133D01*
X34951439Y-56776592D01*
X34910316Y-56875871D01*
X34874200Y-57057438D01*
X34874200Y-57242562D01*
X34910316Y-57424129D01*
X34981160Y-57595162D01*
X35084010Y-57749087D01*
X35214913Y-57879990D01*
X35368838Y-57982840D01*
X35539871Y-58053684D01*
X35721438Y-58089800D01*
X35906562Y-58089800D01*
X36088129Y-58053684D01*
X36184901Y-58013600D01*
X37729099Y-58013600D01*
X37825871Y-58053684D01*
X38007438Y-58089800D01*
X38192562Y-58089800D01*
X38374129Y-58053684D01*
X38545162Y-57982840D01*
X38699087Y-57879990D01*
X38829990Y-57749087D01*
X38932840Y-57595162D01*
X39003684Y-57424129D01*
X39039800Y-57242562D01*
X39039800Y-57057438D01*
X39003684Y-56875871D01*
X38932840Y-56704838D01*
X38922684Y-56689638D01*
X40219700Y-56689638D01*
X40219700Y-56874762D01*
X40255816Y-57056329D01*
X40326660Y-57227362D01*
X40429510Y-57381287D01*
X40560413Y-57512190D01*
X40714338Y-57615040D01*
X40885371Y-57685884D01*
X40911904Y-57691162D01*
X40919516Y-57729429D01*
X40990360Y-57900462D01*
X41093210Y-58054387D01*
X41224113Y-58185290D01*
X41378038Y-58288140D01*
X41549071Y-58358984D01*
X41730638Y-58395100D01*
X41915762Y-58395100D01*
X42097329Y-58358984D01*
X42268362Y-58288140D01*
X42422287Y-58185290D01*
X42553190Y-58054387D01*
X42656040Y-57900462D01*
X42726884Y-57729429D01*
X42763000Y-57547862D01*
X42763000Y-57362738D01*
X42726884Y-57181171D01*
X42656040Y-57010138D01*
X42553190Y-56856213D01*
X42422287Y-56725310D01*
X42268362Y-56622460D01*
X42097329Y-56551616D01*
X42070796Y-56546338D01*
X42063184Y-56508071D01*
X41992340Y-56337038D01*
X41889490Y-56183113D01*
X41758587Y-56052210D01*
X41604662Y-55949360D01*
X41433629Y-55878516D01*
X41252062Y-55842400D01*
X41066938Y-55842400D01*
X40885371Y-55878516D01*
X40714338Y-55949360D01*
X40560413Y-56052210D01*
X40429510Y-56183113D01*
X40326660Y-56337038D01*
X40255816Y-56508071D01*
X40219700Y-56689638D01*
X38922684Y-56689638D01*
X38829990Y-56550913D01*
X38699087Y-56420010D01*
X38545162Y-56317160D01*
X38374129Y-56246316D01*
X38192562Y-56210200D01*
X38007438Y-56210200D01*
X37825871Y-56246316D01*
X37729099Y-56286400D01*
X36184901Y-56286400D01*
X36088129Y-56246316D01*
X35906562Y-56210200D01*
X35894530Y-56210200D01*
X36096807Y-55963725D01*
X36282057Y-55617147D01*
X36396133Y-55241088D01*
X36434652Y-54850000D01*
X36396133Y-54458912D01*
X36282057Y-54082853D01*
X36096807Y-53736275D01*
X35847503Y-53432497D01*
X35543725Y-53183193D01*
X35197147Y-52997943D01*
X34821088Y-52883867D01*
X34527998Y-52855000D01*
X33812002Y-52855000D01*
X33518912Y-52883867D01*
X33142853Y-52997943D01*
X32796275Y-53183193D01*
X32492497Y-53432497D01*
X32243193Y-53736275D01*
X32057943Y-54082853D01*
X31943867Y-54458912D01*
X31905348Y-54850000D01*
X26060000Y-54850000D01*
X26060000Y-50560000D01*
X39765348Y-50560000D01*
X39803867Y-50951088D01*
X39917943Y-51327147D01*
X40103193Y-51673725D01*
X40352497Y-51977503D01*
X40656275Y-52226807D01*
X41002853Y-52412057D01*
X41378912Y-52526133D01*
X41672002Y-52555000D01*
X42387998Y-52555000D01*
X42681088Y-52526133D01*
X43057147Y-52412057D01*
X43403725Y-52226807D01*
X43707503Y-51977503D01*
X43956807Y-51673725D01*
X44142057Y-51327147D01*
X44256133Y-50951088D01*
X44294652Y-50560000D01*
X44256133Y-50168912D01*
X44142057Y-49792853D01*
X43956807Y-49446275D01*
X43707503Y-49142497D01*
X43403725Y-48893193D01*
X43057147Y-48707943D01*
X42681088Y-48593867D01*
X42387998Y-48565000D01*
X41672002Y-48565000D01*
X41378912Y-48593867D01*
X41002853Y-48707943D01*
X40656275Y-48893193D01*
X40352497Y-49142497D01*
X40103193Y-49446275D01*
X39917943Y-49792853D01*
X39803867Y-50168912D01*
X39765348Y-50560000D01*
X26060000Y-50560000D01*
X26060000Y-39848938D01*
X30175200Y-39848938D01*
X30175200Y-40034062D01*
X30211316Y-40215629D01*
X30282160Y-40386662D01*
X30385010Y-40540587D01*
X30515913Y-40671490D01*
X30669838Y-40774340D01*
X30840871Y-40845184D01*
X31022438Y-40881300D01*
X31207562Y-40881300D01*
X31389129Y-40845184D01*
X31560162Y-40774340D01*
X31628167Y-40728900D01*
X32482591Y-40728900D01*
X32364871Y-40752316D01*
X32193838Y-40823160D01*
X32039913Y-40926010D01*
X31909010Y-41056913D01*
X31806160Y-41210838D01*
X31735316Y-41381871D01*
X31699200Y-41563438D01*
X31699200Y-41748562D01*
X31735316Y-41930129D01*
X31806160Y-42101162D01*
X31909010Y-42255087D01*
X32039913Y-42385990D01*
X32193838Y-42488840D01*
X32364871Y-42559684D01*
X32546438Y-42595800D01*
X32731562Y-42595800D01*
X32913129Y-42559684D01*
X33009901Y-42519600D01*
X35697099Y-42519600D01*
X35793871Y-42559684D01*
X35975438Y-42595800D01*
X36160562Y-42595800D01*
X36342129Y-42559684D01*
X36513162Y-42488840D01*
X36667087Y-42385990D01*
X36797990Y-42255087D01*
X36900840Y-42101162D01*
X36971684Y-41930129D01*
X37007800Y-41748562D01*
X37007800Y-41563438D01*
X36971684Y-41381871D01*
X36900840Y-41210838D01*
X36797990Y-41056913D01*
X36667087Y-40926010D01*
X36513162Y-40823160D01*
X36342129Y-40752316D01*
X36224409Y-40728900D01*
X36925123Y-40728900D01*
X36994713Y-40798490D01*
X37148638Y-40901340D01*
X37319671Y-40972184D01*
X37501238Y-41008300D01*
X37686362Y-41008300D01*
X37867929Y-40972184D01*
X37897343Y-40960000D01*
X39765348Y-40960000D01*
X39803867Y-41351088D01*
X39917943Y-41727147D01*
X40103193Y-42073725D01*
X40352497Y-42377503D01*
X40656275Y-42626807D01*
X41002853Y-42812057D01*
X41378912Y-42926133D01*
X41672002Y-42955000D01*
X42387998Y-42955000D01*
X42681088Y-42926133D01*
X43057147Y-42812057D01*
X43403725Y-42626807D01*
X43707503Y-42377503D01*
X43956807Y-42073725D01*
X44142057Y-41727147D01*
X44256133Y-41351088D01*
X44294652Y-40960000D01*
X44256133Y-40568912D01*
X44142057Y-40192853D01*
X43956807Y-39846275D01*
X43707503Y-39542497D01*
X43403725Y-39293193D01*
X43057147Y-39107943D01*
X42681088Y-38993867D01*
X42387998Y-38965000D01*
X41672002Y-38965000D01*
X41378912Y-38993867D01*
X41002853Y-39107943D01*
X40656275Y-39293193D01*
X40352497Y-39542497D01*
X40103193Y-39846275D01*
X39917943Y-40192853D01*
X39803867Y-40568912D01*
X39765348Y-40960000D01*
X37897343Y-40960000D01*
X38038962Y-40901340D01*
X38192887Y-40798490D01*
X38323790Y-40667587D01*
X38426640Y-40513662D01*
X38497484Y-40342629D01*
X38533600Y-40161062D01*
X38533600Y-39975938D01*
X38497484Y-39794371D01*
X38426640Y-39623338D01*
X38323790Y-39469413D01*
X38192887Y-39338510D01*
X38038962Y-39235660D01*
X37867929Y-39164816D01*
X37686362Y-39128700D01*
X37501238Y-39128700D01*
X37373544Y-39154100D01*
X31628167Y-39154100D01*
X31560162Y-39108660D01*
X31389129Y-39037816D01*
X31207562Y-39001700D01*
X31022438Y-39001700D01*
X30840871Y-39037816D01*
X30669838Y-39108660D01*
X30515913Y-39211510D01*
X30385010Y-39342413D01*
X30282160Y-39496338D01*
X30211316Y-39667371D01*
X30175200Y-39848938D01*
X26060000Y-39848938D01*
X26060000Y-36510000D01*
X31905348Y-36510000D01*
X31943867Y-36901088D01*
X32057943Y-37277147D01*
X32243193Y-37623725D01*
X32492497Y-37927503D01*
X32796275Y-38176807D01*
X33142853Y-38362057D01*
X33518912Y-38476133D01*
X33812002Y-38505000D01*
X34527998Y-38505000D01*
X34821088Y-38476133D01*
X35197147Y-38362057D01*
X35543725Y-38176807D01*
X35847503Y-37927503D01*
X36096807Y-37623725D01*
X36282057Y-37277147D01*
X36396133Y-36901088D01*
X36434652Y-36510000D01*
X36396133Y-36118912D01*
X36282057Y-35742853D01*
X36096807Y-35396275D01*
X35847503Y-35092497D01*
X35543725Y-34843193D01*
X35197147Y-34657943D01*
X34821088Y-34543867D01*
X34527998Y-34515000D01*
X33812002Y-34515000D01*
X33518912Y-34543867D01*
X33142853Y-34657943D01*
X32796275Y-34843193D01*
X32492497Y-35092497D01*
X32243193Y-35396275D01*
X32057943Y-35742853D01*
X31943867Y-36118912D01*
X31905348Y-36510000D01*
X26060000Y-36510000D01*
X26060000Y-35618802D01*
X26222257Y-35686011D01*
X26518816Y-35745000D01*
X26821184Y-35745000D01*
X27117743Y-35686011D01*
X27397095Y-35570299D01*
X27648505Y-35402312D01*
X27862312Y-35188505D01*
X28030299Y-34937095D01*
X28146011Y-34657743D01*
X28205000Y-34361184D01*
X28205000Y-34058816D01*
X28146011Y-33762257D01*
X28030299Y-33482905D01*
X27862312Y-33231495D01*
X27648505Y-33017688D01*
X27562169Y-32960000D01*
X27648505Y-32902312D01*
X27862312Y-32688505D01*
X28030299Y-32437095D01*
X28146011Y-32157743D01*
X28205000Y-31861184D01*
X28205000Y-31558816D01*
X28146011Y-31262257D01*
X28030299Y-30982905D01*
X27862312Y-30731495D01*
X27824697Y-30693880D01*
X27924494Y-30640537D01*
X28021185Y-30561185D01*
X28100537Y-30464494D01*
X28159502Y-30354180D01*
X28195812Y-30234482D01*
X28208072Y-30110000D01*
X28208072Y-28310000D01*
X28195812Y-28185518D01*
X28159502Y-28065820D01*
X28100537Y-27955506D01*
X28021185Y-27858815D01*
X27924494Y-27779463D01*
X27814180Y-27720498D01*
X27694482Y-27684188D01*
X27570000Y-27671928D01*
X26060000Y-27671928D01*
X26060000Y-26060000D01*
X32102229Y-26060000D01*
X32057943Y-26142853D01*
G37*
X32057943Y-26142853D02*
X31943867Y-26518912D01*
X31905348Y-26910000D01*
X31943867Y-27301088D01*
X32057943Y-27677147D01*
X32243193Y-28023725D01*
X32492497Y-28327503D01*
X32796275Y-28576807D01*
X33142853Y-28762057D01*
X33518912Y-28876133D01*
X33812002Y-28905000D01*
X34527998Y-28905000D01*
X34821088Y-28876133D01*
X35197147Y-28762057D01*
X35543725Y-28576807D01*
X35847503Y-28327503D01*
X36096807Y-28023725D01*
X36282057Y-27677147D01*
X36396133Y-27301088D01*
X36434652Y-26910000D01*
X36396133Y-26518912D01*
X36282057Y-26142853D01*
X36237771Y-26060000D01*
X50140000Y-26060000D01*
X50140000Y-41851198D01*
X49977743Y-41783989D01*
X49681184Y-41725000D01*
X49378816Y-41725000D01*
X49082257Y-41783989D01*
X48802905Y-41899701D01*
X48567827Y-42056776D01*
X40977925Y-34466875D01*
X41073158Y-34447932D01*
X41343411Y-34335990D01*
X41586632Y-34173475D01*
X41793475Y-33966632D01*
X41910000Y-33792240D01*
X42026525Y-33966632D01*
X42233368Y-34173475D01*
X42476589Y-34335990D01*
X42746842Y-34447932D01*
X43033740Y-34505000D01*
X43326260Y-34505000D01*
X43613158Y-34447932D01*
X43883411Y-34335990D01*
X44126632Y-34173475D01*
X44333475Y-33966632D01*
X44450000Y-33792240D01*
X44566525Y-33966632D01*
X44773368Y-34173475D01*
X45016589Y-34335990D01*
X45286842Y-34447932D01*
X45573740Y-34505000D01*
X45866260Y-34505000D01*
X46153158Y-34447932D01*
X46423411Y-34335990D01*
X46666632Y-34173475D01*
X46798487Y-34041620D01*
X46820498Y-34114180D01*
X46879463Y-34224494D01*
X46958815Y-34321185D01*
X47055506Y-34400537D01*
X47165820Y-34459502D01*
X47285518Y-34495812D01*
X47410000Y-34508072D01*
X49110000Y-34508072D01*
X49234482Y-34495812D01*
X49354180Y-34459502D01*
X49464494Y-34400537D01*
X49561185Y-34321185D01*
X49640537Y-34224494D01*
X49699502Y-34114180D01*
X49735812Y-33994482D01*
X49748072Y-33870000D01*
X49748072Y-32170000D01*
X49735812Y-32045518D01*
X49699502Y-31925820D01*
X49640537Y-31815506D01*
X49561185Y-31718815D01*
X49464494Y-31639463D01*
X49354180Y-31580498D01*
X49281620Y-31558487D01*
X49413475Y-31426632D01*
X49575990Y-31183411D01*
X49687932Y-30913158D01*
X49745000Y-30626260D01*
X49745000Y-30333740D01*
X49687932Y-30046842D01*
X49575990Y-29776589D01*
X49413475Y-29533368D01*
X49206632Y-29326525D01*
X48963411Y-29164010D01*
X48693158Y-29052068D01*
X48406260Y-28995000D01*
X48113740Y-28995000D01*
X47826842Y-29052068D01*
X47556589Y-29164010D01*
X47313368Y-29326525D01*
X47106525Y-29533368D01*
X46990000Y-29707760D01*
X46873475Y-29533368D01*
X46666632Y-29326525D01*
X46423411Y-29164010D01*
X46153158Y-29052068D01*
X45866260Y-28995000D01*
X45573740Y-28995000D01*
X45286842Y-29052068D01*
X45016589Y-29164010D01*
X44773368Y-29326525D01*
X44566525Y-29533368D01*
X44450000Y-29707760D01*
X44333475Y-29533368D01*
X44126632Y-29326525D01*
X43883411Y-29164010D01*
X43613158Y-29052068D01*
X43326260Y-28995000D01*
X43033740Y-28995000D01*
X42746842Y-29052068D01*
X42476589Y-29164010D01*
X42233368Y-29326525D01*
X42026525Y-29533368D01*
X41910000Y-29707760D01*
X41793475Y-29533368D01*
X41586632Y-29326525D01*
X41343411Y-29164010D01*
X41073158Y-29052068D01*
X40786260Y-28995000D01*
X40493740Y-28995000D01*
X40206842Y-29052068D01*
X39936589Y-29164010D01*
X39693368Y-29326525D01*
X39486525Y-29533368D01*
X39370000Y-29707760D01*
X39253475Y-29533368D01*
X39046632Y-29326525D01*
X38803411Y-29164010D01*
X38533158Y-29052068D01*
X38246260Y-28995000D01*
X37953740Y-28995000D01*
X37666842Y-29052068D01*
X37396589Y-29164010D01*
X37153368Y-29326525D01*
X36946525Y-29533368D01*
X36830000Y-29707760D01*
X36713475Y-29533368D01*
X36506632Y-29326525D01*
X36263411Y-29164010D01*
X35993158Y-29052068D01*
X35706260Y-28995000D01*
X35413740Y-28995000D01*
X35126842Y-29052068D01*
X34856589Y-29164010D01*
X34613368Y-29326525D01*
X34406525Y-29533368D01*
X34290000Y-29707760D01*
X34173475Y-29533368D01*
X33966632Y-29326525D01*
X33723411Y-29164010D01*
X33453158Y-29052068D01*
X33166260Y-28995000D01*
X32873740Y-28995000D01*
X32586842Y-29052068D01*
X32316589Y-29164010D01*
X32073368Y-29326525D01*
X31866525Y-29533368D01*
X31750000Y-29707760D01*
X31633475Y-29533368D01*
X31426632Y-29326525D01*
X31183411Y-29164010D01*
X30913158Y-29052068D01*
X30626260Y-28995000D01*
X30333740Y-28995000D01*
X30046842Y-29052068D01*
X29776589Y-29164010D01*
X29533368Y-29326525D01*
X29326525Y-29533368D01*
X29164010Y-29776589D01*
X29052068Y-30046842D01*
X28995000Y-30333740D01*
X28995000Y-30626260D01*
X29052068Y-30913158D01*
X29164010Y-31183411D01*
X29326525Y-31426632D01*
X29533368Y-31633475D01*
X29707760Y-31750000D01*
X29533368Y-31866525D01*
X29326525Y-32073368D01*
X29164010Y-32316589D01*
X29052068Y-32586842D01*
X28995000Y-32873740D01*
X28995000Y-33166260D01*
X29052068Y-33453158D01*
X29164010Y-33723411D01*
X29326525Y-33966632D01*
X29533368Y-34173475D01*
X29776589Y-34335990D01*
X30046842Y-34447932D01*
X30333740Y-34505000D01*
X30626260Y-34505000D01*
X30913158Y-34447932D01*
X31183411Y-34335990D01*
X31426632Y-34173475D01*
X31633475Y-33966632D01*
X31750000Y-33792240D01*
X31866525Y-33966632D01*
X32073368Y-34173475D01*
X32316589Y-34335990D01*
X32586842Y-34447932D01*
X32873740Y-34505000D01*
X33166260Y-34505000D01*
X33453158Y-34447932D01*
X33723411Y-34335990D01*
X33966632Y-34173475D01*
X34173475Y-33966632D01*
X34290000Y-33792240D01*
X34406525Y-33966632D01*
X34613368Y-34173475D01*
X34856589Y-34335990D01*
X35126842Y-34447932D01*
X35413740Y-34505000D01*
X35706260Y-34505000D01*
X35993158Y-34447932D01*
X36263411Y-34335990D01*
X36506632Y-34173475D01*
X36713475Y-33966632D01*
X36830000Y-33792240D01*
X36946525Y-33966632D01*
X37153368Y-34173475D01*
X37396589Y-34335990D01*
X37666842Y-34447932D01*
X37953740Y-34505000D01*
X38246260Y-34505000D01*
X38533158Y-34447932D01*
X38673677Y-34389727D01*
X48073377Y-43789428D01*
X48098031Y-43819469D01*
X48101420Y-43822250D01*
X48169701Y-43987095D01*
X48337688Y-44238505D01*
X48551495Y-44452312D01*
X48637831Y-44510000D01*
X48551495Y-44567688D01*
X48337688Y-44781495D01*
X48169701Y-45032905D01*
X48053989Y-45312257D01*
X47995000Y-45608816D01*
X47995000Y-45911184D01*
X48053989Y-46207743D01*
X48169701Y-46487095D01*
X48337688Y-46738505D01*
X48375303Y-46776120D01*
X48275506Y-46829463D01*
X48178815Y-46908815D01*
X48099463Y-47005506D01*
X48040498Y-47115820D01*
X48004188Y-47235518D01*
X47991928Y-47360000D01*
X47991928Y-49160000D01*
X48004188Y-49284482D01*
X48040498Y-49404180D01*
X48099463Y-49514494D01*
X48178815Y-49611185D01*
X48275506Y-49690537D01*
X48385820Y-49749502D01*
X48505518Y-49785812D01*
X48630000Y-49798072D01*
X48666400Y-49798072D01*
X48666401Y-66114087D01*
X47627114Y-65074800D01*
X47634862Y-65074800D01*
X47816429Y-65038684D01*
X47987462Y-64967840D01*
X48141387Y-64864990D01*
X48272290Y-64734087D01*
X48375140Y-64580162D01*
X48445984Y-64409129D01*
X48482100Y-64227562D01*
X48482100Y-64042438D01*
X48445984Y-63860871D01*
X48375140Y-63689838D01*
X48272290Y-63535913D01*
X48141387Y-63405010D01*
X47987462Y-63302160D01*
X47816429Y-63231316D01*
X47634862Y-63195200D01*
X47449738Y-63195200D01*
X47268171Y-63231316D01*
X47097138Y-63302160D01*
X46943213Y-63405010D01*
X46812310Y-63535913D01*
X46709460Y-63689838D01*
X46638616Y-63860871D01*
X46602500Y-64042438D01*
X46602500Y-64189305D01*
X46513795Y-64162396D01*
X46386920Y-64149900D01*
X46344500Y-64145722D01*
X46302080Y-64149900D01*
X43525245Y-64149900D01*
X43575684Y-64028129D01*
X43611800Y-63846562D01*
X43611800Y-63661438D01*
X43575684Y-63479871D01*
X43504840Y-63308838D01*
X43401990Y-63154913D01*
X43271087Y-63024010D01*
X43117162Y-62921160D01*
X42946129Y-62850316D01*
X42764562Y-62814200D01*
X42579438Y-62814200D01*
X42397871Y-62850316D01*
X42226838Y-62921160D01*
X42072913Y-63024010D01*
X41942010Y-63154913D01*
X41839160Y-63308838D01*
X41768316Y-63479871D01*
X41732200Y-63661438D01*
X41732200Y-63846562D01*
X41768316Y-64028129D01*
X41818755Y-64149900D01*
X41449801Y-64149900D01*
X41353029Y-64109816D01*
X41171462Y-64073700D01*
X40986338Y-64073700D01*
X40804771Y-64109816D01*
X40633738Y-64180660D01*
X40479813Y-64283510D01*
X40348910Y-64414413D01*
X40246060Y-64568338D01*
X40175216Y-64739371D01*
X40139100Y-64920938D01*
X40139100Y-65106062D01*
X40175216Y-65287629D01*
X40246060Y-65458662D01*
X40348910Y-65612587D01*
X40479813Y-65743490D01*
X40603267Y-65825980D01*
X40546316Y-65963471D01*
X40510200Y-66145038D01*
X40510200Y-66330162D01*
X40546316Y-66511729D01*
X40617160Y-66682762D01*
X40720010Y-66836687D01*
X40850913Y-66967590D01*
X41004838Y-67070440D01*
X41175871Y-67141284D01*
X41261578Y-67158332D01*
X41255160Y-67167938D01*
X41184316Y-67338971D01*
X41148200Y-67520538D01*
X41148200Y-67705662D01*
X41169592Y-67813206D01*
X41165029Y-67811316D01*
X40983462Y-67775200D01*
X40798338Y-67775200D01*
X40616771Y-67811316D01*
X40445738Y-67882160D01*
X40363811Y-67936902D01*
X38880541Y-66453632D01*
X38908800Y-66311562D01*
X38908800Y-66126438D01*
X38872684Y-65944871D01*
X38801840Y-65773838D01*
X38698990Y-65619913D01*
X38568087Y-65489010D01*
X38414162Y-65386160D01*
X38243129Y-65315316D01*
X38061562Y-65279200D01*
X37876438Y-65279200D01*
X37694871Y-65315316D01*
X37523838Y-65386160D01*
X37369913Y-65489010D01*
X37239010Y-65619913D01*
X37136160Y-65773838D01*
X37065316Y-65944871D01*
X37029200Y-66126438D01*
X37029200Y-66311562D01*
X37065316Y-66493129D01*
X37136160Y-66664162D01*
X37239010Y-66818087D01*
X37284062Y-66863139D01*
X37285278Y-66867148D01*
X37353676Y-66995112D01*
X37445725Y-67107274D01*
X37473832Y-67130341D01*
X38344291Y-68000800D01*
X38243838Y-68000800D01*
X38062271Y-68036916D01*
X37891238Y-68107760D01*
X37737313Y-68210610D01*
X37606410Y-68341513D01*
X37503560Y-68495438D01*
X37432716Y-68666471D01*
X37396600Y-68848038D01*
X37396600Y-69033162D01*
X37432716Y-69214729D01*
X37503560Y-69385762D01*
X37606410Y-69539687D01*
X37737313Y-69670590D01*
X37891238Y-69773440D01*
X38062271Y-69844284D01*
X38232169Y-69878079D01*
X38608557Y-70254467D01*
X38631625Y-70282575D01*
X38659731Y-70305641D01*
X38659732Y-70305642D01*
X38690163Y-70330616D01*
X38743787Y-70374624D01*
X38871751Y-70443022D01*
X39010601Y-70485142D01*
X39118814Y-70495800D01*
X39118823Y-70495800D01*
X39138114Y-70497700D01*
X38708220Y-70497700D01*
X38586384Y-70432578D01*
X38423595Y-70383196D01*
X38296720Y-70370700D01*
X37733066Y-70370700D01*
X37393715Y-70031350D01*
X37366664Y-69998388D01*
X37235164Y-69890469D01*
X37085136Y-69810278D01*
X36922347Y-69760896D01*
X36795472Y-69748400D01*
X36753052Y-69744222D01*
X36710632Y-69748400D01*
X36692901Y-69748400D01*
X36596129Y-69708316D01*
X36414562Y-69672200D01*
X36229438Y-69672200D01*
X36047871Y-69708316D01*
X35876838Y-69779160D01*
X35722913Y-69882010D01*
X35592010Y-70012913D01*
X35532254Y-70102344D01*
X35336645Y-69906736D01*
X35313575Y-69878625D01*
X35201413Y-69786576D01*
X35073449Y-69718178D01*
X34934599Y-69676058D01*
X34826386Y-69665400D01*
X34826383Y-69665400D01*
X34790200Y-69661836D01*
X34754017Y-69665400D01*
X34409094Y-69665400D01*
X34265062Y-69569160D01*
X34094029Y-69498316D01*
X33912462Y-69462200D01*
X33727338Y-69462200D01*
X33545771Y-69498316D01*
X33374738Y-69569160D01*
X33220813Y-69672010D01*
X33089910Y-69802913D01*
X32987060Y-69956838D01*
X32929324Y-70096224D01*
X32847638Y-70130060D01*
X32693713Y-70232910D01*
X32562810Y-70363813D01*
X32459960Y-70517738D01*
X32389116Y-70688771D01*
X32353000Y-70870338D01*
X32353000Y-71055462D01*
X32389116Y-71237029D01*
X32459960Y-71408062D01*
X32562810Y-71561987D01*
X32693713Y-71692890D01*
X32847638Y-71795740D01*
X33018671Y-71866584D01*
X33200238Y-71902700D01*
X33382353Y-71902700D01*
X33438960Y-72039362D01*
X33535201Y-72183396D01*
X33535200Y-86233000D01*
X31330900Y-86233000D01*
X31330900Y-80747677D01*
X31463738Y-80774100D01*
X31648862Y-80774100D01*
X31830429Y-80737984D01*
X32001462Y-80667140D01*
X32155387Y-80564290D01*
X32286290Y-80433387D01*
X32389140Y-80279462D01*
X32459984Y-80108429D01*
X32496100Y-79926862D01*
X32496100Y-79741738D01*
X32459984Y-79560171D01*
X32389140Y-79389138D01*
X32286290Y-79235213D01*
X32155387Y-79104310D01*
X32001462Y-79001460D01*
X31830429Y-78930616D01*
X31648862Y-78894500D01*
X31463738Y-78894500D01*
X31330900Y-78920923D01*
X31330900Y-77000662D01*
X31334708Y-76961999D01*
X31330900Y-76923336D01*
X31330900Y-76923327D01*
X31319506Y-76807643D01*
X31310431Y-76777727D01*
X31398487Y-76718890D01*
X31529390Y-76587987D01*
X31632240Y-76434062D01*
X31703084Y-76263029D01*
X31739200Y-76081462D01*
X31739200Y-75896338D01*
X31703084Y-75714771D01*
X31663282Y-75618680D01*
X31729784Y-75458129D01*
X31765900Y-75276562D01*
X31765900Y-75091438D01*
X31729784Y-74909871D01*
X31658940Y-74738838D01*
X31556090Y-74584913D01*
X31425187Y-74454010D01*
X31271262Y-74351160D01*
X31100229Y-74280316D01*
X30918662Y-74244200D01*
X30733538Y-74244200D01*
X30551971Y-74280316D01*
X30467488Y-74315310D01*
X30448005Y-74268273D01*
X30295120Y-74039465D01*
X30100535Y-73844880D01*
X29871727Y-73691995D01*
X29794485Y-73660000D01*
X29871727Y-73628005D01*
X30100535Y-73475120D01*
X30295120Y-73280535D01*
X30448005Y-73051727D01*
X30547489Y-72811552D01*
X30696038Y-72841100D01*
X30881162Y-72841100D01*
X31062729Y-72804984D01*
X31233762Y-72734140D01*
X31387687Y-72631290D01*
X31518590Y-72500387D01*
X31621440Y-72346462D01*
X31692284Y-72175429D01*
X31728400Y-71993862D01*
X31728400Y-71808738D01*
X31692284Y-71627171D01*
X31621440Y-71456138D01*
X31518590Y-71302213D01*
X31387687Y-71171310D01*
X31233762Y-71068460D01*
X31062729Y-70997616D01*
X30881162Y-70961500D01*
X30696038Y-70961500D01*
X30514471Y-70997616D01*
X30343438Y-71068460D01*
X30189513Y-71171310D01*
X30073804Y-71287019D01*
X29871727Y-71151995D01*
X29794485Y-71120000D01*
X29871727Y-71088005D01*
X30100535Y-70935120D01*
X30295120Y-70740535D01*
X30448005Y-70511727D01*
X30553314Y-70257490D01*
X30607000Y-69987592D01*
X30607000Y-69712408D01*
X30553314Y-69442510D01*
X30448005Y-69188273D01*
X30295120Y-68959465D01*
X30100535Y-68764880D01*
X29871727Y-68611995D01*
X29617490Y-68506686D01*
X29347592Y-68453000D01*
X29072408Y-68453000D01*
X28802510Y-68506686D01*
X28548273Y-68611995D01*
X28319465Y-68764880D01*
X28124880Y-68959465D01*
X27971995Y-69188273D01*
X27866686Y-69442510D01*
X27813000Y-69712408D01*
X27813000Y-69987592D01*
X27866686Y-70257490D01*
X27971995Y-70511727D01*
X28124880Y-70740535D01*
X28319465Y-70935120D01*
X28548273Y-71088005D01*
X28625515Y-71120000D01*
X28548273Y-71151995D01*
X28319465Y-71304880D01*
X28124880Y-71499465D01*
X27971995Y-71728273D01*
X27866686Y-71982510D01*
X27813000Y-72252408D01*
X27813000Y-72527592D01*
X27866686Y-72797490D01*
X27971995Y-73051727D01*
X28124880Y-73280535D01*
X28319465Y-73475120D01*
X28548273Y-73628005D01*
X28625515Y-73660000D01*
X28548273Y-73691995D01*
X28319465Y-73844880D01*
X28124880Y-74039465D01*
X27971995Y-74268273D01*
X27866686Y-74522510D01*
X27813000Y-74792408D01*
X27813000Y-75067592D01*
X27866686Y-75337490D01*
X27971995Y-75591727D01*
X28124880Y-75820535D01*
X28319465Y-76015120D01*
X28548273Y-76168005D01*
X28625515Y-76200000D01*
X28548273Y-76231995D01*
X28319465Y-76384880D01*
X28124880Y-76579465D01*
X27971995Y-76808273D01*
X27866686Y-77062510D01*
X27813000Y-77332408D01*
X27813000Y-77607592D01*
X27866686Y-77877490D01*
X27971995Y-78131727D01*
X28124880Y-78360535D01*
X28319465Y-78555120D01*
X28548273Y-78708005D01*
X28625515Y-78740000D01*
X28548273Y-78771995D01*
X28319465Y-78924880D01*
X28124880Y-79119465D01*
X27971995Y-79348273D01*
X27866686Y-79602510D01*
X27813000Y-79872408D01*
X27813000Y-80147592D01*
X27866686Y-80417490D01*
X27971995Y-80671727D01*
X28124880Y-80900535D01*
X28319465Y-81095120D01*
X28548273Y-81248005D01*
X28625515Y-81280000D01*
X28548273Y-81311995D01*
X28319465Y-81464880D01*
X28124880Y-81659465D01*
X27971995Y-81888273D01*
X27866686Y-82142510D01*
X27813000Y-82412408D01*
X27813000Y-82687592D01*
X27866686Y-82957490D01*
X27971995Y-83211727D01*
X28124880Y-83440535D01*
X28319465Y-83635120D01*
X28548273Y-83788005D01*
X28625515Y-83820000D01*
X28548273Y-83851995D01*
X28319465Y-84004880D01*
X28124880Y-84199465D01*
X27971995Y-84428273D01*
X27866686Y-84682510D01*
X27813000Y-84952408D01*
X27813000Y-85227592D01*
X27866686Y-85497490D01*
X27971995Y-85751727D01*
X28124880Y-85980535D01*
X28319465Y-86175120D01*
X28406088Y-86233000D01*
X26060000Y-86233000D01*
X26060000Y-64626696D01*
X26110532Y-64688269D01*
X26140573Y-64712923D01*
X30404359Y-68976710D01*
X30420316Y-69056929D01*
X30491160Y-69227962D01*
X30594010Y-69381887D01*
X30724913Y-69512790D01*
X30878838Y-69615640D01*
X31049871Y-69686484D01*
X31231438Y-69722600D01*
X31416562Y-69722600D01*
X31598129Y-69686484D01*
X31769162Y-69615640D01*
X31923087Y-69512790D01*
X32053990Y-69381887D01*
X32156840Y-69227962D01*
X32227684Y-69056929D01*
X32263800Y-68875362D01*
X32263800Y-68690238D01*
X32227684Y-68508671D01*
X32156840Y-68337638D01*
X32053990Y-68183713D01*
X31923087Y-68052810D01*
X31769162Y-67949960D01*
X31598129Y-67879116D01*
X31517910Y-67863159D01*
X28104751Y-64450000D01*
X31905348Y-64450000D01*
X31943867Y-64841088D01*
X32057943Y-65217147D01*
X32243193Y-65563725D01*
X32492497Y-65867503D01*
X32796275Y-66116807D01*
X33142853Y-66302057D01*
X33518912Y-66416133D01*
X33812002Y-66445000D01*
X34527998Y-66445000D01*
X34821088Y-66416133D01*
X35197147Y-66302057D01*
X35543725Y-66116807D01*
X35847503Y-65867503D01*
X36096807Y-65563725D01*
X36282057Y-65217147D01*
X36396133Y-64841088D01*
X36434652Y-64450000D01*
X36396133Y-64058912D01*
X36282057Y-63682853D01*
X36096807Y-63336275D01*
X35847503Y-63032497D01*
X35543725Y-62783193D01*
X35197147Y-62597943D01*
X34821088Y-62483867D01*
X34527998Y-62455000D01*
X33812002Y-62455000D01*
X33518912Y-62483867D01*
X33142853Y-62597943D01*
X32796275Y-62783193D01*
X32492497Y-63032497D01*
X32243193Y-63336275D01*
X32057943Y-63682853D01*
X31943867Y-64058912D01*
X31905348Y-64450000D01*
X28104751Y-64450000D01*
X27457400Y-63802650D01*
X27457400Y-63470004D01*
X27648505Y-63342312D01*
X27862312Y-63128505D01*
X28030299Y-62877095D01*
X28146011Y-62597743D01*
X28205000Y-62301184D01*
X28205000Y-61998816D01*
X28146011Y-61702257D01*
X28030299Y-61422905D01*
X27862312Y-61171495D01*
X27648505Y-60957688D01*
X27562169Y-60900000D01*
X27648505Y-60842312D01*
X27862312Y-60628505D01*
X28030299Y-60377095D01*
X28146011Y-60097743D01*
X28195003Y-59851438D01*
X32334200Y-59851438D01*
X32334200Y-60036562D01*
X32370316Y-60218129D01*
X32441160Y-60389162D01*
X32544010Y-60543087D01*
X32674913Y-60673990D01*
X32828838Y-60776840D01*
X32999871Y-60847684D01*
X33181438Y-60883800D01*
X33366562Y-60883800D01*
X33548129Y-60847684D01*
X33690964Y-60788520D01*
X33703816Y-60853129D01*
X33774660Y-61024162D01*
X33877510Y-61178087D01*
X34008413Y-61308990D01*
X34162338Y-61411840D01*
X34333371Y-61482684D01*
X34514938Y-61518800D01*
X34700062Y-61518800D01*
X34881629Y-61482684D01*
X35052662Y-61411840D01*
X35206587Y-61308990D01*
X35337490Y-61178087D01*
X35375341Y-61121438D01*
X39954200Y-61121438D01*
X39954200Y-61306562D01*
X39990316Y-61488129D01*
X40061160Y-61659162D01*
X40164010Y-61813087D01*
X40294913Y-61943990D01*
X40448838Y-62046840D01*
X40619871Y-62117684D01*
X40801438Y-62153800D01*
X40986562Y-62153800D01*
X41168129Y-62117684D01*
X41339162Y-62046840D01*
X41493087Y-61943990D01*
X41623990Y-61813087D01*
X41726840Y-61659162D01*
X41797684Y-61488129D01*
X41833800Y-61306562D01*
X41833800Y-61121438D01*
X41797684Y-60939871D01*
X41726840Y-60768838D01*
X41623990Y-60614913D01*
X41493087Y-60484010D01*
X41339162Y-60381160D01*
X41168129Y-60310316D01*
X40986562Y-60274200D01*
X40801438Y-60274200D01*
X40619871Y-60310316D01*
X40448838Y-60381160D01*
X40294913Y-60484010D01*
X40164010Y-60614913D01*
X40061160Y-60768838D01*
X39990316Y-60939871D01*
X39954200Y-61121438D01*
X35375341Y-61121438D01*
X35440340Y-61024162D01*
X35511184Y-60853129D01*
X35547300Y-60671562D01*
X35547300Y-60486438D01*
X35511184Y-60304871D01*
X35440340Y-60133838D01*
X35337490Y-59979913D01*
X35206587Y-59849010D01*
X35052662Y-59746160D01*
X34881629Y-59675316D01*
X34700062Y-59639200D01*
X34514938Y-59639200D01*
X34333371Y-59675316D01*
X34190536Y-59734480D01*
X34177684Y-59669871D01*
X34106840Y-59498838D01*
X34003990Y-59344913D01*
X33873087Y-59214010D01*
X33719162Y-59111160D01*
X33548129Y-59040316D01*
X33366562Y-59004200D01*
X33181438Y-59004200D01*
X32999871Y-59040316D01*
X32828838Y-59111160D01*
X32674913Y-59214010D01*
X32544010Y-59344913D01*
X32441160Y-59498838D01*
X32370316Y-59669871D01*
X32334200Y-59851438D01*
X28195003Y-59851438D01*
X28205000Y-59801184D01*
X28205000Y-59498816D01*
X28146011Y-59202257D01*
X28030299Y-58922905D01*
X27862312Y-58671495D01*
X27824697Y-58633880D01*
X27924494Y-58580537D01*
X28021185Y-58501185D01*
X28100537Y-58404494D01*
X28159502Y-58294180D01*
X28195812Y-58174482D01*
X28208072Y-58050000D01*
X28208072Y-57864845D01*
X28314672Y-57807866D01*
X28434569Y-57709469D01*
X28532966Y-57589572D01*
X28606082Y-57452783D01*
X28651106Y-57304357D01*
X28666309Y-57150000D01*
X28651106Y-56995643D01*
X28606082Y-56847217D01*
X28532966Y-56710428D01*
X28434569Y-56590531D01*
X28314672Y-56492134D01*
X28208072Y-56435155D01*
X28208072Y-56250000D01*
X28195812Y-56125518D01*
X28159502Y-56005820D01*
X28100537Y-55895506D01*
X28021185Y-55798815D01*
X27924494Y-55719463D01*
X27814180Y-55660498D01*
X27694482Y-55624188D01*
X27570000Y-55611928D01*
X26060000Y-55611928D01*
X26060000Y-54850000D01*
X31905348Y-54850000D01*
X31943867Y-55241088D01*
X32057943Y-55617147D01*
X32243193Y-55963725D01*
X32492497Y-56267503D01*
X32796275Y-56516807D01*
X33142853Y-56702057D01*
X33518912Y-56816133D01*
X33812002Y-56845000D01*
X34527998Y-56845000D01*
X34821088Y-56816133D01*
X34951439Y-56776592D01*
X34910316Y-56875871D01*
X34874200Y-57057438D01*
X34874200Y-57242562D01*
X34910316Y-57424129D01*
X34981160Y-57595162D01*
X35084010Y-57749087D01*
X35214913Y-57879990D01*
X35368838Y-57982840D01*
X35539871Y-58053684D01*
X35721438Y-58089800D01*
X35906562Y-58089800D01*
X36088129Y-58053684D01*
X36184901Y-58013600D01*
X37729099Y-58013600D01*
X37825871Y-58053684D01*
X38007438Y-58089800D01*
X38192562Y-58089800D01*
X38374129Y-58053684D01*
X38545162Y-57982840D01*
X38699087Y-57879990D01*
X38829990Y-57749087D01*
X38932840Y-57595162D01*
X39003684Y-57424129D01*
X39039800Y-57242562D01*
X39039800Y-57057438D01*
X39003684Y-56875871D01*
X38932840Y-56704838D01*
X38922684Y-56689638D01*
X40219700Y-56689638D01*
X40219700Y-56874762D01*
X40255816Y-57056329D01*
X40326660Y-57227362D01*
X40429510Y-57381287D01*
X40560413Y-57512190D01*
X40714338Y-57615040D01*
X40885371Y-57685884D01*
X40911904Y-57691162D01*
X40919516Y-57729429D01*
X40990360Y-57900462D01*
X41093210Y-58054387D01*
X41224113Y-58185290D01*
X41378038Y-58288140D01*
X41549071Y-58358984D01*
X41730638Y-58395100D01*
X41915762Y-58395100D01*
X42097329Y-58358984D01*
X42268362Y-58288140D01*
X42422287Y-58185290D01*
X42553190Y-58054387D01*
X42656040Y-57900462D01*
X42726884Y-57729429D01*
X42763000Y-57547862D01*
X42763000Y-57362738D01*
X42726884Y-57181171D01*
X42656040Y-57010138D01*
X42553190Y-56856213D01*
X42422287Y-56725310D01*
X42268362Y-56622460D01*
X42097329Y-56551616D01*
X42070796Y-56546338D01*
X42063184Y-56508071D01*
X41992340Y-56337038D01*
X41889490Y-56183113D01*
X41758587Y-56052210D01*
X41604662Y-55949360D01*
X41433629Y-55878516D01*
X41252062Y-55842400D01*
X41066938Y-55842400D01*
X40885371Y-55878516D01*
X40714338Y-55949360D01*
X40560413Y-56052210D01*
X40429510Y-56183113D01*
X40326660Y-56337038D01*
X40255816Y-56508071D01*
X40219700Y-56689638D01*
X38922684Y-56689638D01*
X38829990Y-56550913D01*
X38699087Y-56420010D01*
X38545162Y-56317160D01*
X38374129Y-56246316D01*
X38192562Y-56210200D01*
X38007438Y-56210200D01*
X37825871Y-56246316D01*
X37729099Y-56286400D01*
X36184901Y-56286400D01*
X36088129Y-56246316D01*
X35906562Y-56210200D01*
X35894530Y-56210200D01*
X36096807Y-55963725D01*
X36282057Y-55617147D01*
X36396133Y-55241088D01*
X36434652Y-54850000D01*
X36396133Y-54458912D01*
X36282057Y-54082853D01*
X36096807Y-53736275D01*
X35847503Y-53432497D01*
X35543725Y-53183193D01*
X35197147Y-52997943D01*
X34821088Y-52883867D01*
X34527998Y-52855000D01*
X33812002Y-52855000D01*
X33518912Y-52883867D01*
X33142853Y-52997943D01*
X32796275Y-53183193D01*
X32492497Y-53432497D01*
X32243193Y-53736275D01*
X32057943Y-54082853D01*
X31943867Y-54458912D01*
X31905348Y-54850000D01*
X26060000Y-54850000D01*
X26060000Y-50560000D01*
X39765348Y-50560000D01*
X39803867Y-50951088D01*
X39917943Y-51327147D01*
X40103193Y-51673725D01*
X40352497Y-51977503D01*
X40656275Y-52226807D01*
X41002853Y-52412057D01*
X41378912Y-52526133D01*
X41672002Y-52555000D01*
X42387998Y-52555000D01*
X42681088Y-52526133D01*
X43057147Y-52412057D01*
X43403725Y-52226807D01*
X43707503Y-51977503D01*
X43956807Y-51673725D01*
X44142057Y-51327147D01*
X44256133Y-50951088D01*
X44294652Y-50560000D01*
X44256133Y-50168912D01*
X44142057Y-49792853D01*
X43956807Y-49446275D01*
X43707503Y-49142497D01*
X43403725Y-48893193D01*
X43057147Y-48707943D01*
X42681088Y-48593867D01*
X42387998Y-48565000D01*
X41672002Y-48565000D01*
X41378912Y-48593867D01*
X41002853Y-48707943D01*
X40656275Y-48893193D01*
X40352497Y-49142497D01*
X40103193Y-49446275D01*
X39917943Y-49792853D01*
X39803867Y-50168912D01*
X39765348Y-50560000D01*
X26060000Y-50560000D01*
X26060000Y-39848938D01*
X30175200Y-39848938D01*
X30175200Y-40034062D01*
X30211316Y-40215629D01*
X30282160Y-40386662D01*
X30385010Y-40540587D01*
X30515913Y-40671490D01*
X30669838Y-40774340D01*
X30840871Y-40845184D01*
X31022438Y-40881300D01*
X31207562Y-40881300D01*
X31389129Y-40845184D01*
X31560162Y-40774340D01*
X31628167Y-40728900D01*
X32482591Y-40728900D01*
X32364871Y-40752316D01*
X32193838Y-40823160D01*
X32039913Y-40926010D01*
X31909010Y-41056913D01*
X31806160Y-41210838D01*
X31735316Y-41381871D01*
X31699200Y-41563438D01*
X31699200Y-41748562D01*
X31735316Y-41930129D01*
X31806160Y-42101162D01*
X31909010Y-42255087D01*
X32039913Y-42385990D01*
X32193838Y-42488840D01*
X32364871Y-42559684D01*
X32546438Y-42595800D01*
X32731562Y-42595800D01*
X32913129Y-42559684D01*
X33009901Y-42519600D01*
X35697099Y-42519600D01*
X35793871Y-42559684D01*
X35975438Y-42595800D01*
X36160562Y-42595800D01*
X36342129Y-42559684D01*
X36513162Y-42488840D01*
X36667087Y-42385990D01*
X36797990Y-42255087D01*
X36900840Y-42101162D01*
X36971684Y-41930129D01*
X37007800Y-41748562D01*
X37007800Y-41563438D01*
X36971684Y-41381871D01*
X36900840Y-41210838D01*
X36797990Y-41056913D01*
X36667087Y-40926010D01*
X36513162Y-40823160D01*
X36342129Y-40752316D01*
X36224409Y-40728900D01*
X36925123Y-40728900D01*
X36994713Y-40798490D01*
X37148638Y-40901340D01*
X37319671Y-40972184D01*
X37501238Y-41008300D01*
X37686362Y-41008300D01*
X37867929Y-40972184D01*
X37897343Y-40960000D01*
X39765348Y-40960000D01*
X39803867Y-41351088D01*
X39917943Y-41727147D01*
X40103193Y-42073725D01*
X40352497Y-42377503D01*
X40656275Y-42626807D01*
X41002853Y-42812057D01*
X41378912Y-42926133D01*
X41672002Y-42955000D01*
X42387998Y-42955000D01*
X42681088Y-42926133D01*
X43057147Y-42812057D01*
X43403725Y-42626807D01*
X43707503Y-42377503D01*
X43956807Y-42073725D01*
X44142057Y-41727147D01*
X44256133Y-41351088D01*
X44294652Y-40960000D01*
X44256133Y-40568912D01*
X44142057Y-40192853D01*
X43956807Y-39846275D01*
X43707503Y-39542497D01*
X43403725Y-39293193D01*
X43057147Y-39107943D01*
X42681088Y-38993867D01*
X42387998Y-38965000D01*
X41672002Y-38965000D01*
X41378912Y-38993867D01*
X41002853Y-39107943D01*
X40656275Y-39293193D01*
X40352497Y-39542497D01*
X40103193Y-39846275D01*
X39917943Y-40192853D01*
X39803867Y-40568912D01*
X39765348Y-40960000D01*
X37897343Y-40960000D01*
X38038962Y-40901340D01*
X38192887Y-40798490D01*
X38323790Y-40667587D01*
X38426640Y-40513662D01*
X38497484Y-40342629D01*
X38533600Y-40161062D01*
X38533600Y-39975938D01*
X38497484Y-39794371D01*
X38426640Y-39623338D01*
X38323790Y-39469413D01*
X38192887Y-39338510D01*
X38038962Y-39235660D01*
X37867929Y-39164816D01*
X37686362Y-39128700D01*
X37501238Y-39128700D01*
X37373544Y-39154100D01*
X31628167Y-39154100D01*
X31560162Y-39108660D01*
X31389129Y-39037816D01*
X31207562Y-39001700D01*
X31022438Y-39001700D01*
X30840871Y-39037816D01*
X30669838Y-39108660D01*
X30515913Y-39211510D01*
X30385010Y-39342413D01*
X30282160Y-39496338D01*
X30211316Y-39667371D01*
X30175200Y-39848938D01*
X26060000Y-39848938D01*
X26060000Y-36510000D01*
X31905348Y-36510000D01*
X31943867Y-36901088D01*
X32057943Y-37277147D01*
X32243193Y-37623725D01*
X32492497Y-37927503D01*
X32796275Y-38176807D01*
X33142853Y-38362057D01*
X33518912Y-38476133D01*
X33812002Y-38505000D01*
X34527998Y-38505000D01*
X34821088Y-38476133D01*
X35197147Y-38362057D01*
X35543725Y-38176807D01*
X35847503Y-37927503D01*
X36096807Y-37623725D01*
X36282057Y-37277147D01*
X36396133Y-36901088D01*
X36434652Y-36510000D01*
X36396133Y-36118912D01*
X36282057Y-35742853D01*
X36096807Y-35396275D01*
X35847503Y-35092497D01*
X35543725Y-34843193D01*
X35197147Y-34657943D01*
X34821088Y-34543867D01*
X34527998Y-34515000D01*
X33812002Y-34515000D01*
X33518912Y-34543867D01*
X33142853Y-34657943D01*
X32796275Y-34843193D01*
X32492497Y-35092497D01*
X32243193Y-35396275D01*
X32057943Y-35742853D01*
X31943867Y-36118912D01*
X31905348Y-36510000D01*
X26060000Y-36510000D01*
X26060000Y-35618802D01*
X26222257Y-35686011D01*
X26518816Y-35745000D01*
X26821184Y-35745000D01*
X27117743Y-35686011D01*
X27397095Y-35570299D01*
X27648505Y-35402312D01*
X27862312Y-35188505D01*
X28030299Y-34937095D01*
X28146011Y-34657743D01*
X28205000Y-34361184D01*
X28205000Y-34058816D01*
X28146011Y-33762257D01*
X28030299Y-33482905D01*
X27862312Y-33231495D01*
X27648505Y-33017688D01*
X27562169Y-32960000D01*
X27648505Y-32902312D01*
X27862312Y-32688505D01*
X28030299Y-32437095D01*
X28146011Y-32157743D01*
X28205000Y-31861184D01*
X28205000Y-31558816D01*
X28146011Y-31262257D01*
X28030299Y-30982905D01*
X27862312Y-30731495D01*
X27824697Y-30693880D01*
X27924494Y-30640537D01*
X28021185Y-30561185D01*
X28100537Y-30464494D01*
X28159502Y-30354180D01*
X28195812Y-30234482D01*
X28208072Y-30110000D01*
X28208072Y-28310000D01*
X28195812Y-28185518D01*
X28159502Y-28065820D01*
X28100537Y-27955506D01*
X28021185Y-27858815D01*
X27924494Y-27779463D01*
X27814180Y-27720498D01*
X27694482Y-27684188D01*
X27570000Y-27671928D01*
X26060000Y-27671928D01*
X26060000Y-26060000D01*
X32102229Y-26060000D01*
X32057943Y-26142853D01*
G36*
X44712438Y-76987940D02*
G01*
X44883471Y-77058784D01*
X45065038Y-77094900D01*
X45250162Y-77094900D01*
X45431729Y-77058784D01*
X45602762Y-76987940D01*
X45705909Y-76919019D01*
X45706060Y-76919170D01*
X45646686Y-77062510D01*
X45593000Y-77332408D01*
X45593000Y-77607592D01*
X45646686Y-77877490D01*
X45751995Y-78131727D01*
X45904880Y-78360535D01*
X46099465Y-78555120D01*
X46328273Y-78708005D01*
X46405515Y-78740000D01*
X46328273Y-78771995D01*
X46099465Y-78924880D01*
X45904880Y-79119465D01*
X45751995Y-79348273D01*
X45646686Y-79602510D01*
X45593000Y-79872408D01*
X45593000Y-80147592D01*
X45634309Y-80355267D01*
X45558562Y-80340200D01*
X45373438Y-80340200D01*
X45284000Y-80357990D01*
X45284000Y-80275775D01*
X45287563Y-80239599D01*
X45284000Y-80203423D01*
X45284000Y-80203414D01*
X45273342Y-80095201D01*
X45231222Y-79956351D01*
X45162824Y-79828387D01*
X45146792Y-79808852D01*
X45093842Y-79744332D01*
X45093837Y-79744327D01*
X45070774Y-79716225D01*
X45042674Y-79693164D01*
X42241210Y-76891700D01*
X44568406Y-76891700D01*
X44712438Y-76987940D01*
G37*
X44712438Y-76987940D02*
X44883471Y-77058784D01*
X45065038Y-77094900D01*
X45250162Y-77094900D01*
X45431729Y-77058784D01*
X45602762Y-76987940D01*
X45705909Y-76919019D01*
X45706060Y-76919170D01*
X45646686Y-77062510D01*
X45593000Y-77332408D01*
X45593000Y-77607592D01*
X45646686Y-77877490D01*
X45751995Y-78131727D01*
X45904880Y-78360535D01*
X46099465Y-78555120D01*
X46328273Y-78708005D01*
X46405515Y-78740000D01*
X46328273Y-78771995D01*
X46099465Y-78924880D01*
X45904880Y-79119465D01*
X45751995Y-79348273D01*
X45646686Y-79602510D01*
X45593000Y-79872408D01*
X45593000Y-80147592D01*
X45634309Y-80355267D01*
X45558562Y-80340200D01*
X45373438Y-80340200D01*
X45284000Y-80357990D01*
X45284000Y-80275775D01*
X45287563Y-80239599D01*
X45284000Y-80203423D01*
X45284000Y-80203414D01*
X45273342Y-80095201D01*
X45231222Y-79956351D01*
X45162824Y-79828387D01*
X45146792Y-79808852D01*
X45093842Y-79744332D01*
X45093837Y-79744327D01*
X45070774Y-79716225D01*
X45042674Y-79693164D01*
X42241210Y-76891700D01*
X44568406Y-76891700D01*
X44712438Y-76987940D01*
G36*
X27813000Y-87767592D02*
G01*
X27866686Y-88037490D01*
X27971995Y-88291727D01*
X28124880Y-88520535D01*
X28319465Y-88715120D01*
X28548273Y-88868005D01*
X28802510Y-88973314D01*
X29072408Y-89027000D01*
X29347592Y-89027000D01*
X29617490Y-88973314D01*
X29871727Y-88868005D01*
X30100535Y-88715120D01*
X30295120Y-88520535D01*
X30448005Y-88291727D01*
X30553314Y-88037490D01*
X30607000Y-87767592D01*
X30607000Y-87757000D01*
X33535200Y-87757000D01*
X33535200Y-95264090D01*
X32239399Y-96559891D01*
X32179168Y-96257088D01*
X32055918Y-95959537D01*
X31935063Y-95778665D01*
X31961494Y-95764537D01*
X32058185Y-95685185D01*
X32137537Y-95588494D01*
X32196502Y-95478180D01*
X32232812Y-95358482D01*
X32245072Y-95234000D01*
X32245072Y-93234000D01*
X32232812Y-93109518D01*
X32196502Y-92989820D01*
X32137537Y-92879506D01*
X32058185Y-92782815D01*
X31961494Y-92703463D01*
X31851180Y-92644498D01*
X31731482Y-92608188D01*
X31607000Y-92595928D01*
X29607000Y-92595928D01*
X29482518Y-92608188D01*
X29362820Y-92644498D01*
X29252506Y-92703463D01*
X29155815Y-92782815D01*
X29076463Y-92879506D01*
X29017498Y-92989820D01*
X28981188Y-93109518D01*
X28968928Y-93234000D01*
X28968928Y-95234000D01*
X28981188Y-95358482D01*
X29017498Y-95478180D01*
X29076463Y-95588494D01*
X29155815Y-95685185D01*
X29252506Y-95764537D01*
X29278937Y-95778665D01*
X29158082Y-95959537D01*
X29034832Y-96257088D01*
X28972000Y-96572967D01*
X28972000Y-96895033D01*
X29031797Y-97195652D01*
X28299577Y-97927873D01*
X28280391Y-97943618D01*
X28335684Y-97810129D01*
X28371800Y-97628562D01*
X28371800Y-97443438D01*
X28335684Y-97261871D01*
X28264840Y-97090838D01*
X28161990Y-96936913D01*
X28031087Y-96806010D01*
X27877162Y-96703160D01*
X27706129Y-96632316D01*
X27524562Y-96596200D01*
X27339438Y-96596200D01*
X27157871Y-96632316D01*
X26986838Y-96703160D01*
X26832913Y-96806010D01*
X26702010Y-96936913D01*
X26599160Y-97090838D01*
X26528316Y-97261871D01*
X26492200Y-97443438D01*
X26492200Y-97628562D01*
X26528316Y-97810129D01*
X26599160Y-97981162D01*
X26702010Y-98135087D01*
X26832913Y-98265990D01*
X26986838Y-98368840D01*
X27157871Y-98439684D01*
X27339438Y-98475800D01*
X27524562Y-98475800D01*
X27706129Y-98439684D01*
X27877162Y-98368840D01*
X28031087Y-98265990D01*
X28109684Y-98187393D01*
X28098018Y-98209218D01*
X28052994Y-98357644D01*
X28041600Y-98473328D01*
X28041600Y-98473337D01*
X28037792Y-98512000D01*
X28041600Y-98550663D01*
X28041601Y-102248327D01*
X28037792Y-102287000D01*
X28052995Y-102441357D01*
X28098018Y-102589782D01*
X28098019Y-102589783D01*
X28171135Y-102726572D01*
X28269532Y-102846469D01*
X28299573Y-102871123D01*
X33372724Y-107944276D01*
X33365330Y-107962128D01*
X33300000Y-108290565D01*
X33300000Y-108625435D01*
X33365330Y-108953872D01*
X33493479Y-109263252D01*
X33679523Y-109541687D01*
X33916313Y-109778477D01*
X34194748Y-109964521D01*
X34504128Y-110092670D01*
X34832565Y-110158000D01*
X35167435Y-110158000D01*
X35495872Y-110092670D01*
X35805252Y-109964521D01*
X36083687Y-109778477D01*
X36320477Y-109541687D01*
X36506521Y-109263252D01*
X36513916Y-109245400D01*
X36546928Y-109245400D01*
X36546928Y-109423000D01*
X36559188Y-109547482D01*
X36595498Y-109667180D01*
X36654463Y-109777494D01*
X36733815Y-109874185D01*
X36830506Y-109953537D01*
X36940820Y-110012502D01*
X37060518Y-110048812D01*
X37185000Y-110061072D01*
X39015000Y-110061072D01*
X39139482Y-110048812D01*
X39259180Y-110012502D01*
X39369494Y-109953537D01*
X39466185Y-109874185D01*
X39545537Y-109777494D01*
X39604502Y-109667180D01*
X39640812Y-109547482D01*
X39653072Y-109423000D01*
X39653072Y-109245400D01*
X39686084Y-109245400D01*
X39693479Y-109263252D01*
X39879523Y-109541687D01*
X40116313Y-109778477D01*
X40394748Y-109964521D01*
X40704128Y-110092670D01*
X41032565Y-110158000D01*
X41367435Y-110158000D01*
X41695872Y-110092670D01*
X42005252Y-109964521D01*
X42283687Y-109778477D01*
X42520477Y-109541687D01*
X42706521Y-109263252D01*
X42834670Y-108953872D01*
X42900000Y-108625435D01*
X42900000Y-108290565D01*
X42834670Y-107962128D01*
X42706521Y-107652748D01*
X42668182Y-107595369D01*
X46996533Y-103267019D01*
X47026569Y-103242369D01*
X47124966Y-103122472D01*
X47198082Y-102985683D01*
X47243106Y-102837257D01*
X47254500Y-102721573D01*
X47254500Y-102721564D01*
X47258308Y-102682901D01*
X47254500Y-102644238D01*
X47254500Y-94839237D01*
X47310269Y-94793469D01*
X47334928Y-94763422D01*
X48622982Y-93475369D01*
X48626316Y-93492129D01*
X48697160Y-93663162D01*
X48800010Y-93817087D01*
X48930913Y-93947990D01*
X49084838Y-94050840D01*
X49255871Y-94121684D01*
X49437438Y-94157800D01*
X49530011Y-94157800D01*
X49530011Y-98777155D01*
X49467162Y-98735160D01*
X49296129Y-98664316D01*
X49114562Y-98628200D01*
X48929438Y-98628200D01*
X48747871Y-98664316D01*
X48576838Y-98735160D01*
X48422913Y-98838010D01*
X48292010Y-98968913D01*
X48189160Y-99122838D01*
X48118316Y-99293871D01*
X48082200Y-99475438D01*
X48082200Y-99660562D01*
X48118316Y-99842129D01*
X48189160Y-100013162D01*
X48292010Y-100167087D01*
X48422913Y-100297990D01*
X48576838Y-100400840D01*
X48747871Y-100471684D01*
X48929438Y-100507800D01*
X49114562Y-100507800D01*
X49296129Y-100471684D01*
X49467162Y-100400840D01*
X49530011Y-100358845D01*
X49530011Y-103905370D01*
X45512247Y-107923135D01*
X45486129Y-107912316D01*
X45304562Y-107876200D01*
X45119438Y-107876200D01*
X44937871Y-107912316D01*
X44766838Y-107983160D01*
X44612913Y-108086010D01*
X44482010Y-108216913D01*
X44379160Y-108370838D01*
X44308316Y-108541871D01*
X44272200Y-108723438D01*
X44272200Y-108908562D01*
X44275175Y-108923518D01*
X44271543Y-108960399D01*
X44265436Y-109022400D01*
X44269000Y-109058583D01*
X44269000Y-114263894D01*
X44162829Y-114219916D01*
X43981262Y-114183800D01*
X43796138Y-114183800D01*
X43614571Y-114219916D01*
X43443538Y-114290760D01*
X43289613Y-114393610D01*
X43158710Y-114524513D01*
X43055860Y-114678438D01*
X42985016Y-114849471D01*
X42948900Y-115031038D01*
X42948900Y-115216162D01*
X42985016Y-115397729D01*
X43055860Y-115568762D01*
X43158710Y-115722687D01*
X43289613Y-115853590D01*
X43443538Y-115956440D01*
X43614571Y-116027284D01*
X43796138Y-116063400D01*
X43981262Y-116063400D01*
X44162829Y-116027284D01*
X44269001Y-115983306D01*
X44269001Y-121378404D01*
X44172760Y-121522438D01*
X44101916Y-121693471D01*
X44065800Y-121875038D01*
X44065800Y-122060162D01*
X44101916Y-122241729D01*
X44172760Y-122412762D01*
X44275610Y-122566687D01*
X44406513Y-122697590D01*
X44560438Y-122800440D01*
X44731471Y-122871284D01*
X44913038Y-122907400D01*
X45098162Y-122907400D01*
X45279729Y-122871284D01*
X45450762Y-122800440D01*
X45604687Y-122697590D01*
X45735590Y-122566687D01*
X45838440Y-122412762D01*
X45909284Y-122241729D01*
X45945400Y-122060162D01*
X45945400Y-121875038D01*
X45909284Y-121693471D01*
X45838440Y-121522438D01*
X45742200Y-121378406D01*
X45742200Y-118158366D01*
X45754438Y-118160800D01*
X45939562Y-118160800D01*
X46121129Y-118124684D01*
X46292162Y-118053840D01*
X46446087Y-117950990D01*
X46576990Y-117820087D01*
X46679840Y-117666162D01*
X46750684Y-117495129D01*
X46786800Y-117313562D01*
X46786800Y-117128438D01*
X46750684Y-116946871D01*
X46679840Y-116775838D01*
X46583600Y-116631806D01*
X46583600Y-108935200D01*
X50140001Y-105378800D01*
X50140001Y-106883030D01*
X49995872Y-106823330D01*
X49667435Y-106758000D01*
X49332565Y-106758000D01*
X49004128Y-106823330D01*
X48694748Y-106951479D01*
X48416313Y-107137523D01*
X48179523Y-107374313D01*
X47993479Y-107652748D01*
X47865330Y-107962128D01*
X47800000Y-108290565D01*
X47800000Y-108625435D01*
X47865330Y-108953872D01*
X47993479Y-109263252D01*
X48179523Y-109541687D01*
X48416313Y-109778477D01*
X48694748Y-109964521D01*
X49004128Y-110092670D01*
X49332565Y-110158000D01*
X49667435Y-110158000D01*
X49995872Y-110092670D01*
X50140001Y-110032970D01*
X50140001Y-116281030D01*
X49995872Y-116221330D01*
X49667435Y-116156000D01*
X49332565Y-116156000D01*
X49004128Y-116221330D01*
X48694748Y-116349479D01*
X48416313Y-116535523D01*
X48179523Y-116772313D01*
X47993479Y-117050748D01*
X47865330Y-117360128D01*
X47800000Y-117688565D01*
X47800000Y-118023435D01*
X47865330Y-118351872D01*
X47993479Y-118661252D01*
X48179523Y-118939687D01*
X48416313Y-119176477D01*
X48636400Y-119323534D01*
X48636401Y-122671784D01*
X46133612Y-125174575D01*
X46036838Y-125214660D01*
X45882913Y-125317510D01*
X45752010Y-125448413D01*
X45649160Y-125602338D01*
X45578316Y-125773371D01*
X45542200Y-125954938D01*
X45542200Y-126140062D01*
X45578316Y-126321629D01*
X45649160Y-126492662D01*
X45752010Y-126646587D01*
X45882913Y-126777490D01*
X46036838Y-126880340D01*
X46207871Y-126951184D01*
X46389438Y-126987300D01*
X46574562Y-126987300D01*
X46756129Y-126951184D01*
X46927162Y-126880340D01*
X47043132Y-126802851D01*
X47046160Y-126810162D01*
X47149010Y-126964087D01*
X47279913Y-127094990D01*
X47433838Y-127197840D01*
X47604871Y-127268684D01*
X47786438Y-127304800D01*
X47800000Y-127304800D01*
X47800000Y-127421435D01*
X47865330Y-127749872D01*
X47993479Y-128059252D01*
X48179523Y-128337687D01*
X48416313Y-128574477D01*
X48694748Y-128760521D01*
X49004128Y-128888670D01*
X49332565Y-128954000D01*
X49667435Y-128954000D01*
X49995872Y-128888670D01*
X50140001Y-128828970D01*
X50140001Y-131420000D01*
X26060000Y-131420000D01*
X26060000Y-128828970D01*
X26204128Y-128888670D01*
X26532565Y-128954000D01*
X26867435Y-128954000D01*
X27195872Y-128888670D01*
X27505252Y-128760521D01*
X27783687Y-128574477D01*
X28020477Y-128337687D01*
X28206521Y-128059252D01*
X28334670Y-127749872D01*
X28387689Y-127483324D01*
X28530638Y-127578840D01*
X28701671Y-127649684D01*
X28883238Y-127685800D01*
X29068362Y-127685800D01*
X29249929Y-127649684D01*
X29420962Y-127578840D01*
X29574887Y-127475990D01*
X29705790Y-127345087D01*
X29808640Y-127191162D01*
X29879484Y-127020129D01*
X29915600Y-126838562D01*
X29915600Y-126653438D01*
X29879484Y-126471871D01*
X29808640Y-126300838D01*
X29705790Y-126146913D01*
X29574887Y-126016010D01*
X29420962Y-125913160D01*
X29249929Y-125842316D01*
X29068362Y-125806200D01*
X28883238Y-125806200D01*
X28701671Y-125842316D01*
X28530638Y-125913160D01*
X28376713Y-126016010D01*
X28245810Y-126146913D01*
X28142960Y-126300838D01*
X28129463Y-126333422D01*
X28020477Y-126170313D01*
X27783687Y-125933523D01*
X27505252Y-125747479D01*
X27195872Y-125619330D01*
X26867435Y-125554000D01*
X26532565Y-125554000D01*
X26204128Y-125619330D01*
X26060000Y-125679030D01*
X26060000Y-123622738D01*
X27706000Y-123622738D01*
X27706000Y-123807862D01*
X27742116Y-123989429D01*
X27812960Y-124160462D01*
X27915810Y-124314387D01*
X28046713Y-124445290D01*
X28200638Y-124548140D01*
X28371671Y-124618984D01*
X28553238Y-124655100D01*
X28738362Y-124655100D01*
X28919929Y-124618984D01*
X29090962Y-124548140D01*
X29244887Y-124445290D01*
X29375790Y-124314387D01*
X29478640Y-124160462D01*
X29549484Y-123989429D01*
X29585600Y-123807862D01*
X29585600Y-123622738D01*
X29549484Y-123441171D01*
X29478640Y-123270138D01*
X29375790Y-123116213D01*
X29244887Y-122985310D01*
X29090962Y-122882460D01*
X28919929Y-122811616D01*
X28738362Y-122775500D01*
X28553238Y-122775500D01*
X28371671Y-122811616D01*
X28200638Y-122882460D01*
X28046713Y-122985310D01*
X27915810Y-123116213D01*
X27812960Y-123270138D01*
X27742116Y-123441171D01*
X27706000Y-123622738D01*
X26060000Y-123622738D01*
X26060000Y-120811438D01*
X31064200Y-120811438D01*
X31064200Y-120996562D01*
X31100316Y-121178129D01*
X31171160Y-121349162D01*
X31274010Y-121503087D01*
X31404913Y-121633990D01*
X31558838Y-121736840D01*
X31729871Y-121807684D01*
X31911438Y-121843800D01*
X32096562Y-121843800D01*
X32278129Y-121807684D01*
X32449162Y-121736840D01*
X32603087Y-121633990D01*
X32733990Y-121503087D01*
X32836840Y-121349162D01*
X32907684Y-121178129D01*
X32943800Y-120996562D01*
X32943800Y-120811438D01*
X32907684Y-120629871D01*
X32836840Y-120458838D01*
X32733990Y-120304913D01*
X32603087Y-120174010D01*
X32449162Y-120071160D01*
X32278129Y-120000316D01*
X32096562Y-119964200D01*
X31911438Y-119964200D01*
X31729871Y-120000316D01*
X31558838Y-120071160D01*
X31404913Y-120174010D01*
X31274010Y-120304913D01*
X31171160Y-120458838D01*
X31100316Y-120629871D01*
X31064200Y-120811438D01*
X26060000Y-120811438D01*
X26060000Y-119430970D01*
X26204128Y-119490670D01*
X26532565Y-119556000D01*
X26867435Y-119556000D01*
X27195872Y-119490670D01*
X27505252Y-119362521D01*
X27783687Y-119176477D01*
X28020477Y-118939687D01*
X28206521Y-118661252D01*
X28334670Y-118351872D01*
X28392460Y-118061338D01*
X32404700Y-118061338D01*
X32404700Y-118246462D01*
X32440816Y-118428029D01*
X32511660Y-118599062D01*
X32614510Y-118752987D01*
X32745413Y-118883890D01*
X32899338Y-118986740D01*
X33070371Y-119057584D01*
X33251938Y-119093700D01*
X33437062Y-119093700D01*
X33618629Y-119057584D01*
X33745053Y-119005217D01*
X33916313Y-119176477D01*
X34194748Y-119362521D01*
X34263400Y-119390958D01*
X34263401Y-125719042D01*
X34194748Y-125747479D01*
X33916313Y-125933523D01*
X33679523Y-126170313D01*
X33493479Y-126448748D01*
X33365330Y-126758128D01*
X33300000Y-127086565D01*
X33300000Y-127421435D01*
X33365330Y-127749872D01*
X33493479Y-128059252D01*
X33679523Y-128337687D01*
X33916313Y-128574477D01*
X34194748Y-128760521D01*
X34504128Y-128888670D01*
X34832565Y-128954000D01*
X35167435Y-128954000D01*
X35495872Y-128888670D01*
X35805252Y-128760521D01*
X36083687Y-128574477D01*
X36320477Y-128337687D01*
X36506521Y-128059252D01*
X36546928Y-127961701D01*
X36546928Y-128219000D01*
X36559188Y-128343482D01*
X36595498Y-128463180D01*
X36654463Y-128573494D01*
X36733815Y-128670185D01*
X36830506Y-128749537D01*
X36940820Y-128808502D01*
X37060518Y-128844812D01*
X37185000Y-128857072D01*
X39015000Y-128857072D01*
X39139482Y-128844812D01*
X39259180Y-128808502D01*
X39369494Y-128749537D01*
X39466185Y-128670185D01*
X39545537Y-128573494D01*
X39604502Y-128463180D01*
X39640812Y-128343482D01*
X39653072Y-128219000D01*
X39653072Y-127961701D01*
X39693479Y-128059252D01*
X39879523Y-128337687D01*
X40116313Y-128574477D01*
X40394748Y-128760521D01*
X40704128Y-128888670D01*
X41032565Y-128954000D01*
X41367435Y-128954000D01*
X41695872Y-128888670D01*
X42005252Y-128760521D01*
X42283687Y-128574477D01*
X42520477Y-128337687D01*
X42706521Y-128059252D01*
X42834670Y-127749872D01*
X42900000Y-127421435D01*
X42900000Y-127086565D01*
X42834670Y-126758128D01*
X42706521Y-126448748D01*
X42520477Y-126170313D01*
X42495210Y-126145046D01*
X42579438Y-126161800D01*
X42764562Y-126161800D01*
X42946129Y-126125684D01*
X43117162Y-126054840D01*
X43271087Y-125951990D01*
X43401990Y-125821087D01*
X43504840Y-125667162D01*
X43575684Y-125496129D01*
X43611800Y-125314562D01*
X43611800Y-125129438D01*
X43575684Y-124947871D01*
X43504840Y-124776838D01*
X43401990Y-124622913D01*
X43271087Y-124492010D01*
X43117162Y-124389160D01*
X42946129Y-124318316D01*
X42764562Y-124282200D01*
X42579438Y-124282200D01*
X42397871Y-124318316D01*
X42226838Y-124389160D01*
X42072913Y-124492010D01*
X41942010Y-124622913D01*
X41839160Y-124776838D01*
X41768316Y-124947871D01*
X41732200Y-125129438D01*
X41732200Y-125314562D01*
X41768316Y-125496129D01*
X41839160Y-125667162D01*
X41849803Y-125683090D01*
X41695872Y-125619330D01*
X41367435Y-125554000D01*
X41032565Y-125554000D01*
X40704128Y-125619330D01*
X40394748Y-125747479D01*
X40116313Y-125933523D01*
X39879523Y-126170313D01*
X39693479Y-126448748D01*
X39653072Y-126546299D01*
X39653072Y-126289000D01*
X39640812Y-126164518D01*
X39604502Y-126044820D01*
X39545537Y-125934506D01*
X39466185Y-125837815D01*
X39369494Y-125758463D01*
X39259180Y-125699498D01*
X39139482Y-125663188D01*
X39015000Y-125650928D01*
X37185000Y-125650928D01*
X37060518Y-125663188D01*
X36940820Y-125699498D01*
X36830506Y-125758463D01*
X36733815Y-125837815D01*
X36654463Y-125934506D01*
X36595498Y-126044820D01*
X36559188Y-126164518D01*
X36546928Y-126289000D01*
X36546928Y-126546299D01*
X36506521Y-126448748D01*
X36320477Y-126170313D01*
X36083687Y-125933523D01*
X35805252Y-125747479D01*
X35736600Y-125719042D01*
X35736600Y-119390958D01*
X35757304Y-119382381D01*
X35849913Y-119474990D01*
X36003838Y-119577840D01*
X36174871Y-119648684D01*
X36356438Y-119684800D01*
X36541562Y-119684800D01*
X36723129Y-119648684D01*
X36894162Y-119577840D01*
X37048087Y-119474990D01*
X37074853Y-119448224D01*
X37185000Y-119459072D01*
X39015000Y-119459072D01*
X39139482Y-119446812D01*
X39259180Y-119410502D01*
X39369494Y-119351537D01*
X39466185Y-119272185D01*
X39545537Y-119175494D01*
X39604502Y-119065180D01*
X39640812Y-118945482D01*
X39653072Y-118821000D01*
X39653072Y-118563701D01*
X39693479Y-118661252D01*
X39879523Y-118939687D01*
X40116313Y-119176477D01*
X40394748Y-119362521D01*
X40704128Y-119490670D01*
X41032565Y-119556000D01*
X41367435Y-119556000D01*
X41695872Y-119490670D01*
X42005252Y-119362521D01*
X42283687Y-119176477D01*
X42520477Y-118939687D01*
X42706521Y-118661252D01*
X42834670Y-118351872D01*
X42900000Y-118023435D01*
X42900000Y-117688565D01*
X42834670Y-117360128D01*
X42706521Y-117050748D01*
X42520477Y-116772313D01*
X42283687Y-116535523D01*
X42005252Y-116349479D01*
X41695872Y-116221330D01*
X41367435Y-116156000D01*
X41032565Y-116156000D01*
X40704128Y-116221330D01*
X40394748Y-116349479D01*
X40116313Y-116535523D01*
X39879523Y-116772313D01*
X39693479Y-117050748D01*
X39653072Y-117148299D01*
X39653072Y-116891000D01*
X39640812Y-116766518D01*
X39604502Y-116646820D01*
X39545537Y-116536506D01*
X39466185Y-116439815D01*
X39369494Y-116360463D01*
X39259180Y-116301498D01*
X39139482Y-116265188D01*
X39015000Y-116252928D01*
X37185000Y-116252928D01*
X37060518Y-116265188D01*
X36940820Y-116301498D01*
X36830506Y-116360463D01*
X36733815Y-116439815D01*
X36654463Y-116536506D01*
X36595498Y-116646820D01*
X36559188Y-116766518D01*
X36546928Y-116891000D01*
X36546928Y-117148299D01*
X36506521Y-117050748D01*
X36320477Y-116772313D01*
X36083687Y-116535523D01*
X35805252Y-116349479D01*
X35495872Y-116221330D01*
X35167435Y-116156000D01*
X34832565Y-116156000D01*
X34504128Y-116221330D01*
X34194748Y-116349479D01*
X33916313Y-116535523D01*
X33679523Y-116772313D01*
X33493479Y-117050748D01*
X33425817Y-117214100D01*
X33251938Y-117214100D01*
X33070371Y-117250216D01*
X32899338Y-117321060D01*
X32745413Y-117423910D01*
X32614510Y-117554813D01*
X32511660Y-117708738D01*
X32440816Y-117879771D01*
X32404700Y-118061338D01*
X28392460Y-118061338D01*
X28400000Y-118023435D01*
X28400000Y-117688565D01*
X28334670Y-117360128D01*
X28206521Y-117050748D01*
X28020477Y-116772313D01*
X27783687Y-116535523D01*
X27505252Y-116349479D01*
X27195872Y-116221330D01*
X26867435Y-116156000D01*
X26532565Y-116156000D01*
X26204128Y-116221330D01*
X26060000Y-116281030D01*
X26060000Y-112918438D01*
X28479700Y-112918438D01*
X28479700Y-113103562D01*
X28515816Y-113285129D01*
X28586660Y-113456162D01*
X28689510Y-113610087D01*
X28820413Y-113740990D01*
X28974338Y-113843840D01*
X29145371Y-113914684D01*
X29326938Y-113950800D01*
X29512062Y-113950800D01*
X29693629Y-113914684D01*
X29864662Y-113843840D01*
X30008694Y-113747600D01*
X36590310Y-113747600D01*
X36612137Y-113857329D01*
X36682981Y-114028362D01*
X36785831Y-114182287D01*
X36916734Y-114313190D01*
X37070659Y-114416040D01*
X37241692Y-114486884D01*
X37423259Y-114523000D01*
X37608383Y-114523000D01*
X37789950Y-114486884D01*
X37931619Y-114428203D01*
X38035838Y-114497840D01*
X38206871Y-114568684D01*
X38388438Y-114604800D01*
X38573562Y-114604800D01*
X38755129Y-114568684D01*
X38851901Y-114528600D01*
X42248580Y-114528600D01*
X42291000Y-114532778D01*
X42333420Y-114528600D01*
X42460295Y-114516104D01*
X42623084Y-114466722D01*
X42773112Y-114386531D01*
X42902979Y-114279952D01*
X42990162Y-114243840D01*
X43144087Y-114140990D01*
X43274990Y-114010087D01*
X43377840Y-113856162D01*
X43448684Y-113685129D01*
X43484800Y-113503562D01*
X43484800Y-113318438D01*
X43448684Y-113136871D01*
X43377840Y-112965838D01*
X43274990Y-112811913D01*
X43144087Y-112681010D01*
X42990162Y-112578160D01*
X42819129Y-112507316D01*
X42637562Y-112471200D01*
X42452438Y-112471200D01*
X42270871Y-112507316D01*
X42099838Y-112578160D01*
X41945913Y-112681010D01*
X41825523Y-112801400D01*
X40006200Y-112801400D01*
X40006200Y-112733038D01*
X39970084Y-112551471D01*
X39899240Y-112380438D01*
X39796390Y-112226513D01*
X39665487Y-112095610D01*
X39511562Y-111992760D01*
X39340529Y-111921916D01*
X39158962Y-111885800D01*
X38973838Y-111885800D01*
X38792271Y-111921916D01*
X38621238Y-111992760D01*
X38467313Y-112095610D01*
X38336410Y-112226513D01*
X38233560Y-112380438D01*
X38229270Y-112390796D01*
X38110249Y-112327178D01*
X37971399Y-112285058D01*
X37863186Y-112274400D01*
X37863183Y-112274400D01*
X37827000Y-112270836D01*
X37790817Y-112274400D01*
X30008694Y-112274400D01*
X29864662Y-112178160D01*
X29693629Y-112107316D01*
X29512062Y-112071200D01*
X29326938Y-112071200D01*
X29145371Y-112107316D01*
X28974338Y-112178160D01*
X28820413Y-112281010D01*
X28689510Y-112411913D01*
X28586660Y-112565838D01*
X28515816Y-112736871D01*
X28479700Y-112918438D01*
X26060000Y-112918438D01*
X26060000Y-110032970D01*
X26204128Y-110092670D01*
X26532565Y-110158000D01*
X26867435Y-110158000D01*
X27195872Y-110092670D01*
X27505252Y-109964521D01*
X27783687Y-109778477D01*
X28020477Y-109541687D01*
X28206521Y-109263252D01*
X28334670Y-108953872D01*
X28400000Y-108625435D01*
X28400000Y-108290565D01*
X28346289Y-108020538D01*
X28783100Y-108020538D01*
X28783100Y-108205662D01*
X28819216Y-108387229D01*
X28890060Y-108558262D01*
X28992910Y-108712187D01*
X29123813Y-108843090D01*
X29277738Y-108945940D01*
X29448771Y-109016784D01*
X29630338Y-109052900D01*
X29815462Y-109052900D01*
X29997029Y-109016784D01*
X30168062Y-108945940D01*
X30321987Y-108843090D01*
X30452890Y-108712187D01*
X30555740Y-108558262D01*
X30626584Y-108387229D01*
X30662700Y-108205662D01*
X30662700Y-108020538D01*
X30626584Y-107838971D01*
X30555740Y-107667938D01*
X30452890Y-107514013D01*
X30321987Y-107383110D01*
X30168062Y-107280260D01*
X29997029Y-107209416D01*
X29815462Y-107173300D01*
X29630338Y-107173300D01*
X29448771Y-107209416D01*
X29277738Y-107280260D01*
X29123813Y-107383110D01*
X28992910Y-107514013D01*
X28890060Y-107667938D01*
X28819216Y-107838971D01*
X28783100Y-108020538D01*
X28346289Y-108020538D01*
X28334670Y-107962128D01*
X28206521Y-107652748D01*
X28020477Y-107374313D01*
X27783687Y-107137523D01*
X27505252Y-106951479D01*
X27195872Y-106823330D01*
X26867435Y-106758000D01*
X26532565Y-106758000D01*
X26204128Y-106823330D01*
X26060000Y-106883030D01*
X26060000Y-87757000D01*
X27813000Y-87757000D01*
X27813000Y-87767592D01*
G37*
X27813000Y-87767592D02*
X27866686Y-88037490D01*
X27971995Y-88291727D01*
X28124880Y-88520535D01*
X28319465Y-88715120D01*
X28548273Y-88868005D01*
X28802510Y-88973314D01*
X29072408Y-89027000D01*
X29347592Y-89027000D01*
X29617490Y-88973314D01*
X29871727Y-88868005D01*
X30100535Y-88715120D01*
X30295120Y-88520535D01*
X30448005Y-88291727D01*
X30553314Y-88037490D01*
X30607000Y-87767592D01*
X30607000Y-87757000D01*
X33535200Y-87757000D01*
X33535200Y-95264090D01*
X32239399Y-96559891D01*
X32179168Y-96257088D01*
X32055918Y-95959537D01*
X31935063Y-95778665D01*
X31961494Y-95764537D01*
X32058185Y-95685185D01*
X32137537Y-95588494D01*
X32196502Y-95478180D01*
X32232812Y-95358482D01*
X32245072Y-95234000D01*
X32245072Y-93234000D01*
X32232812Y-93109518D01*
X32196502Y-92989820D01*
X32137537Y-92879506D01*
X32058185Y-92782815D01*
X31961494Y-92703463D01*
X31851180Y-92644498D01*
X31731482Y-92608188D01*
X31607000Y-92595928D01*
X29607000Y-92595928D01*
X29482518Y-92608188D01*
X29362820Y-92644498D01*
X29252506Y-92703463D01*
X29155815Y-92782815D01*
X29076463Y-92879506D01*
X29017498Y-92989820D01*
X28981188Y-93109518D01*
X28968928Y-93234000D01*
X28968928Y-95234000D01*
X28981188Y-95358482D01*
X29017498Y-95478180D01*
X29076463Y-95588494D01*
X29155815Y-95685185D01*
X29252506Y-95764537D01*
X29278937Y-95778665D01*
X29158082Y-95959537D01*
X29034832Y-96257088D01*
X28972000Y-96572967D01*
X28972000Y-96895033D01*
X29031797Y-97195652D01*
X28299577Y-97927873D01*
X28280391Y-97943618D01*
X28335684Y-97810129D01*
X28371800Y-97628562D01*
X28371800Y-97443438D01*
X28335684Y-97261871D01*
X28264840Y-97090838D01*
X28161990Y-96936913D01*
X28031087Y-96806010D01*
X27877162Y-96703160D01*
X27706129Y-96632316D01*
X27524562Y-96596200D01*
X27339438Y-96596200D01*
X27157871Y-96632316D01*
X26986838Y-96703160D01*
X26832913Y-96806010D01*
X26702010Y-96936913D01*
X26599160Y-97090838D01*
X26528316Y-97261871D01*
X26492200Y-97443438D01*
X26492200Y-97628562D01*
X26528316Y-97810129D01*
X26599160Y-97981162D01*
X26702010Y-98135087D01*
X26832913Y-98265990D01*
X26986838Y-98368840D01*
X27157871Y-98439684D01*
X27339438Y-98475800D01*
X27524562Y-98475800D01*
X27706129Y-98439684D01*
X27877162Y-98368840D01*
X28031087Y-98265990D01*
X28109684Y-98187393D01*
X28098018Y-98209218D01*
X28052994Y-98357644D01*
X28041600Y-98473328D01*
X28041600Y-98473337D01*
X28037792Y-98512000D01*
X28041600Y-98550663D01*
X28041601Y-102248327D01*
X28037792Y-102287000D01*
X28052995Y-102441357D01*
X28098018Y-102589782D01*
X28098019Y-102589783D01*
X28171135Y-102726572D01*
X28269532Y-102846469D01*
X28299573Y-102871123D01*
X33372724Y-107944276D01*
X33365330Y-107962128D01*
X33300000Y-108290565D01*
X33300000Y-108625435D01*
X33365330Y-108953872D01*
X33493479Y-109263252D01*
X33679523Y-109541687D01*
X33916313Y-109778477D01*
X34194748Y-109964521D01*
X34504128Y-110092670D01*
X34832565Y-110158000D01*
X35167435Y-110158000D01*
X35495872Y-110092670D01*
X35805252Y-109964521D01*
X36083687Y-109778477D01*
X36320477Y-109541687D01*
X36506521Y-109263252D01*
X36513916Y-109245400D01*
X36546928Y-109245400D01*
X36546928Y-109423000D01*
X36559188Y-109547482D01*
X36595498Y-109667180D01*
X36654463Y-109777494D01*
X36733815Y-109874185D01*
X36830506Y-109953537D01*
X36940820Y-110012502D01*
X37060518Y-110048812D01*
X37185000Y-110061072D01*
X39015000Y-110061072D01*
X39139482Y-110048812D01*
X39259180Y-110012502D01*
X39369494Y-109953537D01*
X39466185Y-109874185D01*
X39545537Y-109777494D01*
X39604502Y-109667180D01*
X39640812Y-109547482D01*
X39653072Y-109423000D01*
X39653072Y-109245400D01*
X39686084Y-109245400D01*
X39693479Y-109263252D01*
X39879523Y-109541687D01*
X40116313Y-109778477D01*
X40394748Y-109964521D01*
X40704128Y-110092670D01*
X41032565Y-110158000D01*
X41367435Y-110158000D01*
X41695872Y-110092670D01*
X42005252Y-109964521D01*
X42283687Y-109778477D01*
X42520477Y-109541687D01*
X42706521Y-109263252D01*
X42834670Y-108953872D01*
X42900000Y-108625435D01*
X42900000Y-108290565D01*
X42834670Y-107962128D01*
X42706521Y-107652748D01*
X42668182Y-107595369D01*
X46996533Y-103267019D01*
X47026569Y-103242369D01*
X47124966Y-103122472D01*
X47198082Y-102985683D01*
X47243106Y-102837257D01*
X47254500Y-102721573D01*
X47254500Y-102721564D01*
X47258308Y-102682901D01*
X47254500Y-102644238D01*
X47254500Y-94839237D01*
X47310269Y-94793469D01*
X47334928Y-94763422D01*
X48622982Y-93475369D01*
X48626316Y-93492129D01*
X48697160Y-93663162D01*
X48800010Y-93817087D01*
X48930913Y-93947990D01*
X49084838Y-94050840D01*
X49255871Y-94121684D01*
X49437438Y-94157800D01*
X49530011Y-94157800D01*
X49530011Y-98777155D01*
X49467162Y-98735160D01*
X49296129Y-98664316D01*
X49114562Y-98628200D01*
X48929438Y-98628200D01*
X48747871Y-98664316D01*
X48576838Y-98735160D01*
X48422913Y-98838010D01*
X48292010Y-98968913D01*
X48189160Y-99122838D01*
X48118316Y-99293871D01*
X48082200Y-99475438D01*
X48082200Y-99660562D01*
X48118316Y-99842129D01*
X48189160Y-100013162D01*
X48292010Y-100167087D01*
X48422913Y-100297990D01*
X48576838Y-100400840D01*
X48747871Y-100471684D01*
X48929438Y-100507800D01*
X49114562Y-100507800D01*
X49296129Y-100471684D01*
X49467162Y-100400840D01*
X49530011Y-100358845D01*
X49530011Y-103905370D01*
X45512247Y-107923135D01*
X45486129Y-107912316D01*
X45304562Y-107876200D01*
X45119438Y-107876200D01*
X44937871Y-107912316D01*
X44766838Y-107983160D01*
X44612913Y-108086010D01*
X44482010Y-108216913D01*
X44379160Y-108370838D01*
X44308316Y-108541871D01*
X44272200Y-108723438D01*
X44272200Y-108908562D01*
X44275175Y-108923518D01*
X44271543Y-108960399D01*
X44265436Y-109022400D01*
X44269000Y-109058583D01*
X44269000Y-114263894D01*
X44162829Y-114219916D01*
X43981262Y-114183800D01*
X43796138Y-114183800D01*
X43614571Y-114219916D01*
X43443538Y-114290760D01*
X43289613Y-114393610D01*
X43158710Y-114524513D01*
X43055860Y-114678438D01*
X42985016Y-114849471D01*
X42948900Y-115031038D01*
X42948900Y-115216162D01*
X42985016Y-115397729D01*
X43055860Y-115568762D01*
X43158710Y-115722687D01*
X43289613Y-115853590D01*
X43443538Y-115956440D01*
X43614571Y-116027284D01*
X43796138Y-116063400D01*
X43981262Y-116063400D01*
X44162829Y-116027284D01*
X44269001Y-115983306D01*
X44269001Y-121378404D01*
X44172760Y-121522438D01*
X44101916Y-121693471D01*
X44065800Y-121875038D01*
X44065800Y-122060162D01*
X44101916Y-122241729D01*
X44172760Y-122412762D01*
X44275610Y-122566687D01*
X44406513Y-122697590D01*
X44560438Y-122800440D01*
X44731471Y-122871284D01*
X44913038Y-122907400D01*
X45098162Y-122907400D01*
X45279729Y-122871284D01*
X45450762Y-122800440D01*
X45604687Y-122697590D01*
X45735590Y-122566687D01*
X45838440Y-122412762D01*
X45909284Y-122241729D01*
X45945400Y-122060162D01*
X45945400Y-121875038D01*
X45909284Y-121693471D01*
X45838440Y-121522438D01*
X45742200Y-121378406D01*
X45742200Y-118158366D01*
X45754438Y-118160800D01*
X45939562Y-118160800D01*
X46121129Y-118124684D01*
X46292162Y-118053840D01*
X46446087Y-117950990D01*
X46576990Y-117820087D01*
X46679840Y-117666162D01*
X46750684Y-117495129D01*
X46786800Y-117313562D01*
X46786800Y-117128438D01*
X46750684Y-116946871D01*
X46679840Y-116775838D01*
X46583600Y-116631806D01*
X46583600Y-108935200D01*
X50140001Y-105378800D01*
X50140001Y-106883030D01*
X49995872Y-106823330D01*
X49667435Y-106758000D01*
X49332565Y-106758000D01*
X49004128Y-106823330D01*
X48694748Y-106951479D01*
X48416313Y-107137523D01*
X48179523Y-107374313D01*
X47993479Y-107652748D01*
X47865330Y-107962128D01*
X47800000Y-108290565D01*
X47800000Y-108625435D01*
X47865330Y-108953872D01*
X47993479Y-109263252D01*
X48179523Y-109541687D01*
X48416313Y-109778477D01*
X48694748Y-109964521D01*
X49004128Y-110092670D01*
X49332565Y-110158000D01*
X49667435Y-110158000D01*
X49995872Y-110092670D01*
X50140001Y-110032970D01*
X50140001Y-116281030D01*
X49995872Y-116221330D01*
X49667435Y-116156000D01*
X49332565Y-116156000D01*
X49004128Y-116221330D01*
X48694748Y-116349479D01*
X48416313Y-116535523D01*
X48179523Y-116772313D01*
X47993479Y-117050748D01*
X47865330Y-117360128D01*
X47800000Y-117688565D01*
X47800000Y-118023435D01*
X47865330Y-118351872D01*
X47993479Y-118661252D01*
X48179523Y-118939687D01*
X48416313Y-119176477D01*
X48636400Y-119323534D01*
X48636401Y-122671784D01*
X46133612Y-125174575D01*
X46036838Y-125214660D01*
X45882913Y-125317510D01*
X45752010Y-125448413D01*
X45649160Y-125602338D01*
X45578316Y-125773371D01*
X45542200Y-125954938D01*
X45542200Y-126140062D01*
X45578316Y-126321629D01*
X45649160Y-126492662D01*
X45752010Y-126646587D01*
X45882913Y-126777490D01*
X46036838Y-126880340D01*
X46207871Y-126951184D01*
X46389438Y-126987300D01*
X46574562Y-126987300D01*
X46756129Y-126951184D01*
X46927162Y-126880340D01*
X47043132Y-126802851D01*
X47046160Y-126810162D01*
X47149010Y-126964087D01*
X47279913Y-127094990D01*
X47433838Y-127197840D01*
X47604871Y-127268684D01*
X47786438Y-127304800D01*
X47800000Y-127304800D01*
X47800000Y-127421435D01*
X47865330Y-127749872D01*
X47993479Y-128059252D01*
X48179523Y-128337687D01*
X48416313Y-128574477D01*
X48694748Y-128760521D01*
X49004128Y-128888670D01*
X49332565Y-128954000D01*
X49667435Y-128954000D01*
X49995872Y-128888670D01*
X50140001Y-128828970D01*
X50140001Y-131420000D01*
X26060000Y-131420000D01*
X26060000Y-128828970D01*
X26204128Y-128888670D01*
X26532565Y-128954000D01*
X26867435Y-128954000D01*
X27195872Y-128888670D01*
X27505252Y-128760521D01*
X27783687Y-128574477D01*
X28020477Y-128337687D01*
X28206521Y-128059252D01*
X28334670Y-127749872D01*
X28387689Y-127483324D01*
X28530638Y-127578840D01*
X28701671Y-127649684D01*
X28883238Y-127685800D01*
X29068362Y-127685800D01*
X29249929Y-127649684D01*
X29420962Y-127578840D01*
X29574887Y-127475990D01*
X29705790Y-127345087D01*
X29808640Y-127191162D01*
X29879484Y-127020129D01*
X29915600Y-126838562D01*
X29915600Y-126653438D01*
X29879484Y-126471871D01*
X29808640Y-126300838D01*
X29705790Y-126146913D01*
X29574887Y-126016010D01*
X29420962Y-125913160D01*
X29249929Y-125842316D01*
X29068362Y-125806200D01*
X28883238Y-125806200D01*
X28701671Y-125842316D01*
X28530638Y-125913160D01*
X28376713Y-126016010D01*
X28245810Y-126146913D01*
X28142960Y-126300838D01*
X28129463Y-126333422D01*
X28020477Y-126170313D01*
X27783687Y-125933523D01*
X27505252Y-125747479D01*
X27195872Y-125619330D01*
X26867435Y-125554000D01*
X26532565Y-125554000D01*
X26204128Y-125619330D01*
X26060000Y-125679030D01*
X26060000Y-123622738D01*
X27706000Y-123622738D01*
X27706000Y-123807862D01*
X27742116Y-123989429D01*
X27812960Y-124160462D01*
X27915810Y-124314387D01*
X28046713Y-124445290D01*
X28200638Y-124548140D01*
X28371671Y-124618984D01*
X28553238Y-124655100D01*
X28738362Y-124655100D01*
X28919929Y-124618984D01*
X29090962Y-124548140D01*
X29244887Y-124445290D01*
X29375790Y-124314387D01*
X29478640Y-124160462D01*
X29549484Y-123989429D01*
X29585600Y-123807862D01*
X29585600Y-123622738D01*
X29549484Y-123441171D01*
X29478640Y-123270138D01*
X29375790Y-123116213D01*
X29244887Y-122985310D01*
X29090962Y-122882460D01*
X28919929Y-122811616D01*
X28738362Y-122775500D01*
X28553238Y-122775500D01*
X28371671Y-122811616D01*
X28200638Y-122882460D01*
X28046713Y-122985310D01*
X27915810Y-123116213D01*
X27812960Y-123270138D01*
X27742116Y-123441171D01*
X27706000Y-123622738D01*
X26060000Y-123622738D01*
X26060000Y-120811438D01*
X31064200Y-120811438D01*
X31064200Y-120996562D01*
X31100316Y-121178129D01*
X31171160Y-121349162D01*
X31274010Y-121503087D01*
X31404913Y-121633990D01*
X31558838Y-121736840D01*
X31729871Y-121807684D01*
X31911438Y-121843800D01*
X32096562Y-121843800D01*
X32278129Y-121807684D01*
X32449162Y-121736840D01*
X32603087Y-121633990D01*
X32733990Y-121503087D01*
X32836840Y-121349162D01*
X32907684Y-121178129D01*
X32943800Y-120996562D01*
X32943800Y-120811438D01*
X32907684Y-120629871D01*
X32836840Y-120458838D01*
X32733990Y-120304913D01*
X32603087Y-120174010D01*
X32449162Y-120071160D01*
X32278129Y-120000316D01*
X32096562Y-119964200D01*
X31911438Y-119964200D01*
X31729871Y-120000316D01*
X31558838Y-120071160D01*
X31404913Y-120174010D01*
X31274010Y-120304913D01*
X31171160Y-120458838D01*
X31100316Y-120629871D01*
X31064200Y-120811438D01*
X26060000Y-120811438D01*
X26060000Y-119430970D01*
X26204128Y-119490670D01*
X26532565Y-119556000D01*
X26867435Y-119556000D01*
X27195872Y-119490670D01*
X27505252Y-119362521D01*
X27783687Y-119176477D01*
X28020477Y-118939687D01*
X28206521Y-118661252D01*
X28334670Y-118351872D01*
X28392460Y-118061338D01*
X32404700Y-118061338D01*
X32404700Y-118246462D01*
X32440816Y-118428029D01*
X32511660Y-118599062D01*
X32614510Y-118752987D01*
X32745413Y-118883890D01*
X32899338Y-118986740D01*
X33070371Y-119057584D01*
X33251938Y-119093700D01*
X33437062Y-119093700D01*
X33618629Y-119057584D01*
X33745053Y-119005217D01*
X33916313Y-119176477D01*
X34194748Y-119362521D01*
X34263400Y-119390958D01*
X34263401Y-125719042D01*
X34194748Y-125747479D01*
X33916313Y-125933523D01*
X33679523Y-126170313D01*
X33493479Y-126448748D01*
X33365330Y-126758128D01*
X33300000Y-127086565D01*
X33300000Y-127421435D01*
X33365330Y-127749872D01*
X33493479Y-128059252D01*
X33679523Y-128337687D01*
X33916313Y-128574477D01*
X34194748Y-128760521D01*
X34504128Y-128888670D01*
X34832565Y-128954000D01*
X35167435Y-128954000D01*
X35495872Y-128888670D01*
X35805252Y-128760521D01*
X36083687Y-128574477D01*
X36320477Y-128337687D01*
X36506521Y-128059252D01*
X36546928Y-127961701D01*
X36546928Y-128219000D01*
X36559188Y-128343482D01*
X36595498Y-128463180D01*
X36654463Y-128573494D01*
X36733815Y-128670185D01*
X36830506Y-128749537D01*
X36940820Y-128808502D01*
X37060518Y-128844812D01*
X37185000Y-128857072D01*
X39015000Y-128857072D01*
X39139482Y-128844812D01*
X39259180Y-128808502D01*
X39369494Y-128749537D01*
X39466185Y-128670185D01*
X39545537Y-128573494D01*
X39604502Y-128463180D01*
X39640812Y-128343482D01*
X39653072Y-128219000D01*
X39653072Y-127961701D01*
X39693479Y-128059252D01*
X39879523Y-128337687D01*
X40116313Y-128574477D01*
X40394748Y-128760521D01*
X40704128Y-128888670D01*
X41032565Y-128954000D01*
X41367435Y-128954000D01*
X41695872Y-128888670D01*
X42005252Y-128760521D01*
X42283687Y-128574477D01*
X42520477Y-128337687D01*
X42706521Y-128059252D01*
X42834670Y-127749872D01*
X42900000Y-127421435D01*
X42900000Y-127086565D01*
X42834670Y-126758128D01*
X42706521Y-126448748D01*
X42520477Y-126170313D01*
X42495210Y-126145046D01*
X42579438Y-126161800D01*
X42764562Y-126161800D01*
X42946129Y-126125684D01*
X43117162Y-126054840D01*
X43271087Y-125951990D01*
X43401990Y-125821087D01*
X43504840Y-125667162D01*
X43575684Y-125496129D01*
X43611800Y-125314562D01*
X43611800Y-125129438D01*
X43575684Y-124947871D01*
X43504840Y-124776838D01*
X43401990Y-124622913D01*
X43271087Y-124492010D01*
X43117162Y-124389160D01*
X42946129Y-124318316D01*
X42764562Y-124282200D01*
X42579438Y-124282200D01*
X42397871Y-124318316D01*
X42226838Y-124389160D01*
X42072913Y-124492010D01*
X41942010Y-124622913D01*
X41839160Y-124776838D01*
X41768316Y-124947871D01*
X41732200Y-125129438D01*
X41732200Y-125314562D01*
X41768316Y-125496129D01*
X41839160Y-125667162D01*
X41849803Y-125683090D01*
X41695872Y-125619330D01*
X41367435Y-125554000D01*
X41032565Y-125554000D01*
X40704128Y-125619330D01*
X40394748Y-125747479D01*
X40116313Y-125933523D01*
X39879523Y-126170313D01*
X39693479Y-126448748D01*
X39653072Y-126546299D01*
X39653072Y-126289000D01*
X39640812Y-126164518D01*
X39604502Y-126044820D01*
X39545537Y-125934506D01*
X39466185Y-125837815D01*
X39369494Y-125758463D01*
X39259180Y-125699498D01*
X39139482Y-125663188D01*
X39015000Y-125650928D01*
X37185000Y-125650928D01*
X37060518Y-125663188D01*
X36940820Y-125699498D01*
X36830506Y-125758463D01*
X36733815Y-125837815D01*
X36654463Y-125934506D01*
X36595498Y-126044820D01*
X36559188Y-126164518D01*
X36546928Y-126289000D01*
X36546928Y-126546299D01*
X36506521Y-126448748D01*
X36320477Y-126170313D01*
X36083687Y-125933523D01*
X35805252Y-125747479D01*
X35736600Y-125719042D01*
X35736600Y-119390958D01*
X35757304Y-119382381D01*
X35849913Y-119474990D01*
X36003838Y-119577840D01*
X36174871Y-119648684D01*
X36356438Y-119684800D01*
X36541562Y-119684800D01*
X36723129Y-119648684D01*
X36894162Y-119577840D01*
X37048087Y-119474990D01*
X37074853Y-119448224D01*
X37185000Y-119459072D01*
X39015000Y-119459072D01*
X39139482Y-119446812D01*
X39259180Y-119410502D01*
X39369494Y-119351537D01*
X39466185Y-119272185D01*
X39545537Y-119175494D01*
X39604502Y-119065180D01*
X39640812Y-118945482D01*
X39653072Y-118821000D01*
X39653072Y-118563701D01*
X39693479Y-118661252D01*
X39879523Y-118939687D01*
X40116313Y-119176477D01*
X40394748Y-119362521D01*
X40704128Y-119490670D01*
X41032565Y-119556000D01*
X41367435Y-119556000D01*
X41695872Y-119490670D01*
X42005252Y-119362521D01*
X42283687Y-119176477D01*
X42520477Y-118939687D01*
X42706521Y-118661252D01*
X42834670Y-118351872D01*
X42900000Y-118023435D01*
X42900000Y-117688565D01*
X42834670Y-117360128D01*
X42706521Y-117050748D01*
X42520477Y-116772313D01*
X42283687Y-116535523D01*
X42005252Y-116349479D01*
X41695872Y-116221330D01*
X41367435Y-116156000D01*
X41032565Y-116156000D01*
X40704128Y-116221330D01*
X40394748Y-116349479D01*
X40116313Y-116535523D01*
X39879523Y-116772313D01*
X39693479Y-117050748D01*
X39653072Y-117148299D01*
X39653072Y-116891000D01*
X39640812Y-116766518D01*
X39604502Y-116646820D01*
X39545537Y-116536506D01*
X39466185Y-116439815D01*
X39369494Y-116360463D01*
X39259180Y-116301498D01*
X39139482Y-116265188D01*
X39015000Y-116252928D01*
X37185000Y-116252928D01*
X37060518Y-116265188D01*
X36940820Y-116301498D01*
X36830506Y-116360463D01*
X36733815Y-116439815D01*
X36654463Y-116536506D01*
X36595498Y-116646820D01*
X36559188Y-116766518D01*
X36546928Y-116891000D01*
X36546928Y-117148299D01*
X36506521Y-117050748D01*
X36320477Y-116772313D01*
X36083687Y-116535523D01*
X35805252Y-116349479D01*
X35495872Y-116221330D01*
X35167435Y-116156000D01*
X34832565Y-116156000D01*
X34504128Y-116221330D01*
X34194748Y-116349479D01*
X33916313Y-116535523D01*
X33679523Y-116772313D01*
X33493479Y-117050748D01*
X33425817Y-117214100D01*
X33251938Y-117214100D01*
X33070371Y-117250216D01*
X32899338Y-117321060D01*
X32745413Y-117423910D01*
X32614510Y-117554813D01*
X32511660Y-117708738D01*
X32440816Y-117879771D01*
X32404700Y-118061338D01*
X28392460Y-118061338D01*
X28400000Y-118023435D01*
X28400000Y-117688565D01*
X28334670Y-117360128D01*
X28206521Y-117050748D01*
X28020477Y-116772313D01*
X27783687Y-116535523D01*
X27505252Y-116349479D01*
X27195872Y-116221330D01*
X26867435Y-116156000D01*
X26532565Y-116156000D01*
X26204128Y-116221330D01*
X26060000Y-116281030D01*
X26060000Y-112918438D01*
X28479700Y-112918438D01*
X28479700Y-113103562D01*
X28515816Y-113285129D01*
X28586660Y-113456162D01*
X28689510Y-113610087D01*
X28820413Y-113740990D01*
X28974338Y-113843840D01*
X29145371Y-113914684D01*
X29326938Y-113950800D01*
X29512062Y-113950800D01*
X29693629Y-113914684D01*
X29864662Y-113843840D01*
X30008694Y-113747600D01*
X36590310Y-113747600D01*
X36612137Y-113857329D01*
X36682981Y-114028362D01*
X36785831Y-114182287D01*
X36916734Y-114313190D01*
X37070659Y-114416040D01*
X37241692Y-114486884D01*
X37423259Y-114523000D01*
X37608383Y-114523000D01*
X37789950Y-114486884D01*
X37931619Y-114428203D01*
X38035838Y-114497840D01*
X38206871Y-114568684D01*
X38388438Y-114604800D01*
X38573562Y-114604800D01*
X38755129Y-114568684D01*
X38851901Y-114528600D01*
X42248580Y-114528600D01*
X42291000Y-114532778D01*
X42333420Y-114528600D01*
X42460295Y-114516104D01*
X42623084Y-114466722D01*
X42773112Y-114386531D01*
X42902979Y-114279952D01*
X42990162Y-114243840D01*
X43144087Y-114140990D01*
X43274990Y-114010087D01*
X43377840Y-113856162D01*
X43448684Y-113685129D01*
X43484800Y-113503562D01*
X43484800Y-113318438D01*
X43448684Y-113136871D01*
X43377840Y-112965838D01*
X43274990Y-112811913D01*
X43144087Y-112681010D01*
X42990162Y-112578160D01*
X42819129Y-112507316D01*
X42637562Y-112471200D01*
X42452438Y-112471200D01*
X42270871Y-112507316D01*
X42099838Y-112578160D01*
X41945913Y-112681010D01*
X41825523Y-112801400D01*
X40006200Y-112801400D01*
X40006200Y-112733038D01*
X39970084Y-112551471D01*
X39899240Y-112380438D01*
X39796390Y-112226513D01*
X39665487Y-112095610D01*
X39511562Y-111992760D01*
X39340529Y-111921916D01*
X39158962Y-111885800D01*
X38973838Y-111885800D01*
X38792271Y-111921916D01*
X38621238Y-111992760D01*
X38467313Y-112095610D01*
X38336410Y-112226513D01*
X38233560Y-112380438D01*
X38229270Y-112390796D01*
X38110249Y-112327178D01*
X37971399Y-112285058D01*
X37863186Y-112274400D01*
X37863183Y-112274400D01*
X37827000Y-112270836D01*
X37790817Y-112274400D01*
X30008694Y-112274400D01*
X29864662Y-112178160D01*
X29693629Y-112107316D01*
X29512062Y-112071200D01*
X29326938Y-112071200D01*
X29145371Y-112107316D01*
X28974338Y-112178160D01*
X28820413Y-112281010D01*
X28689510Y-112411913D01*
X28586660Y-112565838D01*
X28515816Y-112736871D01*
X28479700Y-112918438D01*
X26060000Y-112918438D01*
X26060000Y-110032970D01*
X26204128Y-110092670D01*
X26532565Y-110158000D01*
X26867435Y-110158000D01*
X27195872Y-110092670D01*
X27505252Y-109964521D01*
X27783687Y-109778477D01*
X28020477Y-109541687D01*
X28206521Y-109263252D01*
X28334670Y-108953872D01*
X28400000Y-108625435D01*
X28400000Y-108290565D01*
X28346289Y-108020538D01*
X28783100Y-108020538D01*
X28783100Y-108205662D01*
X28819216Y-108387229D01*
X28890060Y-108558262D01*
X28992910Y-108712187D01*
X29123813Y-108843090D01*
X29277738Y-108945940D01*
X29448771Y-109016784D01*
X29630338Y-109052900D01*
X29815462Y-109052900D01*
X29997029Y-109016784D01*
X30168062Y-108945940D01*
X30321987Y-108843090D01*
X30452890Y-108712187D01*
X30555740Y-108558262D01*
X30626584Y-108387229D01*
X30662700Y-108205662D01*
X30662700Y-108020538D01*
X30626584Y-107838971D01*
X30555740Y-107667938D01*
X30452890Y-107514013D01*
X30321987Y-107383110D01*
X30168062Y-107280260D01*
X29997029Y-107209416D01*
X29815462Y-107173300D01*
X29630338Y-107173300D01*
X29448771Y-107209416D01*
X29277738Y-107280260D01*
X29123813Y-107383110D01*
X28992910Y-107514013D01*
X28890060Y-107667938D01*
X28819216Y-107838971D01*
X28783100Y-108020538D01*
X28346289Y-108020538D01*
X28334670Y-107962128D01*
X28206521Y-107652748D01*
X28020477Y-107374313D01*
X27783687Y-107137523D01*
X27505252Y-106951479D01*
X27195872Y-106823330D01*
X26867435Y-106758000D01*
X26532565Y-106758000D01*
X26204128Y-106823330D01*
X26060000Y-106883030D01*
X26060000Y-87757000D01*
X27813000Y-87757000D01*
X27813000Y-87767592D01*
G36*
X39476701Y-89244310D02*
G01*
X39476701Y-89495928D01*
X36507000Y-89495928D01*
X36382518Y-89508188D01*
X36262820Y-89544498D01*
X36152506Y-89603463D01*
X36055815Y-89682815D01*
X35976463Y-89779506D01*
X35917498Y-89889820D01*
X35881188Y-90009518D01*
X35868928Y-90134000D01*
X35868928Y-92134000D01*
X35881188Y-92258482D01*
X35917498Y-92378180D01*
X35976463Y-92488494D01*
X36055815Y-92585185D01*
X36152506Y-92664537D01*
X36262820Y-92723502D01*
X36382518Y-92759812D01*
X36507000Y-92772072D01*
X39476700Y-92772072D01*
X39476700Y-94304117D01*
X39473136Y-94340300D01*
X39476700Y-94376483D01*
X39476700Y-94376485D01*
X39487358Y-94484698D01*
X39529478Y-94623548D01*
X39576175Y-94710912D01*
X39597876Y-94751512D01*
X39652541Y-94818121D01*
X39689925Y-94863674D01*
X39718032Y-94886741D01*
X43550515Y-98719225D01*
X43534832Y-98757088D01*
X43472000Y-99072967D01*
X43472000Y-99395033D01*
X43534832Y-99710912D01*
X43658082Y-100008463D01*
X43837013Y-100276252D01*
X44064748Y-100503987D01*
X44332537Y-100682918D01*
X44630088Y-100806168D01*
X44945967Y-100869000D01*
X45268033Y-100869000D01*
X45583912Y-100806168D01*
X45679701Y-100766491D01*
X45679701Y-102356747D01*
X41278450Y-106758000D01*
X41032565Y-106758000D01*
X40704128Y-106823330D01*
X40394748Y-106951479D01*
X40116313Y-107137523D01*
X39879523Y-107374313D01*
X39693479Y-107652748D01*
X39686084Y-107670600D01*
X39653072Y-107670600D01*
X39653072Y-107493000D01*
X39640812Y-107368518D01*
X39604502Y-107248820D01*
X39545537Y-107138506D01*
X39466185Y-107041815D01*
X39369494Y-106962463D01*
X39259180Y-106903498D01*
X39139482Y-106867188D01*
X39015000Y-106854928D01*
X37185000Y-106854928D01*
X37060518Y-106867188D01*
X36940820Y-106903498D01*
X36830506Y-106962463D01*
X36733815Y-107041815D01*
X36654463Y-107138506D01*
X36595498Y-107248820D01*
X36559188Y-107368518D01*
X36546928Y-107493000D01*
X36546928Y-107670600D01*
X36513916Y-107670600D01*
X36506521Y-107652748D01*
X36320477Y-107374313D01*
X36083687Y-107137523D01*
X35805252Y-106951479D01*
X35495872Y-106823330D01*
X35167435Y-106758000D01*
X34832565Y-106758000D01*
X34504128Y-106823330D01*
X34486276Y-106830724D01*
X29616400Y-101960850D01*
X29616400Y-100538500D01*
X29832537Y-100682918D01*
X30130088Y-100806168D01*
X30445967Y-100869000D01*
X30768033Y-100869000D01*
X31083912Y-100806168D01*
X31381463Y-100682918D01*
X31444739Y-100640638D01*
X35580200Y-100640638D01*
X35580200Y-100825762D01*
X35616316Y-101007329D01*
X35687160Y-101178362D01*
X35790010Y-101332287D01*
X35868928Y-101411205D01*
X35868928Y-103334000D01*
X35881188Y-103458482D01*
X35917498Y-103578180D01*
X35976463Y-103688494D01*
X36055815Y-103785185D01*
X36152506Y-103864537D01*
X36262820Y-103923502D01*
X36382518Y-103959812D01*
X36507000Y-103972072D01*
X39707000Y-103972072D01*
X39831482Y-103959812D01*
X39951180Y-103923502D01*
X40061494Y-103864537D01*
X40158185Y-103785185D01*
X40237537Y-103688494D01*
X40296502Y-103578180D01*
X40332812Y-103458482D01*
X40345072Y-103334000D01*
X40345072Y-101334000D01*
X40332812Y-101209518D01*
X40296502Y-101089820D01*
X40237537Y-100979506D01*
X40158185Y-100882815D01*
X40061494Y-100803463D01*
X39951180Y-100744498D01*
X39831482Y-100708188D01*
X39707000Y-100695928D01*
X37459800Y-100695928D01*
X37459800Y-100667838D01*
X40476700Y-100667838D01*
X40476700Y-100852962D01*
X40512816Y-101034529D01*
X40583660Y-101205562D01*
X40686510Y-101359487D01*
X40817413Y-101490390D01*
X40971338Y-101593240D01*
X41142371Y-101664084D01*
X41323938Y-101700200D01*
X41509062Y-101700200D01*
X41690629Y-101664084D01*
X41861662Y-101593240D01*
X42015587Y-101490390D01*
X42146490Y-101359487D01*
X42249340Y-101205562D01*
X42320184Y-101034529D01*
X42356300Y-100852962D01*
X42356300Y-100667838D01*
X42320184Y-100486271D01*
X42249340Y-100315238D01*
X42146490Y-100161313D01*
X42015587Y-100030410D01*
X41861662Y-99927560D01*
X41690629Y-99856716D01*
X41509062Y-99820600D01*
X41323938Y-99820600D01*
X41142371Y-99856716D01*
X40971338Y-99927560D01*
X40817413Y-100030410D01*
X40686510Y-100161313D01*
X40583660Y-100315238D01*
X40512816Y-100486271D01*
X40476700Y-100667838D01*
X37459800Y-100667838D01*
X37459800Y-100640638D01*
X37423684Y-100459071D01*
X37352840Y-100288038D01*
X37249990Y-100134113D01*
X37119087Y-100003210D01*
X36965162Y-99900360D01*
X36794129Y-99829516D01*
X36612562Y-99793400D01*
X36427438Y-99793400D01*
X36245871Y-99829516D01*
X36074838Y-99900360D01*
X35920913Y-100003210D01*
X35790010Y-100134113D01*
X35687160Y-100288038D01*
X35616316Y-100459071D01*
X35580200Y-100640638D01*
X31444739Y-100640638D01*
X31649252Y-100503987D01*
X31876987Y-100276252D01*
X32055918Y-100008463D01*
X32179168Y-99710912D01*
X32242000Y-99395033D01*
X32242000Y-99072967D01*
X32179168Y-98757088D01*
X32163484Y-98719225D01*
X34767073Y-96115637D01*
X34795174Y-96092575D01*
X34818237Y-96064473D01*
X34818242Y-96064468D01*
X34887224Y-95980413D01*
X34951686Y-95859812D01*
X34955622Y-95852449D01*
X34997742Y-95713599D01*
X35008400Y-95605386D01*
X35008400Y-95605385D01*
X35011964Y-95569200D01*
X35008400Y-95533014D01*
X35008400Y-87757000D01*
X37989391Y-87757000D01*
X39476701Y-89244310D01*
G37*
X39476701Y-89244310D02*
X39476701Y-89495928D01*
X36507000Y-89495928D01*
X36382518Y-89508188D01*
X36262820Y-89544498D01*
X36152506Y-89603463D01*
X36055815Y-89682815D01*
X35976463Y-89779506D01*
X35917498Y-89889820D01*
X35881188Y-90009518D01*
X35868928Y-90134000D01*
X35868928Y-92134000D01*
X35881188Y-92258482D01*
X35917498Y-92378180D01*
X35976463Y-92488494D01*
X36055815Y-92585185D01*
X36152506Y-92664537D01*
X36262820Y-92723502D01*
X36382518Y-92759812D01*
X36507000Y-92772072D01*
X39476700Y-92772072D01*
X39476700Y-94304117D01*
X39473136Y-94340300D01*
X39476700Y-94376483D01*
X39476700Y-94376485D01*
X39487358Y-94484698D01*
X39529478Y-94623548D01*
X39576175Y-94710912D01*
X39597876Y-94751512D01*
X39652541Y-94818121D01*
X39689925Y-94863674D01*
X39718032Y-94886741D01*
X43550515Y-98719225D01*
X43534832Y-98757088D01*
X43472000Y-99072967D01*
X43472000Y-99395033D01*
X43534832Y-99710912D01*
X43658082Y-100008463D01*
X43837013Y-100276252D01*
X44064748Y-100503987D01*
X44332537Y-100682918D01*
X44630088Y-100806168D01*
X44945967Y-100869000D01*
X45268033Y-100869000D01*
X45583912Y-100806168D01*
X45679701Y-100766491D01*
X45679701Y-102356747D01*
X41278450Y-106758000D01*
X41032565Y-106758000D01*
X40704128Y-106823330D01*
X40394748Y-106951479D01*
X40116313Y-107137523D01*
X39879523Y-107374313D01*
X39693479Y-107652748D01*
X39686084Y-107670600D01*
X39653072Y-107670600D01*
X39653072Y-107493000D01*
X39640812Y-107368518D01*
X39604502Y-107248820D01*
X39545537Y-107138506D01*
X39466185Y-107041815D01*
X39369494Y-106962463D01*
X39259180Y-106903498D01*
X39139482Y-106867188D01*
X39015000Y-106854928D01*
X37185000Y-106854928D01*
X37060518Y-106867188D01*
X36940820Y-106903498D01*
X36830506Y-106962463D01*
X36733815Y-107041815D01*
X36654463Y-107138506D01*
X36595498Y-107248820D01*
X36559188Y-107368518D01*
X36546928Y-107493000D01*
X36546928Y-107670600D01*
X36513916Y-107670600D01*
X36506521Y-107652748D01*
X36320477Y-107374313D01*
X36083687Y-107137523D01*
X35805252Y-106951479D01*
X35495872Y-106823330D01*
X35167435Y-106758000D01*
X34832565Y-106758000D01*
X34504128Y-106823330D01*
X34486276Y-106830724D01*
X29616400Y-101960850D01*
X29616400Y-100538500D01*
X29832537Y-100682918D01*
X30130088Y-100806168D01*
X30445967Y-100869000D01*
X30768033Y-100869000D01*
X31083912Y-100806168D01*
X31381463Y-100682918D01*
X31444739Y-100640638D01*
X35580200Y-100640638D01*
X35580200Y-100825762D01*
X35616316Y-101007329D01*
X35687160Y-101178362D01*
X35790010Y-101332287D01*
X35868928Y-101411205D01*
X35868928Y-103334000D01*
X35881188Y-103458482D01*
X35917498Y-103578180D01*
X35976463Y-103688494D01*
X36055815Y-103785185D01*
X36152506Y-103864537D01*
X36262820Y-103923502D01*
X36382518Y-103959812D01*
X36507000Y-103972072D01*
X39707000Y-103972072D01*
X39831482Y-103959812D01*
X39951180Y-103923502D01*
X40061494Y-103864537D01*
X40158185Y-103785185D01*
X40237537Y-103688494D01*
X40296502Y-103578180D01*
X40332812Y-103458482D01*
X40345072Y-103334000D01*
X40345072Y-101334000D01*
X40332812Y-101209518D01*
X40296502Y-101089820D01*
X40237537Y-100979506D01*
X40158185Y-100882815D01*
X40061494Y-100803463D01*
X39951180Y-100744498D01*
X39831482Y-100708188D01*
X39707000Y-100695928D01*
X37459800Y-100695928D01*
X37459800Y-100667838D01*
X40476700Y-100667838D01*
X40476700Y-100852962D01*
X40512816Y-101034529D01*
X40583660Y-101205562D01*
X40686510Y-101359487D01*
X40817413Y-101490390D01*
X40971338Y-101593240D01*
X41142371Y-101664084D01*
X41323938Y-101700200D01*
X41509062Y-101700200D01*
X41690629Y-101664084D01*
X41861662Y-101593240D01*
X42015587Y-101490390D01*
X42146490Y-101359487D01*
X42249340Y-101205562D01*
X42320184Y-101034529D01*
X42356300Y-100852962D01*
X42356300Y-100667838D01*
X42320184Y-100486271D01*
X42249340Y-100315238D01*
X42146490Y-100161313D01*
X42015587Y-100030410D01*
X41861662Y-99927560D01*
X41690629Y-99856716D01*
X41509062Y-99820600D01*
X41323938Y-99820600D01*
X41142371Y-99856716D01*
X40971338Y-99927560D01*
X40817413Y-100030410D01*
X40686510Y-100161313D01*
X40583660Y-100315238D01*
X40512816Y-100486271D01*
X40476700Y-100667838D01*
X37459800Y-100667838D01*
X37459800Y-100640638D01*
X37423684Y-100459071D01*
X37352840Y-100288038D01*
X37249990Y-100134113D01*
X37119087Y-100003210D01*
X36965162Y-99900360D01*
X36794129Y-99829516D01*
X36612562Y-99793400D01*
X36427438Y-99793400D01*
X36245871Y-99829516D01*
X36074838Y-99900360D01*
X35920913Y-100003210D01*
X35790010Y-100134113D01*
X35687160Y-100288038D01*
X35616316Y-100459071D01*
X35580200Y-100640638D01*
X31444739Y-100640638D01*
X31649252Y-100503987D01*
X31876987Y-100276252D01*
X32055918Y-100008463D01*
X32179168Y-99710912D01*
X32242000Y-99395033D01*
X32242000Y-99072967D01*
X32179168Y-98757088D01*
X32163484Y-98719225D01*
X34767073Y-96115637D01*
X34795174Y-96092575D01*
X34818237Y-96064473D01*
X34818242Y-96064468D01*
X34887224Y-95980413D01*
X34951686Y-95859812D01*
X34955622Y-95852449D01*
X34997742Y-95713599D01*
X35008400Y-95605386D01*
X35008400Y-95605385D01*
X35011964Y-95569200D01*
X35008400Y-95533014D01*
X35008400Y-87757000D01*
X37989391Y-87757000D01*
X39476701Y-89244310D01*
G36*
X45593000Y-87767592D02*
G01*
X45646686Y-88037490D01*
X45751995Y-88291727D01*
X45904880Y-88520535D01*
X46099465Y-88715120D01*
X46328273Y-88868005D01*
X46582510Y-88973314D01*
X46852408Y-89027000D01*
X47127592Y-89027000D01*
X47397490Y-88973314D01*
X47651727Y-88868005D01*
X47880535Y-88715120D01*
X48075120Y-88520535D01*
X48228005Y-88291727D01*
X48333314Y-88037490D01*
X48387000Y-87767592D01*
X48387000Y-87757000D01*
X49530011Y-87757000D01*
X49530011Y-92278200D01*
X49464473Y-92278200D01*
X49443184Y-92171171D01*
X49372340Y-92000138D01*
X49269490Y-91846213D01*
X49138587Y-91715310D01*
X48984662Y-91612460D01*
X48813629Y-91541616D01*
X48632062Y-91505500D01*
X48446938Y-91505500D01*
X48265371Y-91541616D01*
X48094338Y-91612460D01*
X47940413Y-91715310D01*
X47809510Y-91846213D01*
X47706660Y-92000138D01*
X47635816Y-92171171D01*
X47619859Y-92251390D01*
X46498157Y-93373092D01*
X46376987Y-93191748D01*
X46149252Y-92964013D01*
X45881463Y-92785082D01*
X45583912Y-92661832D01*
X45268033Y-92599000D01*
X44945967Y-92599000D01*
X44630088Y-92661832D01*
X44332537Y-92785082D01*
X44064748Y-92964013D01*
X43837013Y-93191748D01*
X43658082Y-93459537D01*
X43534832Y-93757088D01*
X43472000Y-94072967D01*
X43472000Y-94395033D01*
X43534832Y-94710912D01*
X43658082Y-95008463D01*
X43837013Y-95276252D01*
X44064748Y-95503987D01*
X44332537Y-95682918D01*
X44630088Y-95806168D01*
X44945967Y-95869000D01*
X45268033Y-95869000D01*
X45583912Y-95806168D01*
X45679700Y-95766491D01*
X45679700Y-97701509D01*
X45583912Y-97661832D01*
X45268033Y-97599000D01*
X44945967Y-97599000D01*
X44630088Y-97661832D01*
X44592225Y-97677515D01*
X40949900Y-94035191D01*
X40949900Y-88975375D01*
X40953463Y-88939199D01*
X40949900Y-88903023D01*
X40949900Y-88903014D01*
X40939242Y-88794801D01*
X40897122Y-88655951D01*
X40828724Y-88527987D01*
X40736675Y-88415825D01*
X40708563Y-88392754D01*
X40072809Y-87757000D01*
X45593000Y-87757000D01*
X45593000Y-87767592D01*
G37*
X45593000Y-87767592D02*
X45646686Y-88037490D01*
X45751995Y-88291727D01*
X45904880Y-88520535D01*
X46099465Y-88715120D01*
X46328273Y-88868005D01*
X46582510Y-88973314D01*
X46852408Y-89027000D01*
X47127592Y-89027000D01*
X47397490Y-88973314D01*
X47651727Y-88868005D01*
X47880535Y-88715120D01*
X48075120Y-88520535D01*
X48228005Y-88291727D01*
X48333314Y-88037490D01*
X48387000Y-87767592D01*
X48387000Y-87757000D01*
X49530011Y-87757000D01*
X49530011Y-92278200D01*
X49464473Y-92278200D01*
X49443184Y-92171171D01*
X49372340Y-92000138D01*
X49269490Y-91846213D01*
X49138587Y-91715310D01*
X48984662Y-91612460D01*
X48813629Y-91541616D01*
X48632062Y-91505500D01*
X48446938Y-91505500D01*
X48265371Y-91541616D01*
X48094338Y-91612460D01*
X47940413Y-91715310D01*
X47809510Y-91846213D01*
X47706660Y-92000138D01*
X47635816Y-92171171D01*
X47619859Y-92251390D01*
X46498157Y-93373092D01*
X46376987Y-93191748D01*
X46149252Y-92964013D01*
X45881463Y-92785082D01*
X45583912Y-92661832D01*
X45268033Y-92599000D01*
X44945967Y-92599000D01*
X44630088Y-92661832D01*
X44332537Y-92785082D01*
X44064748Y-92964013D01*
X43837013Y-93191748D01*
X43658082Y-93459537D01*
X43534832Y-93757088D01*
X43472000Y-94072967D01*
X43472000Y-94395033D01*
X43534832Y-94710912D01*
X43658082Y-95008463D01*
X43837013Y-95276252D01*
X44064748Y-95503987D01*
X44332537Y-95682918D01*
X44630088Y-95806168D01*
X44945967Y-95869000D01*
X45268033Y-95869000D01*
X45583912Y-95806168D01*
X45679700Y-95766491D01*
X45679700Y-97701509D01*
X45583912Y-97661832D01*
X45268033Y-97599000D01*
X44945967Y-97599000D01*
X44630088Y-97661832D01*
X44592225Y-97677515D01*
X40949900Y-94035191D01*
X40949900Y-88975375D01*
X40953463Y-88939199D01*
X40949900Y-88903023D01*
X40949900Y-88903014D01*
X40939242Y-88794801D01*
X40897122Y-88655951D01*
X40828724Y-88527987D01*
X40736675Y-88415825D01*
X40708563Y-88392754D01*
X40072809Y-87757000D01*
X45593000Y-87757000D01*
X45593000Y-87767592D01*
M02*
