M48
; DRILL file {KiCad (5.1.5)-3} date 27/03/2020 15:51:30
; FORMAT={-:-/ absolute / inch / decimal}
; #@! TF.CreationDate,2020-03-27T15:51:30+00:00
; #@! TF.GenerationSoftware,Kicad,Pcbnew,(5.1.5)-3
FMAT,2
INCH
T1C0.0120
T2C0.0300
T3C0.0394
T4C0.0433
T5C0.0480
T6C0.0559
T7C0.0563
T8C0.0591
%
G90
G05
T1
X1.08Y-3.84
X1.1278Y-4.8707
X1.1408Y-4.99
X1.1582Y-4.4493
X1.1702Y-4.2564
X1.2121Y-2.8308
X1.2126Y-2.9917
X1.2136Y-2.96
X1.22Y-1.81
X1.225Y-1.5725
X1.2332Y-2.708
X1.2424Y-3.1431
X1.26Y-4.76
X1.285Y-1.64
X1.2852Y-2.7064
X1.31Y-2.36
X1.3107Y-2.7938
X1.3128Y-3.0809
X1.3128Y-4.6517
X1.3315Y-2.7717
X1.3493Y-2.8187
X1.35Y-1.93
X1.3625Y-2.385
X1.3825Y-3.0225
X1.3964Y-2.8504
X1.41Y-2.25
X1.42Y-1.64
X1.4281Y-3.1564
X1.43Y-2.78
X1.435Y-4.675
X1.4378Y-3.9659
X1.44Y-3.41
X1.4525Y-3.325
X1.4565Y-2.9127
X1.47Y-4.4
X1.477Y-4.4718
X1.4801Y-1.5775
X1.4875Y-3.3725
X1.4948Y-2.607
X1.5Y-2.25
X1.5089Y-3.3122
X1.5093Y-2.7142
X1.515Y-4.475
X1.5164Y-2.8898
X1.538Y-4.442
X1.5386Y-3.3256
X1.555Y-4.1
X1.5566Y-2.722
X1.5719Y-3.1561
X1.578Y-2.8045
X1.58Y-4.565
X1.5854Y-3.2858
X1.6099Y-2.7053
X1.61Y-2.41
X1.6173Y-2.5596
X1.6205Y-2.2355
X1.6222Y-3.2036
X1.6306Y-3.9669
X1.6319Y-2.6078
X1.64Y-3.1532
X1.6466Y-2.262
X1.6529Y-1.8471
X1.657Y-2.6619
X1.6581Y-3.6769
X1.6588Y-2.8257
X1.675Y-4.465
X1.68Y-2.51
X1.68Y-4.93
X1.6872Y-2.6508
X1.705Y-3.0725
X1.7141Y-2.7083
X1.7264Y-3.2976
X1.7279Y-4.5324
X1.7538Y-3.3257
X1.7574Y-2.7948
X1.7719Y-4.8019
X1.7779Y-2.9982
X1.7799Y-2.817
X1.78Y-3.3775
X1.78Y-4.2841
X1.79Y-3.2
X1.8007Y-2.2028
X1.8007Y-2.4293
X1.805Y-4.615
X1.83Y-4.9625
X1.8485Y-3.5046
X1.86Y-2.65
X1.8717Y-2.525
X1.885Y-4.975
X1.911Y-3.6396
X1.93Y-3.92
X1.95Y-3.67
X1.9758Y-4.815
X1.9775Y-2.8825
T2
X1.15Y-2.75
X1.15Y-2.85
X1.15Y-2.95
X1.15Y-3.05
X1.15Y-3.15
X1.15Y-3.25
X1.15Y-3.35
X1.15Y-3.45
X1.85Y-2.75
X1.85Y-2.85
X1.85Y-2.95
X1.85Y-3.05
X1.85Y-3.15
X1.85Y-3.25
X1.85Y-3.35
X1.85Y-3.45
T3
X1.05Y-1.15
X1.05Y-1.2484
X1.05Y-1.3469
X1.2Y-1.2
X1.2Y-1.3
X1.3Y-1.2
X1.3Y-1.3
X1.4Y-1.2
X1.4Y-1.3
X1.5Y-1.2
X1.5Y-1.3
X1.6Y-1.2
X1.6Y-1.3
X1.7Y-1.2
X1.7Y-1.3
X1.8Y-1.2
X1.8Y-1.3
X1.9Y-1.2
X1.9Y-1.3
X1.205Y-3.71
X1.205Y-3.8084
X1.205Y-3.9069
X1.7759Y-3.71
X1.7759Y-3.9069
X1.05Y-2.25
X1.05Y-2.3484
X1.05Y-2.4469
X1.95Y-1.7031
X1.95Y-1.8016
X1.95Y-1.9
T5
X1.5Y-4.64
X1.5Y-4.64
X1.5Y-4.27
X1.5Y-5.01
X1.5Y-5.01
X1.5Y-4.27
T6
X1.622Y-4.64
X1.622Y-5.01
X1.378Y-5.01
X1.378Y-4.64
X1.622Y-4.27
X1.378Y-4.27
T7
X1.9488Y-4.64
X1.9488Y-5.01
X1.0512Y-5.01
X1.0512Y-4.64
X1.9488Y-4.27
X1.0512Y-4.27
T4
G00X1.3315Y-2.1594
M15
G01X1.3591Y-2.1594
M16
G05
G00X1.3315Y-2.5374
M15
G01X1.3591Y-2.5374
M16
G05
G00X1.6685Y-1.6126
M15
G01X1.6409Y-1.6126
M16
G05
G00X1.6685Y-1.9906
M15
G01X1.6409Y-1.9906
M16
G05
G00X1.3315Y-1.0594
M15
G01X1.3591Y-1.0594
M16
G05
G00X1.3315Y-1.4374
M15
G01X1.3591Y-1.4374
M16
G05
T8
G00X1.4747Y-3.588
M15
G01X1.5259Y-3.588
M16
G05
G00X1.4747Y-4.0289
M15
G01X1.5259Y-4.0289
M16
G05
T0
M30
