G04 #@! TF.GenerationSoftware,KiCad,Pcbnew,(5.1.5)-3*
G04 #@! TF.CreationDate,2020-03-27T15:51:16+00:00*
G04 #@! TF.ProjectId,wagyu,77616779-752e-46b6-9963-61645f706362,rev?*
G04 #@! TF.SameCoordinates,Original*
G04 #@! TF.FileFunction,Legend,Bot*
G04 #@! TF.FilePolarity,Positive*
%FSLAX46Y46*%
G04 Gerber Fmt 4.6, Leading zero omitted, Abs format (unit mm)*
G04 Created by KiCad (PCBNEW (5.1.5)-3) date 2020-03-27 15:51:16*
%MOMM*%
%LPD*%
G04 APERTURE LIST*
%ADD10C,0.150000*%
%ADD11C,0.120000*%
G04 APERTURE END LIST*
D10*
X48926785Y-53855880D02*
X49498214Y-53855880D01*
X49212500Y-53855880D02*
X49212500Y-52855880D01*
X49307738Y-52998738D01*
X49402976Y-53093976D01*
X49498214Y-53141595D01*
X28900380Y-31107142D02*
X28424190Y-30773809D01*
X28900380Y-30535714D02*
X27900380Y-30535714D01*
X27900380Y-30916666D01*
X27948000Y-31011904D01*
X27995619Y-31059523D01*
X28090857Y-31107142D01*
X28233714Y-31107142D01*
X28328952Y-31059523D01*
X28376571Y-31011904D01*
X28424190Y-30916666D01*
X28424190Y-30535714D01*
X28376571Y-31535714D02*
X28376571Y-31869047D01*
X28900380Y-32011904D02*
X28900380Y-31535714D01*
X27900380Y-31535714D01*
X27900380Y-32011904D01*
X28900380Y-32440476D02*
X27900380Y-32440476D01*
X27900380Y-32678571D01*
X27948000Y-32821428D01*
X28043238Y-32916666D01*
X28138476Y-32964285D01*
X28328952Y-33011904D01*
X28471809Y-33011904D01*
X28662285Y-32964285D01*
X28757523Y-32916666D01*
X28852761Y-32821428D01*
X28900380Y-32678571D01*
X28900380Y-32440476D01*
D11*
X43906221Y-118489000D02*
X44231779Y-118489000D01*
X43906221Y-119509000D02*
X44231779Y-119509000D01*
X44231779Y-117985000D02*
X43906221Y-117985000D01*
X44231779Y-116965000D02*
X43906221Y-116965000D01*
X31302000Y-120355000D02*
X31302000Y-118895000D01*
X28142000Y-120355000D02*
X28142000Y-118195000D01*
X28142000Y-120355000D02*
X29072000Y-120355000D01*
X31302000Y-120355000D02*
X30372000Y-120355000D01*
X32895000Y-117667721D02*
X32895000Y-117993279D01*
X31875000Y-117667721D02*
X31875000Y-117993279D01*
X29301221Y-116457000D02*
X29626779Y-116457000D01*
X29301221Y-117477000D02*
X29626779Y-117477000D01*
X39588221Y-81722500D02*
X39913779Y-81722500D01*
X39588221Y-82742500D02*
X39913779Y-82742500D01*
X48385000Y-87792779D02*
X48385000Y-87467221D01*
X49405000Y-87792779D02*
X49405000Y-87467221D01*
X48385000Y-84744779D02*
X48385000Y-84419221D01*
X49405000Y-84744779D02*
X49405000Y-84419221D01*
X48385000Y-81696779D02*
X48385000Y-81371221D01*
X49405000Y-81696779D02*
X49405000Y-81371221D01*
X48385000Y-78648779D02*
X48385000Y-78323221D01*
X49405000Y-78648779D02*
X49405000Y-78323221D01*
X27815000Y-78831221D02*
X27815000Y-79156779D01*
X26795000Y-78831221D02*
X26795000Y-79156779D01*
X27815000Y-75783221D02*
X27815000Y-76108779D01*
X26795000Y-75783221D02*
X26795000Y-76108779D01*
X27815000Y-72709721D02*
X27815000Y-73035279D01*
X26795000Y-72709721D02*
X26795000Y-73035279D01*
X27815000Y-69687221D02*
X27815000Y-70012779D01*
X26795000Y-69687221D02*
X26795000Y-70012779D01*
X38352000Y-99222779D02*
X38352000Y-98897221D01*
X39372000Y-99222779D02*
X39372000Y-98897221D01*
X36574000Y-99222779D02*
X36574000Y-98897221D01*
X37594000Y-99222779D02*
X37594000Y-98897221D01*
X42420000Y-98897221D02*
X42420000Y-99222779D01*
X41400000Y-98897221D02*
X41400000Y-99222779D01*
X34546000Y-98897221D02*
X34546000Y-99222779D01*
X33526000Y-98897221D02*
X33526000Y-99222779D01*
X40762422Y-95810000D02*
X41279578Y-95810000D01*
X40762422Y-97230000D02*
X41279578Y-97230000D01*
X35183578Y-97230000D02*
X34666422Y-97230000D01*
X35183578Y-95810000D02*
X34666422Y-95810000D01*
X39876000Y-99222779D02*
X39876000Y-98897221D01*
X40896000Y-99222779D02*
X40896000Y-98897221D01*
X35050000Y-99222779D02*
X35050000Y-98897221D01*
X36070000Y-99222779D02*
X36070000Y-98897221D01*
X39383000Y-89425000D02*
X38908000Y-89425000D01*
X44128000Y-84205000D02*
X44128000Y-84680000D01*
X43653000Y-84205000D02*
X44128000Y-84205000D01*
X38908000Y-84205000D02*
X38908000Y-84680000D01*
X39383000Y-84205000D02*
X38908000Y-84205000D01*
X44128000Y-89425000D02*
X44128000Y-88950000D01*
X43653000Y-89425000D02*
X44128000Y-89425000D01*
X47589221Y-89469500D02*
X47914779Y-89469500D01*
X47589221Y-90489500D02*
X47914779Y-90489500D01*
X47589221Y-90993500D02*
X47914779Y-90993500D01*
X47589221Y-92013500D02*
X47914779Y-92013500D01*
X40257000Y-91856779D02*
X40257000Y-91531221D01*
X41277000Y-91856779D02*
X41277000Y-91531221D01*
X42890221Y-90168000D02*
X43215779Y-90168000D01*
X42890221Y-91188000D02*
X43215779Y-91188000D01*
X43152279Y-83187000D02*
X42826721Y-83187000D01*
X43152279Y-82167000D02*
X42826721Y-82167000D01*
X42890221Y-91692000D02*
X43215779Y-91692000D01*
X42890221Y-92712000D02*
X43215779Y-92712000D01*
X49590000Y-34350000D02*
X49590000Y-33020000D01*
X48260000Y-34350000D02*
X49590000Y-34350000D01*
X49590000Y-31750000D02*
X49590000Y-29150000D01*
X46990000Y-31750000D02*
X49590000Y-31750000D01*
X46990000Y-34350000D02*
X46990000Y-31750000D01*
X49590000Y-29150000D02*
X29150000Y-29150000D01*
X46990000Y-34350000D02*
X29150000Y-34350000D01*
X29150000Y-34350000D02*
X29150000Y-29150000D01*
X39369000Y-60103000D02*
X39369000Y-64103000D01*
X36069000Y-60103000D02*
X39369000Y-60103000D01*
X33559000Y-68042000D02*
X33559000Y-66702000D01*
X32609000Y-68042000D02*
X33559000Y-68042000D01*
X32609000Y-68992000D02*
X32609000Y-68042000D01*
X32609000Y-78262000D02*
X33559000Y-78262000D01*
X32609000Y-77312000D02*
X32609000Y-78262000D01*
X42829000Y-68042000D02*
X41879000Y-68042000D01*
X42829000Y-68992000D02*
X42829000Y-68042000D01*
X42829000Y-78262000D02*
X41879000Y-78262000D01*
X42829000Y-77312000D02*
X42829000Y-78262000D01*
X38191000Y-49257000D02*
X44201000Y-49257000D01*
X40441000Y-42437000D02*
X44201000Y-42437000D01*
X44201000Y-49257000D02*
X44201000Y-47997000D01*
X44201000Y-42437000D02*
X44201000Y-43697000D01*
X27904000Y-49384000D02*
X33914000Y-49384000D01*
X30154000Y-42564000D02*
X33914000Y-42564000D01*
X33914000Y-49384000D02*
X33914000Y-48124000D01*
X33914000Y-42564000D02*
X33914000Y-43824000D01*
X28573000Y-64805779D02*
X28573000Y-64480221D01*
X29593000Y-64805779D02*
X29593000Y-64480221D01*
X32276000Y-66564000D02*
X29476000Y-66564000D01*
X29476000Y-66564000D02*
X29476000Y-68564000D01*
X29476000Y-68564000D02*
X32276000Y-68564000D01*
X32276000Y-68564000D02*
X32276000Y-66564000D01*
X43701000Y-62860000D02*
X43701000Y-62925000D01*
X47231000Y-62860000D02*
X47231000Y-62925000D01*
X43701000Y-53915000D02*
X43701000Y-53980000D01*
X47231000Y-53915000D02*
X47231000Y-53980000D01*
X48556000Y-53980000D02*
X47231000Y-53980000D01*
X47231000Y-62925000D02*
X43701000Y-62925000D01*
X47231000Y-53915000D02*
X43701000Y-53915000D01*
X40642000Y-64099221D02*
X40642000Y-64424779D01*
X39622000Y-64099221D02*
X39622000Y-64424779D01*
X50294000Y-56352221D02*
X50294000Y-56677779D01*
X49274000Y-56352221D02*
X49274000Y-56677779D01*
X33182779Y-81155000D02*
X32857221Y-81155000D01*
X33182779Y-80135000D02*
X32857221Y-80135000D01*
X44833000Y-78704221D02*
X44833000Y-79029779D01*
X43813000Y-78704221D02*
X43813000Y-79029779D01*
X44829000Y-69377779D02*
X44829000Y-69052221D01*
X45849000Y-69377779D02*
X45849000Y-69052221D01*
X30097000Y-64805779D02*
X30097000Y-64480221D01*
X31117000Y-64805779D02*
X31117000Y-64480221D01*
X35943000Y-81396721D02*
X35943000Y-81722279D01*
X34923000Y-81396721D02*
X34923000Y-81722279D01*
X37556221Y-64641000D02*
X37881779Y-64641000D01*
X37556221Y-65661000D02*
X37881779Y-65661000D01*
X43309000Y-79847221D02*
X43309000Y-80172779D01*
X42289000Y-79847221D02*
X42289000Y-80172779D01*
X37881779Y-59565000D02*
X37556221Y-59565000D01*
X37881779Y-58545000D02*
X37556221Y-58545000D01*
X45049221Y-63625000D02*
X45374779Y-63625000D01*
X45049221Y-64645000D02*
X45374779Y-64645000D01*
X46613578Y-51256000D02*
X46096422Y-51256000D01*
X46613578Y-49836000D02*
X46096422Y-49836000D01*
X33611078Y-51383000D02*
X33093922Y-51383000D01*
X33611078Y-49963000D02*
X33093922Y-49963000D01*
X38730422Y-26722000D02*
X39247578Y-26722000D01*
X38730422Y-28142000D02*
X39247578Y-28142000D01*
X30230578Y-28142000D02*
X29713422Y-28142000D01*
X30230578Y-26722000D02*
X29713422Y-26722000D01*
X42413422Y-26722000D02*
X42930578Y-26722000D01*
X42413422Y-28142000D02*
X42930578Y-28142000D01*
X37911000Y-124480000D02*
X34461000Y-124480000D01*
X37911000Y-124480000D02*
X39861000Y-124480000D01*
X37911000Y-119360000D02*
X35961000Y-119360000D01*
X37911000Y-119360000D02*
X39861000Y-119360000D01*
D10*
X35775000Y-115530000D02*
X34425000Y-115530000D01*
X35775000Y-110405000D02*
X40425000Y-110405000D01*
X35775000Y-115655000D02*
X40425000Y-115655000D01*
X35775000Y-110405000D02*
X35775000Y-110630000D01*
X40425000Y-110405000D02*
X40425000Y-110630000D01*
X40425000Y-115655000D02*
X40425000Y-115430000D01*
X35775000Y-115655000D02*
X35775000Y-115530000D01*
D11*
X45120779Y-124716000D02*
X44795221Y-124716000D01*
X45120779Y-123696000D02*
X44795221Y-123696000D01*
X30478000Y-126908779D02*
X30478000Y-126583221D01*
X31498000Y-126908779D02*
X31498000Y-126583221D01*
X42162000Y-122082779D02*
X42162000Y-121757221D01*
X43182000Y-122082779D02*
X43182000Y-121757221D01*
X32256000Y-123860779D02*
X32256000Y-123535221D01*
X33276000Y-123860779D02*
X33276000Y-123535221D01*
X46230000Y-121757221D02*
X46230000Y-122082779D01*
X45210000Y-121757221D02*
X45210000Y-122082779D01*
X29974000Y-123535221D02*
X29974000Y-123860779D01*
X28954000Y-123535221D02*
X28954000Y-123860779D01*
X47754000Y-121757221D02*
X47754000Y-122082779D01*
X46734000Y-121757221D02*
X46734000Y-122082779D01*
X28450000Y-123535221D02*
X28450000Y-123860779D01*
X27430000Y-123535221D02*
X27430000Y-123860779D01*
X42670000Y-115224779D02*
X42670000Y-114899221D01*
X43690000Y-115224779D02*
X43690000Y-114899221D01*
X32764000Y-114970779D02*
X32764000Y-114645221D01*
X33784000Y-114970779D02*
X33784000Y-114645221D01*
X43690000Y-111597221D02*
X43690000Y-111922779D01*
X42670000Y-111597221D02*
X42670000Y-111922779D01*
X32260000Y-111343221D02*
X32260000Y-111668779D01*
X31240000Y-111343221D02*
X31240000Y-111668779D01*
X47242000Y-115224779D02*
X47242000Y-114899221D01*
X48262000Y-115224779D02*
X48262000Y-114899221D01*
X29212000Y-114645221D02*
X29212000Y-114970779D01*
X28192000Y-114645221D02*
X28192000Y-114970779D01*
X48262000Y-111597221D02*
X48262000Y-111922779D01*
X47242000Y-111597221D02*
X47242000Y-111922779D01*
X46738000Y-114899221D02*
X46738000Y-115224779D01*
X45718000Y-114899221D02*
X45718000Y-115224779D01*
X30736000Y-114645221D02*
X30736000Y-114970779D01*
X29716000Y-114645221D02*
X29716000Y-114970779D01*
X45718000Y-111922779D02*
X45718000Y-111597221D01*
X46738000Y-111922779D02*
X46738000Y-111597221D01*
X29212000Y-111343221D02*
X29212000Y-111668779D01*
X28192000Y-111343221D02*
X28192000Y-111668779D01*
X29716000Y-111668779D02*
X29716000Y-111343221D01*
X30736000Y-111668779D02*
X30736000Y-111343221D01*
X37810221Y-124966000D02*
X38135779Y-124966000D01*
X37810221Y-125986000D02*
X38135779Y-125986000D01*
X43686000Y-122082779D02*
X43686000Y-121757221D01*
X44706000Y-122082779D02*
X44706000Y-121757221D01*
X30478000Y-123860779D02*
X30478000Y-123535221D01*
X31498000Y-123860779D02*
X31498000Y-123535221D01*
X42960500Y-101081500D02*
X43585500Y-101081500D01*
X43273000Y-100769000D02*
X43273000Y-101394000D01*
X46653563Y-101634000D02*
X47718000Y-102698437D01*
X43262437Y-101634000D02*
X42198000Y-102698437D01*
X43262437Y-101634000D02*
X43898000Y-101634000D01*
X46653563Y-101634000D02*
X46018000Y-101634000D01*
X47718000Y-102698437D02*
X47718000Y-107154000D01*
X42198000Y-102698437D02*
X42198000Y-107154000D01*
X42198000Y-107154000D02*
X43898000Y-107154000D01*
X47718000Y-107154000D02*
X46018000Y-107154000D01*
X28736500Y-101081500D02*
X29361500Y-101081500D01*
X29049000Y-100769000D02*
X29049000Y-101394000D01*
X32429563Y-101634000D02*
X33494000Y-102698437D01*
X29038437Y-101634000D02*
X27974000Y-102698437D01*
X29038437Y-101634000D02*
X29674000Y-101634000D01*
X32429563Y-101634000D02*
X31794000Y-101634000D01*
X33494000Y-102698437D02*
X33494000Y-107154000D01*
X27974000Y-102698437D02*
X27974000Y-107154000D01*
X27974000Y-107154000D02*
X29674000Y-107154000D01*
X33494000Y-107154000D02*
X31794000Y-107154000D01*
X44194000Y-115224779D02*
X44194000Y-114899221D01*
X45214000Y-115224779D02*
X45214000Y-114899221D01*
X31240000Y-114970779D02*
X31240000Y-114645221D01*
X32260000Y-114970779D02*
X32260000Y-114645221D01*
X45214000Y-111597221D02*
X45214000Y-111922779D01*
X44194000Y-111597221D02*
X44194000Y-111922779D01*
X33784000Y-111343221D02*
X33784000Y-111668779D01*
X32764000Y-111343221D02*
X32764000Y-111668779D01*
X38262779Y-106682000D02*
X37937221Y-106682000D01*
X38262779Y-105662000D02*
X37937221Y-105662000D01*
D10*
X47378857Y-119832380D02*
X47712190Y-119356190D01*
X47950285Y-119832380D02*
X47950285Y-118832380D01*
X47569333Y-118832380D01*
X47474095Y-118880000D01*
X47426476Y-118927619D01*
X47378857Y-119022857D01*
X47378857Y-119165714D01*
X47426476Y-119260952D01*
X47474095Y-119308571D01*
X47569333Y-119356190D01*
X47950285Y-119356190D01*
X47045523Y-118832380D02*
X46426476Y-118832380D01*
X46759809Y-119213333D01*
X46616952Y-119213333D01*
X46521714Y-119260952D01*
X46474095Y-119308571D01*
X46426476Y-119403809D01*
X46426476Y-119641904D01*
X46474095Y-119737142D01*
X46521714Y-119784761D01*
X46616952Y-119832380D01*
X46902666Y-119832380D01*
X46997904Y-119784761D01*
X47045523Y-119737142D01*
X46093142Y-118832380D02*
X45426476Y-118832380D01*
X45855047Y-119832380D01*
X41790857Y-116784380D02*
X42124190Y-116308190D01*
X42362285Y-116784380D02*
X42362285Y-115784380D01*
X41981333Y-115784380D01*
X41886095Y-115832000D01*
X41838476Y-115879619D01*
X41790857Y-115974857D01*
X41790857Y-116117714D01*
X41838476Y-116212952D01*
X41886095Y-116260571D01*
X41981333Y-116308190D01*
X42362285Y-116308190D01*
X41457523Y-115784380D02*
X40838476Y-115784380D01*
X41171809Y-116165333D01*
X41028952Y-116165333D01*
X40933714Y-116212952D01*
X40886095Y-116260571D01*
X40838476Y-116355809D01*
X40838476Y-116593904D01*
X40886095Y-116689142D01*
X40933714Y-116736761D01*
X41028952Y-116784380D01*
X41314666Y-116784380D01*
X41409904Y-116736761D01*
X41457523Y-116689142D01*
X39981333Y-115784380D02*
X40171809Y-115784380D01*
X40267047Y-115832000D01*
X40314666Y-115879619D01*
X40409904Y-116022476D01*
X40457523Y-116212952D01*
X40457523Y-116593904D01*
X40409904Y-116689142D01*
X40362285Y-116736761D01*
X40267047Y-116784380D01*
X40076571Y-116784380D01*
X39981333Y-116736761D01*
X39933714Y-116689142D01*
X39886095Y-116593904D01*
X39886095Y-116355809D01*
X39933714Y-116260571D01*
X39981333Y-116212952D01*
X40076571Y-116165333D01*
X40267047Y-116165333D01*
X40362285Y-116212952D01*
X40409904Y-116260571D01*
X40457523Y-116355809D01*
X26674380Y-118833095D02*
X27483904Y-118833095D01*
X27579142Y-118880714D01*
X27626761Y-118928333D01*
X27674380Y-119023571D01*
X27674380Y-119214047D01*
X27626761Y-119309285D01*
X27579142Y-119356904D01*
X27483904Y-119404523D01*
X26674380Y-119404523D01*
X26674380Y-119785476D02*
X26674380Y-120452142D01*
X27674380Y-120023571D01*
X32837380Y-120108642D02*
X32361190Y-119775309D01*
X32837380Y-119537214D02*
X31837380Y-119537214D01*
X31837380Y-119918166D01*
X31885000Y-120013404D01*
X31932619Y-120061023D01*
X32027857Y-120108642D01*
X32170714Y-120108642D01*
X32265952Y-120061023D01*
X32313571Y-120013404D01*
X32361190Y-119918166D01*
X32361190Y-119537214D01*
X31837380Y-120441976D02*
X31837380Y-121061023D01*
X32218333Y-120727690D01*
X32218333Y-120870547D01*
X32265952Y-120965785D01*
X32313571Y-121013404D01*
X32408809Y-121061023D01*
X32646904Y-121061023D01*
X32742142Y-121013404D01*
X32789761Y-120965785D01*
X32837380Y-120870547D01*
X32837380Y-120584833D01*
X32789761Y-120489595D01*
X32742142Y-120441976D01*
X31837380Y-121965785D02*
X31837380Y-121489595D01*
X32313571Y-121441976D01*
X32265952Y-121489595D01*
X32218333Y-121584833D01*
X32218333Y-121822928D01*
X32265952Y-121918166D01*
X32313571Y-121965785D01*
X32408809Y-122013404D01*
X32646904Y-122013404D01*
X32742142Y-121965785D01*
X32789761Y-121918166D01*
X32837380Y-121822928D01*
X32837380Y-121584833D01*
X32789761Y-121489595D01*
X32742142Y-121441976D01*
X27439857Y-117451142D02*
X27487476Y-117498761D01*
X27630333Y-117546380D01*
X27725571Y-117546380D01*
X27868428Y-117498761D01*
X27963666Y-117403523D01*
X28011285Y-117308285D01*
X28058904Y-117117809D01*
X28058904Y-116974952D01*
X28011285Y-116784476D01*
X27963666Y-116689238D01*
X27868428Y-116594000D01*
X27725571Y-116546380D01*
X27630333Y-116546380D01*
X27487476Y-116594000D01*
X27439857Y-116641619D01*
X27106523Y-116546380D02*
X26487476Y-116546380D01*
X26820809Y-116927333D01*
X26677952Y-116927333D01*
X26582714Y-116974952D01*
X26535095Y-117022571D01*
X26487476Y-117117809D01*
X26487476Y-117355904D01*
X26535095Y-117451142D01*
X26582714Y-117498761D01*
X26677952Y-117546380D01*
X26963666Y-117546380D01*
X27058904Y-117498761D01*
X27106523Y-117451142D01*
X26154142Y-116546380D02*
X25487476Y-116546380D01*
X25916047Y-117546380D01*
X40266857Y-81160880D02*
X40600190Y-80684690D01*
X40838285Y-81160880D02*
X40838285Y-80160880D01*
X40457333Y-80160880D01*
X40362095Y-80208500D01*
X40314476Y-80256119D01*
X40266857Y-80351357D01*
X40266857Y-80494214D01*
X40314476Y-80589452D01*
X40362095Y-80637071D01*
X40457333Y-80684690D01*
X40838285Y-80684690D01*
X39933523Y-80160880D02*
X39314476Y-80160880D01*
X39647809Y-80541833D01*
X39504952Y-80541833D01*
X39409714Y-80589452D01*
X39362095Y-80637071D01*
X39314476Y-80732309D01*
X39314476Y-80970404D01*
X39362095Y-81065642D01*
X39409714Y-81113261D01*
X39504952Y-81160880D01*
X39790666Y-81160880D01*
X39885904Y-81113261D01*
X39933523Y-81065642D01*
X38457333Y-80494214D02*
X38457333Y-81160880D01*
X38695428Y-80113261D02*
X38933523Y-80827547D01*
X38314476Y-80827547D01*
X50680880Y-87050642D02*
X50204690Y-86717309D01*
X50680880Y-86479214D02*
X49680880Y-86479214D01*
X49680880Y-86860166D01*
X49728500Y-86955404D01*
X49776119Y-87003023D01*
X49871357Y-87050642D01*
X50014214Y-87050642D01*
X50109452Y-87003023D01*
X50157071Y-86955404D01*
X50204690Y-86860166D01*
X50204690Y-86479214D01*
X49680880Y-87383976D02*
X49680880Y-88003023D01*
X50061833Y-87669690D01*
X50061833Y-87812547D01*
X50109452Y-87907785D01*
X50157071Y-87955404D01*
X50252309Y-88003023D01*
X50490404Y-88003023D01*
X50585642Y-87955404D01*
X50633261Y-87907785D01*
X50680880Y-87812547D01*
X50680880Y-87526833D01*
X50633261Y-87431595D01*
X50585642Y-87383976D01*
X49680880Y-88336357D02*
X49680880Y-88955404D01*
X50061833Y-88622071D01*
X50061833Y-88764928D01*
X50109452Y-88860166D01*
X50157071Y-88907785D01*
X50252309Y-88955404D01*
X50490404Y-88955404D01*
X50585642Y-88907785D01*
X50633261Y-88860166D01*
X50680880Y-88764928D01*
X50680880Y-88479214D01*
X50633261Y-88383976D01*
X50585642Y-88336357D01*
X50553880Y-84002642D02*
X50077690Y-83669309D01*
X50553880Y-83431214D02*
X49553880Y-83431214D01*
X49553880Y-83812166D01*
X49601500Y-83907404D01*
X49649119Y-83955023D01*
X49744357Y-84002642D01*
X49887214Y-84002642D01*
X49982452Y-83955023D01*
X50030071Y-83907404D01*
X50077690Y-83812166D01*
X50077690Y-83431214D01*
X49553880Y-84335976D02*
X49553880Y-84955023D01*
X49934833Y-84621690D01*
X49934833Y-84764547D01*
X49982452Y-84859785D01*
X50030071Y-84907404D01*
X50125309Y-84955023D01*
X50363404Y-84955023D01*
X50458642Y-84907404D01*
X50506261Y-84859785D01*
X50553880Y-84764547D01*
X50553880Y-84478833D01*
X50506261Y-84383595D01*
X50458642Y-84335976D01*
X49649119Y-85335976D02*
X49601500Y-85383595D01*
X49553880Y-85478833D01*
X49553880Y-85716928D01*
X49601500Y-85812166D01*
X49649119Y-85859785D01*
X49744357Y-85907404D01*
X49839595Y-85907404D01*
X49982452Y-85859785D01*
X50553880Y-85288357D01*
X50553880Y-85907404D01*
X50617380Y-80954642D02*
X50141190Y-80621309D01*
X50617380Y-80383214D02*
X49617380Y-80383214D01*
X49617380Y-80764166D01*
X49665000Y-80859404D01*
X49712619Y-80907023D01*
X49807857Y-80954642D01*
X49950714Y-80954642D01*
X50045952Y-80907023D01*
X50093571Y-80859404D01*
X50141190Y-80764166D01*
X50141190Y-80383214D01*
X49617380Y-81287976D02*
X49617380Y-81907023D01*
X49998333Y-81573690D01*
X49998333Y-81716547D01*
X50045952Y-81811785D01*
X50093571Y-81859404D01*
X50188809Y-81907023D01*
X50426904Y-81907023D01*
X50522142Y-81859404D01*
X50569761Y-81811785D01*
X50617380Y-81716547D01*
X50617380Y-81430833D01*
X50569761Y-81335595D01*
X50522142Y-81287976D01*
X50617380Y-82859404D02*
X50617380Y-82287976D01*
X50617380Y-82573690D02*
X49617380Y-82573690D01*
X49760238Y-82478452D01*
X49855476Y-82383214D01*
X49903095Y-82287976D01*
X50617380Y-78033642D02*
X50141190Y-77700309D01*
X50617380Y-77462214D02*
X49617380Y-77462214D01*
X49617380Y-77843166D01*
X49665000Y-77938404D01*
X49712619Y-77986023D01*
X49807857Y-78033642D01*
X49950714Y-78033642D01*
X50045952Y-77986023D01*
X50093571Y-77938404D01*
X50141190Y-77843166D01*
X50141190Y-77462214D01*
X49617380Y-78366976D02*
X49617380Y-78986023D01*
X49998333Y-78652690D01*
X49998333Y-78795547D01*
X50045952Y-78890785D01*
X50093571Y-78938404D01*
X50188809Y-78986023D01*
X50426904Y-78986023D01*
X50522142Y-78938404D01*
X50569761Y-78890785D01*
X50617380Y-78795547D01*
X50617380Y-78509833D01*
X50569761Y-78414595D01*
X50522142Y-78366976D01*
X49617380Y-79605071D02*
X49617380Y-79700309D01*
X49665000Y-79795547D01*
X49712619Y-79843166D01*
X49807857Y-79890785D01*
X49998333Y-79938404D01*
X50236428Y-79938404D01*
X50426904Y-79890785D01*
X50522142Y-79843166D01*
X50569761Y-79795547D01*
X50617380Y-79700309D01*
X50617380Y-79605071D01*
X50569761Y-79509833D01*
X50522142Y-79462214D01*
X50426904Y-79414595D01*
X50236428Y-79366976D01*
X49998333Y-79366976D01*
X49807857Y-79414595D01*
X49712619Y-79462214D01*
X49665000Y-79509833D01*
X49617380Y-79605071D01*
X26327380Y-78351142D02*
X25851190Y-78017809D01*
X26327380Y-77779714D02*
X25327380Y-77779714D01*
X25327380Y-78160666D01*
X25375000Y-78255904D01*
X25422619Y-78303523D01*
X25517857Y-78351142D01*
X25660714Y-78351142D01*
X25755952Y-78303523D01*
X25803571Y-78255904D01*
X25851190Y-78160666D01*
X25851190Y-77779714D01*
X25422619Y-78732095D02*
X25375000Y-78779714D01*
X25327380Y-78874952D01*
X25327380Y-79113047D01*
X25375000Y-79208285D01*
X25422619Y-79255904D01*
X25517857Y-79303523D01*
X25613095Y-79303523D01*
X25755952Y-79255904D01*
X26327380Y-78684476D01*
X26327380Y-79303523D01*
X26327380Y-79779714D02*
X26327380Y-79970190D01*
X26279761Y-80065428D01*
X26232142Y-80113047D01*
X26089285Y-80208285D01*
X25898809Y-80255904D01*
X25517857Y-80255904D01*
X25422619Y-80208285D01*
X25375000Y-80160666D01*
X25327380Y-80065428D01*
X25327380Y-79874952D01*
X25375000Y-79779714D01*
X25422619Y-79732095D01*
X25517857Y-79684476D01*
X25755952Y-79684476D01*
X25851190Y-79732095D01*
X25898809Y-79779714D01*
X25946428Y-79874952D01*
X25946428Y-80065428D01*
X25898809Y-80160666D01*
X25851190Y-80208285D01*
X25755952Y-80255904D01*
X26327380Y-75303142D02*
X25851190Y-74969809D01*
X26327380Y-74731714D02*
X25327380Y-74731714D01*
X25327380Y-75112666D01*
X25375000Y-75207904D01*
X25422619Y-75255523D01*
X25517857Y-75303142D01*
X25660714Y-75303142D01*
X25755952Y-75255523D01*
X25803571Y-75207904D01*
X25851190Y-75112666D01*
X25851190Y-74731714D01*
X25422619Y-75684095D02*
X25375000Y-75731714D01*
X25327380Y-75826952D01*
X25327380Y-76065047D01*
X25375000Y-76160285D01*
X25422619Y-76207904D01*
X25517857Y-76255523D01*
X25613095Y-76255523D01*
X25755952Y-76207904D01*
X26327380Y-75636476D01*
X26327380Y-76255523D01*
X25755952Y-76826952D02*
X25708333Y-76731714D01*
X25660714Y-76684095D01*
X25565476Y-76636476D01*
X25517857Y-76636476D01*
X25422619Y-76684095D01*
X25375000Y-76731714D01*
X25327380Y-76826952D01*
X25327380Y-77017428D01*
X25375000Y-77112666D01*
X25422619Y-77160285D01*
X25517857Y-77207904D01*
X25565476Y-77207904D01*
X25660714Y-77160285D01*
X25708333Y-77112666D01*
X25755952Y-77017428D01*
X25755952Y-76826952D01*
X25803571Y-76731714D01*
X25851190Y-76684095D01*
X25946428Y-76636476D01*
X26136904Y-76636476D01*
X26232142Y-76684095D01*
X26279761Y-76731714D01*
X26327380Y-76826952D01*
X26327380Y-77017428D01*
X26279761Y-77112666D01*
X26232142Y-77160285D01*
X26136904Y-77207904D01*
X25946428Y-77207904D01*
X25851190Y-77160285D01*
X25803571Y-77112666D01*
X25755952Y-77017428D01*
X26327380Y-72229642D02*
X25851190Y-71896309D01*
X26327380Y-71658214D02*
X25327380Y-71658214D01*
X25327380Y-72039166D01*
X25375000Y-72134404D01*
X25422619Y-72182023D01*
X25517857Y-72229642D01*
X25660714Y-72229642D01*
X25755952Y-72182023D01*
X25803571Y-72134404D01*
X25851190Y-72039166D01*
X25851190Y-71658214D01*
X25422619Y-72610595D02*
X25375000Y-72658214D01*
X25327380Y-72753452D01*
X25327380Y-72991547D01*
X25375000Y-73086785D01*
X25422619Y-73134404D01*
X25517857Y-73182023D01*
X25613095Y-73182023D01*
X25755952Y-73134404D01*
X26327380Y-72562976D01*
X26327380Y-73182023D01*
X25327380Y-73515357D02*
X25327380Y-74182023D01*
X26327380Y-73753452D01*
X26327380Y-69207142D02*
X25851190Y-68873809D01*
X26327380Y-68635714D02*
X25327380Y-68635714D01*
X25327380Y-69016666D01*
X25375000Y-69111904D01*
X25422619Y-69159523D01*
X25517857Y-69207142D01*
X25660714Y-69207142D01*
X25755952Y-69159523D01*
X25803571Y-69111904D01*
X25851190Y-69016666D01*
X25851190Y-68635714D01*
X25422619Y-69588095D02*
X25375000Y-69635714D01*
X25327380Y-69730952D01*
X25327380Y-69969047D01*
X25375000Y-70064285D01*
X25422619Y-70111904D01*
X25517857Y-70159523D01*
X25613095Y-70159523D01*
X25755952Y-70111904D01*
X26327380Y-69540476D01*
X26327380Y-70159523D01*
X25327380Y-71016666D02*
X25327380Y-70826190D01*
X25375000Y-70730952D01*
X25422619Y-70683333D01*
X25565476Y-70588095D01*
X25755952Y-70540476D01*
X26136904Y-70540476D01*
X26232142Y-70588095D01*
X26279761Y-70635714D01*
X26327380Y-70730952D01*
X26327380Y-70921428D01*
X26279761Y-71016666D01*
X26232142Y-71064285D01*
X26136904Y-71111904D01*
X25898809Y-71111904D01*
X25803571Y-71064285D01*
X25755952Y-71016666D01*
X25708333Y-70921428D01*
X25708333Y-70730952D01*
X25755952Y-70635714D01*
X25803571Y-70588095D01*
X25898809Y-70540476D01*
X39187380Y-95496142D02*
X38711190Y-95162809D01*
X39187380Y-94924714D02*
X38187380Y-94924714D01*
X38187380Y-95305666D01*
X38235000Y-95400904D01*
X38282619Y-95448523D01*
X38377857Y-95496142D01*
X38520714Y-95496142D01*
X38615952Y-95448523D01*
X38663571Y-95400904D01*
X38711190Y-95305666D01*
X38711190Y-94924714D01*
X38282619Y-95877095D02*
X38235000Y-95924714D01*
X38187380Y-96019952D01*
X38187380Y-96258047D01*
X38235000Y-96353285D01*
X38282619Y-96400904D01*
X38377857Y-96448523D01*
X38473095Y-96448523D01*
X38615952Y-96400904D01*
X39187380Y-95829476D01*
X39187380Y-96448523D01*
X38187380Y-97353285D02*
X38187380Y-96877095D01*
X38663571Y-96829476D01*
X38615952Y-96877095D01*
X38568333Y-96972333D01*
X38568333Y-97210428D01*
X38615952Y-97305666D01*
X38663571Y-97353285D01*
X38758809Y-97400904D01*
X38996904Y-97400904D01*
X39092142Y-97353285D01*
X39139761Y-97305666D01*
X39187380Y-97210428D01*
X39187380Y-96972333D01*
X39139761Y-96877095D01*
X39092142Y-96829476D01*
X37663380Y-95496142D02*
X37187190Y-95162809D01*
X37663380Y-94924714D02*
X36663380Y-94924714D01*
X36663380Y-95305666D01*
X36711000Y-95400904D01*
X36758619Y-95448523D01*
X36853857Y-95496142D01*
X36996714Y-95496142D01*
X37091952Y-95448523D01*
X37139571Y-95400904D01*
X37187190Y-95305666D01*
X37187190Y-94924714D01*
X36758619Y-95877095D02*
X36711000Y-95924714D01*
X36663380Y-96019952D01*
X36663380Y-96258047D01*
X36711000Y-96353285D01*
X36758619Y-96400904D01*
X36853857Y-96448523D01*
X36949095Y-96448523D01*
X37091952Y-96400904D01*
X37663380Y-95829476D01*
X37663380Y-96448523D01*
X36996714Y-97305666D02*
X37663380Y-97305666D01*
X36615761Y-97067571D02*
X37330047Y-96829476D01*
X37330047Y-97448523D01*
X40838380Y-101338142D02*
X40362190Y-101004809D01*
X40838380Y-100766714D02*
X39838380Y-100766714D01*
X39838380Y-101147666D01*
X39886000Y-101242904D01*
X39933619Y-101290523D01*
X40028857Y-101338142D01*
X40171714Y-101338142D01*
X40266952Y-101290523D01*
X40314571Y-101242904D01*
X40362190Y-101147666D01*
X40362190Y-100766714D01*
X39933619Y-101719095D02*
X39886000Y-101766714D01*
X39838380Y-101861952D01*
X39838380Y-102100047D01*
X39886000Y-102195285D01*
X39933619Y-102242904D01*
X40028857Y-102290523D01*
X40124095Y-102290523D01*
X40266952Y-102242904D01*
X40838380Y-101671476D01*
X40838380Y-102290523D01*
X39838380Y-102623857D02*
X39838380Y-103242904D01*
X40219333Y-102909571D01*
X40219333Y-103052428D01*
X40266952Y-103147666D01*
X40314571Y-103195285D01*
X40409809Y-103242904D01*
X40647904Y-103242904D01*
X40743142Y-103195285D01*
X40790761Y-103147666D01*
X40838380Y-103052428D01*
X40838380Y-102766714D01*
X40790761Y-102671476D01*
X40743142Y-102623857D01*
X34615380Y-101338142D02*
X34139190Y-101004809D01*
X34615380Y-100766714D02*
X33615380Y-100766714D01*
X33615380Y-101147666D01*
X33663000Y-101242904D01*
X33710619Y-101290523D01*
X33805857Y-101338142D01*
X33948714Y-101338142D01*
X34043952Y-101290523D01*
X34091571Y-101242904D01*
X34139190Y-101147666D01*
X34139190Y-100766714D01*
X33710619Y-101719095D02*
X33663000Y-101766714D01*
X33615380Y-101861952D01*
X33615380Y-102100047D01*
X33663000Y-102195285D01*
X33710619Y-102242904D01*
X33805857Y-102290523D01*
X33901095Y-102290523D01*
X34043952Y-102242904D01*
X34615380Y-101671476D01*
X34615380Y-102290523D01*
X33710619Y-102671476D02*
X33663000Y-102719095D01*
X33615380Y-102814333D01*
X33615380Y-103052428D01*
X33663000Y-103147666D01*
X33710619Y-103195285D01*
X33805857Y-103242904D01*
X33901095Y-103242904D01*
X34043952Y-103195285D01*
X34615380Y-102623857D01*
X34615380Y-103242904D01*
X41790857Y-95353142D02*
X41838476Y-95400761D01*
X41981333Y-95448380D01*
X42076571Y-95448380D01*
X42219428Y-95400761D01*
X42314666Y-95305523D01*
X42362285Y-95210285D01*
X42409904Y-95019809D01*
X42409904Y-94876952D01*
X42362285Y-94686476D01*
X42314666Y-94591238D01*
X42219428Y-94496000D01*
X42076571Y-94448380D01*
X41981333Y-94448380D01*
X41838476Y-94496000D01*
X41790857Y-94543619D01*
X41457523Y-94448380D02*
X40838476Y-94448380D01*
X41171809Y-94829333D01*
X41028952Y-94829333D01*
X40933714Y-94876952D01*
X40886095Y-94924571D01*
X40838476Y-95019809D01*
X40838476Y-95257904D01*
X40886095Y-95353142D01*
X40933714Y-95400761D01*
X41028952Y-95448380D01*
X41314666Y-95448380D01*
X41409904Y-95400761D01*
X41457523Y-95353142D01*
X39981333Y-94448380D02*
X40171809Y-94448380D01*
X40267047Y-94496000D01*
X40314666Y-94543619D01*
X40409904Y-94686476D01*
X40457523Y-94876952D01*
X40457523Y-95257904D01*
X40409904Y-95353142D01*
X40362285Y-95400761D01*
X40267047Y-95448380D01*
X40076571Y-95448380D01*
X39981333Y-95400761D01*
X39933714Y-95353142D01*
X39886095Y-95257904D01*
X39886095Y-95019809D01*
X39933714Y-94924571D01*
X39981333Y-94876952D01*
X40076571Y-94829333D01*
X40267047Y-94829333D01*
X40362285Y-94876952D01*
X40409904Y-94924571D01*
X40457523Y-95019809D01*
X35567857Y-95227142D02*
X35615476Y-95274761D01*
X35758333Y-95322380D01*
X35853571Y-95322380D01*
X35996428Y-95274761D01*
X36091666Y-95179523D01*
X36139285Y-95084285D01*
X36186904Y-94893809D01*
X36186904Y-94750952D01*
X36139285Y-94560476D01*
X36091666Y-94465238D01*
X35996428Y-94370000D01*
X35853571Y-94322380D01*
X35758333Y-94322380D01*
X35615476Y-94370000D01*
X35567857Y-94417619D01*
X35234523Y-94322380D02*
X34615476Y-94322380D01*
X34948809Y-94703333D01*
X34805952Y-94703333D01*
X34710714Y-94750952D01*
X34663095Y-94798571D01*
X34615476Y-94893809D01*
X34615476Y-95131904D01*
X34663095Y-95227142D01*
X34710714Y-95274761D01*
X34805952Y-95322380D01*
X35091666Y-95322380D01*
X35186904Y-95274761D01*
X35234523Y-95227142D01*
X33710714Y-94322380D02*
X34186904Y-94322380D01*
X34234523Y-94798571D01*
X34186904Y-94750952D01*
X34091666Y-94703333D01*
X33853571Y-94703333D01*
X33758333Y-94750952D01*
X33710714Y-94798571D01*
X33663095Y-94893809D01*
X33663095Y-95131904D01*
X33710714Y-95227142D01*
X33758333Y-95274761D01*
X33853571Y-95322380D01*
X34091666Y-95322380D01*
X34186904Y-95274761D01*
X34234523Y-95227142D01*
X42267142Y-101338142D02*
X42314761Y-101290523D01*
X42362380Y-101147666D01*
X42362380Y-101052428D01*
X42314761Y-100909571D01*
X42219523Y-100814333D01*
X42124285Y-100766714D01*
X41933809Y-100719095D01*
X41790952Y-100719095D01*
X41600476Y-100766714D01*
X41505238Y-100814333D01*
X41410000Y-100909571D01*
X41362380Y-101052428D01*
X41362380Y-101147666D01*
X41410000Y-101290523D01*
X41457619Y-101338142D01*
X41362380Y-101671476D02*
X41362380Y-102290523D01*
X41743333Y-101957190D01*
X41743333Y-102100047D01*
X41790952Y-102195285D01*
X41838571Y-102242904D01*
X41933809Y-102290523D01*
X42171904Y-102290523D01*
X42267142Y-102242904D01*
X42314761Y-102195285D01*
X42362380Y-102100047D01*
X42362380Y-101814333D01*
X42314761Y-101719095D01*
X42267142Y-101671476D01*
X41695714Y-103147666D02*
X42362380Y-103147666D01*
X41314761Y-102909571D02*
X42029047Y-102671476D01*
X42029047Y-103290523D01*
X36044142Y-101338142D02*
X36091761Y-101290523D01*
X36139380Y-101147666D01*
X36139380Y-101052428D01*
X36091761Y-100909571D01*
X35996523Y-100814333D01*
X35901285Y-100766714D01*
X35710809Y-100719095D01*
X35567952Y-100719095D01*
X35377476Y-100766714D01*
X35282238Y-100814333D01*
X35187000Y-100909571D01*
X35139380Y-101052428D01*
X35139380Y-101147666D01*
X35187000Y-101290523D01*
X35234619Y-101338142D01*
X35139380Y-101671476D02*
X35139380Y-102290523D01*
X35520333Y-101957190D01*
X35520333Y-102100047D01*
X35567952Y-102195285D01*
X35615571Y-102242904D01*
X35710809Y-102290523D01*
X35948904Y-102290523D01*
X36044142Y-102242904D01*
X36091761Y-102195285D01*
X36139380Y-102100047D01*
X36139380Y-101814333D01*
X36091761Y-101719095D01*
X36044142Y-101671476D01*
X35139380Y-102909571D02*
X35139380Y-103004809D01*
X35187000Y-103100047D01*
X35234619Y-103147666D01*
X35329857Y-103195285D01*
X35520333Y-103242904D01*
X35758428Y-103242904D01*
X35948904Y-103195285D01*
X36044142Y-103147666D01*
X36091761Y-103100047D01*
X36139380Y-103004809D01*
X36139380Y-102909571D01*
X36091761Y-102814333D01*
X36044142Y-102766714D01*
X35948904Y-102719095D01*
X35758428Y-102671476D01*
X35520333Y-102671476D01*
X35329857Y-102719095D01*
X35234619Y-102766714D01*
X35187000Y-102814333D01*
X35139380Y-102909571D01*
X38163404Y-88352380D02*
X38163404Y-89161904D01*
X38115785Y-89257142D01*
X38068166Y-89304761D01*
X37972928Y-89352380D01*
X37782452Y-89352380D01*
X37687214Y-89304761D01*
X37639595Y-89257142D01*
X37591976Y-89161904D01*
X37591976Y-88352380D01*
X36687214Y-88352380D02*
X36877690Y-88352380D01*
X36972928Y-88400000D01*
X37020547Y-88447619D01*
X37115785Y-88590476D01*
X37163404Y-88780952D01*
X37163404Y-89161904D01*
X37115785Y-89257142D01*
X37068166Y-89304761D01*
X36972928Y-89352380D01*
X36782452Y-89352380D01*
X36687214Y-89304761D01*
X36639595Y-89257142D01*
X36591976Y-89161904D01*
X36591976Y-88923809D01*
X36639595Y-88828571D01*
X36687214Y-88780952D01*
X36782452Y-88733333D01*
X36972928Y-88733333D01*
X37068166Y-88780952D01*
X37115785Y-88828571D01*
X37163404Y-88923809D01*
X50527857Y-90378642D02*
X50564142Y-90414928D01*
X50673000Y-90451214D01*
X50745571Y-90451214D01*
X50854428Y-90414928D01*
X50927000Y-90342357D01*
X50963285Y-90269785D01*
X50999571Y-90124642D01*
X50999571Y-90015785D01*
X50963285Y-89870642D01*
X50927000Y-89798071D01*
X50854428Y-89725500D01*
X50745571Y-89689214D01*
X50673000Y-89689214D01*
X50564142Y-89725500D01*
X50527857Y-89761785D01*
X50273857Y-89689214D02*
X49802142Y-89689214D01*
X50056142Y-89979500D01*
X49947285Y-89979500D01*
X49874714Y-90015785D01*
X49838428Y-90052071D01*
X49802142Y-90124642D01*
X49802142Y-90306071D01*
X49838428Y-90378642D01*
X49874714Y-90414928D01*
X49947285Y-90451214D01*
X50165000Y-90451214D01*
X50237571Y-90414928D01*
X50273857Y-90378642D01*
X49548142Y-89689214D02*
X49076428Y-89689214D01*
X49330428Y-89979500D01*
X49221571Y-89979500D01*
X49149000Y-90015785D01*
X49112714Y-90052071D01*
X49076428Y-90124642D01*
X49076428Y-90306071D01*
X49112714Y-90378642D01*
X49149000Y-90414928D01*
X49221571Y-90451214D01*
X49439285Y-90451214D01*
X49511857Y-90414928D01*
X49548142Y-90378642D01*
X50268142Y-91686142D02*
X50315761Y-91638523D01*
X50363380Y-91495666D01*
X50363380Y-91400428D01*
X50315761Y-91257571D01*
X50220523Y-91162333D01*
X50125285Y-91114714D01*
X49934809Y-91067095D01*
X49791952Y-91067095D01*
X49601476Y-91114714D01*
X49506238Y-91162333D01*
X49411000Y-91257571D01*
X49363380Y-91400428D01*
X49363380Y-91495666D01*
X49411000Y-91638523D01*
X49458619Y-91686142D01*
X49363380Y-92019476D02*
X49363380Y-92638523D01*
X49744333Y-92305190D01*
X49744333Y-92448047D01*
X49791952Y-92543285D01*
X49839571Y-92590904D01*
X49934809Y-92638523D01*
X50172904Y-92638523D01*
X50268142Y-92590904D01*
X50315761Y-92543285D01*
X50363380Y-92448047D01*
X50363380Y-92162333D01*
X50315761Y-92067095D01*
X50268142Y-92019476D01*
X49458619Y-93019476D02*
X49411000Y-93067095D01*
X49363380Y-93162333D01*
X49363380Y-93400428D01*
X49411000Y-93495666D01*
X49458619Y-93543285D01*
X49553857Y-93590904D01*
X49649095Y-93590904D01*
X49791952Y-93543285D01*
X50363380Y-92971857D01*
X50363380Y-93590904D01*
X39377857Y-93511642D02*
X39425476Y-93559261D01*
X39568333Y-93606880D01*
X39663571Y-93606880D01*
X39806428Y-93559261D01*
X39901666Y-93464023D01*
X39949285Y-93368785D01*
X39996904Y-93178309D01*
X39996904Y-93035452D01*
X39949285Y-92844976D01*
X39901666Y-92749738D01*
X39806428Y-92654500D01*
X39663571Y-92606880D01*
X39568333Y-92606880D01*
X39425476Y-92654500D01*
X39377857Y-92702119D01*
X39044523Y-92606880D02*
X38425476Y-92606880D01*
X38758809Y-92987833D01*
X38615952Y-92987833D01*
X38520714Y-93035452D01*
X38473095Y-93083071D01*
X38425476Y-93178309D01*
X38425476Y-93416404D01*
X38473095Y-93511642D01*
X38520714Y-93559261D01*
X38615952Y-93606880D01*
X38901666Y-93606880D01*
X38996904Y-93559261D01*
X39044523Y-93511642D01*
X37473095Y-93606880D02*
X38044523Y-93606880D01*
X37758809Y-93606880D02*
X37758809Y-92606880D01*
X37854047Y-92749738D01*
X37949285Y-92844976D01*
X38044523Y-92892595D01*
X45759642Y-88638142D02*
X45807261Y-88590523D01*
X45854880Y-88447666D01*
X45854880Y-88352428D01*
X45807261Y-88209571D01*
X45712023Y-88114333D01*
X45616785Y-88066714D01*
X45426309Y-88019095D01*
X45283452Y-88019095D01*
X45092976Y-88066714D01*
X44997738Y-88114333D01*
X44902500Y-88209571D01*
X44854880Y-88352428D01*
X44854880Y-88447666D01*
X44902500Y-88590523D01*
X44950119Y-88638142D01*
X44950119Y-89019095D02*
X44902500Y-89066714D01*
X44854880Y-89161952D01*
X44854880Y-89400047D01*
X44902500Y-89495285D01*
X44950119Y-89542904D01*
X45045357Y-89590523D01*
X45140595Y-89590523D01*
X45283452Y-89542904D01*
X45854880Y-88971476D01*
X45854880Y-89590523D01*
X45854880Y-90066714D02*
X45854880Y-90257190D01*
X45807261Y-90352428D01*
X45759642Y-90400047D01*
X45616785Y-90495285D01*
X45426309Y-90542904D01*
X45045357Y-90542904D01*
X44950119Y-90495285D01*
X44902500Y-90447666D01*
X44854880Y-90352428D01*
X44854880Y-90161952D01*
X44902500Y-90066714D01*
X44950119Y-90019095D01*
X45045357Y-89971476D01*
X45283452Y-89971476D01*
X45378690Y-90019095D01*
X45426309Y-90066714D01*
X45473928Y-90161952D01*
X45473928Y-90352428D01*
X45426309Y-90447666D01*
X45378690Y-90495285D01*
X45283452Y-90542904D01*
X45569142Y-82224642D02*
X45616761Y-82177023D01*
X45664380Y-82034166D01*
X45664380Y-81938928D01*
X45616761Y-81796071D01*
X45521523Y-81700833D01*
X45426285Y-81653214D01*
X45235809Y-81605595D01*
X45092952Y-81605595D01*
X44902476Y-81653214D01*
X44807238Y-81700833D01*
X44712000Y-81796071D01*
X44664380Y-81938928D01*
X44664380Y-82034166D01*
X44712000Y-82177023D01*
X44759619Y-82224642D01*
X44759619Y-82605595D02*
X44712000Y-82653214D01*
X44664380Y-82748452D01*
X44664380Y-82986547D01*
X44712000Y-83081785D01*
X44759619Y-83129404D01*
X44854857Y-83177023D01*
X44950095Y-83177023D01*
X45092952Y-83129404D01*
X45664380Y-82557976D01*
X45664380Y-83177023D01*
X45092952Y-83748452D02*
X45045333Y-83653214D01*
X44997714Y-83605595D01*
X44902476Y-83557976D01*
X44854857Y-83557976D01*
X44759619Y-83605595D01*
X44712000Y-83653214D01*
X44664380Y-83748452D01*
X44664380Y-83938928D01*
X44712000Y-84034166D01*
X44759619Y-84081785D01*
X44854857Y-84129404D01*
X44902476Y-84129404D01*
X44997714Y-84081785D01*
X45045333Y-84034166D01*
X45092952Y-83938928D01*
X45092952Y-83748452D01*
X45140571Y-83653214D01*
X45188190Y-83605595D01*
X45283428Y-83557976D01*
X45473904Y-83557976D01*
X45569142Y-83605595D01*
X45616761Y-83653214D01*
X45664380Y-83748452D01*
X45664380Y-83938928D01*
X45616761Y-84034166D01*
X45569142Y-84081785D01*
X45473904Y-84129404D01*
X45283428Y-84129404D01*
X45188190Y-84081785D01*
X45140571Y-84034166D01*
X45092952Y-83938928D01*
X45696142Y-91368642D02*
X45743761Y-91321023D01*
X45791380Y-91178166D01*
X45791380Y-91082928D01*
X45743761Y-90940071D01*
X45648523Y-90844833D01*
X45553285Y-90797214D01*
X45362809Y-90749595D01*
X45219952Y-90749595D01*
X45029476Y-90797214D01*
X44934238Y-90844833D01*
X44839000Y-90940071D01*
X44791380Y-91082928D01*
X44791380Y-91178166D01*
X44839000Y-91321023D01*
X44886619Y-91368642D01*
X44886619Y-91749595D02*
X44839000Y-91797214D01*
X44791380Y-91892452D01*
X44791380Y-92130547D01*
X44839000Y-92225785D01*
X44886619Y-92273404D01*
X44981857Y-92321023D01*
X45077095Y-92321023D01*
X45219952Y-92273404D01*
X45791380Y-91701976D01*
X45791380Y-92321023D01*
X44791380Y-92654357D02*
X44791380Y-93321023D01*
X45791380Y-92892452D01*
X49093333Y-35012380D02*
X49093333Y-35726666D01*
X49140952Y-35869523D01*
X49236190Y-35964761D01*
X49379047Y-36012380D01*
X49474285Y-36012380D01*
X48617142Y-36012380D02*
X48617142Y-35012380D01*
X48236190Y-35012380D01*
X48140952Y-35060000D01*
X48093333Y-35107619D01*
X48045714Y-35202857D01*
X48045714Y-35345714D01*
X48093333Y-35440952D01*
X48140952Y-35488571D01*
X48236190Y-35536190D01*
X48617142Y-35536190D01*
X47093333Y-36012380D02*
X47664761Y-36012380D01*
X47379047Y-36012380D02*
X47379047Y-35012380D01*
X47474285Y-35155238D01*
X47569523Y-35250476D01*
X47664761Y-35298095D01*
X35282190Y-59213809D02*
X35758380Y-59213809D01*
X34758380Y-58880476D02*
X35282190Y-59213809D01*
X34758380Y-59547142D01*
X35758380Y-60404285D02*
X35758380Y-59832857D01*
X35758380Y-60118571D02*
X34758380Y-60118571D01*
X34901238Y-60023333D01*
X34996476Y-59928095D01*
X35044095Y-59832857D01*
X32472380Y-66421095D02*
X33281904Y-66421095D01*
X33377142Y-66468714D01*
X33424761Y-66516333D01*
X33472380Y-66611571D01*
X33472380Y-66802047D01*
X33424761Y-66897285D01*
X33377142Y-66944904D01*
X33281904Y-66992523D01*
X32472380Y-66992523D01*
X32805714Y-67897285D02*
X33472380Y-67897285D01*
X32424761Y-67659190D02*
X33139047Y-67421095D01*
X33139047Y-68040142D01*
X39623904Y-49744380D02*
X39623904Y-50553904D01*
X39576285Y-50649142D01*
X39528666Y-50696761D01*
X39433428Y-50744380D01*
X39242952Y-50744380D01*
X39147714Y-50696761D01*
X39100095Y-50649142D01*
X39052476Y-50553904D01*
X39052476Y-49744380D01*
X38671523Y-49744380D02*
X38052476Y-49744380D01*
X38385809Y-50125333D01*
X38242952Y-50125333D01*
X38147714Y-50172952D01*
X38100095Y-50220571D01*
X38052476Y-50315809D01*
X38052476Y-50553904D01*
X38100095Y-50649142D01*
X38147714Y-50696761D01*
X38242952Y-50744380D01*
X38528666Y-50744380D01*
X38623904Y-50696761D01*
X38671523Y-50649142D01*
X30606904Y-49871380D02*
X30606904Y-50680904D01*
X30559285Y-50776142D01*
X30511666Y-50823761D01*
X30416428Y-50871380D01*
X30225952Y-50871380D01*
X30130714Y-50823761D01*
X30083095Y-50776142D01*
X30035476Y-50680904D01*
X30035476Y-49871380D01*
X29606904Y-49966619D02*
X29559285Y-49919000D01*
X29464047Y-49871380D01*
X29225952Y-49871380D01*
X29130714Y-49919000D01*
X29083095Y-49966619D01*
X29035476Y-50061857D01*
X29035476Y-50157095D01*
X29083095Y-50299952D01*
X29654523Y-50871380D01*
X29035476Y-50871380D01*
X29535380Y-61079142D02*
X29059190Y-60745809D01*
X29535380Y-60507714D02*
X28535380Y-60507714D01*
X28535380Y-60888666D01*
X28583000Y-60983904D01*
X28630619Y-61031523D01*
X28725857Y-61079142D01*
X28868714Y-61079142D01*
X28963952Y-61031523D01*
X29011571Y-60983904D01*
X29059190Y-60888666D01*
X29059190Y-60507714D01*
X29535380Y-62031523D02*
X29535380Y-61460095D01*
X29535380Y-61745809D02*
X28535380Y-61745809D01*
X28678238Y-61650571D01*
X28773476Y-61555333D01*
X28821095Y-61460095D01*
X28535380Y-62364857D02*
X28535380Y-62983904D01*
X28916333Y-62650571D01*
X28916333Y-62793428D01*
X28963952Y-62888666D01*
X29011571Y-62936285D01*
X29106809Y-62983904D01*
X29344904Y-62983904D01*
X29440142Y-62936285D01*
X29487761Y-62888666D01*
X29535380Y-62793428D01*
X29535380Y-62507714D01*
X29487761Y-62412476D01*
X29440142Y-62364857D01*
X30932333Y-65216380D02*
X30932333Y-65930666D01*
X30979952Y-66073523D01*
X31075190Y-66168761D01*
X31218047Y-66216380D01*
X31313285Y-66216380D01*
X30456142Y-66216380D02*
X30456142Y-65216380D01*
X30075190Y-65216380D01*
X29979952Y-65264000D01*
X29932333Y-65311619D01*
X29884714Y-65406857D01*
X29884714Y-65549714D01*
X29932333Y-65644952D01*
X29979952Y-65692571D01*
X30075190Y-65740190D01*
X30456142Y-65740190D01*
X29503761Y-65311619D02*
X29456142Y-65264000D01*
X29360904Y-65216380D01*
X29122809Y-65216380D01*
X29027571Y-65264000D01*
X28979952Y-65311619D01*
X28932333Y-65406857D01*
X28932333Y-65502095D01*
X28979952Y-65644952D01*
X29551380Y-66216380D01*
X28932333Y-66216380D01*
X45799333Y-52367380D02*
X45799333Y-53081666D01*
X45846952Y-53224523D01*
X45942190Y-53319761D01*
X46085047Y-53367380D01*
X46180285Y-53367380D01*
X44846952Y-52367380D02*
X45323142Y-52367380D01*
X45370761Y-52843571D01*
X45323142Y-52795952D01*
X45227904Y-52748333D01*
X44989809Y-52748333D01*
X44894571Y-52795952D01*
X44846952Y-52843571D01*
X44799333Y-52938809D01*
X44799333Y-53176904D01*
X44846952Y-53272142D01*
X44894571Y-53319761D01*
X44989809Y-53367380D01*
X45227904Y-53367380D01*
X45323142Y-53319761D01*
X45370761Y-53272142D01*
X40489142Y-60571142D02*
X40536761Y-60523523D01*
X40584380Y-60380666D01*
X40584380Y-60285428D01*
X40536761Y-60142571D01*
X40441523Y-60047333D01*
X40346285Y-59999714D01*
X40155809Y-59952095D01*
X40012952Y-59952095D01*
X39822476Y-59999714D01*
X39727238Y-60047333D01*
X39632000Y-60142571D01*
X39584380Y-60285428D01*
X39584380Y-60380666D01*
X39632000Y-60523523D01*
X39679619Y-60571142D01*
X39679619Y-60952095D02*
X39632000Y-60999714D01*
X39584380Y-61094952D01*
X39584380Y-61333047D01*
X39632000Y-61428285D01*
X39679619Y-61475904D01*
X39774857Y-61523523D01*
X39870095Y-61523523D01*
X40012952Y-61475904D01*
X40584380Y-60904476D01*
X40584380Y-61523523D01*
X39584380Y-62380666D02*
X39584380Y-62190190D01*
X39632000Y-62094952D01*
X39679619Y-62047333D01*
X39822476Y-61952095D01*
X40012952Y-61904476D01*
X40393904Y-61904476D01*
X40489142Y-61952095D01*
X40536761Y-61999714D01*
X40584380Y-62094952D01*
X40584380Y-62285428D01*
X40536761Y-62380666D01*
X40489142Y-62428285D01*
X40393904Y-62475904D01*
X40155809Y-62475904D01*
X40060571Y-62428285D01*
X40012952Y-62380666D01*
X39965333Y-62285428D01*
X39965333Y-62094952D01*
X40012952Y-61999714D01*
X40060571Y-61952095D01*
X40155809Y-61904476D01*
X50268142Y-58920142D02*
X50315761Y-58872523D01*
X50363380Y-58729666D01*
X50363380Y-58634428D01*
X50315761Y-58491571D01*
X50220523Y-58396333D01*
X50125285Y-58348714D01*
X49934809Y-58301095D01*
X49791952Y-58301095D01*
X49601476Y-58348714D01*
X49506238Y-58396333D01*
X49411000Y-58491571D01*
X49363380Y-58634428D01*
X49363380Y-58729666D01*
X49411000Y-58872523D01*
X49458619Y-58920142D01*
X49458619Y-59301095D02*
X49411000Y-59348714D01*
X49363380Y-59443952D01*
X49363380Y-59682047D01*
X49411000Y-59777285D01*
X49458619Y-59824904D01*
X49553857Y-59872523D01*
X49649095Y-59872523D01*
X49791952Y-59824904D01*
X50363380Y-59253476D01*
X50363380Y-59872523D01*
X49696714Y-60729666D02*
X50363380Y-60729666D01*
X49315761Y-60491571D02*
X50030047Y-60253476D01*
X50030047Y-60872523D01*
X33599357Y-82399142D02*
X33646976Y-82446761D01*
X33789833Y-82494380D01*
X33885071Y-82494380D01*
X34027928Y-82446761D01*
X34123166Y-82351523D01*
X34170785Y-82256285D01*
X34218404Y-82065809D01*
X34218404Y-81922952D01*
X34170785Y-81732476D01*
X34123166Y-81637238D01*
X34027928Y-81542000D01*
X33885071Y-81494380D01*
X33789833Y-81494380D01*
X33646976Y-81542000D01*
X33599357Y-81589619D01*
X33218404Y-81589619D02*
X33170785Y-81542000D01*
X33075547Y-81494380D01*
X32837452Y-81494380D01*
X32742214Y-81542000D01*
X32694595Y-81589619D01*
X32646976Y-81684857D01*
X32646976Y-81780095D01*
X32694595Y-81922952D01*
X33266023Y-82494380D01*
X32646976Y-82494380D01*
X32313642Y-81494380D02*
X31694595Y-81494380D01*
X32027928Y-81875333D01*
X31885071Y-81875333D01*
X31789833Y-81922952D01*
X31742214Y-81970571D01*
X31694595Y-82065809D01*
X31694595Y-82303904D01*
X31742214Y-82399142D01*
X31789833Y-82446761D01*
X31885071Y-82494380D01*
X32170785Y-82494380D01*
X32266023Y-82446761D01*
X32313642Y-82399142D01*
X46077142Y-78224142D02*
X46124761Y-78176523D01*
X46172380Y-78033666D01*
X46172380Y-77938428D01*
X46124761Y-77795571D01*
X46029523Y-77700333D01*
X45934285Y-77652714D01*
X45743809Y-77605095D01*
X45600952Y-77605095D01*
X45410476Y-77652714D01*
X45315238Y-77700333D01*
X45220000Y-77795571D01*
X45172380Y-77938428D01*
X45172380Y-78033666D01*
X45220000Y-78176523D01*
X45267619Y-78224142D01*
X45267619Y-78605095D02*
X45220000Y-78652714D01*
X45172380Y-78747952D01*
X45172380Y-78986047D01*
X45220000Y-79081285D01*
X45267619Y-79128904D01*
X45362857Y-79176523D01*
X45458095Y-79176523D01*
X45600952Y-79128904D01*
X46172380Y-78557476D01*
X46172380Y-79176523D01*
X45267619Y-79557476D02*
X45220000Y-79605095D01*
X45172380Y-79700333D01*
X45172380Y-79938428D01*
X45220000Y-80033666D01*
X45267619Y-80081285D01*
X45362857Y-80128904D01*
X45458095Y-80128904D01*
X45600952Y-80081285D01*
X46172380Y-79509857D01*
X46172380Y-80128904D01*
X45696142Y-65651142D02*
X45743761Y-65603523D01*
X45791380Y-65460666D01*
X45791380Y-65365428D01*
X45743761Y-65222571D01*
X45648523Y-65127333D01*
X45553285Y-65079714D01*
X45362809Y-65032095D01*
X45219952Y-65032095D01*
X45029476Y-65079714D01*
X44934238Y-65127333D01*
X44839000Y-65222571D01*
X44791380Y-65365428D01*
X44791380Y-65460666D01*
X44839000Y-65603523D01*
X44886619Y-65651142D01*
X45791380Y-66603523D02*
X45791380Y-66032095D01*
X45791380Y-66317809D02*
X44791380Y-66317809D01*
X44934238Y-66222571D01*
X45029476Y-66127333D01*
X45077095Y-66032095D01*
X45791380Y-67079714D02*
X45791380Y-67270190D01*
X45743761Y-67365428D01*
X45696142Y-67413047D01*
X45553285Y-67508285D01*
X45362809Y-67555904D01*
X44981857Y-67555904D01*
X44886619Y-67508285D01*
X44839000Y-67460666D01*
X44791380Y-67365428D01*
X44791380Y-67174952D01*
X44839000Y-67079714D01*
X44886619Y-67032095D01*
X44981857Y-66984476D01*
X45219952Y-66984476D01*
X45315190Y-67032095D01*
X45362809Y-67079714D01*
X45410428Y-67174952D01*
X45410428Y-67365428D01*
X45362809Y-67460666D01*
X45315190Y-67508285D01*
X45219952Y-67555904D01*
X30964142Y-61079142D02*
X31011761Y-61031523D01*
X31059380Y-60888666D01*
X31059380Y-60793428D01*
X31011761Y-60650571D01*
X30916523Y-60555333D01*
X30821285Y-60507714D01*
X30630809Y-60460095D01*
X30487952Y-60460095D01*
X30297476Y-60507714D01*
X30202238Y-60555333D01*
X30107000Y-60650571D01*
X30059380Y-60793428D01*
X30059380Y-60888666D01*
X30107000Y-61031523D01*
X30154619Y-61079142D01*
X31059380Y-62031523D02*
X31059380Y-61460095D01*
X31059380Y-61745809D02*
X30059380Y-61745809D01*
X30202238Y-61650571D01*
X30297476Y-61555333D01*
X30345095Y-61460095D01*
X30487952Y-62602952D02*
X30440333Y-62507714D01*
X30392714Y-62460095D01*
X30297476Y-62412476D01*
X30249857Y-62412476D01*
X30154619Y-62460095D01*
X30107000Y-62507714D01*
X30059380Y-62602952D01*
X30059380Y-62793428D01*
X30107000Y-62888666D01*
X30154619Y-62936285D01*
X30249857Y-62983904D01*
X30297476Y-62983904D01*
X30392714Y-62936285D01*
X30440333Y-62888666D01*
X30487952Y-62793428D01*
X30487952Y-62602952D01*
X30535571Y-62507714D01*
X30583190Y-62460095D01*
X30678428Y-62412476D01*
X30868904Y-62412476D01*
X30964142Y-62460095D01*
X31011761Y-62507714D01*
X31059380Y-62602952D01*
X31059380Y-62793428D01*
X31011761Y-62888666D01*
X30964142Y-62936285D01*
X30868904Y-62983904D01*
X30678428Y-62983904D01*
X30583190Y-62936285D01*
X30535571Y-62888666D01*
X30487952Y-62793428D01*
X37187142Y-81018142D02*
X37234761Y-80970523D01*
X37282380Y-80827666D01*
X37282380Y-80732428D01*
X37234761Y-80589571D01*
X37139523Y-80494333D01*
X37044285Y-80446714D01*
X36853809Y-80399095D01*
X36710952Y-80399095D01*
X36520476Y-80446714D01*
X36425238Y-80494333D01*
X36330000Y-80589571D01*
X36282380Y-80732428D01*
X36282380Y-80827666D01*
X36330000Y-80970523D01*
X36377619Y-81018142D01*
X37282380Y-81970523D02*
X37282380Y-81399095D01*
X37282380Y-81684809D02*
X36282380Y-81684809D01*
X36425238Y-81589571D01*
X36520476Y-81494333D01*
X36568095Y-81399095D01*
X36282380Y-82875285D02*
X36282380Y-82399095D01*
X36758571Y-82351476D01*
X36710952Y-82399095D01*
X36663333Y-82494333D01*
X36663333Y-82732428D01*
X36710952Y-82827666D01*
X36758571Y-82875285D01*
X36853809Y-82922904D01*
X37091904Y-82922904D01*
X37187142Y-82875285D01*
X37234761Y-82827666D01*
X37282380Y-82732428D01*
X37282380Y-82494333D01*
X37234761Y-82399095D01*
X37187142Y-82351476D01*
X43314857Y-65762142D02*
X43362476Y-65809761D01*
X43505333Y-65857380D01*
X43600571Y-65857380D01*
X43743428Y-65809761D01*
X43838666Y-65714523D01*
X43886285Y-65619285D01*
X43933904Y-65428809D01*
X43933904Y-65285952D01*
X43886285Y-65095476D01*
X43838666Y-65000238D01*
X43743428Y-64905000D01*
X43600571Y-64857380D01*
X43505333Y-64857380D01*
X43362476Y-64905000D01*
X43314857Y-64952619D01*
X42362476Y-65857380D02*
X42933904Y-65857380D01*
X42648190Y-65857380D02*
X42648190Y-64857380D01*
X42743428Y-65000238D01*
X42838666Y-65095476D01*
X42933904Y-65143095D01*
X41505333Y-65190714D02*
X41505333Y-65857380D01*
X41743428Y-64809761D02*
X41981523Y-65524047D01*
X41362476Y-65524047D01*
X45537357Y-81383142D02*
X45584976Y-81430761D01*
X45727833Y-81478380D01*
X45823071Y-81478380D01*
X45965928Y-81430761D01*
X46061166Y-81335523D01*
X46108785Y-81240285D01*
X46156404Y-81049809D01*
X46156404Y-80906952D01*
X46108785Y-80716476D01*
X46061166Y-80621238D01*
X45965928Y-80526000D01*
X45823071Y-80478380D01*
X45727833Y-80478380D01*
X45584976Y-80526000D01*
X45537357Y-80573619D01*
X44584976Y-81478380D02*
X45156404Y-81478380D01*
X44870690Y-81478380D02*
X44870690Y-80478380D01*
X44965928Y-80621238D01*
X45061166Y-80716476D01*
X45156404Y-80764095D01*
X44251642Y-80478380D02*
X43632595Y-80478380D01*
X43965928Y-80859333D01*
X43823071Y-80859333D01*
X43727833Y-80906952D01*
X43680214Y-80954571D01*
X43632595Y-81049809D01*
X43632595Y-81287904D01*
X43680214Y-81383142D01*
X43727833Y-81430761D01*
X43823071Y-81478380D01*
X44108785Y-81478380D01*
X44204023Y-81430761D01*
X44251642Y-81383142D01*
X38361857Y-57982142D02*
X38409476Y-58029761D01*
X38552333Y-58077380D01*
X38647571Y-58077380D01*
X38790428Y-58029761D01*
X38885666Y-57934523D01*
X38933285Y-57839285D01*
X38980904Y-57648809D01*
X38980904Y-57505952D01*
X38933285Y-57315476D01*
X38885666Y-57220238D01*
X38790428Y-57125000D01*
X38647571Y-57077380D01*
X38552333Y-57077380D01*
X38409476Y-57125000D01*
X38361857Y-57172619D01*
X37409476Y-58077380D02*
X37980904Y-58077380D01*
X37695190Y-58077380D02*
X37695190Y-57077380D01*
X37790428Y-57220238D01*
X37885666Y-57315476D01*
X37980904Y-57363095D01*
X37028523Y-57172619D02*
X36980904Y-57125000D01*
X36885666Y-57077380D01*
X36647571Y-57077380D01*
X36552333Y-57125000D01*
X36504714Y-57172619D01*
X36457095Y-57267857D01*
X36457095Y-57363095D01*
X36504714Y-57505952D01*
X37076142Y-58077380D01*
X36457095Y-58077380D01*
X48902857Y-64492142D02*
X48950476Y-64539761D01*
X49093333Y-64587380D01*
X49188571Y-64587380D01*
X49331428Y-64539761D01*
X49426666Y-64444523D01*
X49474285Y-64349285D01*
X49521904Y-64158809D01*
X49521904Y-64015952D01*
X49474285Y-63825476D01*
X49426666Y-63730238D01*
X49331428Y-63635000D01*
X49188571Y-63587380D01*
X49093333Y-63587380D01*
X48950476Y-63635000D01*
X48902857Y-63682619D01*
X47950476Y-64587380D02*
X48521904Y-64587380D01*
X48236190Y-64587380D02*
X48236190Y-63587380D01*
X48331428Y-63730238D01*
X48426666Y-63825476D01*
X48521904Y-63873095D01*
X46998095Y-64587380D02*
X47569523Y-64587380D01*
X47283809Y-64587380D02*
X47283809Y-63587380D01*
X47379047Y-63730238D01*
X47474285Y-63825476D01*
X47569523Y-63873095D01*
X50045857Y-51093642D02*
X50093476Y-51141261D01*
X50236333Y-51188880D01*
X50331571Y-51188880D01*
X50474428Y-51141261D01*
X50569666Y-51046023D01*
X50617285Y-50950785D01*
X50664904Y-50760309D01*
X50664904Y-50617452D01*
X50617285Y-50426976D01*
X50569666Y-50331738D01*
X50474428Y-50236500D01*
X50331571Y-50188880D01*
X50236333Y-50188880D01*
X50093476Y-50236500D01*
X50045857Y-50284119D01*
X49093476Y-51188880D02*
X49664904Y-51188880D01*
X49379190Y-51188880D02*
X49379190Y-50188880D01*
X49474428Y-50331738D01*
X49569666Y-50426976D01*
X49664904Y-50474595D01*
X48474428Y-50188880D02*
X48379190Y-50188880D01*
X48283952Y-50236500D01*
X48236333Y-50284119D01*
X48188714Y-50379357D01*
X48141095Y-50569833D01*
X48141095Y-50807928D01*
X48188714Y-50998404D01*
X48236333Y-51093642D01*
X48283952Y-51141261D01*
X48379190Y-51188880D01*
X48474428Y-51188880D01*
X48569666Y-51141261D01*
X48617285Y-51093642D01*
X48664904Y-50998404D01*
X48712523Y-50807928D01*
X48712523Y-50569833D01*
X48664904Y-50379357D01*
X48617285Y-50284119D01*
X48569666Y-50236500D01*
X48474428Y-50188880D01*
X33567666Y-52808142D02*
X33615285Y-52855761D01*
X33758142Y-52903380D01*
X33853380Y-52903380D01*
X33996238Y-52855761D01*
X34091476Y-52760523D01*
X34139095Y-52665285D01*
X34186714Y-52474809D01*
X34186714Y-52331952D01*
X34139095Y-52141476D01*
X34091476Y-52046238D01*
X33996238Y-51951000D01*
X33853380Y-51903380D01*
X33758142Y-51903380D01*
X33615285Y-51951000D01*
X33567666Y-51998619D01*
X33091476Y-52903380D02*
X32901000Y-52903380D01*
X32805761Y-52855761D01*
X32758142Y-52808142D01*
X32662904Y-52665285D01*
X32615285Y-52474809D01*
X32615285Y-52093857D01*
X32662904Y-51998619D01*
X32710523Y-51951000D01*
X32805761Y-51903380D01*
X32996238Y-51903380D01*
X33091476Y-51951000D01*
X33139095Y-51998619D01*
X33186714Y-52093857D01*
X33186714Y-52331952D01*
X33139095Y-52427190D01*
X33091476Y-52474809D01*
X32996238Y-52522428D01*
X32805761Y-52522428D01*
X32710523Y-52474809D01*
X32662904Y-52427190D01*
X32615285Y-52331952D01*
X36742666Y-28424142D02*
X36790285Y-28471761D01*
X36933142Y-28519380D01*
X37028380Y-28519380D01*
X37171238Y-28471761D01*
X37266476Y-28376523D01*
X37314095Y-28281285D01*
X37361714Y-28090809D01*
X37361714Y-27947952D01*
X37314095Y-27757476D01*
X37266476Y-27662238D01*
X37171238Y-27567000D01*
X37028380Y-27519380D01*
X36933142Y-27519380D01*
X36790285Y-27567000D01*
X36742666Y-27614619D01*
X35885523Y-27852714D02*
X35885523Y-28519380D01*
X36123619Y-27471761D02*
X36361714Y-28186047D01*
X35742666Y-28186047D01*
X27344666Y-27535142D02*
X27392285Y-27582761D01*
X27535142Y-27630380D01*
X27630380Y-27630380D01*
X27773238Y-27582761D01*
X27868476Y-27487523D01*
X27916095Y-27392285D01*
X27963714Y-27201809D01*
X27963714Y-27058952D01*
X27916095Y-26868476D01*
X27868476Y-26773238D01*
X27773238Y-26678000D01*
X27630380Y-26630380D01*
X27535142Y-26630380D01*
X27392285Y-26678000D01*
X27344666Y-26725619D01*
X27011333Y-26630380D02*
X26392285Y-26630380D01*
X26725619Y-27011333D01*
X26582761Y-27011333D01*
X26487523Y-27058952D01*
X26439904Y-27106571D01*
X26392285Y-27201809D01*
X26392285Y-27439904D01*
X26439904Y-27535142D01*
X26487523Y-27582761D01*
X26582761Y-27630380D01*
X26868476Y-27630380D01*
X26963714Y-27582761D01*
X27011333Y-27535142D01*
X45759666Y-27789142D02*
X45807285Y-27836761D01*
X45950142Y-27884380D01*
X46045380Y-27884380D01*
X46188238Y-27836761D01*
X46283476Y-27741523D01*
X46331095Y-27646285D01*
X46378714Y-27455809D01*
X46378714Y-27312952D01*
X46331095Y-27122476D01*
X46283476Y-27027238D01*
X46188238Y-26932000D01*
X46045380Y-26884380D01*
X45950142Y-26884380D01*
X45807285Y-26932000D01*
X45759666Y-26979619D01*
X45378714Y-26979619D02*
X45331095Y-26932000D01*
X45235857Y-26884380D01*
X44997761Y-26884380D01*
X44902523Y-26932000D01*
X44854904Y-26979619D01*
X44807285Y-27074857D01*
X44807285Y-27170095D01*
X44854904Y-27312952D01*
X45426333Y-27884380D01*
X44807285Y-27884380D01*
X36194904Y-124674380D02*
X36194904Y-125483904D01*
X36147285Y-125579142D01*
X36099666Y-125626761D01*
X36004428Y-125674380D01*
X35813952Y-125674380D01*
X35718714Y-125626761D01*
X35671095Y-125579142D01*
X35623476Y-125483904D01*
X35623476Y-124674380D01*
X34671095Y-124674380D02*
X35147285Y-124674380D01*
X35194904Y-125150571D01*
X35147285Y-125102952D01*
X35052047Y-125055333D01*
X34813952Y-125055333D01*
X34718714Y-125102952D01*
X34671095Y-125150571D01*
X34623476Y-125245809D01*
X34623476Y-125483904D01*
X34671095Y-125579142D01*
X34718714Y-125626761D01*
X34813952Y-125674380D01*
X35052047Y-125674380D01*
X35147285Y-125626761D01*
X35194904Y-125579142D01*
X37909404Y-115911380D02*
X37909404Y-116720904D01*
X37861785Y-116816142D01*
X37814166Y-116863761D01*
X37718928Y-116911380D01*
X37528452Y-116911380D01*
X37433214Y-116863761D01*
X37385595Y-116816142D01*
X37337976Y-116720904D01*
X37337976Y-115911380D01*
X36337976Y-116911380D02*
X36909404Y-116911380D01*
X36623690Y-116911380D02*
X36623690Y-115911380D01*
X36718928Y-116054238D01*
X36814166Y-116149476D01*
X36909404Y-116197095D01*
X45473857Y-128976380D02*
X45807190Y-128500190D01*
X46045285Y-128976380D02*
X46045285Y-127976380D01*
X45664333Y-127976380D01*
X45569095Y-128024000D01*
X45521476Y-128071619D01*
X45473857Y-128166857D01*
X45473857Y-128309714D01*
X45521476Y-128404952D01*
X45569095Y-128452571D01*
X45664333Y-128500190D01*
X46045285Y-128500190D01*
X45092904Y-128071619D02*
X45045285Y-128024000D01*
X44950047Y-127976380D01*
X44711952Y-127976380D01*
X44616714Y-128024000D01*
X44569095Y-128071619D01*
X44521476Y-128166857D01*
X44521476Y-128262095D01*
X44569095Y-128404952D01*
X45140523Y-128976380D01*
X44521476Y-128976380D01*
X43569095Y-128976380D02*
X44140523Y-128976380D01*
X43854809Y-128976380D02*
X43854809Y-127976380D01*
X43950047Y-128119238D01*
X44045285Y-128214476D01*
X44140523Y-128262095D01*
X31440380Y-129024142D02*
X30964190Y-128690809D01*
X31440380Y-128452714D02*
X30440380Y-128452714D01*
X30440380Y-128833666D01*
X30488000Y-128928904D01*
X30535619Y-128976523D01*
X30630857Y-129024142D01*
X30773714Y-129024142D01*
X30868952Y-128976523D01*
X30916571Y-128928904D01*
X30964190Y-128833666D01*
X30964190Y-128452714D01*
X30535619Y-129405095D02*
X30488000Y-129452714D01*
X30440380Y-129547952D01*
X30440380Y-129786047D01*
X30488000Y-129881285D01*
X30535619Y-129928904D01*
X30630857Y-129976523D01*
X30726095Y-129976523D01*
X30868952Y-129928904D01*
X31440380Y-129357476D01*
X31440380Y-129976523D01*
X30440380Y-130595571D02*
X30440380Y-130690809D01*
X30488000Y-130786047D01*
X30535619Y-130833666D01*
X30630857Y-130881285D01*
X30821333Y-130928904D01*
X31059428Y-130928904D01*
X31249904Y-130881285D01*
X31345142Y-130833666D01*
X31392761Y-130786047D01*
X31440380Y-130690809D01*
X31440380Y-130595571D01*
X31392761Y-130500333D01*
X31345142Y-130452714D01*
X31249904Y-130405095D01*
X31059428Y-130357476D01*
X30821333Y-130357476D01*
X30630857Y-130405095D01*
X30535619Y-130452714D01*
X30488000Y-130500333D01*
X30440380Y-130595571D01*
X42219619Y-125483857D02*
X42695809Y-125817190D01*
X42219619Y-126055285D02*
X43219619Y-126055285D01*
X43219619Y-125674333D01*
X43172000Y-125579095D01*
X43124380Y-125531476D01*
X43029142Y-125483857D01*
X42886285Y-125483857D01*
X42791047Y-125531476D01*
X42743428Y-125579095D01*
X42695809Y-125674333D01*
X42695809Y-126055285D01*
X42219619Y-124531476D02*
X42219619Y-125102904D01*
X42219619Y-124817190D02*
X43219619Y-124817190D01*
X43076761Y-124912428D01*
X42981523Y-125007666D01*
X42933904Y-125102904D01*
X42219619Y-124055285D02*
X42219619Y-123864809D01*
X42267238Y-123769571D01*
X42314857Y-123721952D01*
X42457714Y-123626714D01*
X42648190Y-123579095D01*
X43029142Y-123579095D01*
X43124380Y-123626714D01*
X43172000Y-123674333D01*
X43219619Y-123769571D01*
X43219619Y-123960047D01*
X43172000Y-124055285D01*
X43124380Y-124102904D01*
X43029142Y-124150523D01*
X42791047Y-124150523D01*
X42695809Y-124102904D01*
X42648190Y-124055285D01*
X42600571Y-123960047D01*
X42600571Y-123769571D01*
X42648190Y-123674333D01*
X42695809Y-123626714D01*
X42791047Y-123579095D01*
X32186619Y-127261857D02*
X32662809Y-127595190D01*
X32186619Y-127833285D02*
X33186619Y-127833285D01*
X33186619Y-127452333D01*
X33139000Y-127357095D01*
X33091380Y-127309476D01*
X32996142Y-127261857D01*
X32853285Y-127261857D01*
X32758047Y-127309476D01*
X32710428Y-127357095D01*
X32662809Y-127452333D01*
X32662809Y-127833285D01*
X32186619Y-126309476D02*
X32186619Y-126880904D01*
X32186619Y-126595190D02*
X33186619Y-126595190D01*
X33043761Y-126690428D01*
X32948523Y-126785666D01*
X32900904Y-126880904D01*
X32758047Y-125738047D02*
X32805666Y-125833285D01*
X32853285Y-125880904D01*
X32948523Y-125928523D01*
X32996142Y-125928523D01*
X33091380Y-125880904D01*
X33139000Y-125833285D01*
X33186619Y-125738047D01*
X33186619Y-125547571D01*
X33139000Y-125452333D01*
X33091380Y-125404714D01*
X32996142Y-125357095D01*
X32948523Y-125357095D01*
X32853285Y-125404714D01*
X32805666Y-125452333D01*
X32758047Y-125547571D01*
X32758047Y-125738047D01*
X32710428Y-125833285D01*
X32662809Y-125880904D01*
X32567571Y-125928523D01*
X32377095Y-125928523D01*
X32281857Y-125880904D01*
X32234238Y-125833285D01*
X32186619Y-125738047D01*
X32186619Y-125547571D01*
X32234238Y-125452333D01*
X32281857Y-125404714D01*
X32377095Y-125357095D01*
X32567571Y-125357095D01*
X32662809Y-125404714D01*
X32710428Y-125452333D01*
X32758047Y-125547571D01*
X46172380Y-125722142D02*
X45696190Y-125388809D01*
X46172380Y-125150714D02*
X45172380Y-125150714D01*
X45172380Y-125531666D01*
X45220000Y-125626904D01*
X45267619Y-125674523D01*
X45362857Y-125722142D01*
X45505714Y-125722142D01*
X45600952Y-125674523D01*
X45648571Y-125626904D01*
X45696190Y-125531666D01*
X45696190Y-125150714D01*
X46172380Y-126674523D02*
X46172380Y-126103095D01*
X46172380Y-126388809D02*
X45172380Y-126388809D01*
X45315238Y-126293571D01*
X45410476Y-126198333D01*
X45458095Y-126103095D01*
X45172380Y-127007857D02*
X45172380Y-127674523D01*
X46172380Y-127245952D01*
X29916380Y-125976142D02*
X29440190Y-125642809D01*
X29916380Y-125404714D02*
X28916380Y-125404714D01*
X28916380Y-125785666D01*
X28964000Y-125880904D01*
X29011619Y-125928523D01*
X29106857Y-125976142D01*
X29249714Y-125976142D01*
X29344952Y-125928523D01*
X29392571Y-125880904D01*
X29440190Y-125785666D01*
X29440190Y-125404714D01*
X29916380Y-126928523D02*
X29916380Y-126357095D01*
X29916380Y-126642809D02*
X28916380Y-126642809D01*
X29059238Y-126547571D01*
X29154476Y-126452333D01*
X29202095Y-126357095D01*
X28916380Y-127785666D02*
X28916380Y-127595190D01*
X28964000Y-127499952D01*
X29011619Y-127452333D01*
X29154476Y-127357095D01*
X29344952Y-127309476D01*
X29725904Y-127309476D01*
X29821142Y-127357095D01*
X29868761Y-127404714D01*
X29916380Y-127499952D01*
X29916380Y-127690428D01*
X29868761Y-127785666D01*
X29821142Y-127833285D01*
X29725904Y-127880904D01*
X29487809Y-127880904D01*
X29392571Y-127833285D01*
X29344952Y-127785666D01*
X29297333Y-127690428D01*
X29297333Y-127499952D01*
X29344952Y-127404714D01*
X29392571Y-127357095D01*
X29487809Y-127309476D01*
X47823380Y-124198142D02*
X47347190Y-123864809D01*
X47823380Y-123626714D02*
X46823380Y-123626714D01*
X46823380Y-124007666D01*
X46871000Y-124102904D01*
X46918619Y-124150523D01*
X47013857Y-124198142D01*
X47156714Y-124198142D01*
X47251952Y-124150523D01*
X47299571Y-124102904D01*
X47347190Y-124007666D01*
X47347190Y-123626714D01*
X47823380Y-125150523D02*
X47823380Y-124579095D01*
X47823380Y-124864809D02*
X46823380Y-124864809D01*
X46966238Y-124769571D01*
X47061476Y-124674333D01*
X47109095Y-124579095D01*
X46823380Y-126055285D02*
X46823380Y-125579095D01*
X47299571Y-125531476D01*
X47251952Y-125579095D01*
X47204333Y-125674333D01*
X47204333Y-125912428D01*
X47251952Y-126007666D01*
X47299571Y-126055285D01*
X47394809Y-126102904D01*
X47632904Y-126102904D01*
X47728142Y-126055285D01*
X47775761Y-126007666D01*
X47823380Y-125912428D01*
X47823380Y-125674333D01*
X47775761Y-125579095D01*
X47728142Y-125531476D01*
X28392380Y-126103142D02*
X27916190Y-125769809D01*
X28392380Y-125531714D02*
X27392380Y-125531714D01*
X27392380Y-125912666D01*
X27440000Y-126007904D01*
X27487619Y-126055523D01*
X27582857Y-126103142D01*
X27725714Y-126103142D01*
X27820952Y-126055523D01*
X27868571Y-126007904D01*
X27916190Y-125912666D01*
X27916190Y-125531714D01*
X28392380Y-127055523D02*
X28392380Y-126484095D01*
X28392380Y-126769809D02*
X27392380Y-126769809D01*
X27535238Y-126674571D01*
X27630476Y-126579333D01*
X27678095Y-126484095D01*
X27725714Y-127912666D02*
X28392380Y-127912666D01*
X27344761Y-127674571D02*
X28059047Y-127436476D01*
X28059047Y-128055523D01*
X42616380Y-113911142D02*
X42140190Y-113577809D01*
X42616380Y-113339714D02*
X41616380Y-113339714D01*
X41616380Y-113720666D01*
X41664000Y-113815904D01*
X41711619Y-113863523D01*
X41806857Y-113911142D01*
X41949714Y-113911142D01*
X42044952Y-113863523D01*
X42092571Y-113815904D01*
X42140190Y-113720666D01*
X42140190Y-113339714D01*
X42616380Y-114863523D02*
X42616380Y-114292095D01*
X42616380Y-114577809D02*
X41616380Y-114577809D01*
X41759238Y-114482571D01*
X41854476Y-114387333D01*
X41902095Y-114292095D01*
X41711619Y-115244476D02*
X41664000Y-115292095D01*
X41616380Y-115387333D01*
X41616380Y-115625428D01*
X41664000Y-115720666D01*
X41711619Y-115768285D01*
X41806857Y-115815904D01*
X41902095Y-115815904D01*
X42044952Y-115768285D01*
X42616380Y-115196857D01*
X42616380Y-115815904D01*
X35758357Y-116657380D02*
X36091690Y-116181190D01*
X36329785Y-116657380D02*
X36329785Y-115657380D01*
X35948833Y-115657380D01*
X35853595Y-115705000D01*
X35805976Y-115752619D01*
X35758357Y-115847857D01*
X35758357Y-115990714D01*
X35805976Y-116085952D01*
X35853595Y-116133571D01*
X35948833Y-116181190D01*
X36329785Y-116181190D01*
X34805976Y-116657380D02*
X35377404Y-116657380D01*
X35091690Y-116657380D02*
X35091690Y-115657380D01*
X35186928Y-115800238D01*
X35282166Y-115895476D01*
X35377404Y-115943095D01*
X33853595Y-116657380D02*
X34425023Y-116657380D01*
X34139309Y-116657380D02*
X34139309Y-115657380D01*
X34234547Y-115800238D01*
X34329785Y-115895476D01*
X34425023Y-115943095D01*
X43505380Y-108323142D02*
X43029190Y-107989809D01*
X43505380Y-107751714D02*
X42505380Y-107751714D01*
X42505380Y-108132666D01*
X42553000Y-108227904D01*
X42600619Y-108275523D01*
X42695857Y-108323142D01*
X42838714Y-108323142D01*
X42933952Y-108275523D01*
X42981571Y-108227904D01*
X43029190Y-108132666D01*
X43029190Y-107751714D01*
X43505380Y-109275523D02*
X43505380Y-108704095D01*
X43505380Y-108989809D02*
X42505380Y-108989809D01*
X42648238Y-108894571D01*
X42743476Y-108799333D01*
X42791095Y-108704095D01*
X42505380Y-109894571D02*
X42505380Y-109989809D01*
X42553000Y-110085047D01*
X42600619Y-110132666D01*
X42695857Y-110180285D01*
X42886333Y-110227904D01*
X43124428Y-110227904D01*
X43314904Y-110180285D01*
X43410142Y-110132666D01*
X43457761Y-110085047D01*
X43505380Y-109989809D01*
X43505380Y-109894571D01*
X43457761Y-109799333D01*
X43410142Y-109751714D01*
X43314904Y-109704095D01*
X43124428Y-109656476D01*
X42886333Y-109656476D01*
X42695857Y-109704095D01*
X42600619Y-109751714D01*
X42553000Y-109799333D01*
X42505380Y-109894571D01*
X32202380Y-108799333D02*
X31726190Y-108466000D01*
X32202380Y-108227904D02*
X31202380Y-108227904D01*
X31202380Y-108608857D01*
X31250000Y-108704095D01*
X31297619Y-108751714D01*
X31392857Y-108799333D01*
X31535714Y-108799333D01*
X31630952Y-108751714D01*
X31678571Y-108704095D01*
X31726190Y-108608857D01*
X31726190Y-108227904D01*
X32202380Y-109275523D02*
X32202380Y-109466000D01*
X32154761Y-109561238D01*
X32107142Y-109608857D01*
X31964285Y-109704095D01*
X31773809Y-109751714D01*
X31392857Y-109751714D01*
X31297619Y-109704095D01*
X31250000Y-109656476D01*
X31202380Y-109561238D01*
X31202380Y-109370761D01*
X31250000Y-109275523D01*
X31297619Y-109227904D01*
X31392857Y-109180285D01*
X31630952Y-109180285D01*
X31726190Y-109227904D01*
X31773809Y-109275523D01*
X31821428Y-109370761D01*
X31821428Y-109561238D01*
X31773809Y-109656476D01*
X31726190Y-109704095D01*
X31630952Y-109751714D01*
X48204380Y-117308333D02*
X47728190Y-116975000D01*
X48204380Y-116736904D02*
X47204380Y-116736904D01*
X47204380Y-117117857D01*
X47252000Y-117213095D01*
X47299619Y-117260714D01*
X47394857Y-117308333D01*
X47537714Y-117308333D01*
X47632952Y-117260714D01*
X47680571Y-117213095D01*
X47728190Y-117117857D01*
X47728190Y-116736904D01*
X47632952Y-117879761D02*
X47585333Y-117784523D01*
X47537714Y-117736904D01*
X47442476Y-117689285D01*
X47394857Y-117689285D01*
X47299619Y-117736904D01*
X47252000Y-117784523D01*
X47204380Y-117879761D01*
X47204380Y-118070238D01*
X47252000Y-118165476D01*
X47299619Y-118213095D01*
X47394857Y-118260714D01*
X47442476Y-118260714D01*
X47537714Y-118213095D01*
X47585333Y-118165476D01*
X47632952Y-118070238D01*
X47632952Y-117879761D01*
X47680571Y-117784523D01*
X47728190Y-117736904D01*
X47823428Y-117689285D01*
X48013904Y-117689285D01*
X48109142Y-117736904D01*
X48156761Y-117784523D01*
X48204380Y-117879761D01*
X48204380Y-118070238D01*
X48156761Y-118165476D01*
X48109142Y-118213095D01*
X48013904Y-118260714D01*
X47823428Y-118260714D01*
X47728190Y-118213095D01*
X47680571Y-118165476D01*
X47632952Y-118070238D01*
X26741380Y-114641333D02*
X26265190Y-114308000D01*
X26741380Y-114069904D02*
X25741380Y-114069904D01*
X25741380Y-114450857D01*
X25789000Y-114546095D01*
X25836619Y-114593714D01*
X25931857Y-114641333D01*
X26074714Y-114641333D01*
X26169952Y-114593714D01*
X26217571Y-114546095D01*
X26265190Y-114450857D01*
X26265190Y-114069904D01*
X25741380Y-114974666D02*
X25741380Y-115641333D01*
X26741380Y-115212761D01*
X48204380Y-109180333D02*
X47728190Y-108847000D01*
X48204380Y-108608904D02*
X47204380Y-108608904D01*
X47204380Y-108989857D01*
X47252000Y-109085095D01*
X47299619Y-109132714D01*
X47394857Y-109180333D01*
X47537714Y-109180333D01*
X47632952Y-109132714D01*
X47680571Y-109085095D01*
X47728190Y-108989857D01*
X47728190Y-108608904D01*
X47204380Y-110037476D02*
X47204380Y-109847000D01*
X47252000Y-109751761D01*
X47299619Y-109704142D01*
X47442476Y-109608904D01*
X47632952Y-109561285D01*
X48013904Y-109561285D01*
X48109142Y-109608904D01*
X48156761Y-109656523D01*
X48204380Y-109751761D01*
X48204380Y-109942238D01*
X48156761Y-110037476D01*
X48109142Y-110085095D01*
X48013904Y-110132714D01*
X47775809Y-110132714D01*
X47680571Y-110085095D01*
X47632952Y-110037476D01*
X47585333Y-109942238D01*
X47585333Y-109751761D01*
X47632952Y-109656523D01*
X47680571Y-109608904D01*
X47775809Y-109561285D01*
X46680380Y-117435333D02*
X46204190Y-117102000D01*
X46680380Y-116863904D02*
X45680380Y-116863904D01*
X45680380Y-117244857D01*
X45728000Y-117340095D01*
X45775619Y-117387714D01*
X45870857Y-117435333D01*
X46013714Y-117435333D01*
X46108952Y-117387714D01*
X46156571Y-117340095D01*
X46204190Y-117244857D01*
X46204190Y-116863904D01*
X45680380Y-118340095D02*
X45680380Y-117863904D01*
X46156571Y-117816285D01*
X46108952Y-117863904D01*
X46061333Y-117959142D01*
X46061333Y-118197238D01*
X46108952Y-118292476D01*
X46156571Y-118340095D01*
X46251809Y-118387714D01*
X46489904Y-118387714D01*
X46585142Y-118340095D01*
X46632761Y-118292476D01*
X46680380Y-118197238D01*
X46680380Y-117959142D01*
X46632761Y-117863904D01*
X46585142Y-117816285D01*
X28011380Y-114641333D02*
X27535190Y-114308000D01*
X28011380Y-114069904D02*
X27011380Y-114069904D01*
X27011380Y-114450857D01*
X27059000Y-114546095D01*
X27106619Y-114593714D01*
X27201857Y-114641333D01*
X27344714Y-114641333D01*
X27439952Y-114593714D01*
X27487571Y-114546095D01*
X27535190Y-114450857D01*
X27535190Y-114069904D01*
X27344714Y-115498476D02*
X28011380Y-115498476D01*
X26963761Y-115260380D02*
X27678047Y-115022285D01*
X27678047Y-115641333D01*
X46680380Y-109180333D02*
X46204190Y-108847000D01*
X46680380Y-108608904D02*
X45680380Y-108608904D01*
X45680380Y-108989857D01*
X45728000Y-109085095D01*
X45775619Y-109132714D01*
X45870857Y-109180333D01*
X46013714Y-109180333D01*
X46108952Y-109132714D01*
X46156571Y-109085095D01*
X46204190Y-108989857D01*
X46204190Y-108608904D01*
X45680380Y-109513666D02*
X45680380Y-110132714D01*
X46061333Y-109799380D01*
X46061333Y-109942238D01*
X46108952Y-110037476D01*
X46156571Y-110085095D01*
X46251809Y-110132714D01*
X46489904Y-110132714D01*
X46585142Y-110085095D01*
X46632761Y-110037476D01*
X46680380Y-109942238D01*
X46680380Y-109656523D01*
X46632761Y-109561285D01*
X46585142Y-109513666D01*
X29154380Y-108799333D02*
X28678190Y-108466000D01*
X29154380Y-108227904D02*
X28154380Y-108227904D01*
X28154380Y-108608857D01*
X28202000Y-108704095D01*
X28249619Y-108751714D01*
X28344857Y-108799333D01*
X28487714Y-108799333D01*
X28582952Y-108751714D01*
X28630571Y-108704095D01*
X28678190Y-108608857D01*
X28678190Y-108227904D01*
X28249619Y-109180285D02*
X28202000Y-109227904D01*
X28154380Y-109323142D01*
X28154380Y-109561238D01*
X28202000Y-109656476D01*
X28249619Y-109704095D01*
X28344857Y-109751714D01*
X28440095Y-109751714D01*
X28582952Y-109704095D01*
X29154380Y-109132666D01*
X29154380Y-109751714D01*
X30678380Y-108799333D02*
X30202190Y-108466000D01*
X30678380Y-108227904D02*
X29678380Y-108227904D01*
X29678380Y-108608857D01*
X29726000Y-108704095D01*
X29773619Y-108751714D01*
X29868857Y-108799333D01*
X30011714Y-108799333D01*
X30106952Y-108751714D01*
X30154571Y-108704095D01*
X30202190Y-108608857D01*
X30202190Y-108227904D01*
X30678380Y-109751714D02*
X30678380Y-109180285D01*
X30678380Y-109466000D02*
X29678380Y-109466000D01*
X29821238Y-109370761D01*
X29916476Y-109275523D01*
X29964095Y-109180285D01*
X41282857Y-125833142D02*
X41330476Y-125880761D01*
X41473333Y-125928380D01*
X41568571Y-125928380D01*
X41711428Y-125880761D01*
X41806666Y-125785523D01*
X41854285Y-125690285D01*
X41901904Y-125499809D01*
X41901904Y-125356952D01*
X41854285Y-125166476D01*
X41806666Y-125071238D01*
X41711428Y-124976000D01*
X41568571Y-124928380D01*
X41473333Y-124928380D01*
X41330476Y-124976000D01*
X41282857Y-125023619D01*
X40901904Y-125023619D02*
X40854285Y-124976000D01*
X40759047Y-124928380D01*
X40520952Y-124928380D01*
X40425714Y-124976000D01*
X40378095Y-125023619D01*
X40330476Y-125118857D01*
X40330476Y-125214095D01*
X40378095Y-125356952D01*
X40949523Y-125928380D01*
X40330476Y-125928380D01*
X39425714Y-124928380D02*
X39901904Y-124928380D01*
X39949523Y-125404571D01*
X39901904Y-125356952D01*
X39806666Y-125309333D01*
X39568571Y-125309333D01*
X39473333Y-125356952D01*
X39425714Y-125404571D01*
X39378095Y-125499809D01*
X39378095Y-125737904D01*
X39425714Y-125833142D01*
X39473333Y-125880761D01*
X39568571Y-125928380D01*
X39806666Y-125928380D01*
X39901904Y-125880761D01*
X39949523Y-125833142D01*
X43838857Y-127007857D02*
X43791238Y-127055476D01*
X43743619Y-127198333D01*
X43743619Y-127293571D01*
X43791238Y-127436428D01*
X43886476Y-127531666D01*
X43981714Y-127579285D01*
X44172190Y-127626904D01*
X44315047Y-127626904D01*
X44505523Y-127579285D01*
X44600761Y-127531666D01*
X44696000Y-127436428D01*
X44743619Y-127293571D01*
X44743619Y-127198333D01*
X44696000Y-127055476D01*
X44648380Y-127007857D01*
X44648380Y-126626904D02*
X44696000Y-126579285D01*
X44743619Y-126484047D01*
X44743619Y-126245952D01*
X44696000Y-126150714D01*
X44648380Y-126103095D01*
X44553142Y-126055476D01*
X44457904Y-126055476D01*
X44315047Y-126103095D01*
X43743619Y-126674523D01*
X43743619Y-126055476D01*
X43743619Y-125103095D02*
X43743619Y-125674523D01*
X43743619Y-125388809D02*
X44743619Y-125388809D01*
X44600761Y-125484047D01*
X44505523Y-125579285D01*
X44457904Y-125674523D01*
X30995857Y-122086642D02*
X31043476Y-122134261D01*
X31186333Y-122181880D01*
X31281571Y-122181880D01*
X31424428Y-122134261D01*
X31519666Y-122039023D01*
X31567285Y-121943785D01*
X31614904Y-121753309D01*
X31614904Y-121610452D01*
X31567285Y-121419976D01*
X31519666Y-121324738D01*
X31424428Y-121229500D01*
X31281571Y-121181880D01*
X31186333Y-121181880D01*
X31043476Y-121229500D01*
X30995857Y-121277119D01*
X30614904Y-121277119D02*
X30567285Y-121229500D01*
X30472047Y-121181880D01*
X30233952Y-121181880D01*
X30138714Y-121229500D01*
X30091095Y-121277119D01*
X30043476Y-121372357D01*
X30043476Y-121467595D01*
X30091095Y-121610452D01*
X30662523Y-122181880D01*
X30043476Y-122181880D01*
X29424428Y-121181880D02*
X29329190Y-121181880D01*
X29233952Y-121229500D01*
X29186333Y-121277119D01*
X29138714Y-121372357D01*
X29091095Y-121562833D01*
X29091095Y-121800928D01*
X29138714Y-121991404D01*
X29186333Y-122086642D01*
X29233952Y-122134261D01*
X29329190Y-122181880D01*
X29424428Y-122181880D01*
X29519666Y-122134261D01*
X29567285Y-122086642D01*
X29614904Y-121991404D01*
X29662523Y-121800928D01*
X29662523Y-121562833D01*
X29614904Y-121372357D01*
X29567285Y-121277119D01*
X29519666Y-121229500D01*
X29424428Y-121181880D01*
X48998142Y-105783142D02*
X49045761Y-105735523D01*
X49093380Y-105592666D01*
X49093380Y-105497428D01*
X49045761Y-105354571D01*
X48950523Y-105259333D01*
X48855285Y-105211714D01*
X48664809Y-105164095D01*
X48521952Y-105164095D01*
X48331476Y-105211714D01*
X48236238Y-105259333D01*
X48141000Y-105354571D01*
X48093380Y-105497428D01*
X48093380Y-105592666D01*
X48141000Y-105735523D01*
X48188619Y-105783142D01*
X49093380Y-106735523D02*
X49093380Y-106164095D01*
X49093380Y-106449809D02*
X48093380Y-106449809D01*
X48236238Y-106354571D01*
X48331476Y-106259333D01*
X48379095Y-106164095D01*
X48093380Y-107068857D02*
X48093380Y-107735523D01*
X49093380Y-107306952D01*
X27391142Y-103751142D02*
X27438761Y-103703523D01*
X27486380Y-103560666D01*
X27486380Y-103465428D01*
X27438761Y-103322571D01*
X27343523Y-103227333D01*
X27248285Y-103179714D01*
X27057809Y-103132095D01*
X26914952Y-103132095D01*
X26724476Y-103179714D01*
X26629238Y-103227333D01*
X26534000Y-103322571D01*
X26486380Y-103465428D01*
X26486380Y-103560666D01*
X26534000Y-103703523D01*
X26581619Y-103751142D01*
X27486380Y-104703523D02*
X27486380Y-104132095D01*
X27486380Y-104417809D02*
X26486380Y-104417809D01*
X26629238Y-104322571D01*
X26724476Y-104227333D01*
X26772095Y-104132095D01*
X26486380Y-105560666D02*
X26486380Y-105370190D01*
X26534000Y-105274952D01*
X26581619Y-105227333D01*
X26724476Y-105132095D01*
X26914952Y-105084476D01*
X27295904Y-105084476D01*
X27391142Y-105132095D01*
X27438761Y-105179714D01*
X27486380Y-105274952D01*
X27486380Y-105465428D01*
X27438761Y-105560666D01*
X27391142Y-105608285D01*
X27295904Y-105655904D01*
X27057809Y-105655904D01*
X26962571Y-105608285D01*
X26914952Y-105560666D01*
X26867333Y-105465428D01*
X26867333Y-105274952D01*
X26914952Y-105179714D01*
X26962571Y-105132095D01*
X27057809Y-105084476D01*
X45823142Y-115149333D02*
X45870761Y-115101714D01*
X45918380Y-114958857D01*
X45918380Y-114863619D01*
X45870761Y-114720761D01*
X45775523Y-114625523D01*
X45680285Y-114577904D01*
X45489809Y-114530285D01*
X45346952Y-114530285D01*
X45156476Y-114577904D01*
X45061238Y-114625523D01*
X44966000Y-114720761D01*
X44918380Y-114863619D01*
X44918380Y-114958857D01*
X44966000Y-115101714D01*
X45013619Y-115149333D01*
X45346952Y-115720761D02*
X45299333Y-115625523D01*
X45251714Y-115577904D01*
X45156476Y-115530285D01*
X45108857Y-115530285D01*
X45013619Y-115577904D01*
X44966000Y-115625523D01*
X44918380Y-115720761D01*
X44918380Y-115911238D01*
X44966000Y-116006476D01*
X45013619Y-116054095D01*
X45108857Y-116101714D01*
X45156476Y-116101714D01*
X45251714Y-116054095D01*
X45299333Y-116006476D01*
X45346952Y-115911238D01*
X45346952Y-115720761D01*
X45394571Y-115625523D01*
X45442190Y-115577904D01*
X45537428Y-115530285D01*
X45727904Y-115530285D01*
X45823142Y-115577904D01*
X45870761Y-115625523D01*
X45918380Y-115720761D01*
X45918380Y-115911238D01*
X45870761Y-116006476D01*
X45823142Y-116054095D01*
X45727904Y-116101714D01*
X45537428Y-116101714D01*
X45442190Y-116054095D01*
X45394571Y-116006476D01*
X45346952Y-115911238D01*
X33885142Y-116800333D02*
X33932761Y-116752714D01*
X33980380Y-116609857D01*
X33980380Y-116514619D01*
X33932761Y-116371761D01*
X33837523Y-116276523D01*
X33742285Y-116228904D01*
X33551809Y-116181285D01*
X33408952Y-116181285D01*
X33218476Y-116228904D01*
X33123238Y-116276523D01*
X33028000Y-116371761D01*
X32980380Y-116514619D01*
X32980380Y-116609857D01*
X33028000Y-116752714D01*
X33075619Y-116800333D01*
X32980380Y-117133666D02*
X32980380Y-117800333D01*
X33980380Y-117371761D01*
X45061142Y-109180333D02*
X45108761Y-109132714D01*
X45156380Y-108989857D01*
X45156380Y-108894619D01*
X45108761Y-108751761D01*
X45013523Y-108656523D01*
X44918285Y-108608904D01*
X44727809Y-108561285D01*
X44584952Y-108561285D01*
X44394476Y-108608904D01*
X44299238Y-108656523D01*
X44204000Y-108751761D01*
X44156380Y-108894619D01*
X44156380Y-108989857D01*
X44204000Y-109132714D01*
X44251619Y-109180333D01*
X44156380Y-110037476D02*
X44156380Y-109847000D01*
X44204000Y-109751761D01*
X44251619Y-109704142D01*
X44394476Y-109608904D01*
X44584952Y-109561285D01*
X44965904Y-109561285D01*
X45061142Y-109608904D01*
X45108761Y-109656523D01*
X45156380Y-109751761D01*
X45156380Y-109942238D01*
X45108761Y-110037476D01*
X45061142Y-110085095D01*
X44965904Y-110132714D01*
X44727809Y-110132714D01*
X44632571Y-110085095D01*
X44584952Y-110037476D01*
X44537333Y-109942238D01*
X44537333Y-109751761D01*
X44584952Y-109656523D01*
X44632571Y-109608904D01*
X44727809Y-109561285D01*
X33758142Y-108799333D02*
X33805761Y-108751714D01*
X33853380Y-108608857D01*
X33853380Y-108513619D01*
X33805761Y-108370761D01*
X33710523Y-108275523D01*
X33615285Y-108227904D01*
X33424809Y-108180285D01*
X33281952Y-108180285D01*
X33091476Y-108227904D01*
X32996238Y-108275523D01*
X32901000Y-108370761D01*
X32853380Y-108513619D01*
X32853380Y-108608857D01*
X32901000Y-108751714D01*
X32948619Y-108799333D01*
X32853380Y-109704095D02*
X32853380Y-109227904D01*
X33329571Y-109180285D01*
X33281952Y-109227904D01*
X33234333Y-109323142D01*
X33234333Y-109561238D01*
X33281952Y-109656476D01*
X33329571Y-109704095D01*
X33424809Y-109751714D01*
X33662904Y-109751714D01*
X33758142Y-109704095D01*
X33805761Y-109656476D01*
X33853380Y-109561238D01*
X33853380Y-109323142D01*
X33805761Y-109227904D01*
X33758142Y-109180285D01*
X35663166Y-106529142D02*
X35710785Y-106576761D01*
X35853642Y-106624380D01*
X35948880Y-106624380D01*
X36091738Y-106576761D01*
X36186976Y-106481523D01*
X36234595Y-106386285D01*
X36282214Y-106195809D01*
X36282214Y-106052952D01*
X36234595Y-105862476D01*
X36186976Y-105767238D01*
X36091738Y-105672000D01*
X35948880Y-105624380D01*
X35853642Y-105624380D01*
X35710785Y-105672000D01*
X35663166Y-105719619D01*
X34710785Y-106624380D02*
X35282214Y-106624380D01*
X34996500Y-106624380D02*
X34996500Y-105624380D01*
X35091738Y-105767238D01*
X35186976Y-105862476D01*
X35282214Y-105910095D01*
M02*
